0
SECTION
2
HEADER
9
$ANGDIR
70
0
9
$CHAMFERA
40
10
9
$CHAMFERB
40
10
9
$CLAYER
8
Layer_1
9
$EXTMAX
10
395.148
20
205
9
$EXTMIN
10
25.8505
20
93
9
$LIMMAX
10
420
20
297
9
$LIMMIN
10
0
20
0
9
$LTSCALE
40
10
9
$PLINEGEN
70
0
9
$TEXTSIZE
40
20
9
$GRIDUNIT
10
10
20
10
9
$SNAPUNIT
10
1
20
1
0
ENDSEC
0
SECTION
2
TABLES
0
TABLE
2
STYLE
70
1
0
STYLE
2
STANDARD
70
0
40
0
41
1
50
0
71
0
42
0.2
3
txt
4

0
ENDTAB
0
TABLE
2
LTYPE
70
14
0
LTYPE
2
CONTINUOUS
70
0
3
Solid line
72
65
73
0
40
0
0
LTYPE
2
DOT
70
0
3
............................................
72
65
73
2
40
0.25
49
0
49
-0.25
0
LTYPE
2
HIDDEN
70
0
3
_ _ _ _ _ _ _ _ _ _ _ _ _ _ _ _ _ _ _ _ _ _ 
72
65
73
2
40
0.375
49
0.25
49
-0.125
0
LTYPE
2
TSLONGDASH
70
0
3
__ __ __ __ __ __ __ __ __ __ __ __ __ __ _ 
72
65
73
2
40
1.28
49
1
49
-0.28
0
LTYPE
2
TSDASHDOT
70
0
3
______ . ______ . ______ . ______ . ______ .
72
65
73
4
40
1.28
49
1
49
-0.14
49
0
49
-0.14
0
LTYPE
2
TSCENTER
70
0
3
______ _ ______ _ ______ _ ______ _ ______ _
72
65
73
4
40
2
49
1.5
49
-0.18
49
0.14
49
-0.18
0
LTYPE
2
TSPHANTOM
70
0
3
_____ _ _ _____ _ _ _____ _ _ _____ _ _ ____
72
65
73
6
40
2.5
49
1.63
49
-0.19
49
0.15
49
-0.19
49
0.15
49
-0.19
0
LTYPE
2
DASHED
70
0
3
__ __ __ __ __ __ __ __ __ __ __ __ __ __ __
72
65
73
2
40
0.75
49
0.5
49
-0.25
0
LTYPE
2
CENTER
70
0
3
____ _ ____ _ ____ _ ____ _ ____ _ ____ _ __
72
65
73
4
40
2
49
1.25
49
-0.25
49
0.25
49
-0.25
0
LTYPE
2
PHANTOM
70
0
3
_____ _ _ _____ _ _ _____ _ _ _____ _ _ ____
72
65
73
6
40
2.5
49
1.25
49
-0.25
49
0.25
49
-0.25
49
0.25
49
-0.25
0
LTYPE
2
DASHDOT
70
0
3
__ . __ . __ . __ . __ . __ . __ . __ . __ .
72
65
73
4
40
1
49
0.5
49
-0.25
49
0
49
-0.25
0
LTYPE
2
BORDER
70
0
3
__ __ . __ __ . __ __ . __ __ . __ __ . __ _
72
65
73
6
40
1.75
49
0.5
49
-0.25
49
0.5
49
-0.25
49
0
49
-0.25
0
LTYPE
2
DIVIDE
70
0
3
__ . . __ . . __ . . __ . . __ . . __ . . __
72
65
73
6
40
1.25
49
0.5
49
-0.25
49
0
49
-0.25
49
0
49
-0.25
0
ENDTAB
0
TABLE
2
LAYER
70
4
0
LAYER
2
Layer_1
70
0
62
7
6
CONTINUOUS
0
LAYER
2
Layer_2
70
0
62
7
6
CONTINUOUS
0
LAYER
2
Layer_3
70
0
62
7
6
CONTINUOUS
0
LAYER
2
0
70
0
62
7
6
CONTINUOUS
0
ENDTAB
0
ENDSEC
0
SECTION
2
ENTITIES
0
CIRCLE
8
0
6
CONTINUOUS
62
7
10
117.25
20
201.5
40
1.3
0
CIRCLE
8
0
6
CONTINUOUS
62
7
10
210.5
20
201.5
40
1.3
0
CIRCLE
8
0
6
CONTINUOUS
62
7
10
303.75
20
201.5
40
1.3
0
CIRCLE
8
0
6
CONTINUOUS
62
7
10
380.5
20
201.5
40
1.3
0
CIRCLE
8
0
6
CONTINUOUS
62
7
10
380
20
96.5
40
1.3
0
CIRCLE
8
0
6
CONTINUOUS
62
7
10
303.75
20
96.5
40
1.3
0
CIRCLE
8
0
6
CONTINUOUS
62
7
10
210.5
20
96.5
40
1.3
0
CIRCLE
8
0
6
CONTINUOUS
62
7
10
117.25
20
96.5
40
1.3
0
CIRCLE
8
0
6
CONTINUOUS
62
7
10
41
20
201.5
40
1.3
0
CIRCLE
8
0
6
CONTINUOUS
62
7
10
41
20
96.5
40
1.3
0
LINE
8
0
6
CONTINUOUS
62
7
10
49.5
20
96.5
11
50.9142
21
97.9142
0
LINE
8
0
6
CONTINUOUS
62
7
10
108.75
20
96.5
11
107.336
21
97.9142
0
LINE
8
0
6
CONTINUOUS
62
7
10
36
20
93
11
35.75
21
93
0
LINE
8
0
6
CONTINUOUS
62
7
10
36
20
205
11
35.75
21
205
0
LINE
8
0
6
CONTINUOUS
62
7
10
35.75
20
205
11
25.8505
21
195.101
0
LINE
8
0
6
CONTINUOUS
62
7
10
371.5
20
96.5
11
370.086
21
97.9142
0
LINE
8
0
6
CONTINUOUS
62
7
10
35.75
20
93
11
25.8505
21
102.899
0
LINE
8
0
6
CONTINUOUS
62
7
10
125.75
20
96.5
11
127.164
21
97.9142
0
LINE
8
0
6
CONTINUOUS
62
7
10
202
20
96.5
11
200.586
21
97.9142
0
LINE
8
0
6
CONTINUOUS
62
7
10
219
20
96.5
11
220.414
21
97.9142
0
LINE
8
0
6
CONTINUOUS
62
7
10
25.8505
20
195.101
11
25.8505
21
102.899
0
LINE
8
0
6
CONTINUOUS
62
7
10
295.25
20
96.5
11
293.836
21
97.9142
0
LINE
8
0
6
CONTINUOUS
62
7
10
385
20
93
11
385.25
21
93
0
LINE
8
0
6
CONTINUOUS
62
7
10
385.25
20
93
11
395.148
21
102.898
0
LINE
8
0
6
CONTINUOUS
62
7
10
385
20
205
11
385.25
21
205
0
LINE
8
0
6
CONTINUOUS
62
7
10
385.25
20
205
11
395.148
21
195.102
0
LINE
8
0
6
CONTINUOUS
62
7
10
395.148
20
195.102
11
395.148
21
102.898
0
LINE
8
0
6
CONTINUOUS
62
7
10
312.25
20
96.5
11
313.664
21
97.9142
0
LINE
8
0
6
CONTINUOUS
62
7
10
313.664
20
200.086
11
370.086
21
200.086
0
LINE
8
0
6
CONTINUOUS
62
7
10
220.414
20
200.086
11
293.836
21
200.086
0
LINE
8
0
6
CONTINUOUS
62
7
10
295.25
20
201.5
11
293.836
21
200.086
0
LINE
8
0
6
CONTINUOUS
62
7
10
50.9142
20
97.9142
11
107.336
21
97.9142
0
LINE
8
0
6
CONTINUOUS
62
7
10
49.5
20
201.5
11
50.9142
21
200.086
0
LINE
8
0
6
CONTINUOUS
62
7
10
108.75
20
201.5
11
107.336
21
200.086
0
LINE
8
0
6
CONTINUOUS
62
7
10
125.75
20
201.5
11
127.164
21
200.086
0
LINE
8
0
6
CONTINUOUS
62
7
10
202
20
201.5
11
200.586
21
200.086
0
LINE
8
0
6
CONTINUOUS
62
7
10
219
20
201.5
11
220.414
21
200.086
0
LINE
8
0
6
CONTINUOUS
62
7
10
127.164
20
97.9142
11
200.586
21
97.9142
0
LINE
8
0
6
CONTINUOUS
62
7
10
312.25
20
201.5
11
313.664
21
200.086
0
LINE
8
0
6
CONTINUOUS
62
7
10
371.5
20
201.5
11
370.086
21
200.086
0
LINE
8
0
6
CONTINUOUS
62
7
10
220.414
20
97.9142
11
293.836
21
97.9142
0
LINE
8
0
6
CONTINUOUS
62
7
10
313.664
20
97.9142
11
370.086
21
97.9142
0
LINE
8
0
6
CONTINUOUS
62
7
10
50.9142
20
200.086
11
107.336
21
200.086
0
LINE
8
0
6
CONTINUOUS
62
7
10
127.164
20
200.086
11
200.586
21
200.086
0
LINE
8
0
6
CONTINUOUS
62
7
10
36
20
205
11
46
21
205
0
LINE
8
0
6
CONTINUOUS
62
7
10
112.25
20
205
11
122.25
21
205
0
LINE
8
0
6
CONTINUOUS
62
7
10
205.5
20
205
11
215.5
21
205
0
LINE
8
0
6
CONTINUOUS
62
7
10
298.75
20
205
11
308.75
21
205
0
LINE
8
0
6
CONTINUOUS
62
7
10
375
20
205
11
385
21
205
0
LINE
8
0
6
CONTINUOUS
62
7
10
385
20
93
11
375
21
93
0
LINE
8
0
6
CONTINUOUS
62
7
10
308.75
20
93
11
298.75
21
93
0
LINE
8
0
6
CONTINUOUS
62
7
10
215.5
20
93
11
205.5
21
93
0
LINE
8
0
6
CONTINUOUS
62
7
10
122.25
20
93
11
112.25
21
93
0
LINE
8
0
6
CONTINUOUS
62
7
10
46
20
93
11
36
21
93
0
LINE
8
0
6
CONTINUOUS
62
7
10
202
20
201.5
11
205.5
21
205
0
LINE
8
0
6
CONTINUOUS
62
7
10
215.5
20
205
11
219
21
201.5
0
LINE
8
0
6
CONTINUOUS
62
7
10
46
20
205
11
49.5
21
201.5
0
LINE
8
0
6
CONTINUOUS
62
7
10
375
20
205
11
371.5
21
201.5
0
LINE
8
0
6
CONTINUOUS
62
7
10
46
20
93
11
49.5
21
96.5
0
LINE
8
0
6
CONTINUOUS
62
7
10
202
20
96.5
11
205.5
21
93
0
LINE
8
0
6
CONTINUOUS
62
7
10
215.5
20
93
11
219
21
96.5
0
LINE
8
0
6
CONTINUOUS
62
7
10
371.5
20
96.5
11
375
21
93
0
LINE
8
0
6
CONTINUOUS
62
7
10
312.25
20
96.5
11
308.75
21
93
0
LINE
8
0
6
CONTINUOUS
62
7
10
295.25
20
96.5
11
298.75
21
93
0
LINE
8
0
6
CONTINUOUS
62
7
10
108.75
20
96.5
11
112.25
21
93
0
LINE
8
0
6
CONTINUOUS
62
7
10
122.25
20
93
11
125.75
21
96.5
0
LINE
8
0
6
CONTINUOUS
62
7
10
298.75
20
205
11
295.25
21
201.5
0
LINE
8
0
6
CONTINUOUS
62
7
10
308.75
20
205
11
312.25
21
201.5
0
LINE
8
0
6
CONTINUOUS
62
7
10
108.75
20
201.5
11
112.25
21
205
0
LINE
8
0
6
CONTINUOUS
62
7
10
122.25
20
205
11
125.75
21
201.5
0
LINE
8
0
6
CONTINUOUS
62
7
10
309.888
20
144.942
11
310.012
21
144.942
0
LINE
8
0
6
CONTINUOUS
62
7
10
310.012
20
144.942
11
310.012
21
148.467
0
LINE
8
0
6
CONTINUOUS
62
7
10
301.712
20
142.568
11
302.439
21
142.568
0
LINE
8
0
6
CONTINUOUS
62
7
10
207.189
20
113.168
11
207.189
21
108.569
0
LINE
8
0
6
CONTINUOUS
62
7
10
381.52
20
136.493
11
381.52
21
136.318
0
LINE
8
0
6
CONTINUOUS
62
7
10
381.52
20
136.318
11
374.22
21
136.318
0
LINE
8
0
6
CONTINUOUS
62
7
10
374.22
20
136.318
11
374.22
21
123.518
0
LINE
8
0
6
CONTINUOUS
62
7
10
374.22
20
123.518
11
375.619
21
123.518
0
LINE
8
0
6
CONTINUOUS
62
7
10
375.619
20
123.518
11
375.619
21
117.268
0
LINE
8
0
6
CONTINUOUS
62
7
10
375.619
20
117.268
11
374.22
21
117.268
0
LINE
8
0
6
CONTINUOUS
62
7
10
374.22
20
117.268
11
374.22
21
104.468
0
LINE
8
0
6
CONTINUOUS
62
7
10
374.22
20
104.468
11
381.52
21
104.468
0
LINE
8
0
6
CONTINUOUS
62
7
10
381.52
20
104.468
11
381.52
21
104.293
0
LINE
8
0
6
CONTINUOUS
62
7
10
381.52
20
104.293
11
384.32
21
104.293
0
LINE
8
0
6
CONTINUOUS
62
7
10
384.32
20
104.293
11
384.32
21
104.468
0
LINE
8
0
6
CONTINUOUS
62
7
10
384.32
20
104.468
11
389.82
21
104.468
0
LINE
8
0
6
CONTINUOUS
62
7
10
389.82
20
104.468
11
389.82
21
117.268
0
LINE
8
0
6
CONTINUOUS
62
7
10
389.82
20
117.268
11
388.42
21
117.268
0
LINE
8
0
6
CONTINUOUS
62
7
10
388.42
20
117.268
11
388.42
21
123.518
0
LINE
8
0
6
CONTINUOUS
62
7
10
388.42
20
123.518
11
389.82
21
123.518
0
LINE
8
0
6
CONTINUOUS
62
7
10
389.82
20
123.518
11
389.82
21
136.318
0
LINE
8
0
6
CONTINUOUS
62
7
10
389.82
20
136.318
11
384.32
21
136.318
0
LINE
8
0
6
CONTINUOUS
62
7
10
384.32
20
136.318
11
384.32
21
136.493
0
LINE
8
0
6
CONTINUOUS
62
7
10
384.32
20
136.493
11
381.52
21
136.493
0
LINE
8
0
6
CONTINUOUS
62
7
10
94.6192
20
118.617
11
94.6192
21
117.637
0
LINE
8
0
6
CONTINUOUS
62
7
10
94.6192
20
117.637
11
92.8938
21
117.637
0
LINE
8
0
6
CONTINUOUS
62
7
10
92.8938
20
117.637
11
92.8938
21
117.268
0
LINE
8
0
6
CONTINUOUS
62
7
10
92.8938
20
117.268
11
81.3252
21
117.268
0
LINE
8
0
6
CONTINUOUS
62
7
10
80.2573
20
117.268
11
81.3252
21
117.268
0
LINE
8
0
6
CONTINUOUS
62
7
10
81.3252
20
104.468
11
94.6192
21
104.468
0
LINE
8
0
6
CONTINUOUS
62
7
10
94.6192
20
104.468
11
94.6192
21
104.418
0
LINE
8
0
6
CONTINUOUS
62
7
10
94.6192
20
104.418
11
97.9181
21
104.418
0
LINE
8
0
6
CONTINUOUS
62
7
10
97.9181
20
104.418
11
97.9181
21
104.468
0
LINE
8
0
6
CONTINUOUS
62
7
10
97.9181
20
104.468
11
99.3073
21
104.468
0
LINE
8
0
6
CONTINUOUS
62
7
10
99.3073
20
104.468
11
99.3073
21
105.337
0
LINE
8
0
6
CONTINUOUS
62
7
10
99.3073
20
105.337
11
99.6435
21
105.337
0
LINE
8
0
6
CONTINUOUS
62
7
10
99.6435
20
105.337
11
99.6435
21
108.567
0
LINE
8
0
6
CONTINUOUS
62
7
10
213.945
20
113.168
11
213.945
21
108.569
0
LINE
8
0
6
CONTINUOUS
62
7
10
107.188
20
108.567
11
107.188
21
105.337
0
LINE
8
0
6
CONTINUOUS
62
7
10
107.188
20
105.337
11
108.912
21
105.337
0
LINE
8
0
6
CONTINUOUS
62
7
10
108.912
20
105.337
11
108.912
21
104.418
0
LINE
8
0
6
CONTINUOUS
62
7
10
108.912
20
104.418
11
112.213
21
104.418
0
LINE
8
0
6
CONTINUOUS
62
7
10
112.213
20
104.418
11
112.213
21
105.337
0
LINE
8
0
6
CONTINUOUS
62
7
10
112.213
20
105.337
11
113.669
21
105.337
0
LINE
8
0
6
CONTINUOUS
62
7
10
113.669
20
105.337
11
113.669
21
104.418
0
LINE
8
0
6
CONTINUOUS
62
7
10
113.669
20
104.418
11
116.97
21
104.418
0
LINE
8
0
6
CONTINUOUS
62
7
10
116.97
20
104.418
11
116.97
21
105.337
0
LINE
8
0
6
CONTINUOUS
62
7
10
116.97
20
105.337
11
118.695
21
105.337
0
LINE
8
0
6
CONTINUOUS
62
7
10
118.695
20
105.337
11
118.695
21
108.567
0
LINE
8
0
6
CONTINUOUS
62
7
10
224.2
20
108.569
11
224.2
21
113.168
0
LINE
8
0
6
CONTINUOUS
62
7
10
145.619
20
108.567
11
145.619
21
104.468
0
LINE
8
0
6
CONTINUOUS
62
7
10
145.619
20
104.468
11
180.27
21
104.468
0
LINE
8
0
6
CONTINUOUS
62
7
10
180.27
20
104.468
11
180.27
21
108.569
0
LINE
8
0
6
CONTINUOUS
62
7
10
118.695
20
113.167
11
118.695
21
108.567
0
LINE
8
0
6
CONTINUOUS
62
7
10
207.189
20
108.569
11
207.189
21
105.337
0
LINE
8
0
6
CONTINUOUS
62
7
10
207.189
20
105.337
11
208.912
21
105.337
0
LINE
8
0
6
CONTINUOUS
62
7
10
208.912
20
105.337
11
208.912
21
104.418
0
LINE
8
0
6
CONTINUOUS
62
7
10
208.912
20
104.418
11
212.219
21
104.418
0
LINE
8
0
6
CONTINUOUS
62
7
10
212.219
20
104.418
11
212.219
21
105.337
0
LINE
8
0
6
CONTINUOUS
62
7
10
212.219
20
105.337
11
213.938
21
105.337
0
LINE
8
0
6
CONTINUOUS
62
7
10
213.938
20
105.337
11
213.938
21
105.338
0
LINE
8
0
6
CONTINUOUS
62
7
10
213.938
20
105.338
11
213.945
21
105.338
0
LINE
8
0
6
CONTINUOUS
62
7
10
213.945
20
105.338
11
213.945
21
108.569
0
LINE
8
0
6
CONTINUOUS
62
7
10
145.619
20
113.167
11
145.619
21
108.567
0
LINE
8
0
6
CONTINUOUS
62
7
10
224.2
20
108.569
11
224.2
21
104.468
0
LINE
8
0
6
CONTINUOUS
62
7
10
224.2
20
104.468
11
227.969
21
104.468
0
LINE
8
0
6
CONTINUOUS
62
7
10
227.969
20
104.468
11
227.969
21
104.418
0
LINE
8
0
6
CONTINUOUS
62
7
10
227.969
20
104.418
11
231.269
21
104.418
0
LINE
8
0
6
CONTINUOUS
62
7
10
231.269
20
104.418
11
231.269
21
104.468
0
LINE
8
0
6
CONTINUOUS
62
7
10
231.269
20
104.468
11
242.182
21
104.468
0
LINE
8
0
6
CONTINUOUS
62
7
10
242.182
20
104.468
11
242.182
21
117.268
0
LINE
8
0
6
CONTINUOUS
62
7
10
242.182
20
117.268
11
232.995
21
117.268
0
LINE
8
0
6
CONTINUOUS
62
7
10
232.995
20
117.268
11
232.995
21
117.639
0
LINE
8
0
6
CONTINUOUS
62
7
10
232.995
20
117.639
11
231.269
21
117.639
0
LINE
8
0
6
CONTINUOUS
62
7
10
231.269
20
117.639
11
231.269
21
118.617
0
LINE
8
0
6
CONTINUOUS
62
7
10
231.269
20
118.617
11
227.969
21
118.617
0
LINE
8
0
6
CONTINUOUS
62
7
10
227.969
20
118.617
11
227.969
21
117.639
0
LINE
8
0
6
CONTINUOUS
62
7
10
227.969
20
117.639
11
226.245
21
117.639
0
LINE
8
0
6
CONTINUOUS
62
7
10
226.245
20
117.639
11
226.245
21
117.268
0
LINE
8
0
6
CONTINUOUS
62
7
10
226.245
20
117.268
11
224.2
21
117.268
0
LINE
8
0
6
CONTINUOUS
62
7
10
224.2
20
117.268
11
224.2
21
113.168
0
LINE
8
0
6
CONTINUOUS
62
7
10
180.27
20
108.569
11
180.27
21
113.168
0
LINE
8
0
6
CONTINUOUS
62
7
10
213.945
20
113.168
11
213.945
21
117.639
0
LINE
8
0
6
CONTINUOUS
62
7
10
213.945
20
117.639
11
212.219
21
117.639
0
LINE
8
0
6
CONTINUOUS
62
7
10
212.219
20
117.639
11
212.219
21
118.617
0
LINE
8
0
6
CONTINUOUS
62
7
10
212.219
20
118.617
11
208.912
21
118.617
0
LINE
8
0
6
CONTINUOUS
62
7
10
208.912
20
118.617
11
208.912
21
117.639
0
LINE
8
0
6
CONTINUOUS
62
7
10
208.912
20
117.639
11
207.189
21
117.639
0
LINE
8
0
6
CONTINUOUS
62
7
10
207.189
20
117.639
11
207.189
21
113.168
0
LINE
8
0
6
CONTINUOUS
62
7
10
180.27
20
113.168
11
180.602
21
113.157
0
LINE
8
0
6
CONTINUOUS
62
7
10
180.27
20
113.168
11
180.27
21
117.268
0
LINE
8
0
6
CONTINUOUS
62
7
10
180.27
20
117.268
11
145.619
21
117.268
0
LINE
8
0
6
CONTINUOUS
62
7
10
145.619
20
117.268
11
145.619
21
113.167
0
LINE
8
0
6
CONTINUOUS
62
7
10
107.188
20
108.567
11
107.188
21
113.167
0
LINE
8
0
6
CONTINUOUS
62
7
10
118.695
20
113.167
11
118.695
21
117.637
0
LINE
8
0
6
CONTINUOUS
62
7
10
118.695
20
117.637
11
116.97
21
117.637
0
LINE
8
0
6
CONTINUOUS
62
7
10
116.97
20
117.637
11
116.97
21
118.617
0
LINE
8
0
6
CONTINUOUS
62
7
10
116.97
20
118.617
11
113.669
21
118.617
0
LINE
8
0
6
CONTINUOUS
62
7
10
113.669
20
118.617
11
113.669
21
117.637
0
LINE
8
0
6
CONTINUOUS
62
7
10
113.669
20
117.637
11
112.213
21
117.637
0
LINE
8
0
6
CONTINUOUS
62
7
10
112.213
20
117.637
11
112.213
21
118.617
0
LINE
8
0
6
CONTINUOUS
62
7
10
112.213
20
118.617
11
108.912
21
118.617
0
LINE
8
0
6
CONTINUOUS
62
7
10
108.912
20
118.617
11
108.912
21
117.637
0
LINE
8
0
6
CONTINUOUS
62
7
10
108.912
20
117.637
11
107.188
21
117.637
0
LINE
8
0
6
CONTINUOUS
62
7
10
107.188
20
117.637
11
107.188
21
113.167
0
LINE
8
0
6
CONTINUOUS
62
7
10
99.6435
20
113.167
11
99.6435
21
108.567
0
LINE
8
0
6
CONTINUOUS
62
7
10
99.6435
20
113.167
11
99.6435
21
117.637
0
LINE
8
0
6
CONTINUOUS
62
7
10
99.6435
20
117.637
11
97.9181
21
117.637
0
LINE
8
0
6
CONTINUOUS
62
7
10
97.9181
20
117.637
11
97.9181
21
118.617
0
LINE
8
0
6
CONTINUOUS
62
7
10
97.9181
20
118.617
11
94.6192
21
118.617
0
LINE
8
0
6
CONTINUOUS
62
7
10
320.845
20
118.617
11
320.845
21
117.637
0
LINE
8
0
6
CONTINUOUS
62
7
10
320.845
20
117.637
11
319.12
21
117.637
0
LINE
8
0
6
CONTINUOUS
62
7
10
319.12
20
117.637
11
319.12
21
117.268
0
LINE
8
0
6
CONTINUOUS
62
7
10
319.12
20
117.268
11
317.07
21
117.268
0
LINE
8
0
6
CONTINUOUS
62
7
10
317.07
20
117.268
11
317.07
21
104.468
0
LINE
8
0
6
CONTINUOUS
62
7
10
317.07
20
104.468
11
320.845
21
104.468
0
LINE
8
0
6
CONTINUOUS
62
7
10
320.845
20
104.468
11
320.845
21
104.418
0
LINE
8
0
6
CONTINUOUS
62
7
10
320.845
20
104.418
11
324.145
21
104.418
0
LINE
8
0
6
CONTINUOUS
62
7
10
324.145
20
104.418
11
324.145
21
104.468
0
LINE
8
0
6
CONTINUOUS
62
7
10
324.145
20
104.468
11
344.645
21
104.468
0
LINE
8
0
6
CONTINUOUS
62
7
10
344.645
20
104.468
11
344.645
21
104.418
0
LINE
8
0
6
CONTINUOUS
62
7
10
344.645
20
104.418
11
347.945
21
104.418
0
LINE
8
0
6
CONTINUOUS
62
7
10
347.945
20
104.418
11
347.945
21
104.468
0
LINE
8
0
6
CONTINUOUS
62
7
10
347.945
20
104.468
11
351.72
21
104.468
0
LINE
8
0
6
CONTINUOUS
62
7
10
351.72
20
104.468
11
351.72
21
117.268
0
LINE
8
0
6
CONTINUOUS
62
7
10
351.72
20
117.268
11
349.669
21
117.268
0
LINE
8
0
6
CONTINUOUS
62
7
10
349.669
20
117.268
11
349.669
21
117.637
0
LINE
8
0
6
CONTINUOUS
62
7
10
349.669
20
117.637
11
347.945
21
117.637
0
LINE
8
0
6
CONTINUOUS
62
7
10
347.945
20
117.637
11
347.945
21
118.617
0
LINE
8
0
6
CONTINUOUS
62
7
10
347.945
20
118.617
11
344.645
21
118.617
0
LINE
8
0
6
CONTINUOUS
62
7
10
344.645
20
118.617
11
344.645
21
117.637
0
LINE
8
0
6
CONTINUOUS
62
7
10
344.645
20
117.637
11
342.92
21
117.637
0
LINE
8
0
6
CONTINUOUS
62
7
10
342.92
20
117.637
11
342.92
21
117.268
0
LINE
8
0
6
CONTINUOUS
62
7
10
342.92
20
117.268
11
325.869
21
117.268
0
LINE
8
0
6
CONTINUOUS
62
7
10
325.869
20
117.268
11
325.869
21
117.637
0
LINE
8
0
6
CONTINUOUS
62
7
10
325.869
20
117.637
11
324.145
21
117.637
0
LINE
8
0
6
CONTINUOUS
62
7
10
324.145
20
117.637
11
324.145
21
118.617
0
LINE
8
0
6
CONTINUOUS
62
7
10
324.145
20
118.617
11
320.845
21
118.617
0
LINE
8
0
6
CONTINUOUS
62
7
10
33.7003
20
117.268
11
51.6823
21
117.268
0
LINE
8
0
6
CONTINUOUS
62
7
10
51.6823
20
117.268
11
51.6823
21
104.468
0
LINE
8
0
6
CONTINUOUS
62
7
10
51.6823
20
104.468
11
33.7003
21
104.468
0
LINE
8
0
6
CONTINUOUS
62
7
10
33.7003
20
104.468
11
33.7003
21
117.268
0
LINE
8
0
6
CONTINUOUS
62
7
10
57.5128
20
117.268
11
80.2573
21
117.268
0
LINE
8
0
6
CONTINUOUS
62
7
10
81.3252
20
104.468
11
80.2573
21
104.468
0
LINE
8
0
6
CONTINUOUS
62
7
10
80.2573
20
104.468
11
57.5128
21
104.468
0
LINE
8
0
6
CONTINUOUS
62
7
10
57.5128
20
104.468
11
57.5128
21
117.268
0
LINE
8
0
6
CONTINUOUS
62
7
10
245.631
20
117.268
11
313.62
21
117.268
0
LINE
8
0
6
CONTINUOUS
62
7
10
313.62
20
117.268
11
313.62
21
104.468
0
LINE
8
0
6
CONTINUOUS
62
7
10
313.62
20
104.468
11
245.631
21
104.468
0
LINE
8
0
6
CONTINUOUS
62
7
10
245.631
20
104.468
11
245.631
21
117.268
0
LINE
8
0
6
CONTINUOUS
62
7
10
355.17
20
117.268
11
370.77
21
117.268
0
LINE
8
0
6
CONTINUOUS
62
7
10
370.77
20
117.268
11
370.77
21
104.468
0
LINE
8
0
6
CONTINUOUS
62
7
10
370.77
20
104.468
11
355.17
21
104.468
0
LINE
8
0
6
CONTINUOUS
62
7
10
355.17
20
104.468
11
355.17
21
117.268
0
LINE
8
0
6
CONTINUOUS
62
7
10
37.4761
20
136.369
11
37.4761
21
136.318
0
LINE
8
0
6
CONTINUOUS
62
7
10
37.4761
20
136.318
11
33.7003
21
136.318
0
LINE
8
0
6
CONTINUOUS
62
7
10
33.7003
20
136.318
11
33.7003
21
123.518
0
LINE
8
0
6
CONTINUOUS
62
7
10
33.7003
20
123.518
11
35.7508
21
123.518
0
LINE
8
0
6
CONTINUOUS
62
7
10
35.7508
20
123.518
11
35.7508
21
123.147
0
LINE
8
0
6
CONTINUOUS
62
7
10
35.7508
20
123.147
11
37.4761
21
123.147
0
LINE
8
0
6
CONTINUOUS
62
7
10
37.4761
20
123.147
11
37.4761
21
122.167
0
LINE
8
0
6
CONTINUOUS
62
7
10
37.4761
20
122.167
11
40.7751
21
122.167
0
LINE
8
0
6
CONTINUOUS
62
7
10
40.7751
20
122.167
11
40.7751
21
123.147
0
LINE
8
0
6
CONTINUOUS
62
7
10
40.7751
20
123.147
11
42.5004
21
123.147
0
LINE
8
0
6
CONTINUOUS
62
7
10
42.5004
20
123.147
11
42.5004
21
123.518
0
LINE
8
0
6
CONTINUOUS
62
7
10
42.5004
20
123.518
11
59.5509
21
123.518
0
LINE
8
0
6
CONTINUOUS
62
7
10
59.5509
20
123.518
11
59.5509
21
123.147
0
LINE
8
0
6
CONTINUOUS
62
7
10
59.5509
20
123.147
11
61.2762
21
123.147
0
LINE
8
0
6
CONTINUOUS
62
7
10
61.2762
20
123.147
11
61.2762
21
122.167
0
LINE
8
0
6
CONTINUOUS
62
7
10
61.2762
20
122.167
11
64.5752
21
122.167
0
LINE
8
0
6
CONTINUOUS
62
7
10
64.5752
20
122.167
11
64.5752
21
123.147
0
LINE
8
0
6
CONTINUOUS
62
7
10
64.5752
20
123.147
11
66.3004
21
123.147
0
LINE
8
0
6
CONTINUOUS
62
7
10
66.3004
20
123.147
11
66.3004
21
123.518
0
LINE
8
0
6
CONTINUOUS
62
7
10
66.3004
20
123.518
11
70.7323
21
123.518
0
LINE
8
0
6
CONTINUOUS
62
7
10
70.7323
20
123.518
11
70.7323
21
136.318
0
LINE
8
0
6
CONTINUOUS
62
7
10
70.7323
20
136.318
11
64.5752
21
136.318
0
LINE
8
0
6
CONTINUOUS
62
7
10
64.5752
20
136.318
11
64.5752
21
136.369
0
LINE
8
0
6
CONTINUOUS
62
7
10
64.5752
20
136.369
11
61.2762
21
136.369
0
LINE
8
0
6
CONTINUOUS
62
7
10
61.2762
20
136.369
11
61.2762
21
136.318
0
LINE
8
0
6
CONTINUOUS
62
7
10
61.2762
20
136.318
11
40.7751
21
136.318
0
LINE
8
0
6
CONTINUOUS
62
7
10
40.7751
20
136.318
11
40.7751
21
136.369
0
LINE
8
0
6
CONTINUOUS
62
7
10
40.7751
20
136.369
11
37.4761
21
136.369
0
LINE
8
0
6
CONTINUOUS
62
7
10
275.601
20
136.369
11
275.601
21
136.318
0
LINE
8
0
6
CONTINUOUS
62
7
10
275.601
20
136.318
11
264.681
21
136.318
0
LINE
8
0
6
CONTINUOUS
62
7
10
264.681
20
136.318
11
264.681
21
123.518
0
LINE
8
0
6
CONTINUOUS
62
7
10
264.681
20
123.518
11
273.876
21
123.518
0
LINE
8
0
6
CONTINUOUS
62
7
10
273.876
20
123.518
11
273.876
21
123.147
0
LINE
8
0
6
CONTINUOUS
62
7
10
273.876
20
123.147
11
275.601
21
123.147
0
LINE
8
0
6
CONTINUOUS
62
7
10
275.601
20
123.147
11
275.601
21
122.167
0
LINE
8
0
6
CONTINUOUS
62
7
10
275.601
20
122.167
11
278.9
21
122.167
0
LINE
8
0
6
CONTINUOUS
62
7
10
278.9
20
122.167
11
278.9
21
123.147
0
LINE
8
0
6
CONTINUOUS
62
7
10
278.9
20
123.147
11
280.626
21
123.147
0
LINE
8
0
6
CONTINUOUS
62
7
10
280.626
20
123.147
11
280.626
21
123.518
0
LINE
8
0
6
CONTINUOUS
62
7
10
280.626
20
123.518
11
297.676
21
123.518
0
LINE
8
0
6
CONTINUOUS
62
7
10
297.676
20
123.518
11
297.676
21
123.147
0
LINE
8
0
6
CONTINUOUS
62
7
10
297.676
20
123.147
11
299.401
21
123.147
0
LINE
8
0
6
CONTINUOUS
62
7
10
299.401
20
123.147
11
299.401
21
122.167
0
LINE
8
0
6
CONTINUOUS
62
7
10
299.401
20
122.167
11
302.7
21
122.167
0
LINE
8
0
6
CONTINUOUS
62
7
10
302.7
20
122.167
11
302.7
21
123.147
0
LINE
8
0
6
CONTINUOUS
62
7
10
302.7
20
123.147
11
304.425
21
123.147
0
LINE
8
0
6
CONTINUOUS
62
7
10
304.425
20
123.147
11
304.425
21
123.518
0
LINE
8
0
6
CONTINUOUS
62
7
10
304.425
20
123.518
11
313.62
21
123.518
0
LINE
8
0
6
CONTINUOUS
62
7
10
313.62
20
123.518
11
313.62
21
136.318
0
LINE
8
0
6
CONTINUOUS
62
7
10
313.62
20
136.318
11
302.7
21
136.318
0
LINE
8
0
6
CONTINUOUS
62
7
10
302.7
20
136.318
11
302.7
21
136.369
0
LINE
8
0
6
CONTINUOUS
62
7
10
302.7
20
136.369
11
299.401
21
136.369
0
LINE
8
0
6
CONTINUOUS
62
7
10
299.401
20
136.369
11
299.401
21
136.318
0
LINE
8
0
6
CONTINUOUS
62
7
10
299.401
20
136.318
11
278.9
21
136.318
0
LINE
8
0
6
CONTINUOUS
62
7
10
278.9
20
136.318
11
278.9
21
136.369
0
LINE
8
0
6
CONTINUOUS
62
7
10
278.9
20
136.369
11
275.601
21
136.369
0
LINE
8
0
6
CONTINUOUS
62
7
10
74.1814
20
136.318
11
89.7823
21
136.318
0
LINE
8
0
6
CONTINUOUS
62
7
10
89.7823
20
136.318
11
89.7823
21
123.518
0
LINE
8
0
6
CONTINUOUS
62
7
10
89.7823
20
123.518
11
74.1814
21
123.518
0
LINE
8
0
6
CONTINUOUS
62
7
10
74.1814
20
123.518
11
74.1814
21
136.318
0
LINE
8
0
6
CONTINUOUS
62
7
10
93.2314
20
136.318
11
108.832
21
136.318
0
LINE
8
0
6
CONTINUOUS
62
7
10
108.832
20
136.318
11
108.832
21
123.518
0
LINE
8
0
6
CONTINUOUS
62
7
10
108.832
20
123.518
11
93.2314
21
123.518
0
LINE
8
0
6
CONTINUOUS
62
7
10
93.2314
20
123.518
11
93.2314
21
136.318
0
LINE
8
0
6
CONTINUOUS
62
7
10
112.281
20
136.318
11
127.882
21
136.318
0
LINE
8
0
6
CONTINUOUS
62
7
10
127.882
20
136.318
11
127.882
21
123.518
0
LINE
8
0
6
CONTINUOUS
62
7
10
127.882
20
123.518
11
112.281
21
123.518
0
LINE
8
0
6
CONTINUOUS
62
7
10
112.281
20
123.518
11
112.281
21
136.318
0
LINE
8
0
6
CONTINUOUS
62
7
10
131.331
20
136.318
11
146.932
21
136.318
0
LINE
8
0
6
CONTINUOUS
62
7
10
146.932
20
136.318
11
146.932
21
123.518
0
LINE
8
0
6
CONTINUOUS
62
7
10
146.932
20
123.518
11
131.331
21
123.518
0
LINE
8
0
6
CONTINUOUS
62
7
10
131.331
20
123.518
11
131.331
21
136.318
0
LINE
8
0
6
CONTINUOUS
62
7
10
150.381
20
136.318
11
165.982
21
136.318
0
LINE
8
0
6
CONTINUOUS
62
7
10
165.982
20
136.318
11
165.982
21
123.518
0
LINE
8
0
6
CONTINUOUS
62
7
10
165.982
20
123.518
11
150.381
21
123.518
0
LINE
8
0
6
CONTINUOUS
62
7
10
150.381
20
123.518
11
150.381
21
136.318
0
LINE
8
0
6
CONTINUOUS
62
7
10
169.431
20
136.318
11
185.032
21
136.318
0
LINE
8
0
6
CONTINUOUS
62
7
10
185.032
20
136.318
11
185.032
21
123.518
0
LINE
8
0
6
CONTINUOUS
62
7
10
185.032
20
123.518
11
169.431
21
123.518
0
LINE
8
0
6
CONTINUOUS
62
7
10
169.431
20
123.518
11
169.431
21
136.318
0
LINE
8
0
6
CONTINUOUS
62
7
10
188.481
20
136.318
11
204.082
21
136.318
0
LINE
8
0
6
CONTINUOUS
62
7
10
204.082
20
136.318
11
204.082
21
123.518
0
LINE
8
0
6
CONTINUOUS
62
7
10
204.082
20
123.518
11
188.481
21
123.518
0
LINE
8
0
6
CONTINUOUS
62
7
10
188.481
20
123.518
11
188.481
21
136.318
0
LINE
8
0
6
CONTINUOUS
62
7
10
207.531
20
136.318
11
223.132
21
136.318
0
LINE
8
0
6
CONTINUOUS
62
7
10
223.132
20
136.318
11
223.132
21
123.518
0
LINE
8
0
6
CONTINUOUS
62
7
10
223.132
20
123.518
11
207.531
21
123.518
0
LINE
8
0
6
CONTINUOUS
62
7
10
207.531
20
123.518
11
207.531
21
136.318
0
LINE
8
0
6
CONTINUOUS
62
7
10
226.581
20
136.318
11
242.182
21
136.318
0
LINE
8
0
6
CONTINUOUS
62
7
10
242.182
20
136.318
11
242.182
21
123.518
0
LINE
8
0
6
CONTINUOUS
62
7
10
242.182
20
123.518
11
226.581
21
123.518
0
LINE
8
0
6
CONTINUOUS
62
7
10
226.581
20
123.518
11
226.581
21
136.318
0
LINE
8
0
6
CONTINUOUS
62
7
10
245.631
20
136.318
11
261.232
21
136.318
0
LINE
8
0
6
CONTINUOUS
62
7
10
261.232
20
136.318
11
261.232
21
123.518
0
LINE
8
0
6
CONTINUOUS
62
7
10
261.232
20
123.518
11
245.631
21
123.518
0
LINE
8
0
6
CONTINUOUS
62
7
10
245.631
20
123.518
11
245.631
21
136.318
0
LINE
8
0
6
CONTINUOUS
62
7
10
317.07
20
136.318
11
332.67
21
136.318
0
LINE
8
0
6
CONTINUOUS
62
7
10
332.67
20
136.318
11
332.67
21
123.518
0
LINE
8
0
6
CONTINUOUS
62
7
10
332.67
20
123.518
11
317.07
21
123.518
0
LINE
8
0
6
CONTINUOUS
62
7
10
317.07
20
123.518
11
317.07
21
136.318
0
LINE
8
0
6
CONTINUOUS
62
7
10
336.12
20
136.318
11
351.72
21
136.318
0
LINE
8
0
6
CONTINUOUS
62
7
10
351.72
20
136.318
11
351.72
21
123.518
0
LINE
8
0
6
CONTINUOUS
62
7
10
351.72
20
123.518
11
336.12
21
123.518
0
LINE
8
0
6
CONTINUOUS
62
7
10
336.12
20
123.518
11
336.12
21
136.318
0
LINE
8
0
6
CONTINUOUS
62
7
10
355.17
20
136.318
11
370.77
21
136.318
0
LINE
8
0
6
CONTINUOUS
62
7
10
370.77
20
136.318
11
370.77
21
123.518
0
LINE
8
0
6
CONTINUOUS
62
7
10
370.77
20
123.518
11
355.17
21
123.518
0
LINE
8
0
6
CONTINUOUS
62
7
10
355.17
20
123.518
11
355.17
21
136.318
0
LINE
8
0
6
CONTINUOUS
62
7
10
302.937
20
174.593
11
302.937
21
174.418
0
LINE
8
0
6
CONTINUOUS
62
7
10
302.937
20
174.418
11
293.256
21
174.418
0
LINE
8
0
6
CONTINUOUS
62
7
10
293.256
20
174.418
11
293.256
21
161.618
0
LINE
8
0
6
CONTINUOUS
62
7
10
293.256
20
161.618
11
297.038
21
161.618
0
LINE
8
0
6
CONTINUOUS
62
7
10
297.038
20
161.618
11
297.038
21
155.368
0
LINE
8
0
6
CONTINUOUS
62
7
10
297.038
20
155.368
11
283.661
21
155.368
0
LINE
8
0
6
CONTINUOUS
62
7
10
283.661
20
155.368
11
283.661
21
155.418
0
LINE
8
0
6
CONTINUOUS
62
7
10
283.661
20
155.418
11
280.362
21
155.418
0
LINE
8
0
6
CONTINUOUS
62
7
10
280.362
20
155.418
11
280.362
21
155.368
0
LINE
8
0
6
CONTINUOUS
62
7
10
280.362
20
155.368
11
274.206
21
155.368
0
LINE
8
0
6
CONTINUOUS
62
7
10
274.206
20
155.368
11
274.206
21
142.568
0
LINE
8
0
6
CONTINUOUS
62
7
10
274.206
20
142.568
11
278.638
21
142.568
0
LINE
8
0
6
CONTINUOUS
62
7
10
278.638
20
142.568
11
278.638
21
142.198
0
LINE
8
0
6
CONTINUOUS
62
7
10
278.638
20
142.198
11
280.362
21
142.198
0
LINE
8
0
6
CONTINUOUS
62
7
10
280.362
20
142.198
11
280.362
21
141.217
0
LINE
8
0
6
CONTINUOUS
62
7
10
280.362
20
141.217
11
283.661
21
141.217
0
LINE
8
0
6
CONTINUOUS
62
7
10
283.661
20
141.217
11
283.661
21
142.198
0
LINE
8
0
6
CONTINUOUS
62
7
10
283.661
20
142.198
11
285.388
21
142.198
0
LINE
8
0
6
CONTINUOUS
62
7
10
285.388
20
142.198
11
285.388
21
142.568
0
LINE
8
0
6
CONTINUOUS
62
7
10
285.388
20
142.568
11
301.712
21
142.568
0
LINE
8
0
6
CONTINUOUS
62
7
10
302.439
20
142.568
11
302.439
21
142.198
0
LINE
8
0
6
CONTINUOUS
62
7
10
302.439
20
142.198
11
304.162
21
142.198
0
LINE
8
0
6
CONTINUOUS
62
7
10
304.162
20
142.198
11
304.162
21
141.217
0
LINE
8
0
6
CONTINUOUS
62
7
10
304.162
20
141.217
11
307.463
21
141.217
0
LINE
8
0
6
CONTINUOUS
62
7
10
307.463
20
141.217
11
307.463
21
142.198
0
LINE
8
0
6
CONTINUOUS
62
7
10
307.463
20
142.198
11
309.188
21
142.198
0
LINE
8
0
6
CONTINUOUS
62
7
10
309.188
20
142.198
11
309.188
21
144.942
0
LINE
8
0
6
CONTINUOUS
62
7
10
309.188
20
144.942
11
309.888
21
144.942
0
LINE
8
0
6
CONTINUOUS
62
7
10
310.012
20
148.467
11
310.012
21
151.267
0
LINE
8
0
6
CONTINUOUS
62
7
10
310.012
20
151.267
11
309.837
21
151.267
0
LINE
8
0
6
CONTINUOUS
62
7
10
309.837
20
151.267
11
309.837
21
166.292
0
LINE
8
0
6
CONTINUOUS
62
7
10
309.837
20
166.292
11
308.857
21
166.292
0
LINE
8
0
6
CONTINUOUS
62
7
10
308.857
20
166.292
11
308.857
21
167.018
0
LINE
8
0
6
CONTINUOUS
62
7
10
308.857
20
167.018
11
308.967
21
167.018
0
LINE
8
0
6
CONTINUOUS
62
7
10
308.967
20
167.018
11
308.967
21
168.742
0
LINE
8
0
6
CONTINUOUS
62
7
10
308.967
20
168.742
11
309.888
21
168.742
0
LINE
8
0
6
CONTINUOUS
62
7
10
309.888
20
168.742
11
309.888
21
172.042
0
LINE
8
0
6
CONTINUOUS
62
7
10
309.888
20
172.042
11
308.967
21
172.042
0
LINE
8
0
6
CONTINUOUS
62
7
10
308.967
20
172.042
11
308.967
21
173.768
0
LINE
8
0
6
CONTINUOUS
62
7
10
308.967
20
173.768
11
308.857
21
173.768
0
LINE
8
0
6
CONTINUOUS
62
7
10
308.857
20
173.768
11
308.857
21
174.418
0
LINE
8
0
6
CONTINUOUS
62
7
10
308.857
20
174.418
11
305.737
21
174.418
0
LINE
8
0
6
CONTINUOUS
62
7
10
305.737
20
174.418
11
305.737
21
174.593
0
LINE
8
0
6
CONTINUOUS
62
7
10
305.737
20
174.593
11
302.937
21
174.593
0
LINE
8
0
6
CONTINUOUS
62
7
10
381.52
20
174.593
11
381.52
21
174.418
0
LINE
8
0
6
CONTINUOUS
62
7
10
381.52
20
174.418
11
374.22
21
174.418
0
LINE
8
0
6
CONTINUOUS
62
7
10
374.22
20
174.418
11
374.22
21
161.618
0
LINE
8
0
6
CONTINUOUS
62
7
10
374.22
20
161.618
11
375.619
21
161.618
0
LINE
8
0
6
CONTINUOUS
62
7
10
375.619
20
161.618
11
375.619
21
155.368
0
LINE
8
0
6
CONTINUOUS
62
7
10
375.619
20
155.368
11
374.22
21
155.368
0
LINE
8
0
6
CONTINUOUS
62
7
10
374.22
20
155.368
11
374.22
21
142.568
0
LINE
8
0
6
CONTINUOUS
62
7
10
374.22
20
142.568
11
381.52
21
142.568
0
LINE
8
0
6
CONTINUOUS
62
7
10
381.52
20
142.568
11
381.52
21
142.393
0
LINE
8
0
6
CONTINUOUS
62
7
10
381.52
20
142.393
11
384.32
21
142.393
0
LINE
8
0
6
CONTINUOUS
62
7
10
384.32
20
142.393
11
384.32
21
142.568
0
LINE
8
0
6
CONTINUOUS
62
7
10
384.32
20
142.568
11
389.82
21
142.568
0
LINE
8
0
6
CONTINUOUS
62
7
10
389.82
20
142.568
11
389.82
21
155.368
0
LINE
8
0
6
CONTINUOUS
62
7
10
389.82
20
155.368
11
388.42
21
155.368
0
LINE
8
0
6
CONTINUOUS
62
7
10
388.42
20
155.368
11
388.42
21
161.618
0
LINE
8
0
6
CONTINUOUS
62
7
10
388.42
20
161.618
11
389.82
21
161.618
0
LINE
8
0
6
CONTINUOUS
62
7
10
389.82
20
161.618
11
389.82
21
174.418
0
LINE
8
0
6
CONTINUOUS
62
7
10
389.82
20
174.418
11
384.32
21
174.418
0
LINE
8
0
6
CONTINUOUS
62
7
10
384.32
20
174.418
11
384.32
21
174.593
0
LINE
8
0
6
CONTINUOUS
62
7
10
384.32
20
174.593
11
381.52
21
174.593
0
LINE
8
0
6
CONTINUOUS
62
7
10
33.7003
20
155.368
11
54.0622
21
155.368
0
LINE
8
0
6
CONTINUOUS
62
7
10
54.0622
20
155.368
11
54.0622
21
142.568
0
LINE
8
0
6
CONTINUOUS
62
7
10
54.0622
20
142.568
11
33.7003
21
142.568
0
LINE
8
0
6
CONTINUOUS
62
7
10
33.7003
20
142.568
11
33.7003
21
155.368
0
LINE
8
0
6
CONTINUOUS
62
7
10
64.6565
20
155.368
11
80.2573
21
155.368
0
LINE
8
0
6
CONTINUOUS
62
7
10
80.2573
20
155.368
11
80.2573
21
142.568
0
LINE
8
0
6
CONTINUOUS
62
7
10
80.2573
20
142.568
11
64.6565
21
142.568
0
LINE
8
0
6
CONTINUOUS
62
7
10
64.6565
20
142.568
11
64.6565
21
155.368
0
LINE
8
0
6
CONTINUOUS
62
7
10
83.7064
20
155.368
11
99.3073
21
155.368
0
LINE
8
0
6
CONTINUOUS
62
7
10
99.3073
20
155.368
11
99.3073
21
142.568
0
LINE
8
0
6
CONTINUOUS
62
7
10
99.3073
20
142.568
11
83.7064
21
142.568
0
LINE
8
0
6
CONTINUOUS
62
7
10
83.7064
20
142.568
11
83.7064
21
155.368
0
LINE
8
0
6
CONTINUOUS
62
7
10
102.756
20
155.368
11
118.357
21
155.368
0
LINE
8
0
6
CONTINUOUS
62
7
10
118.357
20
155.368
11
118.357
21
142.568
0
LINE
8
0
6
CONTINUOUS
62
7
10
118.357
20
142.568
11
102.756
21
142.568
0
LINE
8
0
6
CONTINUOUS
62
7
10
102.756
20
142.568
11
102.756
21
155.368
0
LINE
8
0
6
CONTINUOUS
62
7
10
121.806
20
155.368
11
137.407
21
155.368
0
LINE
8
0
6
CONTINUOUS
62
7
10
137.407
20
155.368
11
137.407
21
142.568
0
LINE
8
0
6
CONTINUOUS
62
7
10
137.407
20
142.568
11
121.806
21
142.568
0
LINE
8
0
6
CONTINUOUS
62
7
10
121.806
20
142.568
11
121.806
21
155.368
0
LINE
8
0
6
CONTINUOUS
62
7
10
140.856
20
155.368
11
156.457
21
155.368
0
LINE
8
0
6
CONTINUOUS
62
7
10
156.457
20
155.368
11
156.457
21
142.568
0
LINE
8
0
6
CONTINUOUS
62
7
10
156.457
20
142.568
11
140.856
21
142.568
0
LINE
8
0
6
CONTINUOUS
62
7
10
140.856
20
142.568
11
140.856
21
155.368
0
LINE
8
0
6
CONTINUOUS
62
7
10
159.906
20
155.368
11
175.507
21
155.368
0
LINE
8
0
6
CONTINUOUS
62
7
10
175.507
20
155.368
11
175.507
21
142.568
0
LINE
8
0
6
CONTINUOUS
62
7
10
175.507
20
142.568
11
159.906
21
142.568
0
LINE
8
0
6
CONTINUOUS
62
7
10
159.906
20
142.568
11
159.906
21
155.368
0
LINE
8
0
6
CONTINUOUS
62
7
10
178.956
20
155.368
11
194.557
21
155.368
0
LINE
8
0
6
CONTINUOUS
62
7
10
194.557
20
155.368
11
194.557
21
142.568
0
LINE
8
0
6
CONTINUOUS
62
7
10
194.557
20
142.568
11
178.956
21
142.568
0
LINE
8
0
6
CONTINUOUS
62
7
10
178.956
20
142.568
11
178.956
21
155.368
0
LINE
8
0
6
CONTINUOUS
62
7
10
198.006
20
155.368
11
213.607
21
155.368
0
LINE
8
0
6
CONTINUOUS
62
7
10
213.607
20
155.368
11
213.607
21
142.568
0
LINE
8
0
6
CONTINUOUS
62
7
10
213.607
20
142.568
11
198.006
21
142.568
0
LINE
8
0
6
CONTINUOUS
62
7
10
198.006
20
142.568
11
198.006
21
155.368
0
LINE
8
0
6
CONTINUOUS
62
7
10
217.056
20
155.368
11
232.657
21
155.368
0
LINE
8
0
6
CONTINUOUS
62
7
10
232.657
20
155.368
11
232.657
21
142.568
0
LINE
8
0
6
CONTINUOUS
62
7
10
232.657
20
142.568
11
217.056
21
142.568
0
LINE
8
0
6
CONTINUOUS
62
7
10
217.056
20
142.568
11
217.056
21
155.368
0
LINE
8
0
6
CONTINUOUS
62
7
10
236.106
20
155.368
11
251.707
21
155.368
0
LINE
8
0
6
CONTINUOUS
62
7
10
251.707
20
155.368
11
251.707
21
142.568
0
LINE
8
0
6
CONTINUOUS
62
7
10
251.707
20
142.568
11
236.106
21
142.568
0
LINE
8
0
6
CONTINUOUS
62
7
10
236.106
20
142.568
11
236.106
21
155.368
0
LINE
8
0
6
CONTINUOUS
62
7
10
255.156
20
155.368
11
270.757
21
155.368
0
LINE
8
0
6
CONTINUOUS
62
7
10
270.757
20
155.368
11
270.757
21
142.568
0
LINE
8
0
6
CONTINUOUS
62
7
10
270.757
20
142.568
11
255.156
21
142.568
0
LINE
8
0
6
CONTINUOUS
62
7
10
255.156
20
142.568
11
255.156
21
155.368
0
LINE
8
0
6
CONTINUOUS
62
7
10
317.07
20
155.368
11
332.67
21
155.368
0
LINE
8
0
6
CONTINUOUS
62
7
10
332.67
20
155.368
11
332.67
21
142.568
0
LINE
8
0
6
CONTINUOUS
62
7
10
332.67
20
142.568
11
317.07
21
142.568
0
LINE
8
0
6
CONTINUOUS
62
7
10
317.07
20
142.568
11
317.07
21
155.368
0
LINE
8
0
6
CONTINUOUS
62
7
10
336.12
20
155.368
11
351.72
21
155.368
0
LINE
8
0
6
CONTINUOUS
62
7
10
351.72
20
155.368
11
351.72
21
142.568
0
LINE
8
0
6
CONTINUOUS
62
7
10
351.72
20
142.568
11
336.12
21
142.568
0
LINE
8
0
6
CONTINUOUS
62
7
10
336.12
20
142.568
11
336.12
21
155.368
0
LINE
8
0
6
CONTINUOUS
62
7
10
355.17
20
155.368
11
370.77
21
155.368
0
LINE
8
0
6
CONTINUOUS
62
7
10
370.77
20
155.368
11
370.77
21
142.568
0
LINE
8
0
6
CONTINUOUS
62
7
10
370.77
20
142.568
11
355.17
21
142.568
0
LINE
8
0
6
CONTINUOUS
62
7
10
355.17
20
142.568
11
355.17
21
155.368
0
LINE
8
0
6
CONTINUOUS
62
7
10
36.0815
20
174.418
11
51.6823
21
174.418
0
LINE
8
0
6
CONTINUOUS
62
7
10
51.6823
20
174.418
11
51.6823
21
161.618
0
LINE
8
0
6
CONTINUOUS
62
7
10
51.6823
20
161.618
11
36.0815
21
161.618
0
LINE
8
0
6
CONTINUOUS
62
7
10
36.0815
20
161.618
11
36.0815
21
174.418
0
LINE
8
0
6
CONTINUOUS
62
7
10
59.8954
20
174.418
11
75.4948
21
174.418
0
LINE
8
0
6
CONTINUOUS
62
7
10
75.4948
20
174.418
11
75.4948
21
161.618
0
LINE
8
0
6
CONTINUOUS
62
7
10
75.4948
20
161.618
11
59.8954
21
161.618
0
LINE
8
0
6
CONTINUOUS
62
7
10
59.8954
20
161.618
11
59.8954
21
174.418
0
LINE
8
0
6
CONTINUOUS
62
7
10
78.9453
20
174.418
11
94.5448
21
174.418
0
LINE
8
0
6
CONTINUOUS
62
7
10
94.5448
20
174.418
11
94.5448
21
161.618
0
LINE
8
0
6
CONTINUOUS
62
7
10
94.5448
20
161.618
11
78.9453
21
161.618
0
LINE
8
0
6
CONTINUOUS
62
7
10
78.9453
20
161.618
11
78.9453
21
174.418
0
LINE
8
0
6
CONTINUOUS
62
7
10
97.9953
20
174.418
11
113.595
21
174.418
0
LINE
8
0
6
CONTINUOUS
62
7
10
113.595
20
174.418
11
113.595
21
161.618
0
LINE
8
0
6
CONTINUOUS
62
7
10
113.595
20
161.618
11
97.9953
21
161.618
0
LINE
8
0
6
CONTINUOUS
62
7
10
97.9953
20
161.618
11
97.9953
21
174.418
0
LINE
8
0
6
CONTINUOUS
62
7
10
117.045
20
174.418
11
132.645
21
174.418
0
LINE
8
0
6
CONTINUOUS
62
7
10
132.645
20
174.418
11
132.645
21
161.618
0
LINE
8
0
6
CONTINUOUS
62
7
10
132.645
20
161.618
11
117.045
21
161.618
0
LINE
8
0
6
CONTINUOUS
62
7
10
117.045
20
161.618
11
117.045
21
174.418
0
LINE
8
0
6
CONTINUOUS
62
7
10
136.095
20
174.418
11
151.695
21
174.418
0
LINE
8
0
6
CONTINUOUS
62
7
10
151.695
20
174.418
11
151.695
21
161.618
0
LINE
8
0
6
CONTINUOUS
62
7
10
151.695
20
161.618
11
136.095
21
161.618
0
LINE
8
0
6
CONTINUOUS
62
7
10
136.095
20
161.618
11
136.095
21
174.418
0
LINE
8
0
6
CONTINUOUS
62
7
10
155.144
20
174.418
11
170.745
21
174.418
0
LINE
8
0
6
CONTINUOUS
62
7
10
170.745
20
174.418
11
170.745
21
161.618
0
LINE
8
0
6
CONTINUOUS
62
7
10
170.745
20
161.618
11
155.144
21
161.618
0
LINE
8
0
6
CONTINUOUS
62
7
10
155.144
20
161.618
11
155.144
21
174.418
0
LINE
8
0
6
CONTINUOUS
62
7
10
174.195
20
174.418
11
189.795
21
174.418
0
LINE
8
0
6
CONTINUOUS
62
7
10
189.795
20
174.418
11
189.795
21
161.618
0
LINE
8
0
6
CONTINUOUS
62
7
10
189.795
20
161.618
11
174.195
21
161.618
0
LINE
8
0
6
CONTINUOUS
62
7
10
174.195
20
161.618
11
174.195
21
174.418
0
LINE
8
0
6
CONTINUOUS
62
7
10
193.245
20
174.418
11
208.845
21
174.418
0
LINE
8
0
6
CONTINUOUS
62
7
10
208.845
20
174.418
11
208.845
21
161.618
0
LINE
8
0
6
CONTINUOUS
62
7
10
208.845
20
161.618
11
193.245
21
161.618
0
LINE
8
0
6
CONTINUOUS
62
7
10
193.245
20
161.618
11
193.245
21
174.418
0
LINE
8
0
6
CONTINUOUS
62
7
10
212.295
20
174.418
11
227.895
21
174.418
0
LINE
8
0
6
CONTINUOUS
62
7
10
227.895
20
174.418
11
227.895
21
161.618
0
LINE
8
0
6
CONTINUOUS
62
7
10
227.895
20
161.618
11
212.295
21
161.618
0
LINE
8
0
6
CONTINUOUS
62
7
10
212.295
20
161.618
11
212.295
21
174.418
0
LINE
8
0
6
CONTINUOUS
62
7
10
231.345
20
174.418
11
246.945
21
174.418
0
LINE
8
0
6
CONTINUOUS
62
7
10
246.945
20
174.418
11
246.945
21
161.618
0
LINE
8
0
6
CONTINUOUS
62
7
10
246.945
20
161.618
11
231.345
21
161.618
0
LINE
8
0
6
CONTINUOUS
62
7
10
231.345
20
161.618
11
231.345
21
174.418
0
LINE
8
0
6
CONTINUOUS
62
7
10
250.395
20
174.418
11
265.995
21
174.418
0
LINE
8
0
6
CONTINUOUS
62
7
10
265.995
20
174.418
11
265.995
21
161.618
0
LINE
8
0
6
CONTINUOUS
62
7
10
265.995
20
161.618
11
250.395
21
161.618
0
LINE
8
0
6
CONTINUOUS
62
7
10
250.395
20
161.618
11
250.395
21
174.418
0
LINE
8
0
6
CONTINUOUS
62
7
10
269.445
20
174.418
11
285.045
21
174.418
0
LINE
8
0
6
CONTINUOUS
62
7
10
285.045
20
174.418
11
285.045
21
161.618
0
LINE
8
0
6
CONTINUOUS
62
7
10
285.045
20
161.618
11
269.445
21
161.618
0
LINE
8
0
6
CONTINUOUS
62
7
10
269.445
20
161.618
11
269.445
21
174.418
0
LINE
8
0
6
CONTINUOUS
62
7
10
317.07
20
174.418
11
332.67
21
174.418
0
LINE
8
0
6
CONTINUOUS
62
7
10
332.67
20
174.418
11
332.67
21
161.618
0
LINE
8
0
6
CONTINUOUS
62
7
10
332.67
20
161.618
11
317.07
21
161.618
0
LINE
8
0
6
CONTINUOUS
62
7
10
317.07
20
161.618
11
317.07
21
174.418
0
LINE
8
0
6
CONTINUOUS
62
7
10
336.12
20
174.418
11
351.72
21
174.418
0
LINE
8
0
6
CONTINUOUS
62
7
10
351.72
20
174.418
11
351.72
21
161.618
0
LINE
8
0
6
CONTINUOUS
62
7
10
351.72
20
161.618
11
336.12
21
161.618
0
LINE
8
0
6
CONTINUOUS
62
7
10
336.12
20
161.618
11
336.12
21
174.418
0
LINE
8
0
6
CONTINUOUS
62
7
10
355.17
20
174.418
11
370.77
21
174.418
0
LINE
8
0
6
CONTINUOUS
62
7
10
370.77
20
174.418
11
370.77
21
161.618
0
LINE
8
0
6
CONTINUOUS
62
7
10
370.77
20
161.618
11
355.17
21
161.618
0
LINE
8
0
6
CONTINUOUS
62
7
10
355.17
20
161.618
11
355.17
21
174.418
0
LINE
8
0
6
CONTINUOUS
62
7
10
282.743
20
193.519
11
282.743
21
193.468
0
LINE
8
0
6
CONTINUOUS
62
7
10
282.743
20
193.468
11
278.97
21
193.468
0
LINE
8
0
6
CONTINUOUS
62
7
10
278.97
20
193.468
11
278.97
21
180.667
0
LINE
8
0
6
CONTINUOUS
62
7
10
278.97
20
180.667
11
281.02
21
180.667
0
LINE
8
0
6
CONTINUOUS
62
7
10
281.02
20
180.667
11
281.02
21
180.297
0
LINE
8
0
6
CONTINUOUS
62
7
10
281.02
20
180.297
11
282.743
21
180.297
0
LINE
8
0
6
CONTINUOUS
62
7
10
282.743
20
180.297
11
282.743
21
179.317
0
LINE
8
0
6
CONTINUOUS
62
7
10
282.743
20
179.317
11
286.045
21
179.317
0
LINE
8
0
6
CONTINUOUS
62
7
10
286.045
20
179.317
11
286.045
21
180.297
0
LINE
8
0
6
CONTINUOUS
62
7
10
286.045
20
180.297
11
287.769
21
180.297
0
LINE
8
0
6
CONTINUOUS
62
7
10
287.769
20
180.297
11
287.769
21
180.667
0
LINE
8
0
6
CONTINUOUS
62
7
10
287.769
20
180.667
11
304.82
21
180.667
0
LINE
8
0
6
CONTINUOUS
62
7
10
304.82
20
180.667
11
304.82
21
180.297
0
LINE
8
0
6
CONTINUOUS
62
7
10
304.82
20
180.297
11
306.545
21
180.297
0
LINE
8
0
6
CONTINUOUS
62
7
10
306.545
20
180.297
11
306.545
21
179.317
0
LINE
8
0
6
CONTINUOUS
62
7
10
306.545
20
179.317
11
309.845
21
179.317
0
LINE
8
0
6
CONTINUOUS
62
7
10
309.845
20
179.317
11
309.845
21
180.297
0
LINE
8
0
6
CONTINUOUS
62
7
10
309.845
20
180.297
11
311.569
21
180.297
0
LINE
8
0
6
CONTINUOUS
62
7
10
311.569
20
180.297
11
311.569
21
180.667
0
LINE
8
0
6
CONTINUOUS
62
7
10
311.569
20
180.667
11
313.62
21
180.667
0
LINE
8
0
6
CONTINUOUS
62
7
10
313.62
20
180.667
11
313.62
21
193.468
0
LINE
8
0
6
CONTINUOUS
62
7
10
313.62
20
193.468
11
309.845
21
193.468
0
LINE
8
0
6
CONTINUOUS
62
7
10
309.845
20
193.468
11
309.845
21
193.519
0
LINE
8
0
6
CONTINUOUS
62
7
10
309.845
20
193.519
11
306.545
21
193.519
0
LINE
8
0
6
CONTINUOUS
62
7
10
306.545
20
193.519
11
306.545
21
193.468
0
LINE
8
0
6
CONTINUOUS
62
7
10
306.545
20
193.468
11
286.045
21
193.468
0
LINE
8
0
6
CONTINUOUS
62
7
10
286.045
20
193.468
11
286.045
21
193.519
0
LINE
8
0
6
CONTINUOUS
62
7
10
286.045
20
193.519
11
282.743
21
193.519
0
LINE
8
0
6
CONTINUOUS
62
7
10
31.3204
20
193.468
11
46.9198
21
193.468
0
LINE
8
0
6
CONTINUOUS
62
7
10
46.9198
20
193.468
11
46.9198
21
180.667
0
LINE
8
0
6
CONTINUOUS
62
7
10
46.9198
20
180.667
11
31.3204
21
180.667
0
LINE
8
0
6
CONTINUOUS
62
7
10
31.3204
20
180.667
11
31.3204
21
193.468
0
LINE
8
0
6
CONTINUOUS
62
7
10
50.3704
20
193.468
11
65.9698
21
193.468
0
LINE
8
0
6
CONTINUOUS
62
7
10
65.9698
20
193.468
11
65.9698
21
180.667
0
LINE
8
0
6
CONTINUOUS
62
7
10
65.9698
20
180.667
11
50.3704
21
180.667
0
LINE
8
0
6
CONTINUOUS
62
7
10
50.3704
20
180.667
11
50.3704
21
193.468
0
LINE
8
0
6
CONTINUOUS
62
7
10
69.4203
20
193.468
11
85.0198
21
193.468
0
LINE
8
0
6
CONTINUOUS
62
7
10
85.0198
20
193.468
11
85.0198
21
180.667
0
LINE
8
0
6
CONTINUOUS
62
7
10
85.0198
20
180.667
11
69.4203
21
180.667
0
LINE
8
0
6
CONTINUOUS
62
7
10
69.4203
20
180.667
11
69.4203
21
193.468
0
LINE
8
0
6
CONTINUOUS
62
7
10
88.4703
20
193.468
11
104.07
21
193.468
0
LINE
8
0
6
CONTINUOUS
62
7
10
104.07
20
193.468
11
104.07
21
180.667
0
LINE
8
0
6
CONTINUOUS
62
7
10
104.07
20
180.667
11
88.4703
21
180.667
0
LINE
8
0
6
CONTINUOUS
62
7
10
88.4703
20
180.667
11
88.4703
21
193.468
0
LINE
8
0
6
CONTINUOUS
62
7
10
107.52
20
193.468
11
123.118
21
193.468
0
LINE
8
0
6
CONTINUOUS
62
7
10
123.118
20
193.468
11
123.118
21
180.667
0
LINE
8
0
6
CONTINUOUS
62
7
10
123.118
20
180.667
11
107.52
21
180.667
0
LINE
8
0
6
CONTINUOUS
62
7
10
107.52
20
180.667
11
107.52
21
193.468
0
LINE
8
0
6
CONTINUOUS
62
7
10
126.57
20
193.468
11
142.168
21
193.468
0
LINE
8
0
6
CONTINUOUS
62
7
10
142.168
20
193.468
11
142.168
21
180.667
0
LINE
8
0
6
CONTINUOUS
62
7
10
142.168
20
180.667
11
126.57
21
180.667
0
LINE
8
0
6
CONTINUOUS
62
7
10
126.57
20
180.667
11
126.57
21
193.468
0
LINE
8
0
6
CONTINUOUS
62
7
10
145.619
20
193.468
11
161.22
21
193.468
0
LINE
8
0
6
CONTINUOUS
62
7
10
161.22
20
193.468
11
161.22
21
180.667
0
LINE
8
0
6
CONTINUOUS
62
7
10
161.22
20
180.667
11
145.619
21
180.667
0
LINE
8
0
6
CONTINUOUS
62
7
10
145.619
20
180.667
11
145.619
21
193.468
0
LINE
8
0
6
CONTINUOUS
62
7
10
164.67
20
193.468
11
180.27
21
193.468
0
LINE
8
0
6
CONTINUOUS
62
7
10
180.27
20
193.468
11
180.27
21
180.667
0
LINE
8
0
6
CONTINUOUS
62
7
10
180.27
20
180.667
11
164.67
21
180.667
0
LINE
8
0
6
CONTINUOUS
62
7
10
164.67
20
180.667
11
164.67
21
193.468
0
LINE
8
0
6
CONTINUOUS
62
7
10
183.72
20
193.468
11
199.32
21
193.468
0
LINE
8
0
6
CONTINUOUS
62
7
10
199.32
20
193.468
11
199.32
21
180.667
0
LINE
8
0
6
CONTINUOUS
62
7
10
199.32
20
180.667
11
183.72
21
180.667
0
LINE
8
0
6
CONTINUOUS
62
7
10
183.72
20
180.667
11
183.72
21
193.468
0
LINE
8
0
6
CONTINUOUS
62
7
10
202.77
20
193.468
11
218.37
21
193.468
0
LINE
8
0
6
CONTINUOUS
62
7
10
218.37
20
193.468
11
218.37
21
180.667
0
LINE
8
0
6
CONTINUOUS
62
7
10
218.37
20
180.667
11
202.77
21
180.667
0
LINE
8
0
6
CONTINUOUS
62
7
10
202.77
20
180.667
11
202.77
21
193.468
0
LINE
8
0
6
CONTINUOUS
62
7
10
221.82
20
193.468
11
237.42
21
193.468
0
LINE
8
0
6
CONTINUOUS
62
7
10
237.42
20
193.468
11
237.42
21
180.667
0
LINE
8
0
6
CONTINUOUS
62
7
10
237.42
20
180.667
11
221.82
21
180.667
0
LINE
8
0
6
CONTINUOUS
62
7
10
221.82
20
180.667
11
221.82
21
193.468
0
LINE
8
0
6
CONTINUOUS
62
7
10
240.87
20
193.468
11
256.47
21
193.468
0
LINE
8
0
6
CONTINUOUS
62
7
10
256.47
20
193.468
11
256.47
21
180.667
0
LINE
8
0
6
CONTINUOUS
62
7
10
256.47
20
180.667
11
240.87
21
180.667
0
LINE
8
0
6
CONTINUOUS
62
7
10
240.87
20
180.667
11
240.87
21
193.468
0
LINE
8
0
6
CONTINUOUS
62
7
10
259.92
20
193.468
11
275.52
21
193.468
0
LINE
8
0
6
CONTINUOUS
62
7
10
275.52
20
193.468
11
275.52
21
180.667
0
LINE
8
0
6
CONTINUOUS
62
7
10
275.52
20
180.667
11
259.92
21
180.667
0
LINE
8
0
6
CONTINUOUS
62
7
10
259.92
20
180.667
11
259.92
21
193.468
0
LINE
8
0
6
CONTINUOUS
62
7
10
317.07
20
193.468
11
332.67
21
193.468
0
LINE
8
0
6
CONTINUOUS
62
7
10
332.67
20
193.468
11
332.67
21
180.667
0
LINE
8
0
6
CONTINUOUS
62
7
10
332.67
20
180.667
11
317.07
21
180.667
0
LINE
8
0
6
CONTINUOUS
62
7
10
317.07
20
180.667
11
317.07
21
193.468
0
LINE
8
0
6
CONTINUOUS
62
7
10
336.12
20
193.468
11
351.72
21
193.468
0
LINE
8
0
6
CONTINUOUS
62
7
10
351.72
20
193.468
11
351.72
21
180.667
0
LINE
8
0
6
CONTINUOUS
62
7
10
351.72
20
180.667
11
336.12
21
180.667
0
LINE
8
0
6
CONTINUOUS
62
7
10
336.12
20
180.667
11
336.12
21
193.468
0
LINE
8
0
6
CONTINUOUS
62
7
10
355.17
20
193.468
11
370.77
21
193.468
0
LINE
8
0
6
CONTINUOUS
62
7
10
370.77
20
193.468
11
370.77
21
180.667
0
LINE
8
0
6
CONTINUOUS
62
7
10
370.77
20
180.667
11
355.17
21
180.667
0
LINE
8
0
6
CONTINUOUS
62
7
10
355.17
20
180.667
11
355.17
21
193.468
0
LINE
8
0
6
CONTINUOUS
62
7
10
374.22
20
193.468
11
389.82
21
193.468
0
LINE
8
0
6
CONTINUOUS
62
7
10
389.82
20
193.468
11
389.82
21
180.667
0
LINE
8
0
6
CONTINUOUS
62
7
10
389.82
20
180.667
11
374.22
21
180.667
0
LINE
8
0
6
CONTINUOUS
62
7
10
374.22
20
180.667
11
374.22
21
193.468
0
ENDSEC
0
EOF
