0
SECTION
2
HEADER
9
$ANGDIR
70
0
9
$CHAMFERA
40
10
9
$CHAMFERB
40
10
9
$CLAYER
8
Layer_1
9
$EXTMAX
10
395.148
20
204
9
$EXTMIN
10
25.8505
20
92
9
$LIMMAX
10
420
20
297
9
$LIMMIN
10
0
20
0
9
$LTSCALE
40
10
9
$PLINEGEN
70
0
9
$TEXTSIZE
40
20
9
$GRIDUNIT
10
10
20
10
9
$SNAPUNIT
10
1
20
1
0
ENDSEC
0
SECTION
2
TABLES
0
TABLE
2
STYLE
70
1
0
STYLE
2
STANDARD
70
0
40
0
41
1
50
0
71
0
42
0.2
3
txt
4

0
ENDTAB
0
TABLE
2
LTYPE
70
14
0
LTYPE
2
CONTINUOUS
70
0
3
Solid line
72
65
73
0
40
0
0
LTYPE
2
DOT
70
0
3
............................................
72
65
73
2
40
0.25
49
0
49
-0.25
0
LTYPE
2
HIDDEN
70
0
3
_ _ _ _ _ _ _ _ _ _ _ _ _ _ _ _ _ _ _ _ _ _ 
72
65
73
2
40
0.375
49
0.25
49
-0.125
0
LTYPE
2
TSLONGDASH
70
0
3
__ __ __ __ __ __ __ __ __ __ __ __ __ __ _ 
72
65
73
2
40
1.28
49
1
49
-0.28
0
LTYPE
2
TSDASHDOT
70
0
3
______ . ______ . ______ . ______ . ______ .
72
65
73
4
40
1.28
49
1
49
-0.14
49
0
49
-0.14
0
LTYPE
2
TSCENTER
70
0
3
______ _ ______ _ ______ _ ______ _ ______ _
72
65
73
4
40
2
49
1.5
49
-0.18
49
0.14
49
-0.18
0
LTYPE
2
TSPHANTOM
70
0
3
_____ _ _ _____ _ _ _____ _ _ _____ _ _ ____
72
65
73
6
40
2.5
49
1.63
49
-0.19
49
0.15
49
-0.19
49
0.15
49
-0.19
0
LTYPE
2
DASHED
70
0
3
__ __ __ __ __ __ __ __ __ __ __ __ __ __ __
72
65
73
2
40
0.75
49
0.5
49
-0.25
0
LTYPE
2
CENTER
70
0
3
____ _ ____ _ ____ _ ____ _ ____ _ ____ _ __
72
65
73
4
40
2
49
1.25
49
-0.25
49
0.25
49
-0.25
0
LTYPE
2
PHANTOM
70
0
3
_____ _ _ _____ _ _ _____ _ _ _____ _ _ ____
72
65
73
6
40
2.5
49
1.25
49
-0.25
49
0.25
49
-0.25
49
0.25
49
-0.25
0
LTYPE
2
DASHDOT
70
0
3
__ . __ . __ . __ . __ . __ . __ . __ . __ .
72
65
73
4
40
1
49
0.5
49
-0.25
49
0
49
-0.25
0
LTYPE
2
BORDER
70
0
3
__ __ . __ __ . __ __ . __ __ . __ __ . __ _
72
65
73
6
40
1.75
49
0.5
49
-0.25
49
0.5
49
-0.25
49
0
49
-0.25
0
LTYPE
2
DIVIDE
70
0
3
__ . . __ . . __ . . __ . . __ . . __ . . __
72
65
73
6
40
1.25
49
0.5
49
-0.25
49
0
49
-0.25
49
0
49
-0.25
0
ENDTAB
0
TABLE
2
LAYER
70
4
0
LAYER
2
Layer_1
70
0
62
7
6
CONTINUOUS
0
LAYER
2
Layer_2
70
0
62
7
6
CONTINUOUS
0
LAYER
2
Layer_3
70
0
62
7
6
CONTINUOUS
0
LAYER
2
0
70
0
62
7
6
CONTINUOUS
0
ENDTAB
0
ENDSEC
0
SECTION
2
ENTITIES
0
CIRCLE
8
0
6
CONTINUOUS
62
7
10
117.25
20
200.5
40
1.3
0
CIRCLE
8
0
6
CONTINUOUS
62
7
10
210.5
20
200.5
40
1.3
0
CIRCLE
8
0
6
CONTINUOUS
62
7
10
303.75
20
200.5
40
1.3
0
CIRCLE
8
0
6
CONTINUOUS
62
7
10
380.5
20
200.5
40
1.3
0
CIRCLE
8
0
6
CONTINUOUS
62
7
10
380
20
95.5
40
1.3
0
CIRCLE
8
0
6
CONTINUOUS
62
7
10
303.75
20
95.5
40
1.3
0
CIRCLE
8
0
6
CONTINUOUS
62
7
10
210.5
20
95.5
40
1.3
0
CIRCLE
8
0
6
CONTINUOUS
62
7
10
117.25
20
95.5
40
1.3
0
CIRCLE
8
0
6
CONTINUOUS
62
7
10
41
20
200.5
40
1.3
0
CIRCLE
8
0
6
CONTINUOUS
62
7
10
41
20
95.5
40
1.3
0
LINE
8
0
6
CONTINUOUS
62
7
10
49.5
20
95.5
11
50.9142
21
96.9142
0
LINE
8
0
6
CONTINUOUS
62
7
10
108.75
20
95.5
11
107.336
21
96.9142
0
LINE
8
0
6
CONTINUOUS
62
7
10
36
20
92
11
35.75
21
92
0
LINE
8
0
6
CONTINUOUS
62
7
10
36
20
204
11
35.75
21
204
0
LINE
8
0
6
CONTINUOUS
62
7
10
35.75
20
204
11
25.8505
21
194.101
0
LINE
8
0
6
CONTINUOUS
62
7
10
371.5
20
95.5
11
370.086
21
96.9142
0
LINE
8
0
6
CONTINUOUS
62
7
10
35.75
20
92
11
25.8505
21
101.899
0
LINE
8
0
6
CONTINUOUS
62
7
10
125.75
20
95.5
11
127.164
21
96.9142
0
LINE
8
0
6
CONTINUOUS
62
7
10
202
20
95.5
11
200.586
21
96.9142
0
LINE
8
0
6
CONTINUOUS
62
7
10
219
20
95.5
11
220.414
21
96.9142
0
LINE
8
0
6
CONTINUOUS
62
7
10
25.8505
20
194.101
11
25.8505
21
101.899
0
LINE
8
0
6
CONTINUOUS
62
7
10
295.25
20
95.5
11
293.836
21
96.9142
0
LINE
8
0
6
CONTINUOUS
62
7
10
385
20
92
11
385.25
21
92
0
LINE
8
0
6
CONTINUOUS
62
7
10
385.25
20
92
11
395.148
21
101.898
0
LINE
8
0
6
CONTINUOUS
62
7
10
385
20
204
11
385.25
21
204
0
LINE
8
0
6
CONTINUOUS
62
7
10
385.25
20
204
11
395.148
21
194.102
0
LINE
8
0
6
CONTINUOUS
62
7
10
395.148
20
194.102
11
395.148
21
101.898
0
LINE
8
0
6
CONTINUOUS
62
7
10
312.25
20
95.5
11
313.664
21
96.9142
0
LINE
8
0
6
CONTINUOUS
62
7
10
313.664
20
199.086
11
370.086
21
199.086
0
LINE
8
0
6
CONTINUOUS
62
7
10
220.414
20
199.086
11
293.836
21
199.086
0
LINE
8
0
6
CONTINUOUS
62
7
10
295.25
20
200.5
11
293.836
21
199.086
0
LINE
8
0
6
CONTINUOUS
62
7
10
50.9142
20
96.9142
11
107.336
21
96.9142
0
LINE
8
0
6
CONTINUOUS
62
7
10
49.5
20
200.5
11
50.9142
21
199.086
0
LINE
8
0
6
CONTINUOUS
62
7
10
108.75
20
200.5
11
107.336
21
199.086
0
LINE
8
0
6
CONTINUOUS
62
7
10
125.75
20
200.5
11
127.164
21
199.086
0
LINE
8
0
6
CONTINUOUS
62
7
10
202
20
200.5
11
200.586
21
199.086
0
LINE
8
0
6
CONTINUOUS
62
7
10
219
20
200.5
11
220.414
21
199.086
0
LINE
8
0
6
CONTINUOUS
62
7
10
127.164
20
96.9142
11
200.586
21
96.9142
0
LINE
8
0
6
CONTINUOUS
62
7
10
312.25
20
200.5
11
313.664
21
199.086
0
LINE
8
0
6
CONTINUOUS
62
7
10
371.5
20
200.5
11
370.086
21
199.086
0
LINE
8
0
6
CONTINUOUS
62
7
10
220.414
20
96.9142
11
293.836
21
96.9142
0
LINE
8
0
6
CONTINUOUS
62
7
10
313.664
20
96.9142
11
370.086
21
96.9142
0
LINE
8
0
6
CONTINUOUS
62
7
10
50.9142
20
199.086
11
107.336
21
199.086
0
LINE
8
0
6
CONTINUOUS
62
7
10
127.164
20
199.086
11
200.586
21
199.086
0
LINE
8
0
6
CONTINUOUS
62
7
10
36
20
204
11
46
21
204
0
LINE
8
0
6
CONTINUOUS
62
7
10
112.25
20
204
11
122.25
21
204
0
LINE
8
0
6
CONTINUOUS
62
7
10
205.5
20
204
11
215.5
21
204
0
LINE
8
0
6
CONTINUOUS
62
7
10
298.75
20
204
11
308.75
21
204
0
LINE
8
0
6
CONTINUOUS
62
7
10
375
20
204
11
385
21
204
0
LINE
8
0
6
CONTINUOUS
62
7
10
385
20
92
11
375
21
92
0
LINE
8
0
6
CONTINUOUS
62
7
10
308.75
20
92
11
298.75
21
92
0
LINE
8
0
6
CONTINUOUS
62
7
10
215.5
20
92
11
205.5
21
92
0
LINE
8
0
6
CONTINUOUS
62
7
10
122.25
20
92
11
112.25
21
92
0
LINE
8
0
6
CONTINUOUS
62
7
10
46
20
92
11
36
21
92
0
LINE
8
0
6
CONTINUOUS
62
7
10
202
20
200.5
11
205.5
21
204
0
LINE
8
0
6
CONTINUOUS
62
7
10
215.5
20
204
11
219
21
200.5
0
LINE
8
0
6
CONTINUOUS
62
7
10
46
20
204
11
49.5
21
200.5
0
LINE
8
0
6
CONTINUOUS
62
7
10
375
20
204
11
371.5
21
200.5
0
LINE
8
0
6
CONTINUOUS
62
7
10
46
20
92
11
49.5
21
95.5
0
LINE
8
0
6
CONTINUOUS
62
7
10
202
20
95.5
11
205.5
21
92
0
LINE
8
0
6
CONTINUOUS
62
7
10
215.5
20
92
11
219
21
95.5
0
LINE
8
0
6
CONTINUOUS
62
7
10
371.5
20
95.5
11
375
21
92
0
LINE
8
0
6
CONTINUOUS
62
7
10
312.25
20
95.5
11
308.75
21
92
0
LINE
8
0
6
CONTINUOUS
62
7
10
295.25
20
95.5
11
298.75
21
92
0
LINE
8
0
6
CONTINUOUS
62
7
10
108.75
20
95.5
11
112.25
21
92
0
LINE
8
0
6
CONTINUOUS
62
7
10
122.25
20
92
11
125.75
21
95.5
0
LINE
8
0
6
CONTINUOUS
62
7
10
298.75
20
204
11
295.25
21
200.5
0
LINE
8
0
6
CONTINUOUS
62
7
10
308.75
20
204
11
312.25
21
200.5
0
LINE
8
0
6
CONTINUOUS
62
7
10
108.75
20
200.5
11
112.25
21
204
0
LINE
8
0
6
CONTINUOUS
62
7
10
122.25
20
204
11
125.75
21
200.5
0
LINE
8
0
6
CONTINUOUS
62
7
10
309.888
20
143.942
11
310.012
21
143.942
0
LINE
8
0
6
CONTINUOUS
62
7
10
310.012
20
143.942
11
310.012
21
147.467
0
LINE
8
0
6
CONTINUOUS
62
7
10
301.712
20
141.568
11
302.439
21
141.568
0
LINE
8
0
6
CONTINUOUS
62
7
10
207.189
20
112.168
11
207.189
21
107.569
0
LINE
8
0
6
CONTINUOUS
62
7
10
381.52
20
135.493
11
381.52
21
135.318
0
LINE
8
0
6
CONTINUOUS
62
7
10
381.52
20
135.318
11
374.22
21
135.318
0
LINE
8
0
6
CONTINUOUS
62
7
10
374.22
20
135.318
11
374.22
21
122.518
0
LINE
8
0
6
CONTINUOUS
62
7
10
374.22
20
122.518
11
375.619
21
122.518
0
LINE
8
0
6
CONTINUOUS
62
7
10
375.619
20
122.518
11
375.619
21
116.268
0
LINE
8
0
6
CONTINUOUS
62
7
10
375.619
20
116.268
11
374.22
21
116.268
0
LINE
8
0
6
CONTINUOUS
62
7
10
374.22
20
116.268
11
374.22
21
103.468
0
LINE
8
0
6
CONTINUOUS
62
7
10
374.22
20
103.468
11
381.52
21
103.468
0
LINE
8
0
6
CONTINUOUS
62
7
10
381.52
20
103.468
11
381.52
21
103.293
0
LINE
8
0
6
CONTINUOUS
62
7
10
381.52
20
103.293
11
384.32
21
103.293
0
LINE
8
0
6
CONTINUOUS
62
7
10
384.32
20
103.293
11
384.32
21
103.468
0
LINE
8
0
6
CONTINUOUS
62
7
10
384.32
20
103.468
11
389.82
21
103.468
0
LINE
8
0
6
CONTINUOUS
62
7
10
389.82
20
103.468
11
389.82
21
116.268
0
LINE
8
0
6
CONTINUOUS
62
7
10
389.82
20
116.268
11
388.42
21
116.268
0
LINE
8
0
6
CONTINUOUS
62
7
10
388.42
20
116.268
11
388.42
21
122.518
0
LINE
8
0
6
CONTINUOUS
62
7
10
388.42
20
122.518
11
389.82
21
122.518
0
LINE
8
0
6
CONTINUOUS
62
7
10
389.82
20
122.518
11
389.82
21
135.318
0
LINE
8
0
6
CONTINUOUS
62
7
10
389.82
20
135.318
11
384.32
21
135.318
0
LINE
8
0
6
CONTINUOUS
62
7
10
384.32
20
135.318
11
384.32
21
135.493
0
LINE
8
0
6
CONTINUOUS
62
7
10
384.32
20
135.493
11
381.52
21
135.493
0
LINE
8
0
6
CONTINUOUS
62
7
10
94.6192
20
117.617
11
94.6192
21
116.637
0
LINE
8
0
6
CONTINUOUS
62
7
10
94.6192
20
116.637
11
92.8938
21
116.637
0
LINE
8
0
6
CONTINUOUS
62
7
10
92.8938
20
116.637
11
92.8938
21
116.268
0
LINE
8
0
6
CONTINUOUS
62
7
10
92.8938
20
116.268
11
81.3252
21
116.268
0
LINE
8
0
6
CONTINUOUS
62
7
10
80.2573
20
116.268
11
81.3252
21
116.268
0
LINE
8
0
6
CONTINUOUS
62
7
10
81.3252
20
103.468
11
94.6192
21
103.468
0
LINE
8
0
6
CONTINUOUS
62
7
10
94.6192
20
103.468
11
94.6192
21
103.418
0
LINE
8
0
6
CONTINUOUS
62
7
10
94.6192
20
103.418
11
97.9181
21
103.418
0
LINE
8
0
6
CONTINUOUS
62
7
10
97.9181
20
103.418
11
97.9181
21
103.468
0
LINE
8
0
6
CONTINUOUS
62
7
10
97.9181
20
103.468
11
99.3073
21
103.468
0
LINE
8
0
6
CONTINUOUS
62
7
10
99.3073
20
103.468
11
99.3073
21
104.337
0
LINE
8
0
6
CONTINUOUS
62
7
10
99.3073
20
104.337
11
99.6435
21
104.337
0
LINE
8
0
6
CONTINUOUS
62
7
10
99.6435
20
104.337
11
99.6435
21
107.567
0
LINE
8
0
6
CONTINUOUS
62
7
10
213.945
20
112.168
11
213.945
21
107.569
0
LINE
8
0
6
CONTINUOUS
62
7
10
107.188
20
107.567
11
107.188
21
104.337
0
LINE
8
0
6
CONTINUOUS
62
7
10
107.188
20
104.337
11
108.912
21
104.337
0
LINE
8
0
6
CONTINUOUS
62
7
10
108.912
20
104.337
11
108.912
21
103.418
0
LINE
8
0
6
CONTINUOUS
62
7
10
108.912
20
103.418
11
112.213
21
103.418
0
LINE
8
0
6
CONTINUOUS
62
7
10
112.213
20
103.418
11
112.213
21
104.337
0
LINE
8
0
6
CONTINUOUS
62
7
10
112.213
20
104.337
11
113.669
21
104.337
0
LINE
8
0
6
CONTINUOUS
62
7
10
113.669
20
104.337
11
113.669
21
103.418
0
LINE
8
0
6
CONTINUOUS
62
7
10
113.669
20
103.418
11
116.97
21
103.418
0
LINE
8
0
6
CONTINUOUS
62
7
10
116.97
20
103.418
11
116.97
21
104.337
0
LINE
8
0
6
CONTINUOUS
62
7
10
116.97
20
104.337
11
118.695
21
104.337
0
LINE
8
0
6
CONTINUOUS
62
7
10
118.695
20
104.337
11
118.695
21
107.567
0
LINE
8
0
6
CONTINUOUS
62
7
10
224.2
20
107.569
11
224.2
21
112.168
0
LINE
8
0
6
CONTINUOUS
62
7
10
145.619
20
107.567
11
145.619
21
103.468
0
LINE
8
0
6
CONTINUOUS
62
7
10
145.619
20
103.468
11
180.27
21
103.468
0
LINE
8
0
6
CONTINUOUS
62
7
10
180.27
20
103.468
11
180.27
21
107.569
0
LINE
8
0
6
CONTINUOUS
62
7
10
118.695
20
112.167
11
118.695
21
107.567
0
LINE
8
0
6
CONTINUOUS
62
7
10
207.189
20
107.569
11
207.189
21
104.337
0
LINE
8
0
6
CONTINUOUS
62
7
10
207.189
20
104.337
11
208.912
21
104.337
0
LINE
8
0
6
CONTINUOUS
62
7
10
208.912
20
104.337
11
208.912
21
103.418
0
LINE
8
0
6
CONTINUOUS
62
7
10
208.912
20
103.418
11
212.219
21
103.418
0
LINE
8
0
6
CONTINUOUS
62
7
10
212.219
20
103.418
11
212.219
21
104.337
0
LINE
8
0
6
CONTINUOUS
62
7
10
212.219
20
104.337
11
213.938
21
104.337
0
LINE
8
0
6
CONTINUOUS
62
7
10
213.938
20
104.337
11
213.938
21
104.338
0
LINE
8
0
6
CONTINUOUS
62
7
10
213.938
20
104.338
11
213.945
21
104.338
0
LINE
8
0
6
CONTINUOUS
62
7
10
213.945
20
104.338
11
213.945
21
107.569
0
LINE
8
0
6
CONTINUOUS
62
7
10
145.619
20
112.167
11
145.619
21
107.567
0
LINE
8
0
6
CONTINUOUS
62
7
10
224.2
20
107.569
11
224.2
21
103.468
0
LINE
8
0
6
CONTINUOUS
62
7
10
224.2
20
103.468
11
227.969
21
103.468
0
LINE
8
0
6
CONTINUOUS
62
7
10
227.969
20
103.468
11
227.969
21
103.418
0
LINE
8
0
6
CONTINUOUS
62
7
10
227.969
20
103.418
11
231.269
21
103.418
0
LINE
8
0
6
CONTINUOUS
62
7
10
231.269
20
103.418
11
231.269
21
103.468
0
LINE
8
0
6
CONTINUOUS
62
7
10
231.269
20
103.468
11
242.182
21
103.468
0
LINE
8
0
6
CONTINUOUS
62
7
10
242.182
20
103.468
11
242.182
21
116.268
0
LINE
8
0
6
CONTINUOUS
62
7
10
242.182
20
116.268
11
232.995
21
116.268
0
LINE
8
0
6
CONTINUOUS
62
7
10
232.995
20
116.268
11
232.995
21
116.639
0
LINE
8
0
6
CONTINUOUS
62
7
10
232.995
20
116.639
11
231.269
21
116.639
0
LINE
8
0
6
CONTINUOUS
62
7
10
231.269
20
116.639
11
231.269
21
117.617
0
LINE
8
0
6
CONTINUOUS
62
7
10
231.269
20
117.617
11
227.969
21
117.617
0
LINE
8
0
6
CONTINUOUS
62
7
10
227.969
20
117.617
11
227.969
21
116.639
0
LINE
8
0
6
CONTINUOUS
62
7
10
227.969
20
116.639
11
226.245
21
116.639
0
LINE
8
0
6
CONTINUOUS
62
7
10
226.245
20
116.639
11
226.245
21
116.268
0
LINE
8
0
6
CONTINUOUS
62
7
10
226.245
20
116.268
11
224.2
21
116.268
0
LINE
8
0
6
CONTINUOUS
62
7
10
224.2
20
116.268
11
224.2
21
112.168
0
LINE
8
0
6
CONTINUOUS
62
7
10
180.27
20
107.569
11
180.27
21
112.168
0
LINE
8
0
6
CONTINUOUS
62
7
10
213.945
20
112.168
11
213.945
21
116.639
0
LINE
8
0
6
CONTINUOUS
62
7
10
213.945
20
116.639
11
212.219
21
116.639
0
LINE
8
0
6
CONTINUOUS
62
7
10
212.219
20
116.639
11
212.219
21
117.617
0
LINE
8
0
6
CONTINUOUS
62
7
10
212.219
20
117.617
11
208.912
21
117.617
0
LINE
8
0
6
CONTINUOUS
62
7
10
208.912
20
117.617
11
208.912
21
116.639
0
LINE
8
0
6
CONTINUOUS
62
7
10
208.912
20
116.639
11
207.189
21
116.639
0
LINE
8
0
6
CONTINUOUS
62
7
10
207.189
20
116.639
11
207.189
21
112.168
0
LINE
8
0
6
CONTINUOUS
62
7
10
180.27
20
112.168
11
180.602
21
112.157
0
LINE
8
0
6
CONTINUOUS
62
7
10
180.27
20
112.168
11
180.27
21
116.268
0
LINE
8
0
6
CONTINUOUS
62
7
10
180.27
20
116.268
11
145.619
21
116.268
0
LINE
8
0
6
CONTINUOUS
62
7
10
145.619
20
116.268
11
145.619
21
112.167
0
LINE
8
0
6
CONTINUOUS
62
7
10
107.188
20
107.567
11
107.188
21
112.167
0
LINE
8
0
6
CONTINUOUS
62
7
10
118.695
20
112.167
11
118.695
21
116.637
0
LINE
8
0
6
CONTINUOUS
62
7
10
118.695
20
116.637
11
116.97
21
116.637
0
LINE
8
0
6
CONTINUOUS
62
7
10
116.97
20
116.637
11
116.97
21
117.617
0
LINE
8
0
6
CONTINUOUS
62
7
10
116.97
20
117.617
11
113.669
21
117.617
0
LINE
8
0
6
CONTINUOUS
62
7
10
113.669
20
117.617
11
113.669
21
116.637
0
LINE
8
0
6
CONTINUOUS
62
7
10
113.669
20
116.637
11
112.213
21
116.637
0
LINE
8
0
6
CONTINUOUS
62
7
10
112.213
20
116.637
11
112.213
21
117.617
0
LINE
8
0
6
CONTINUOUS
62
7
10
112.213
20
117.617
11
108.912
21
117.617
0
LINE
8
0
6
CONTINUOUS
62
7
10
108.912
20
117.617
11
108.912
21
116.637
0
LINE
8
0
6
CONTINUOUS
62
7
10
108.912
20
116.637
11
107.188
21
116.637
0
LINE
8
0
6
CONTINUOUS
62
7
10
107.188
20
116.637
11
107.188
21
112.167
0
LINE
8
0
6
CONTINUOUS
62
7
10
99.6435
20
112.167
11
99.6435
21
107.567
0
LINE
8
0
6
CONTINUOUS
62
7
10
99.6435
20
112.167
11
99.6435
21
116.637
0
LINE
8
0
6
CONTINUOUS
62
7
10
99.6435
20
116.637
11
97.9181
21
116.637
0
LINE
8
0
6
CONTINUOUS
62
7
10
97.9181
20
116.637
11
97.9181
21
117.617
0
LINE
8
0
6
CONTINUOUS
62
7
10
97.9181
20
117.617
11
94.6192
21
117.617
0
LINE
8
0
6
CONTINUOUS
62
7
10
320.845
20
117.617
11
320.845
21
116.637
0
LINE
8
0
6
CONTINUOUS
62
7
10
320.845
20
116.637
11
319.12
21
116.637
0
LINE
8
0
6
CONTINUOUS
62
7
10
319.12
20
116.637
11
319.12
21
116.268
0
LINE
8
0
6
CONTINUOUS
62
7
10
319.12
20
116.268
11
317.07
21
116.268
0
LINE
8
0
6
CONTINUOUS
62
7
10
317.07
20
116.268
11
317.07
21
103.468
0
LINE
8
0
6
CONTINUOUS
62
7
10
317.07
20
103.468
11
320.845
21
103.468
0
LINE
8
0
6
CONTINUOUS
62
7
10
320.845
20
103.468
11
320.845
21
103.418
0
LINE
8
0
6
CONTINUOUS
62
7
10
320.845
20
103.418
11
324.145
21
103.418
0
LINE
8
0
6
CONTINUOUS
62
7
10
324.145
20
103.418
11
324.145
21
103.468
0
LINE
8
0
6
CONTINUOUS
62
7
10
324.145
20
103.468
11
344.645
21
103.468
0
LINE
8
0
6
CONTINUOUS
62
7
10
344.645
20
103.468
11
344.645
21
103.418
0
LINE
8
0
6
CONTINUOUS
62
7
10
344.645
20
103.418
11
347.945
21
103.418
0
LINE
8
0
6
CONTINUOUS
62
7
10
347.945
20
103.418
11
347.945
21
103.468
0
LINE
8
0
6
CONTINUOUS
62
7
10
347.945
20
103.468
11
351.72
21
103.468
0
LINE
8
0
6
CONTINUOUS
62
7
10
351.72
20
103.468
11
351.72
21
116.268
0
LINE
8
0
6
CONTINUOUS
62
7
10
351.72
20
116.268
11
349.669
21
116.268
0
LINE
8
0
6
CONTINUOUS
62
7
10
349.669
20
116.268
11
349.669
21
116.637
0
LINE
8
0
6
CONTINUOUS
62
7
10
349.669
20
116.637
11
347.945
21
116.637
0
LINE
8
0
6
CONTINUOUS
62
7
10
347.945
20
116.637
11
347.945
21
117.617
0
LINE
8
0
6
CONTINUOUS
62
7
10
347.945
20
117.617
11
344.645
21
117.617
0
LINE
8
0
6
CONTINUOUS
62
7
10
344.645
20
117.617
11
344.645
21
116.637
0
LINE
8
0
6
CONTINUOUS
62
7
10
344.645
20
116.637
11
342.92
21
116.637
0
LINE
8
0
6
CONTINUOUS
62
7
10
342.92
20
116.637
11
342.92
21
116.268
0
LINE
8
0
6
CONTINUOUS
62
7
10
342.92
20
116.268
11
325.869
21
116.268
0
LINE
8
0
6
CONTINUOUS
62
7
10
325.869
20
116.268
11
325.869
21
116.637
0
LINE
8
0
6
CONTINUOUS
62
7
10
325.869
20
116.637
11
324.145
21
116.637
0
LINE
8
0
6
CONTINUOUS
62
7
10
324.145
20
116.637
11
324.145
21
117.617
0
LINE
8
0
6
CONTINUOUS
62
7
10
324.145
20
117.617
11
320.845
21
117.617
0
LINE
8
0
6
CONTINUOUS
62
7
10
33.7003
20
116.268
11
51.6823
21
116.268
0
LINE
8
0
6
CONTINUOUS
62
7
10
51.6823
20
116.268
11
51.6823
21
103.468
0
LINE
8
0
6
CONTINUOUS
62
7
10
51.6823
20
103.468
11
33.7003
21
103.468
0
LINE
8
0
6
CONTINUOUS
62
7
10
33.7003
20
103.468
11
33.7003
21
116.268
0
LINE
8
0
6
CONTINUOUS
62
7
10
57.5128
20
116.268
11
80.2573
21
116.268
0
LINE
8
0
6
CONTINUOUS
62
7
10
81.3252
20
103.468
11
80.2573
21
103.468
0
LINE
8
0
6
CONTINUOUS
62
7
10
80.2573
20
103.468
11
57.5128
21
103.468
0
LINE
8
0
6
CONTINUOUS
62
7
10
57.5128
20
103.468
11
57.5128
21
116.268
0
LINE
8
0
6
CONTINUOUS
62
7
10
245.631
20
116.268
11
313.62
21
116.268
0
LINE
8
0
6
CONTINUOUS
62
7
10
313.62
20
116.268
11
313.62
21
103.468
0
LINE
8
0
6
CONTINUOUS
62
7
10
313.62
20
103.468
11
245.631
21
103.468
0
LINE
8
0
6
CONTINUOUS
62
7
10
245.631
20
103.468
11
245.631
21
116.268
0
LINE
8
0
6
CONTINUOUS
62
7
10
355.17
20
116.268
11
370.77
21
116.268
0
LINE
8
0
6
CONTINUOUS
62
7
10
370.77
20
116.268
11
370.77
21
103.468
0
LINE
8
0
6
CONTINUOUS
62
7
10
370.77
20
103.468
11
355.17
21
103.468
0
LINE
8
0
6
CONTINUOUS
62
7
10
355.17
20
103.468
11
355.17
21
116.268
0
LINE
8
0
6
CONTINUOUS
62
7
10
37.4761
20
135.369
11
37.4761
21
135.318
0
LINE
8
0
6
CONTINUOUS
62
7
10
37.4761
20
135.318
11
33.7003
21
135.318
0
LINE
8
0
6
CONTINUOUS
62
7
10
33.7003
20
135.318
11
33.7003
21
122.518
0
LINE
8
0
6
CONTINUOUS
62
7
10
33.7003
20
122.518
11
35.7508
21
122.518
0
LINE
8
0
6
CONTINUOUS
62
7
10
35.7508
20
122.518
11
35.7508
21
122.147
0
LINE
8
0
6
CONTINUOUS
62
7
10
35.7508
20
122.147
11
37.4761
21
122.147
0
LINE
8
0
6
CONTINUOUS
62
7
10
37.4761
20
122.147
11
37.4761
21
121.167
0
LINE
8
0
6
CONTINUOUS
62
7
10
37.4761
20
121.167
11
40.7751
21
121.167
0
LINE
8
0
6
CONTINUOUS
62
7
10
40.7751
20
121.167
11
40.7751
21
122.147
0
LINE
8
0
6
CONTINUOUS
62
7
10
40.7751
20
122.147
11
42.5004
21
122.147
0
LINE
8
0
6
CONTINUOUS
62
7
10
42.5004
20
122.147
11
42.5004
21
122.518
0
LINE
8
0
6
CONTINUOUS
62
7
10
42.5004
20
122.518
11
59.5509
21
122.518
0
LINE
8
0
6
CONTINUOUS
62
7
10
59.5509
20
122.518
11
59.5509
21
122.147
0
LINE
8
0
6
CONTINUOUS
62
7
10
59.5509
20
122.147
11
61.2762
21
122.147
0
LINE
8
0
6
CONTINUOUS
62
7
10
61.2762
20
122.147
11
61.2762
21
121.167
0
LINE
8
0
6
CONTINUOUS
62
7
10
61.2762
20
121.167
11
64.5752
21
121.167
0
LINE
8
0
6
CONTINUOUS
62
7
10
64.5752
20
121.167
11
64.5752
21
122.147
0
LINE
8
0
6
CONTINUOUS
62
7
10
64.5752
20
122.147
11
66.3004
21
122.147
0
LINE
8
0
6
CONTINUOUS
62
7
10
66.3004
20
122.147
11
66.3004
21
122.518
0
LINE
8
0
6
CONTINUOUS
62
7
10
66.3004
20
122.518
11
70.7323
21
122.518
0
LINE
8
0
6
CONTINUOUS
62
7
10
70.7323
20
122.518
11
70.7323
21
135.318
0
LINE
8
0
6
CONTINUOUS
62
7
10
70.7323
20
135.318
11
64.5752
21
135.318
0
LINE
8
0
6
CONTINUOUS
62
7
10
64.5752
20
135.318
11
64.5752
21
135.369
0
LINE
8
0
6
CONTINUOUS
62
7
10
64.5752
20
135.369
11
61.2762
21
135.369
0
LINE
8
0
6
CONTINUOUS
62
7
10
61.2762
20
135.369
11
61.2762
21
135.318
0
LINE
8
0
6
CONTINUOUS
62
7
10
61.2762
20
135.318
11
40.7751
21
135.318
0
LINE
8
0
6
CONTINUOUS
62
7
10
40.7751
20
135.318
11
40.7751
21
135.369
0
LINE
8
0
6
CONTINUOUS
62
7
10
40.7751
20
135.369
11
37.4761
21
135.369
0
LINE
8
0
6
CONTINUOUS
62
7
10
275.601
20
135.369
11
275.601
21
135.318
0
LINE
8
0
6
CONTINUOUS
62
7
10
275.601
20
135.318
11
264.681
21
135.318
0
LINE
8
0
6
CONTINUOUS
62
7
10
264.681
20
135.318
11
264.681
21
122.518
0
LINE
8
0
6
CONTINUOUS
62
7
10
264.681
20
122.518
11
273.876
21
122.518
0
LINE
8
0
6
CONTINUOUS
62
7
10
273.876
20
122.518
11
273.876
21
122.147
0
LINE
8
0
6
CONTINUOUS
62
7
10
273.876
20
122.147
11
275.601
21
122.147
0
LINE
8
0
6
CONTINUOUS
62
7
10
275.601
20
122.147
11
275.601
21
121.167
0
LINE
8
0
6
CONTINUOUS
62
7
10
275.601
20
121.167
11
278.9
21
121.167
0
LINE
8
0
6
CONTINUOUS
62
7
10
278.9
20
121.167
11
278.9
21
122.147
0
LINE
8
0
6
CONTINUOUS
62
7
10
278.9
20
122.147
11
280.626
21
122.147
0
LINE
8
0
6
CONTINUOUS
62
7
10
280.626
20
122.147
11
280.626
21
122.518
0
LINE
8
0
6
CONTINUOUS
62
7
10
280.626
20
122.518
11
297.676
21
122.518
0
LINE
8
0
6
CONTINUOUS
62
7
10
297.676
20
122.518
11
297.676
21
122.147
0
LINE
8
0
6
CONTINUOUS
62
7
10
297.676
20
122.147
11
299.401
21
122.147
0
LINE
8
0
6
CONTINUOUS
62
7
10
299.401
20
122.147
11
299.401
21
121.167
0
LINE
8
0
6
CONTINUOUS
62
7
10
299.401
20
121.167
11
302.7
21
121.167
0
LINE
8
0
6
CONTINUOUS
62
7
10
302.7
20
121.167
11
302.7
21
122.147
0
LINE
8
0
6
CONTINUOUS
62
7
10
302.7
20
122.147
11
304.425
21
122.147
0
LINE
8
0
6
CONTINUOUS
62
7
10
304.425
20
122.147
11
304.425
21
122.518
0
LINE
8
0
6
CONTINUOUS
62
7
10
304.425
20
122.518
11
313.62
21
122.518
0
LINE
8
0
6
CONTINUOUS
62
7
10
313.62
20
122.518
11
313.62
21
135.318
0
LINE
8
0
6
CONTINUOUS
62
7
10
313.62
20
135.318
11
302.7
21
135.318
0
LINE
8
0
6
CONTINUOUS
62
7
10
302.7
20
135.318
11
302.7
21
135.369
0
LINE
8
0
6
CONTINUOUS
62
7
10
302.7
20
135.369
11
299.401
21
135.369
0
LINE
8
0
6
CONTINUOUS
62
7
10
299.401
20
135.369
11
299.401
21
135.318
0
LINE
8
0
6
CONTINUOUS
62
7
10
299.401
20
135.318
11
278.9
21
135.318
0
LINE
8
0
6
CONTINUOUS
62
7
10
278.9
20
135.318
11
278.9
21
135.369
0
LINE
8
0
6
CONTINUOUS
62
7
10
278.9
20
135.369
11
275.601
21
135.369
0
LINE
8
0
6
CONTINUOUS
62
7
10
74.1814
20
135.318
11
89.7823
21
135.318
0
LINE
8
0
6
CONTINUOUS
62
7
10
89.7823
20
135.318
11
89.7823
21
122.518
0
LINE
8
0
6
CONTINUOUS
62
7
10
89.7823
20
122.518
11
74.1814
21
122.518
0
LINE
8
0
6
CONTINUOUS
62
7
10
74.1814
20
122.518
11
74.1814
21
135.318
0
LINE
8
0
6
CONTINUOUS
62
7
10
93.2314
20
135.318
11
108.832
21
135.318
0
LINE
8
0
6
CONTINUOUS
62
7
10
108.832
20
135.318
11
108.832
21
122.518
0
LINE
8
0
6
CONTINUOUS
62
7
10
108.832
20
122.518
11
93.2314
21
122.518
0
LINE
8
0
6
CONTINUOUS
62
7
10
93.2314
20
122.518
11
93.2314
21
135.318
0
LINE
8
0
6
CONTINUOUS
62
7
10
112.281
20
135.318
11
127.882
21
135.318
0
LINE
8
0
6
CONTINUOUS
62
7
10
127.882
20
135.318
11
127.882
21
122.518
0
LINE
8
0
6
CONTINUOUS
62
7
10
127.882
20
122.518
11
112.281
21
122.518
0
LINE
8
0
6
CONTINUOUS
62
7
10
112.281
20
122.518
11
112.281
21
135.318
0
LINE
8
0
6
CONTINUOUS
62
7
10
131.331
20
135.318
11
146.932
21
135.318
0
LINE
8
0
6
CONTINUOUS
62
7
10
146.932
20
135.318
11
146.932
21
122.518
0
LINE
8
0
6
CONTINUOUS
62
7
10
146.932
20
122.518
11
131.331
21
122.518
0
LINE
8
0
6
CONTINUOUS
62
7
10
131.331
20
122.518
11
131.331
21
135.318
0
LINE
8
0
6
CONTINUOUS
62
7
10
150.381
20
135.318
11
165.982
21
135.318
0
LINE
8
0
6
CONTINUOUS
62
7
10
165.982
20
135.318
11
165.982
21
122.518
0
LINE
8
0
6
CONTINUOUS
62
7
10
165.982
20
122.518
11
150.381
21
122.518
0
LINE
8
0
6
CONTINUOUS
62
7
10
150.381
20
122.518
11
150.381
21
135.318
0
LINE
8
0
6
CONTINUOUS
62
7
10
169.431
20
135.318
11
185.032
21
135.318
0
LINE
8
0
6
CONTINUOUS
62
7
10
185.032
20
135.318
11
185.032
21
122.518
0
LINE
8
0
6
CONTINUOUS
62
7
10
185.032
20
122.518
11
169.431
21
122.518
0
LINE
8
0
6
CONTINUOUS
62
7
10
169.431
20
122.518
11
169.431
21
135.318
0
LINE
8
0
6
CONTINUOUS
62
7
10
188.481
20
135.318
11
204.082
21
135.318
0
LINE
8
0
6
CONTINUOUS
62
7
10
204.082
20
135.318
11
204.082
21
122.518
0
LINE
8
0
6
CONTINUOUS
62
7
10
204.082
20
122.518
11
188.481
21
122.518
0
LINE
8
0
6
CONTINUOUS
62
7
10
188.481
20
122.518
11
188.481
21
135.318
0
LINE
8
0
6
CONTINUOUS
62
7
10
207.531
20
135.318
11
223.132
21
135.318
0
LINE
8
0
6
CONTINUOUS
62
7
10
223.132
20
135.318
11
223.132
21
122.518
0
LINE
8
0
6
CONTINUOUS
62
7
10
223.132
20
122.518
11
207.531
21
122.518
0
LINE
8
0
6
CONTINUOUS
62
7
10
207.531
20
122.518
11
207.531
21
135.318
0
LINE
8
0
6
CONTINUOUS
62
7
10
226.581
20
135.318
11
242.182
21
135.318
0
LINE
8
0
6
CONTINUOUS
62
7
10
242.182
20
135.318
11
242.182
21
122.518
0
LINE
8
0
6
CONTINUOUS
62
7
10
242.182
20
122.518
11
226.581
21
122.518
0
LINE
8
0
6
CONTINUOUS
62
7
10
226.581
20
122.518
11
226.581
21
135.318
0
LINE
8
0
6
CONTINUOUS
62
7
10
245.631
20
135.318
11
261.232
21
135.318
0
LINE
8
0
6
CONTINUOUS
62
7
10
261.232
20
135.318
11
261.232
21
122.518
0
LINE
8
0
6
CONTINUOUS
62
7
10
261.232
20
122.518
11
245.631
21
122.518
0
LINE
8
0
6
CONTINUOUS
62
7
10
245.631
20
122.518
11
245.631
21
135.318
0
LINE
8
0
6
CONTINUOUS
62
7
10
317.07
20
135.318
11
332.67
21
135.318
0
LINE
8
0
6
CONTINUOUS
62
7
10
332.67
20
135.318
11
332.67
21
122.518
0
LINE
8
0
6
CONTINUOUS
62
7
10
332.67
20
122.518
11
317.07
21
122.518
0
LINE
8
0
6
CONTINUOUS
62
7
10
317.07
20
122.518
11
317.07
21
135.318
0
LINE
8
0
6
CONTINUOUS
62
7
10
336.12
20
135.318
11
351.72
21
135.318
0
LINE
8
0
6
CONTINUOUS
62
7
10
351.72
20
135.318
11
351.72
21
122.518
0
LINE
8
0
6
CONTINUOUS
62
7
10
351.72
20
122.518
11
336.12
21
122.518
0
LINE
8
0
6
CONTINUOUS
62
7
10
336.12
20
122.518
11
336.12
21
135.318
0
LINE
8
0
6
CONTINUOUS
62
7
10
355.17
20
135.318
11
370.77
21
135.318
0
LINE
8
0
6
CONTINUOUS
62
7
10
370.77
20
135.318
11
370.77
21
122.518
0
LINE
8
0
6
CONTINUOUS
62
7
10
370.77
20
122.518
11
355.17
21
122.518
0
LINE
8
0
6
CONTINUOUS
62
7
10
355.17
20
122.518
11
355.17
21
135.318
0
LINE
8
0
6
CONTINUOUS
62
7
10
302.937
20
173.593
11
302.937
21
173.418
0
LINE
8
0
6
CONTINUOUS
62
7
10
302.937
20
173.418
11
293.256
21
173.418
0
LINE
8
0
6
CONTINUOUS
62
7
10
293.256
20
173.418
11
293.256
21
160.618
0
LINE
8
0
6
CONTINUOUS
62
7
10
293.256
20
160.618
11
295.64
21
160.618
0
LINE
8
0
6
CONTINUOUS
62
7
10
309.837
20
163.894
11
311.239
21
163.894
0
LINE
8
0
6
CONTINUOUS
62
7
10
295.64
20
154.368
11
283.661
21
154.368
0
LINE
8
0
6
CONTINUOUS
62
7
10
283.661
20
154.368
11
283.661
21
154.418
0
LINE
8
0
6
CONTINUOUS
62
7
10
283.661
20
154.418
11
280.362
21
154.418
0
LINE
8
0
6
CONTINUOUS
62
7
10
280.362
20
154.418
11
280.362
21
154.368
0
LINE
8
0
6
CONTINUOUS
62
7
10
280.362
20
154.368
11
274.206
21
154.368
0
LINE
8
0
6
CONTINUOUS
62
7
10
274.206
20
154.368
11
274.206
21
141.568
0
LINE
8
0
6
CONTINUOUS
62
7
10
274.206
20
141.568
11
278.638
21
141.568
0
LINE
8
0
6
CONTINUOUS
62
7
10
278.638
20
141.568
11
278.638
21
141.198
0
LINE
8
0
6
CONTINUOUS
62
7
10
278.638
20
141.198
11
280.362
21
141.198
0
LINE
8
0
6
CONTINUOUS
62
7
10
280.362
20
141.198
11
280.362
21
140.217
0
LINE
8
0
6
CONTINUOUS
62
7
10
280.362
20
140.217
11
283.661
21
140.217
0
LINE
8
0
6
CONTINUOUS
62
7
10
283.661
20
140.217
11
283.661
21
141.198
0
LINE
8
0
6
CONTINUOUS
62
7
10
283.661
20
141.198
11
285.388
21
141.198
0
LINE
8
0
6
CONTINUOUS
62
7
10
285.388
20
141.198
11
285.388
21
141.568
0
LINE
8
0
6
CONTINUOUS
62
7
10
285.388
20
141.568
11
301.712
21
141.568
0
LINE
8
0
6
CONTINUOUS
62
7
10
302.439
20
141.568
11
302.439
21
141.198
0
LINE
8
0
6
CONTINUOUS
62
7
10
302.439
20
141.198
11
304.162
21
141.198
0
LINE
8
0
6
CONTINUOUS
62
7
10
304.162
20
141.198
11
304.162
21
140.217
0
LINE
8
0
6
CONTINUOUS
62
7
10
304.162
20
140.217
11
307.463
21
140.217
0
LINE
8
0
6
CONTINUOUS
62
7
10
307.463
20
140.217
11
307.463
21
141.198
0
LINE
8
0
6
CONTINUOUS
62
7
10
307.463
20
141.198
11
309.188
21
141.198
0
LINE
8
0
6
CONTINUOUS
62
7
10
309.188
20
141.198
11
309.188
21
143.942
0
LINE
8
0
6
CONTINUOUS
62
7
10
309.188
20
143.942
11
309.888
21
143.942
0
LINE
8
0
6
CONTINUOUS
62
7
10
310.012
20
147.467
11
310.012
21
150.267
0
LINE
8
0
6
CONTINUOUS
62
7
10
310.012
20
150.267
11
309.837
21
150.267
0
LINE
8
0
6
CONTINUOUS
62
7
10
309.837
20
150.267
11
309.837
21
151.094
0
LINE
8
0
6
CONTINUOUS
62
7
10
309.837
20
165.292
11
308.857
21
165.292
0
LINE
8
0
6
CONTINUOUS
62
7
10
308.857
20
165.292
11
308.857
21
166.018
0
LINE
8
0
6
CONTINUOUS
62
7
10
308.857
20
166.018
11
308.967
21
166.018
0
LINE
8
0
6
CONTINUOUS
62
7
10
308.967
20
166.018
11
308.967
21
167.742
0
LINE
8
0
6
CONTINUOUS
62
7
10
308.967
20
167.742
11
309.888
21
167.742
0
LINE
8
0
6
CONTINUOUS
62
7
10
309.888
20
167.742
11
309.888
21
171.042
0
LINE
8
0
6
CONTINUOUS
62
7
10
309.888
20
171.042
11
308.967
21
171.042
0
LINE
8
0
6
CONTINUOUS
62
7
10
308.967
20
171.042
11
308.967
21
172.768
0
LINE
8
0
6
CONTINUOUS
62
7
10
308.967
20
172.768
11
308.857
21
172.768
0
LINE
8
0
6
CONTINUOUS
62
7
10
308.857
20
172.768
11
308.857
21
173.418
0
LINE
8
0
6
CONTINUOUS
62
7
10
308.857
20
173.418
11
305.737
21
173.418
0
LINE
8
0
6
CONTINUOUS
62
7
10
305.737
20
173.418
11
305.737
21
173.593
0
LINE
8
0
6
CONTINUOUS
62
7
10
305.737
20
173.593
11
302.937
21
173.593
0
LINE
8
0
6
CONTINUOUS
62
7
10
381.52
20
173.593
11
381.52
21
173.418
0
LINE
8
0
6
CONTINUOUS
62
7
10
381.52
20
173.418
11
374.22
21
173.418
0
LINE
8
0
6
CONTINUOUS
62
7
10
374.22
20
173.418
11
374.22
21
160.618
0
LINE
8
0
6
CONTINUOUS
62
7
10
374.22
20
160.618
11
375.619
21
160.618
0
LINE
8
0
6
CONTINUOUS
62
7
10
375.619
20
160.618
11
375.619
21
154.368
0
LINE
8
0
6
CONTINUOUS
62
7
10
375.619
20
154.368
11
374.22
21
154.368
0
LINE
8
0
6
CONTINUOUS
62
7
10
374.22
20
154.368
11
374.22
21
141.568
0
LINE
8
0
6
CONTINUOUS
62
7
10
374.22
20
141.568
11
381.52
21
141.568
0
LINE
8
0
6
CONTINUOUS
62
7
10
381.52
20
141.568
11
381.52
21
141.393
0
LINE
8
0
6
CONTINUOUS
62
7
10
381.52
20
141.393
11
384.32
21
141.393
0
LINE
8
0
6
CONTINUOUS
62
7
10
384.32
20
141.393
11
384.32
21
141.568
0
LINE
8
0
6
CONTINUOUS
62
7
10
384.32
20
141.568
11
389.82
21
141.568
0
LINE
8
0
6
CONTINUOUS
62
7
10
389.82
20
141.568
11
389.82
21
154.368
0
LINE
8
0
6
CONTINUOUS
62
7
10
389.82
20
154.368
11
388.42
21
154.368
0
LINE
8
0
6
CONTINUOUS
62
7
10
388.42
20
154.368
11
388.42
21
160.618
0
LINE
8
0
6
CONTINUOUS
62
7
10
388.42
20
160.618
11
389.82
21
160.618
0
LINE
8
0
6
CONTINUOUS
62
7
10
389.82
20
160.618
11
389.82
21
173.418
0
LINE
8
0
6
CONTINUOUS
62
7
10
389.82
20
173.418
11
384.32
21
173.418
0
LINE
8
0
6
CONTINUOUS
62
7
10
384.32
20
173.418
11
384.32
21
173.593
0
LINE
8
0
6
CONTINUOUS
62
7
10
384.32
20
173.593
11
381.52
21
173.593
0
LINE
8
0
6
CONTINUOUS
62
7
10
33.7003
20
154.368
11
54.0622
21
154.368
0
LINE
8
0
6
CONTINUOUS
62
7
10
54.0622
20
154.368
11
54.0622
21
141.568
0
LINE
8
0
6
CONTINUOUS
62
7
10
54.0622
20
141.568
11
33.7003
21
141.568
0
LINE
8
0
6
CONTINUOUS
62
7
10
33.7003
20
141.568
11
33.7003
21
154.368
0
LINE
8
0
6
CONTINUOUS
62
7
10
64.6565
20
154.368
11
80.2573
21
154.368
0
LINE
8
0
6
CONTINUOUS
62
7
10
80.2573
20
154.368
11
80.2573
21
141.568
0
LINE
8
0
6
CONTINUOUS
62
7
10
80.2573
20
141.568
11
64.6565
21
141.568
0
LINE
8
0
6
CONTINUOUS
62
7
10
64.6565
20
141.568
11
64.6565
21
154.368
0
LINE
8
0
6
CONTINUOUS
62
7
10
83.7064
20
154.368
11
99.3073
21
154.368
0
LINE
8
0
6
CONTINUOUS
62
7
10
99.3073
20
154.368
11
99.3073
21
141.568
0
LINE
8
0
6
CONTINUOUS
62
7
10
99.3073
20
141.568
11
83.7064
21
141.568
0
LINE
8
0
6
CONTINUOUS
62
7
10
83.7064
20
141.568
11
83.7064
21
154.368
0
LINE
8
0
6
CONTINUOUS
62
7
10
102.756
20
154.368
11
118.357
21
154.368
0
LINE
8
0
6
CONTINUOUS
62
7
10
118.357
20
154.368
11
118.357
21
141.568
0
LINE
8
0
6
CONTINUOUS
62
7
10
118.357
20
141.568
11
102.756
21
141.568
0
LINE
8
0
6
CONTINUOUS
62
7
10
102.756
20
141.568
11
102.756
21
154.368
0
LINE
8
0
6
CONTINUOUS
62
7
10
121.806
20
154.368
11
137.407
21
154.368
0
LINE
8
0
6
CONTINUOUS
62
7
10
137.407
20
154.368
11
137.407
21
141.568
0
LINE
8
0
6
CONTINUOUS
62
7
10
137.407
20
141.568
11
121.806
21
141.568
0
LINE
8
0
6
CONTINUOUS
62
7
10
121.806
20
141.568
11
121.806
21
154.368
0
LINE
8
0
6
CONTINUOUS
62
7
10
140.856
20
154.368
11
156.457
21
154.368
0
LINE
8
0
6
CONTINUOUS
62
7
10
156.457
20
154.368
11
156.457
21
141.568
0
LINE
8
0
6
CONTINUOUS
62
7
10
156.457
20
141.568
11
140.856
21
141.568
0
LINE
8
0
6
CONTINUOUS
62
7
10
140.856
20
141.568
11
140.856
21
154.368
0
LINE
8
0
6
CONTINUOUS
62
7
10
159.906
20
154.368
11
175.507
21
154.368
0
LINE
8
0
6
CONTINUOUS
62
7
10
175.507
20
154.368
11
175.507
21
141.568
0
LINE
8
0
6
CONTINUOUS
62
7
10
175.507
20
141.568
11
159.906
21
141.568
0
LINE
8
0
6
CONTINUOUS
62
7
10
159.906
20
141.568
11
159.906
21
154.368
0
LINE
8
0
6
CONTINUOUS
62
7
10
178.956
20
154.368
11
194.557
21
154.368
0
LINE
8
0
6
CONTINUOUS
62
7
10
194.557
20
154.368
11
194.557
21
141.568
0
LINE
8
0
6
CONTINUOUS
62
7
10
194.557
20
141.568
11
178.956
21
141.568
0
LINE
8
0
6
CONTINUOUS
62
7
10
178.956
20
141.568
11
178.956
21
154.368
0
LINE
8
0
6
CONTINUOUS
62
7
10
198.006
20
154.368
11
213.607
21
154.368
0
LINE
8
0
6
CONTINUOUS
62
7
10
213.607
20
154.368
11
213.607
21
141.568
0
LINE
8
0
6
CONTINUOUS
62
7
10
213.607
20
141.568
11
198.006
21
141.568
0
LINE
8
0
6
CONTINUOUS
62
7
10
198.006
20
141.568
11
198.006
21
154.368
0
LINE
8
0
6
CONTINUOUS
62
7
10
217.056
20
154.368
11
232.657
21
154.368
0
LINE
8
0
6
CONTINUOUS
62
7
10
232.657
20
154.368
11
232.657
21
141.568
0
LINE
8
0
6
CONTINUOUS
62
7
10
232.657
20
141.568
11
217.056
21
141.568
0
LINE
8
0
6
CONTINUOUS
62
7
10
217.056
20
141.568
11
217.056
21
154.368
0
LINE
8
0
6
CONTINUOUS
62
7
10
236.106
20
154.368
11
251.707
21
154.368
0
LINE
8
0
6
CONTINUOUS
62
7
10
251.707
20
154.368
11
251.707
21
141.568
0
LINE
8
0
6
CONTINUOUS
62
7
10
251.707
20
141.568
11
236.106
21
141.568
0
LINE
8
0
6
CONTINUOUS
62
7
10
236.106
20
141.568
11
236.106
21
154.368
0
LINE
8
0
6
CONTINUOUS
62
7
10
255.156
20
154.368
11
270.757
21
154.368
0
LINE
8
0
6
CONTINUOUS
62
7
10
270.757
20
154.368
11
270.757
21
141.568
0
LINE
8
0
6
CONTINUOUS
62
7
10
270.757
20
141.568
11
255.156
21
141.568
0
LINE
8
0
6
CONTINUOUS
62
7
10
255.156
20
141.568
11
255.156
21
154.368
0
LINE
8
0
6
CONTINUOUS
62
7
10
317.07
20
154.368
11
332.67
21
154.368
0
LINE
8
0
6
CONTINUOUS
62
7
10
332.67
20
154.368
11
332.67
21
141.568
0
LINE
8
0
6
CONTINUOUS
62
7
10
332.67
20
141.568
11
317.07
21
141.568
0
LINE
8
0
6
CONTINUOUS
62
7
10
317.07
20
141.568
11
317.07
21
154.368
0
LINE
8
0
6
CONTINUOUS
62
7
10
336.12
20
154.368
11
351.72
21
154.368
0
LINE
8
0
6
CONTINUOUS
62
7
10
351.72
20
154.368
11
351.72
21
141.568
0
LINE
8
0
6
CONTINUOUS
62
7
10
351.72
20
141.568
11
336.12
21
141.568
0
LINE
8
0
6
CONTINUOUS
62
7
10
336.12
20
141.568
11
336.12
21
154.368
0
LINE
8
0
6
CONTINUOUS
62
7
10
355.17
20
154.368
11
370.77
21
154.368
0
LINE
8
0
6
CONTINUOUS
62
7
10
370.77
20
154.368
11
370.77
21
141.568
0
LINE
8
0
6
CONTINUOUS
62
7
10
370.77
20
141.568
11
355.17
21
141.568
0
LINE
8
0
6
CONTINUOUS
62
7
10
355.17
20
141.568
11
355.17
21
154.368
0
LINE
8
0
6
CONTINUOUS
62
7
10
36.0815
20
173.418
11
51.6823
21
173.418
0
LINE
8
0
6
CONTINUOUS
62
7
10
51.6823
20
173.418
11
51.6823
21
160.618
0
LINE
8
0
6
CONTINUOUS
62
7
10
51.6823
20
160.618
11
36.0815
21
160.618
0
LINE
8
0
6
CONTINUOUS
62
7
10
36.0815
20
160.618
11
36.0815
21
173.418
0
LINE
8
0
6
CONTINUOUS
62
7
10
59.8954
20
173.418
11
75.4948
21
173.418
0
LINE
8
0
6
CONTINUOUS
62
7
10
75.4948
20
173.418
11
75.4948
21
160.618
0
LINE
8
0
6
CONTINUOUS
62
7
10
75.4948
20
160.618
11
59.8954
21
160.618
0
LINE
8
0
6
CONTINUOUS
62
7
10
59.8954
20
160.618
11
59.8954
21
173.418
0
LINE
8
0
6
CONTINUOUS
62
7
10
78.9453
20
173.418
11
94.5448
21
173.418
0
LINE
8
0
6
CONTINUOUS
62
7
10
94.5448
20
173.418
11
94.5448
21
160.618
0
LINE
8
0
6
CONTINUOUS
62
7
10
94.5448
20
160.618
11
78.9453
21
160.618
0
LINE
8
0
6
CONTINUOUS
62
7
10
78.9453
20
160.618
11
78.9453
21
173.418
0
LINE
8
0
6
CONTINUOUS
62
7
10
97.9953
20
173.418
11
113.595
21
173.418
0
LINE
8
0
6
CONTINUOUS
62
7
10
113.595
20
173.418
11
113.595
21
160.618
0
LINE
8
0
6
CONTINUOUS
62
7
10
113.595
20
160.618
11
97.9953
21
160.618
0
LINE
8
0
6
CONTINUOUS
62
7
10
97.9953
20
160.618
11
97.9953
21
173.418
0
LINE
8
0
6
CONTINUOUS
62
7
10
117.045
20
173.418
11
132.645
21
173.418
0
LINE
8
0
6
CONTINUOUS
62
7
10
132.645
20
173.418
11
132.645
21
160.618
0
LINE
8
0
6
CONTINUOUS
62
7
10
132.645
20
160.618
11
117.045
21
160.618
0
LINE
8
0
6
CONTINUOUS
62
7
10
117.045
20
160.618
11
117.045
21
173.418
0
LINE
8
0
6
CONTINUOUS
62
7
10
136.095
20
173.418
11
151.695
21
173.418
0
LINE
8
0
6
CONTINUOUS
62
7
10
151.695
20
173.418
11
151.695
21
160.618
0
LINE
8
0
6
CONTINUOUS
62
7
10
151.695
20
160.618
11
136.095
21
160.618
0
LINE
8
0
6
CONTINUOUS
62
7
10
136.095
20
160.618
11
136.095
21
173.418
0
LINE
8
0
6
CONTINUOUS
62
7
10
155.144
20
173.418
11
170.745
21
173.418
0
LINE
8
0
6
CONTINUOUS
62
7
10
170.745
20
173.418
11
170.745
21
160.618
0
LINE
8
0
6
CONTINUOUS
62
7
10
170.745
20
160.618
11
155.144
21
160.618
0
LINE
8
0
6
CONTINUOUS
62
7
10
155.144
20
160.618
11
155.144
21
173.418
0
LINE
8
0
6
CONTINUOUS
62
7
10
174.195
20
173.418
11
189.795
21
173.418
0
LINE
8
0
6
CONTINUOUS
62
7
10
189.795
20
173.418
11
189.795
21
160.618
0
LINE
8
0
6
CONTINUOUS
62
7
10
189.795
20
160.618
11
174.195
21
160.618
0
LINE
8
0
6
CONTINUOUS
62
7
10
174.195
20
160.618
11
174.195
21
173.418
0
LINE
8
0
6
CONTINUOUS
62
7
10
193.245
20
173.418
11
208.845
21
173.418
0
LINE
8
0
6
CONTINUOUS
62
7
10
208.845
20
173.418
11
208.845
21
160.618
0
LINE
8
0
6
CONTINUOUS
62
7
10
208.845
20
160.618
11
193.245
21
160.618
0
LINE
8
0
6
CONTINUOUS
62
7
10
193.245
20
160.618
11
193.245
21
173.418
0
LINE
8
0
6
CONTINUOUS
62
7
10
212.295
20
173.418
11
227.895
21
173.418
0
LINE
8
0
6
CONTINUOUS
62
7
10
227.895
20
173.418
11
227.895
21
160.618
0
LINE
8
0
6
CONTINUOUS
62
7
10
227.895
20
160.618
11
212.295
21
160.618
0
LINE
8
0
6
CONTINUOUS
62
7
10
212.295
20
160.618
11
212.295
21
173.418
0
LINE
8
0
6
CONTINUOUS
62
7
10
231.345
20
173.418
11
246.945
21
173.418
0
LINE
8
0
6
CONTINUOUS
62
7
10
246.945
20
173.418
11
246.945
21
160.618
0
LINE
8
0
6
CONTINUOUS
62
7
10
246.945
20
160.618
11
231.345
21
160.618
0
LINE
8
0
6
CONTINUOUS
62
7
10
231.345
20
160.618
11
231.345
21
173.418
0
LINE
8
0
6
CONTINUOUS
62
7
10
250.395
20
173.418
11
265.995
21
173.418
0
LINE
8
0
6
CONTINUOUS
62
7
10
265.995
20
173.418
11
265.995
21
160.618
0
LINE
8
0
6
CONTINUOUS
62
7
10
265.995
20
160.618
11
250.395
21
160.618
0
LINE
8
0
6
CONTINUOUS
62
7
10
250.395
20
160.618
11
250.395
21
173.418
0
LINE
8
0
6
CONTINUOUS
62
7
10
269.445
20
173.418
11
285.045
21
173.418
0
LINE
8
0
6
CONTINUOUS
62
7
10
285.045
20
173.418
11
285.045
21
160.618
0
LINE
8
0
6
CONTINUOUS
62
7
10
285.045
20
160.618
11
269.445
21
160.618
0
LINE
8
0
6
CONTINUOUS
62
7
10
269.445
20
160.618
11
269.445
21
173.418
0
LINE
8
0
6
CONTINUOUS
62
7
10
317.07
20
173.418
11
332.67
21
173.418
0
LINE
8
0
6
CONTINUOUS
62
7
10
332.67
20
173.418
11
332.67
21
160.618
0
LINE
8
0
6
CONTINUOUS
62
7
10
332.67
20
160.618
11
317.07
21
160.618
0
LINE
8
0
6
CONTINUOUS
62
7
10
317.07
20
160.618
11
317.07
21
173.418
0
LINE
8
0
6
CONTINUOUS
62
7
10
336.12
20
173.418
11
351.72
21
173.418
0
LINE
8
0
6
CONTINUOUS
62
7
10
351.72
20
173.418
11
351.72
21
160.618
0
LINE
8
0
6
CONTINUOUS
62
7
10
351.72
20
160.618
11
336.12
21
160.618
0
LINE
8
0
6
CONTINUOUS
62
7
10
336.12
20
160.618
11
336.12
21
173.418
0
LINE
8
0
6
CONTINUOUS
62
7
10
355.17
20
173.418
11
370.77
21
173.418
0
LINE
8
0
6
CONTINUOUS
62
7
10
370.77
20
173.418
11
370.77
21
160.618
0
LINE
8
0
6
CONTINUOUS
62
7
10
370.77
20
160.618
11
355.17
21
160.618
0
LINE
8
0
6
CONTINUOUS
62
7
10
355.17
20
160.618
11
355.17
21
173.418
0
LINE
8
0
6
CONTINUOUS
62
7
10
282.743
20
192.519
11
282.743
21
192.468
0
LINE
8
0
6
CONTINUOUS
62
7
10
282.743
20
192.468
11
278.97
21
192.468
0
LINE
8
0
6
CONTINUOUS
62
7
10
278.97
20
192.468
11
278.97
21
179.667
0
LINE
8
0
6
CONTINUOUS
62
7
10
278.97
20
179.667
11
281.02
21
179.667
0
LINE
8
0
6
CONTINUOUS
62
7
10
281.02
20
179.667
11
281.02
21
179.297
0
LINE
8
0
6
CONTINUOUS
62
7
10
281.02
20
179.297
11
282.743
21
179.297
0
LINE
8
0
6
CONTINUOUS
62
7
10
282.743
20
179.297
11
282.743
21
178.317
0
LINE
8
0
6
CONTINUOUS
62
7
10
282.743
20
178.317
11
286.045
21
178.317
0
LINE
8
0
6
CONTINUOUS
62
7
10
286.045
20
178.317
11
286.045
21
179.297
0
LINE
8
0
6
CONTINUOUS
62
7
10
286.045
20
179.297
11
287.769
21
179.297
0
LINE
8
0
6
CONTINUOUS
62
7
10
287.769
20
179.297
11
287.769
21
179.667
0
LINE
8
0
6
CONTINUOUS
62
7
10
287.769
20
179.667
11
304.82
21
179.667
0
LINE
8
0
6
CONTINUOUS
62
7
10
304.82
20
179.667
11
304.82
21
179.297
0
LINE
8
0
6
CONTINUOUS
62
7
10
304.82
20
179.297
11
306.545
21
179.297
0
LINE
8
0
6
CONTINUOUS
62
7
10
306.545
20
179.297
11
306.545
21
178.317
0
LINE
8
0
6
CONTINUOUS
62
7
10
306.545
20
178.317
11
309.845
21
178.317
0
LINE
8
0
6
CONTINUOUS
62
7
10
309.845
20
178.317
11
309.845
21
179.297
0
LINE
8
0
6
CONTINUOUS
62
7
10
309.845
20
179.297
11
311.569
21
179.297
0
LINE
8
0
6
CONTINUOUS
62
7
10
311.569
20
179.297
11
311.569
21
179.667
0
LINE
8
0
6
CONTINUOUS
62
7
10
311.569
20
179.667
11
313.62
21
179.667
0
LINE
8
0
6
CONTINUOUS
62
7
10
313.62
20
179.667
11
313.62
21
192.468
0
LINE
8
0
6
CONTINUOUS
62
7
10
313.62
20
192.468
11
309.845
21
192.468
0
LINE
8
0
6
CONTINUOUS
62
7
10
309.845
20
192.468
11
309.845
21
192.519
0
LINE
8
0
6
CONTINUOUS
62
7
10
309.845
20
192.519
11
306.545
21
192.519
0
LINE
8
0
6
CONTINUOUS
62
7
10
306.545
20
192.519
11
306.545
21
192.468
0
LINE
8
0
6
CONTINUOUS
62
7
10
306.545
20
192.468
11
286.045
21
192.468
0
LINE
8
0
6
CONTINUOUS
62
7
10
286.045
20
192.468
11
286.045
21
192.519
0
LINE
8
0
6
CONTINUOUS
62
7
10
286.045
20
192.519
11
282.743
21
192.519
0
LINE
8
0
6
CONTINUOUS
62
7
10
31.3204
20
192.468
11
46.9198
21
192.468
0
LINE
8
0
6
CONTINUOUS
62
7
10
46.9198
20
192.468
11
46.9198
21
179.667
0
LINE
8
0
6
CONTINUOUS
62
7
10
46.9198
20
179.667
11
31.3204
21
179.667
0
LINE
8
0
6
CONTINUOUS
62
7
10
31.3204
20
179.667
11
31.3204
21
192.468
0
LINE
8
0
6
CONTINUOUS
62
7
10
50.3704
20
192.468
11
65.9698
21
192.468
0
LINE
8
0
6
CONTINUOUS
62
7
10
65.9698
20
192.468
11
65.9698
21
179.667
0
LINE
8
0
6
CONTINUOUS
62
7
10
65.9698
20
179.667
11
50.3704
21
179.667
0
LINE
8
0
6
CONTINUOUS
62
7
10
50.3704
20
179.667
11
50.3704
21
192.468
0
LINE
8
0
6
CONTINUOUS
62
7
10
69.4203
20
192.468
11
85.0198
21
192.468
0
LINE
8
0
6
CONTINUOUS
62
7
10
85.0198
20
192.468
11
85.0198
21
179.667
0
LINE
8
0
6
CONTINUOUS
62
7
10
85.0198
20
179.667
11
69.4203
21
179.667
0
LINE
8
0
6
CONTINUOUS
62
7
10
69.4203
20
179.667
11
69.4203
21
192.468
0
LINE
8
0
6
CONTINUOUS
62
7
10
88.4703
20
192.468
11
104.07
21
192.468
0
LINE
8
0
6
CONTINUOUS
62
7
10
104.07
20
192.468
11
104.07
21
179.667
0
LINE
8
0
6
CONTINUOUS
62
7
10
104.07
20
179.667
11
88.4703
21
179.667
0
LINE
8
0
6
CONTINUOUS
62
7
10
88.4703
20
179.667
11
88.4703
21
192.468
0
LINE
8
0
6
CONTINUOUS
62
7
10
107.52
20
192.468
11
123.118
21
192.468
0
LINE
8
0
6
CONTINUOUS
62
7
10
123.118
20
192.468
11
123.118
21
179.667
0
LINE
8
0
6
CONTINUOUS
62
7
10
123.118
20
179.667
11
107.52
21
179.667
0
LINE
8
0
6
CONTINUOUS
62
7
10
107.52
20
179.667
11
107.52
21
192.468
0
LINE
8
0
6
CONTINUOUS
62
7
10
126.57
20
192.468
11
142.168
21
192.468
0
LINE
8
0
6
CONTINUOUS
62
7
10
142.168
20
192.468
11
142.168
21
179.667
0
LINE
8
0
6
CONTINUOUS
62
7
10
142.168
20
179.667
11
126.57
21
179.667
0
LINE
8
0
6
CONTINUOUS
62
7
10
126.57
20
179.667
11
126.57
21
192.468
0
LINE
8
0
6
CONTINUOUS
62
7
10
145.619
20
192.468
11
161.22
21
192.468
0
LINE
8
0
6
CONTINUOUS
62
7
10
161.22
20
192.468
11
161.22
21
179.667
0
LINE
8
0
6
CONTINUOUS
62
7
10
161.22
20
179.667
11
145.619
21
179.667
0
LINE
8
0
6
CONTINUOUS
62
7
10
145.619
20
179.667
11
145.619
21
192.468
0
LINE
8
0
6
CONTINUOUS
62
7
10
164.67
20
192.468
11
180.27
21
192.468
0
LINE
8
0
6
CONTINUOUS
62
7
10
180.27
20
192.468
11
180.27
21
179.667
0
LINE
8
0
6
CONTINUOUS
62
7
10
180.27
20
179.667
11
164.67
21
179.667
0
LINE
8
0
6
CONTINUOUS
62
7
10
164.67
20
179.667
11
164.67
21
192.468
0
LINE
8
0
6
CONTINUOUS
62
7
10
183.72
20
192.468
11
199.32
21
192.468
0
LINE
8
0
6
CONTINUOUS
62
7
10
199.32
20
192.468
11
199.32
21
179.667
0
LINE
8
0
6
CONTINUOUS
62
7
10
199.32
20
179.667
11
183.72
21
179.667
0
LINE
8
0
6
CONTINUOUS
62
7
10
183.72
20
179.667
11
183.72
21
192.468
0
LINE
8
0
6
CONTINUOUS
62
7
10
202.77
20
192.468
11
218.37
21
192.468
0
LINE
8
0
6
CONTINUOUS
62
7
10
218.37
20
192.468
11
218.37
21
179.667
0
LINE
8
0
6
CONTINUOUS
62
7
10
218.37
20
179.667
11
202.77
21
179.667
0
LINE
8
0
6
CONTINUOUS
62
7
10
202.77
20
179.667
11
202.77
21
192.468
0
LINE
8
0
6
CONTINUOUS
62
7
10
221.82
20
192.468
11
237.42
21
192.468
0
LINE
8
0
6
CONTINUOUS
62
7
10
237.42
20
192.468
11
237.42
21
179.667
0
LINE
8
0
6
CONTINUOUS
62
7
10
237.42
20
179.667
11
221.82
21
179.667
0
LINE
8
0
6
CONTINUOUS
62
7
10
221.82
20
179.667
11
221.82
21
192.468
0
LINE
8
0
6
CONTINUOUS
62
7
10
240.87
20
192.468
11
256.47
21
192.468
0
LINE
8
0
6
CONTINUOUS
62
7
10
256.47
20
192.468
11
256.47
21
179.667
0
LINE
8
0
6
CONTINUOUS
62
7
10
256.47
20
179.667
11
240.87
21
179.667
0
LINE
8
0
6
CONTINUOUS
62
7
10
240.87
20
179.667
11
240.87
21
192.468
0
LINE
8
0
6
CONTINUOUS
62
7
10
259.92
20
192.468
11
275.52
21
192.468
0
LINE
8
0
6
CONTINUOUS
62
7
10
275.52
20
192.468
11
275.52
21
179.667
0
LINE
8
0
6
CONTINUOUS
62
7
10
275.52
20
179.667
11
259.92
21
179.667
0
LINE
8
0
6
CONTINUOUS
62
7
10
259.92
20
179.667
11
259.92
21
192.468
0
LINE
8
0
6
CONTINUOUS
62
7
10
317.07
20
192.468
11
332.67
21
192.468
0
LINE
8
0
6
CONTINUOUS
62
7
10
332.67
20
192.468
11
332.67
21
179.667
0
LINE
8
0
6
CONTINUOUS
62
7
10
332.67
20
179.667
11
317.07
21
179.667
0
LINE
8
0
6
CONTINUOUS
62
7
10
317.07
20
179.667
11
317.07
21
192.468
0
LINE
8
0
6
CONTINUOUS
62
7
10
336.12
20
192.468
11
351.72
21
192.468
0
LINE
8
0
6
CONTINUOUS
62
7
10
351.72
20
192.468
11
351.72
21
179.667
0
LINE
8
0
6
CONTINUOUS
62
7
10
351.72
20
179.667
11
336.12
21
179.667
0
LINE
8
0
6
CONTINUOUS
62
7
10
336.12
20
179.667
11
336.12
21
192.468
0
LINE
8
0
6
CONTINUOUS
62
7
10
355.17
20
192.468
11
370.77
21
192.468
0
LINE
8
0
6
CONTINUOUS
62
7
10
370.77
20
192.468
11
370.77
21
179.667
0
LINE
8
0
6
CONTINUOUS
62
7
10
370.77
20
179.667
11
355.17
21
179.667
0
LINE
8
0
6
CONTINUOUS
62
7
10
355.17
20
179.667
11
355.17
21
192.468
0
LINE
8
0
6
CONTINUOUS
62
7
10
374.22
20
192.468
11
389.82
21
192.468
0
LINE
8
0
6
CONTINUOUS
62
7
10
389.82
20
192.468
11
389.82
21
179.667
0
LINE
8
0
6
CONTINUOUS
62
7
10
389.82
20
179.667
11
374.22
21
179.667
0
LINE
8
0
6
CONTINUOUS
62
7
10
374.22
20
179.667
11
374.22
21
192.468
0
LINE
8
0
6
CONTINUOUS
62
7
10
295.64
20
160.618
11
295.64
21
154.368
0
LINE
8
0
6
CONTINUOUS
62
7
10
309.837
20
151.094
11
311.239
21
151.094
0
LINE
8
0
6
CONTINUOUS
62
7
10
311.239
20
163.894
11
311.239
21
151.094
0
LINE
8
0
6
CONTINUOUS
62
7
10
309.837
20
163.894
11
309.837
21
165.292
0
ENDSEC
0
EOF
