0
SECTION
2
HEADER
9
$ANGDIR
70
0
9
$CHAMFERA
40
10
9
$CHAMFERB
40
10
9
$CLAYER
8
Layer_1
9
$EXTMAX
10
394.398
20
218
9
$EXTMIN
10
25.1005
20
106
9
$LIMMAX
10
420
20
297
9
$LIMMIN
10
0
20
0
9
$LTSCALE
40
10
9
$PLINEGEN
70
0
9
$TEXTSIZE
40
20
9
$GRIDUNIT
10
10
20
10
9
$SNAPUNIT
10
1
20
1
0
ENDSEC
0
SECTION
2
TABLES
0
TABLE
2
STYLE
70
1
0
STYLE
2
STANDARD
70
0
40
0
41
1
50
0
71
0
42
0.2
3
txt
4

0
ENDTAB
0
TABLE
2
LTYPE
70
14
0
LTYPE
2
CONTINUOUS
70
0
3
Solid line
72
65
73
0
40
0
0
LTYPE
2
DOT
70
0
3
............................................
72
65
73
2
40
0.25
49
0
49
-0.25
0
LTYPE
2
HIDDEN
70
0
3
_ _ _ _ _ _ _ _ _ _ _ _ _ _ _ _ _ _ _ _ _ _ 
72
65
73
2
40
0.375
49
0.25
49
-0.125
0
LTYPE
2
TSLONGDASH
70
0
3
__ __ __ __ __ __ __ __ __ __ __ __ __ __ _ 
72
65
73
2
40
1.28
49
1
49
-0.28
0
LTYPE
2
TSDASHDOT
70
0
3
______ . ______ . ______ . ______ . ______ .
72
65
73
4
40
1.28
49
1
49
-0.14
49
0
49
-0.14
0
LTYPE
2
TSCENTER
70
0
3
______ _ ______ _ ______ _ ______ _ ______ _
72
65
73
4
40
2
49
1.5
49
-0.18
49
0.14
49
-0.18
0
LTYPE
2
TSPHANTOM
70
0
3
_____ _ _ _____ _ _ _____ _ _ _____ _ _ ____
72
65
73
6
40
2.5
49
1.63
49
-0.19
49
0.15
49
-0.19
49
0.15
49
-0.19
0
LTYPE
2
DASHED
70
0
3
__ __ __ __ __ __ __ __ __ __ __ __ __ __ __
72
65
73
2
40
0.75
49
0.5
49
-0.25
0
LTYPE
2
CENTER
70
0
3
____ _ ____ _ ____ _ ____ _ ____ _ ____ _ __
72
65
73
4
40
2
49
1.25
49
-0.25
49
0.25
49
-0.25
0
LTYPE
2
PHANTOM
70
0
3
_____ _ _ _____ _ _ _____ _ _ _____ _ _ ____
72
65
73
6
40
2.5
49
1.25
49
-0.25
49
0.25
49
-0.25
49
0.25
49
-0.25
0
LTYPE
2
DASHDOT
70
0
3
__ . __ . __ . __ . __ . __ . __ . __ . __ .
72
65
73
4
40
1
49
0.5
49
-0.25
49
0
49
-0.25
0
LTYPE
2
BORDER
70
0
3
__ __ . __ __ . __ __ . __ __ . __ __ . __ _
72
65
73
6
40
1.75
49
0.5
49
-0.25
49
0.5
49
-0.25
49
0
49
-0.25
0
LTYPE
2
DIVIDE
70
0
3
__ . . __ . . __ . . __ . . __ . . __ . . __
72
65
73
6
40
1.25
49
0.5
49
-0.25
49
0
49
-0.25
49
0
49
-0.25
0
ENDTAB
0
TABLE
2
LAYER
70
4
0
LAYER
2
Layer_1
70
0
62
7
6
CONTINUOUS
0
LAYER
2
Layer_2
70
0
62
7
6
CONTINUOUS
0
LAYER
2
Layer_3
70
0
62
7
6
CONTINUOUS
0
LAYER
2
0
70
0
62
7
6
CONTINUOUS
0
ENDTAB
0
ENDSEC
0
SECTION
2
ENTITIES
0
CIRCLE
8
0
6
CONTINUOUS
62
7
10
116.5
20
214.5
40
1.3
0
CIRCLE
8
0
6
CONTINUOUS
62
7
10
209.75
20
214.5
40
1.3
0
CIRCLE
8
0
6
CONTINUOUS
62
7
10
303
20
214.5
40
1.3
0
CIRCLE
8
0
6
CONTINUOUS
62
7
10
379.75
20
214.5
40
1.3
0
CIRCLE
8
0
6
CONTINUOUS
62
7
10
379.25
20
109.5
40
1.3
0
CIRCLE
8
0
6
CONTINUOUS
62
7
10
303
20
109.5
40
1.3
0
CIRCLE
8
0
6
CONTINUOUS
62
7
10
209.75
20
109.5
40
1.3
0
CIRCLE
8
0
6
CONTINUOUS
62
7
10
116.5
20
109.5
40
1.3
0
CIRCLE
8
0
6
CONTINUOUS
62
7
10
40.25
20
214.5
40
1.3
0
CIRCLE
8
0
6
CONTINUOUS
62
7
10
40.25
20
109.5
40
1.3
0
LINE
8
0
6
CONTINUOUS
62
7
10
48.75
20
109.5
11
50.1642
21
110.914
0
LINE
8
0
6
CONTINUOUS
62
7
10
108
20
109.5
11
106.586
21
110.914
0
LINE
8
0
6
CONTINUOUS
62
7
10
35.25
20
106
11
35
21
106
0
LINE
8
0
6
CONTINUOUS
62
7
10
35.25
20
218
11
35
21
218
0
LINE
8
0
6
CONTINUOUS
62
7
10
35
20
218
11
25.1005
21
208.101
0
LINE
8
0
6
CONTINUOUS
62
7
10
370.75
20
109.5
11
369.336
21
110.914
0
LINE
8
0
6
CONTINUOUS
62
7
10
35
20
106
11
25.1005
21
115.899
0
LINE
8
0
6
CONTINUOUS
62
7
10
125
20
109.5
11
126.414
21
110.914
0
LINE
8
0
6
CONTINUOUS
62
7
10
201.25
20
109.5
11
199.836
21
110.914
0
LINE
8
0
6
CONTINUOUS
62
7
10
218.25
20
109.5
11
219.664
21
110.914
0
LINE
8
0
6
CONTINUOUS
62
7
10
25.1005
20
208.101
11
25.1005
21
115.899
0
LINE
8
0
6
CONTINUOUS
62
7
10
294.5
20
109.5
11
293.086
21
110.914
0
LINE
8
0
6
CONTINUOUS
62
7
10
384.25
20
106
11
384.5
21
106
0
LINE
8
0
6
CONTINUOUS
62
7
10
384.5
20
106
11
394.398
21
115.898
0
LINE
8
0
6
CONTINUOUS
62
7
10
384.25
20
218
11
384.5
21
218
0
LINE
8
0
6
CONTINUOUS
62
7
10
384.5
20
218
11
394.398
21
208.102
0
LINE
8
0
6
CONTINUOUS
62
7
10
394.398
20
208.102
11
394.398
21
115.898
0
LINE
8
0
6
CONTINUOUS
62
7
10
311.5
20
109.5
11
312.914
21
110.914
0
LINE
8
0
6
CONTINUOUS
62
7
10
312.914
20
213.086
11
369.336
21
213.086
0
LINE
8
0
6
CONTINUOUS
62
7
10
219.664
20
213.086
11
293.086
21
213.086
0
LINE
8
0
6
CONTINUOUS
62
7
10
294.5
20
214.5
11
293.086
21
213.086
0
LINE
8
0
6
CONTINUOUS
62
7
10
50.1642
20
110.914
11
106.586
21
110.914
0
LINE
8
0
6
CONTINUOUS
62
7
10
48.75
20
214.5
11
50.1642
21
213.086
0
LINE
8
0
6
CONTINUOUS
62
7
10
108
20
214.5
11
106.586
21
213.086
0
LINE
8
0
6
CONTINUOUS
62
7
10
125
20
214.5
11
126.414
21
213.086
0
LINE
8
0
6
CONTINUOUS
62
7
10
201.25
20
214.5
11
199.836
21
213.086
0
LINE
8
0
6
CONTINUOUS
62
7
10
218.25
20
214.5
11
219.664
21
213.086
0
LINE
8
0
6
CONTINUOUS
62
7
10
126.414
20
110.914
11
199.836
21
110.914
0
LINE
8
0
6
CONTINUOUS
62
7
10
311.5
20
214.5
11
312.914
21
213.086
0
LINE
8
0
6
CONTINUOUS
62
7
10
370.75
20
214.5
11
369.336
21
213.086
0
LINE
8
0
6
CONTINUOUS
62
7
10
219.664
20
110.914
11
293.086
21
110.914
0
LINE
8
0
6
CONTINUOUS
62
7
10
312.914
20
110.914
11
369.336
21
110.914
0
LINE
8
0
6
CONTINUOUS
62
7
10
50.1642
20
213.086
11
106.586
21
213.086
0
LINE
8
0
6
CONTINUOUS
62
7
10
126.414
20
213.086
11
199.836
21
213.086
0
LINE
8
0
6
CONTINUOUS
62
7
10
35.25
20
218
11
45.25
21
218
0
LINE
8
0
6
CONTINUOUS
62
7
10
111.5
20
218
11
121.5
21
218
0
LINE
8
0
6
CONTINUOUS
62
7
10
204.75
20
218
11
214.75
21
218
0
LINE
8
0
6
CONTINUOUS
62
7
10
298
20
218
11
308
21
218
0
LINE
8
0
6
CONTINUOUS
62
7
10
374.25
20
218
11
384.25
21
218
0
LINE
8
0
6
CONTINUOUS
62
7
10
384.25
20
106
11
374.25
21
106
0
LINE
8
0
6
CONTINUOUS
62
7
10
308
20
106
11
298
21
106
0
LINE
8
0
6
CONTINUOUS
62
7
10
214.75
20
106
11
204.75
21
106
0
LINE
8
0
6
CONTINUOUS
62
7
10
121.5
20
106
11
111.5
21
106
0
LINE
8
0
6
CONTINUOUS
62
7
10
45.25
20
106
11
35.25
21
106
0
LINE
8
0
6
CONTINUOUS
62
7
10
201.25
20
214.5
11
204.75
21
218
0
LINE
8
0
6
CONTINUOUS
62
7
10
214.75
20
218
11
218.25
21
214.5
0
LINE
8
0
6
CONTINUOUS
62
7
10
45.25
20
218
11
48.75
21
214.5
0
LINE
8
0
6
CONTINUOUS
62
7
10
374.25
20
218
11
370.75
21
214.5
0
LINE
8
0
6
CONTINUOUS
62
7
10
45.25
20
106
11
48.75
21
109.5
0
LINE
8
0
6
CONTINUOUS
62
7
10
201.25
20
109.5
11
204.75
21
106
0
LINE
8
0
6
CONTINUOUS
62
7
10
214.75
20
106
11
218.25
21
109.5
0
LINE
8
0
6
CONTINUOUS
62
7
10
370.75
20
109.5
11
374.25
21
106
0
LINE
8
0
6
CONTINUOUS
62
7
10
311.5
20
109.5
11
308
21
106
0
LINE
8
0
6
CONTINUOUS
62
7
10
294.5
20
109.5
11
298
21
106
0
LINE
8
0
6
CONTINUOUS
62
7
10
108
20
109.5
11
111.5
21
106
0
LINE
8
0
6
CONTINUOUS
62
7
10
121.5
20
106
11
125
21
109.5
0
LINE
8
0
6
CONTINUOUS
62
7
10
298
20
218
11
294.5
21
214.5
0
LINE
8
0
6
CONTINUOUS
62
7
10
308
20
218
11
311.5
21
214.5
0
LINE
8
0
6
CONTINUOUS
62
7
10
108
20
214.5
11
111.5
21
218
0
LINE
8
0
6
CONTINUOUS
62
7
10
121.5
20
218
11
125
21
214.5
0
LINE
8
0
6
CONTINUOUS
62
7
10
116.295
20
130.268
11
116.295
21
126.167
0
LINE
8
0
6
CONTINUOUS
62
7
10
116.295
20
126.167
11
115.569
21
126.167
0
LINE
8
0
6
CONTINUOUS
62
7
10
115.569
20
126.167
11
115.569
21
129.397
0
LINE
8
0
6
CONTINUOUS
62
7
10
115.569
20
129.397
11
108.82
21
129.397
0
LINE
8
0
6
CONTINUOUS
62
7
10
108.82
20
129.397
11
108.82
21
126.167
0
LINE
8
0
6
CONTINUOUS
62
7
10
108.82
20
126.167
11
107.994
21
126.167
0
LINE
8
0
6
CONTINUOUS
62
7
10
107.994
20
126.167
11
107.994
21
123.367
0
LINE
8
0
6
CONTINUOUS
62
7
10
107.994
20
123.367
11
108.82
21
123.367
0
LINE
8
0
6
CONTINUOUS
62
7
10
108.82
20
123.367
11
108.82
21
117.098
0
LINE
8
0
6
CONTINUOUS
62
7
10
108.82
20
117.098
11
110.545
21
117.098
0
LINE
8
0
6
CONTINUOUS
62
7
10
110.545
20
117.098
11
110.545
21
115.898
0
LINE
8
0
6
CONTINUOUS
62
7
10
110.545
20
115.898
11
113.845
21
115.898
0
LINE
8
0
6
CONTINUOUS
62
7
10
113.845
20
115.898
11
113.845
21
117.098
0
LINE
8
0
6
CONTINUOUS
62
7
10
113.845
20
117.098
11
115.569
21
117.098
0
LINE
8
0
6
CONTINUOUS
62
7
10
115.569
20
117.098
11
115.569
21
121.569
0
LINE
8
0
6
CONTINUOUS
62
7
10
115.569
20
121.569
11
116.295
21
121.569
0
LINE
8
0
6
CONTINUOUS
62
7
10
116.295
20
121.569
11
116.295
21
117.468
0
LINE
8
0
6
CONTINUOUS
62
7
10
116.295
20
117.468
11
131.895
21
117.468
0
LINE
8
0
6
CONTINUOUS
62
7
10
131.895
20
117.468
11
131.895
21
121.569
0
LINE
8
0
6
CONTINUOUS
62
7
10
131.895
20
121.569
11
132.62
21
121.569
0
LINE
8
0
6
CONTINUOUS
62
7
10
132.62
20
121.569
11
132.62
21
117.098
0
LINE
8
0
6
CONTINUOUS
62
7
10
132.62
20
117.098
11
134.345
21
117.098
0
LINE
8
0
6
CONTINUOUS
62
7
10
134.345
20
117.098
11
134.345
21
115.898
0
LINE
8
0
6
CONTINUOUS
62
7
10
134.345
20
115.898
11
137.645
21
115.898
0
LINE
8
0
6
CONTINUOUS
62
7
10
137.645
20
115.898
11
137.645
21
117.098
0
LINE
8
0
6
CONTINUOUS
62
7
10
137.645
20
117.098
11
139.369
21
117.098
0
LINE
8
0
6
CONTINUOUS
62
7
10
139.369
20
117.098
11
139.369
21
123.367
0
LINE
8
0
6
CONTINUOUS
62
7
10
139.369
20
123.367
11
140.195
21
123.367
0
LINE
8
0
6
CONTINUOUS
62
7
10
140.195
20
123.367
11
140.195
21
126.167
0
LINE
8
0
6
CONTINUOUS
62
7
10
140.195
20
126.167
11
139.369
21
126.167
0
LINE
8
0
6
CONTINUOUS
62
7
10
139.369
20
126.167
11
139.369
21
129.397
0
LINE
8
0
6
CONTINUOUS
62
7
10
139.369
20
129.397
11
132.62
21
129.397
0
LINE
8
0
6
CONTINUOUS
62
7
10
132.62
20
129.397
11
132.62
21
126.167
0
LINE
8
0
6
CONTINUOUS
62
7
10
132.62
20
126.167
11
131.895
21
126.167
0
LINE
8
0
6
CONTINUOUS
62
7
10
131.895
20
126.167
11
131.895
21
130.268
0
LINE
8
0
6
CONTINUOUS
62
7
10
131.895
20
130.268
11
116.295
21
130.268
0
LINE
8
0
6
CONTINUOUS
62
7
10
154.394
20
130.268
11
154.394
21
126.167
0
LINE
8
0
6
CONTINUOUS
62
7
10
154.394
20
126.167
11
153.669
21
126.167
0
LINE
8
0
6
CONTINUOUS
62
7
10
153.669
20
126.167
11
153.669
21
129.397
0
LINE
8
0
6
CONTINUOUS
62
7
10
153.669
20
129.397
11
146.918
21
129.397
0
LINE
8
0
6
CONTINUOUS
62
7
10
146.918
20
129.397
11
146.918
21
126.167
0
LINE
8
0
6
CONTINUOUS
62
7
10
146.918
20
126.167
11
146.094
21
126.167
0
LINE
8
0
6
CONTINUOUS
62
7
10
146.094
20
126.167
11
146.094
21
123.367
0
LINE
8
0
6
CONTINUOUS
62
7
10
146.094
20
123.367
11
146.918
21
123.367
0
LINE
8
0
6
CONTINUOUS
62
7
10
146.918
20
123.367
11
146.918
21
117.098
0
LINE
8
0
6
CONTINUOUS
62
7
10
146.918
20
117.098
11
148.645
21
117.098
0
LINE
8
0
6
CONTINUOUS
62
7
10
148.645
20
117.098
11
148.645
21
115.898
0
LINE
8
0
6
CONTINUOUS
62
7
10
148.645
20
115.898
11
151.945
21
115.898
0
LINE
8
0
6
CONTINUOUS
62
7
10
151.945
20
115.898
11
151.945
21
117.098
0
LINE
8
0
6
CONTINUOUS
62
7
10
151.945
20
117.098
11
153.669
21
117.098
0
LINE
8
0
6
CONTINUOUS
62
7
10
153.669
20
117.098
11
153.669
21
121.569
0
LINE
8
0
6
CONTINUOUS
62
7
10
153.669
20
121.569
11
154.394
21
121.569
0
LINE
8
0
6
CONTINUOUS
62
7
10
154.394
20
121.569
11
154.394
21
117.468
0
LINE
8
0
6
CONTINUOUS
62
7
10
154.394
20
117.468
11
169.995
21
117.468
0
LINE
8
0
6
CONTINUOUS
62
7
10
169.995
20
117.468
11
169.995
21
121.569
0
LINE
8
0
6
CONTINUOUS
62
7
10
169.995
20
121.569
11
170.72
21
121.569
0
LINE
8
0
6
CONTINUOUS
62
7
10
170.72
20
121.569
11
170.72
21
117.098
0
LINE
8
0
6
CONTINUOUS
62
7
10
170.72
20
117.098
11
172.445
21
117.098
0
LINE
8
0
6
CONTINUOUS
62
7
10
172.445
20
117.098
11
172.445
21
115.898
0
LINE
8
0
6
CONTINUOUS
62
7
10
172.445
20
115.898
11
175.745
21
115.898
0
LINE
8
0
6
CONTINUOUS
62
7
10
175.745
20
115.898
11
175.745
21
117.098
0
LINE
8
0
6
CONTINUOUS
62
7
10
175.745
20
117.098
11
177.469
21
117.098
0
LINE
8
0
6
CONTINUOUS
62
7
10
177.469
20
117.098
11
177.469
21
123.367
0
LINE
8
0
6
CONTINUOUS
62
7
10
177.469
20
123.367
11
178.295
21
123.367
0
LINE
8
0
6
CONTINUOUS
62
7
10
178.295
20
123.367
11
178.295
21
126.167
0
LINE
8
0
6
CONTINUOUS
62
7
10
178.295
20
126.167
11
177.469
21
126.167
0
LINE
8
0
6
CONTINUOUS
62
7
10
177.469
20
126.167
11
177.469
21
129.397
0
LINE
8
0
6
CONTINUOUS
62
7
10
177.469
20
129.397
11
170.72
21
129.397
0
LINE
8
0
6
CONTINUOUS
62
7
10
170.72
20
129.397
11
170.72
21
126.167
0
LINE
8
0
6
CONTINUOUS
62
7
10
170.72
20
126.167
11
169.995
21
126.167
0
LINE
8
0
6
CONTINUOUS
62
7
10
169.995
20
126.167
11
169.995
21
130.268
0
LINE
8
0
6
CONTINUOUS
62
7
10
169.995
20
130.268
11
154.394
21
130.268
0
LINE
8
0
6
CONTINUOUS
62
7
10
192.494
20
130.268
11
192.494
21
126.167
0
LINE
8
0
6
CONTINUOUS
62
7
10
192.494
20
126.167
11
191.769
21
126.167
0
LINE
8
0
6
CONTINUOUS
62
7
10
191.769
20
126.167
11
191.769
21
129.397
0
LINE
8
0
6
CONTINUOUS
62
7
10
191.769
20
129.397
11
185.018
21
129.397
0
LINE
8
0
6
CONTINUOUS
62
7
10
185.018
20
129.397
11
185.018
21
126.167
0
LINE
8
0
6
CONTINUOUS
62
7
10
185.018
20
126.167
11
184.194
21
126.167
0
LINE
8
0
6
CONTINUOUS
62
7
10
184.194
20
126.167
11
184.194
21
123.367
0
LINE
8
0
6
CONTINUOUS
62
7
10
184.194
20
123.367
11
185.018
21
123.367
0
LINE
8
0
6
CONTINUOUS
62
7
10
185.018
20
123.367
11
185.018
21
117.098
0
LINE
8
0
6
CONTINUOUS
62
7
10
185.018
20
117.098
11
186.743
21
117.098
0
LINE
8
0
6
CONTINUOUS
62
7
10
186.743
20
117.098
11
186.743
21
115.898
0
LINE
8
0
6
CONTINUOUS
62
7
10
186.743
20
115.898
11
190.045
21
115.898
0
LINE
8
0
6
CONTINUOUS
62
7
10
190.045
20
115.898
11
190.045
21
117.098
0
LINE
8
0
6
CONTINUOUS
62
7
10
190.045
20
117.098
11
191.769
21
117.098
0
LINE
8
0
6
CONTINUOUS
62
7
10
191.769
20
117.098
11
191.769
21
121.569
0
LINE
8
0
6
CONTINUOUS
62
7
10
191.769
20
121.569
11
192.494
21
121.569
0
LINE
8
0
6
CONTINUOUS
62
7
10
192.494
20
121.569
11
192.494
21
117.468
0
LINE
8
0
6
CONTINUOUS
62
7
10
192.494
20
117.468
11
208.095
21
117.468
0
LINE
8
0
6
CONTINUOUS
62
7
10
208.095
20
117.468
11
208.095
21
121.569
0
LINE
8
0
6
CONTINUOUS
62
7
10
208.095
20
121.569
11
208.82
21
121.569
0
LINE
8
0
6
CONTINUOUS
62
7
10
208.82
20
121.569
11
208.82
21
117.098
0
LINE
8
0
6
CONTINUOUS
62
7
10
208.82
20
117.098
11
210.545
21
117.098
0
LINE
8
0
6
CONTINUOUS
62
7
10
210.545
20
117.098
11
210.545
21
115.898
0
LINE
8
0
6
CONTINUOUS
62
7
10
210.545
20
115.898
11
213.845
21
115.898
0
LINE
8
0
6
CONTINUOUS
62
7
10
213.845
20
115.898
11
213.845
21
117.098
0
LINE
8
0
6
CONTINUOUS
62
7
10
213.845
20
117.098
11
215.569
21
117.098
0
LINE
8
0
6
CONTINUOUS
62
7
10
215.569
20
117.098
11
215.569
21
123.367
0
LINE
8
0
6
CONTINUOUS
62
7
10
215.569
20
123.367
11
216.393
21
123.367
0
LINE
8
0
6
CONTINUOUS
62
7
10
216.393
20
123.367
11
216.393
21
126.167
0
LINE
8
0
6
CONTINUOUS
62
7
10
216.393
20
126.167
11
215.569
21
126.167
0
LINE
8
0
6
CONTINUOUS
62
7
10
215.569
20
126.167
11
215.569
21
129.397
0
LINE
8
0
6
CONTINUOUS
62
7
10
215.569
20
129.397
11
208.82
21
129.397
0
LINE
8
0
6
CONTINUOUS
62
7
10
208.82
20
129.397
11
208.82
21
126.167
0
LINE
8
0
6
CONTINUOUS
62
7
10
208.82
20
126.167
11
208.095
21
126.167
0
LINE
8
0
6
CONTINUOUS
62
7
10
208.095
20
126.167
11
208.095
21
130.268
0
LINE
8
0
6
CONTINUOUS
62
7
10
208.095
20
130.268
11
192.494
21
130.268
0
LINE
8
0
6
CONTINUOUS
62
7
10
30.5704
20
130.268
11
46.1698
21
130.268
0
LINE
8
0
6
CONTINUOUS
62
7
10
46.1698
20
130.268
11
46.1698
21
117.468
0
LINE
8
0
6
CONTINUOUS
62
7
10
46.1698
20
117.468
11
30.5704
21
117.468
0
LINE
8
0
6
CONTINUOUS
62
7
10
30.5704
20
117.468
11
30.5704
21
130.268
0
LINE
8
0
6
CONTINUOUS
62
7
10
49.6204
20
130.268
11
65.2198
21
130.268
0
LINE
8
0
6
CONTINUOUS
62
7
10
65.2198
20
130.268
11
65.2198
21
117.468
0
LINE
8
0
6
CONTINUOUS
62
7
10
65.2198
20
117.468
11
49.6204
21
117.468
0
LINE
8
0
6
CONTINUOUS
62
7
10
49.6204
20
117.468
11
49.6204
21
130.268
0
LINE
8
0
6
CONTINUOUS
62
7
10
68.6703
20
130.268
11
84.2698
21
130.268
0
LINE
8
0
6
CONTINUOUS
62
7
10
84.2698
20
130.268
11
84.2698
21
117.468
0
LINE
8
0
6
CONTINUOUS
62
7
10
84.2698
20
117.468
11
68.6703
21
117.468
0
LINE
8
0
6
CONTINUOUS
62
7
10
68.6703
20
117.468
11
68.6703
21
130.268
0
LINE
8
0
6
CONTINUOUS
62
7
10
87.7203
20
130.268
11
103.32
21
130.268
0
LINE
8
0
6
CONTINUOUS
62
7
10
103.32
20
130.268
11
103.32
21
117.468
0
LINE
8
0
6
CONTINUOUS
62
7
10
103.32
20
117.468
11
87.7203
21
117.468
0
LINE
8
0
6
CONTINUOUS
62
7
10
87.7203
20
117.468
11
87.7203
21
130.268
0
LINE
8
0
6
CONTINUOUS
62
7
10
221.069
20
130.268
11
236.67
21
130.268
0
LINE
8
0
6
CONTINUOUS
62
7
10
236.67
20
130.268
11
236.67
21
117.468
0
LINE
8
0
6
CONTINUOUS
62
7
10
236.67
20
117.468
11
221.069
21
117.468
0
LINE
8
0
6
CONTINUOUS
62
7
10
221.069
20
117.468
11
221.069
21
130.268
0
LINE
8
0
6
CONTINUOUS
62
7
10
240.119
20
130.268
11
255.72
21
130.268
0
LINE
8
0
6
CONTINUOUS
62
7
10
255.72
20
130.268
11
255.72
21
117.468
0
LINE
8
0
6
CONTINUOUS
62
7
10
255.72
20
117.468
11
240.119
21
117.468
0
LINE
8
0
6
CONTINUOUS
62
7
10
240.119
20
117.468
11
240.119
21
130.268
0
LINE
8
0
6
CONTINUOUS
62
7
10
259.17
20
130.268
11
274.77
21
130.268
0
LINE
8
0
6
CONTINUOUS
62
7
10
274.77
20
130.268
11
274.77
21
117.468
0
LINE
8
0
6
CONTINUOUS
62
7
10
274.77
20
117.468
11
259.17
21
117.468
0
LINE
8
0
6
CONTINUOUS
62
7
10
259.17
20
117.468
11
259.17
21
130.268
0
LINE
8
0
6
CONTINUOUS
62
7
10
278.22
20
130.268
11
293.82
21
130.268
0
LINE
8
0
6
CONTINUOUS
62
7
10
293.82
20
130.268
11
293.82
21
117.468
0
LINE
8
0
6
CONTINUOUS
62
7
10
293.82
20
117.468
11
278.22
21
117.468
0
LINE
8
0
6
CONTINUOUS
62
7
10
278.22
20
117.468
11
278.22
21
130.268
0
LINE
8
0
6
CONTINUOUS
62
7
10
316.32
20
130.268
11
331.92
21
130.268
0
LINE
8
0
6
CONTINUOUS
62
7
10
331.92
20
130.268
11
331.92
21
117.468
0
LINE
8
0
6
CONTINUOUS
62
7
10
331.92
20
117.468
11
316.32
21
117.468
0
LINE
8
0
6
CONTINUOUS
62
7
10
316.32
20
117.468
11
316.32
21
130.268
0
LINE
8
0
6
CONTINUOUS
62
7
10
335.37
20
130.268
11
350.97
21
130.268
0
LINE
8
0
6
CONTINUOUS
62
7
10
350.97
20
130.268
11
350.97
21
117.468
0
LINE
8
0
6
CONTINUOUS
62
7
10
350.97
20
117.468
11
335.37
21
117.468
0
LINE
8
0
6
CONTINUOUS
62
7
10
335.37
20
117.468
11
335.37
21
130.268
0
LINE
8
0
6
CONTINUOUS
62
7
10
354.42
20
130.268
11
370.02
21
130.268
0
LINE
8
0
6
CONTINUOUS
62
7
10
370.02
20
130.268
11
370.02
21
117.468
0
LINE
8
0
6
CONTINUOUS
62
7
10
370.02
20
117.468
11
354.42
21
117.468
0
LINE
8
0
6
CONTINUOUS
62
7
10
354.42
20
117.468
11
354.42
21
130.268
0
LINE
8
0
6
CONTINUOUS
62
7
10
373.47
20
130.268
11
389.07
21
130.268
0
LINE
8
0
6
CONTINUOUS
62
7
10
389.07
20
130.268
11
389.07
21
117.468
0
LINE
8
0
6
CONTINUOUS
62
7
10
389.07
20
117.468
11
373.47
21
117.468
0
LINE
8
0
6
CONTINUOUS
62
7
10
373.47
20
117.468
11
373.47
21
130.268
0
LINE
8
0
6
CONTINUOUS
62
7
10
30.5704
20
149.318
11
46.1698
21
149.318
0
LINE
8
0
6
CONTINUOUS
62
7
10
46.1698
20
149.318
11
46.1698
21
136.517
0
LINE
8
0
6
CONTINUOUS
62
7
10
46.1698
20
136.517
11
30.5704
21
136.517
0
LINE
8
0
6
CONTINUOUS
62
7
10
30.5704
20
136.517
11
30.5704
21
149.318
0
LINE
8
0
6
CONTINUOUS
62
7
10
49.6204
20
149.318
11
65.2198
21
149.318
0
LINE
8
0
6
CONTINUOUS
62
7
10
65.2198
20
149.318
11
65.2198
21
136.517
0
LINE
8
0
6
CONTINUOUS
62
7
10
65.2198
20
136.517
11
49.6204
21
136.517
0
LINE
8
0
6
CONTINUOUS
62
7
10
49.6204
20
136.517
11
49.6204
21
149.318
0
LINE
8
0
6
CONTINUOUS
62
7
10
68.6703
20
149.318
11
84.2698
21
149.318
0
LINE
8
0
6
CONTINUOUS
62
7
10
84.2698
20
149.318
11
84.2698
21
136.517
0
LINE
8
0
6
CONTINUOUS
62
7
10
84.2698
20
136.517
11
68.6703
21
136.517
0
LINE
8
0
6
CONTINUOUS
62
7
10
68.6703
20
136.517
11
68.6703
21
149.318
0
LINE
8
0
6
CONTINUOUS
62
7
10
87.7203
20
149.318
11
103.32
21
149.318
0
LINE
8
0
6
CONTINUOUS
62
7
10
103.32
20
149.318
11
103.32
21
136.517
0
LINE
8
0
6
CONTINUOUS
62
7
10
103.32
20
136.517
11
87.7203
21
136.517
0
LINE
8
0
6
CONTINUOUS
62
7
10
87.7203
20
136.517
11
87.7203
21
149.318
0
LINE
8
0
6
CONTINUOUS
62
7
10
106.77
20
149.318
11
122.368
21
149.318
0
LINE
8
0
6
CONTINUOUS
62
7
10
122.368
20
149.318
11
122.368
21
136.517
0
LINE
8
0
6
CONTINUOUS
62
7
10
122.368
20
136.517
11
106.77
21
136.517
0
LINE
8
0
6
CONTINUOUS
62
7
10
106.77
20
136.517
11
106.77
21
149.318
0
LINE
8
0
6
CONTINUOUS
62
7
10
125.82
20
149.318
11
141.418
21
149.318
0
LINE
8
0
6
CONTINUOUS
62
7
10
141.418
20
149.318
11
141.418
21
136.517
0
LINE
8
0
6
CONTINUOUS
62
7
10
141.418
20
136.517
11
125.82
21
136.517
0
LINE
8
0
6
CONTINUOUS
62
7
10
125.82
20
136.517
11
125.82
21
149.318
0
LINE
8
0
6
CONTINUOUS
62
7
10
144.869
20
149.318
11
160.47
21
149.318
0
LINE
8
0
6
CONTINUOUS
62
7
10
160.47
20
149.318
11
160.47
21
136.517
0
LINE
8
0
6
CONTINUOUS
62
7
10
160.47
20
136.517
11
144.869
21
136.517
0
LINE
8
0
6
CONTINUOUS
62
7
10
144.869
20
136.517
11
144.869
21
149.318
0
LINE
8
0
6
CONTINUOUS
62
7
10
163.92
20
149.318
11
179.52
21
149.318
0
LINE
8
0
6
CONTINUOUS
62
7
10
179.52
20
149.318
11
179.52
21
136.517
0
LINE
8
0
6
CONTINUOUS
62
7
10
179.52
20
136.517
11
163.92
21
136.517
0
LINE
8
0
6
CONTINUOUS
62
7
10
163.92
20
136.517
11
163.92
21
149.318
0
LINE
8
0
6
CONTINUOUS
62
7
10
182.97
20
149.318
11
198.57
21
149.318
0
LINE
8
0
6
CONTINUOUS
62
7
10
198.57
20
149.318
11
198.57
21
136.517
0
LINE
8
0
6
CONTINUOUS
62
7
10
198.57
20
136.517
11
182.97
21
136.517
0
LINE
8
0
6
CONTINUOUS
62
7
10
182.97
20
136.517
11
182.97
21
149.318
0
LINE
8
0
6
CONTINUOUS
62
7
10
202.02
20
149.318
11
217.62
21
149.318
0
LINE
8
0
6
CONTINUOUS
62
7
10
217.62
20
149.318
11
217.62
21
136.517
0
LINE
8
0
6
CONTINUOUS
62
7
10
217.62
20
136.517
11
202.02
21
136.517
0
LINE
8
0
6
CONTINUOUS
62
7
10
202.02
20
136.517
11
202.02
21
149.318
0
LINE
8
0
6
CONTINUOUS
62
7
10
221.07
20
149.318
11
236.67
21
149.318
0
LINE
8
0
6
CONTINUOUS
62
7
10
236.67
20
149.318
11
236.67
21
136.517
0
LINE
8
0
6
CONTINUOUS
62
7
10
236.67
20
136.517
11
221.07
21
136.517
0
LINE
8
0
6
CONTINUOUS
62
7
10
221.07
20
136.517
11
221.07
21
149.318
0
LINE
8
0
6
CONTINUOUS
62
7
10
240.12
20
149.318
11
255.72
21
149.318
0
LINE
8
0
6
CONTINUOUS
62
7
10
255.72
20
149.318
11
255.72
21
136.517
0
LINE
8
0
6
CONTINUOUS
62
7
10
255.72
20
136.517
11
240.12
21
136.517
0
LINE
8
0
6
CONTINUOUS
62
7
10
240.12
20
136.517
11
240.12
21
149.318
0
LINE
8
0
6
CONTINUOUS
62
7
10
259.17
20
149.318
11
274.77
21
149.318
0
LINE
8
0
6
CONTINUOUS
62
7
10
274.77
20
149.318
11
274.77
21
136.517
0
LINE
8
0
6
CONTINUOUS
62
7
10
274.77
20
136.517
11
259.17
21
136.517
0
LINE
8
0
6
CONTINUOUS
62
7
10
259.17
20
136.517
11
259.17
21
149.318
0
LINE
8
0
6
CONTINUOUS
62
7
10
278.22
20
149.318
11
293.82
21
149.318
0
LINE
8
0
6
CONTINUOUS
62
7
10
293.82
20
149.318
11
293.82
21
136.517
0
LINE
8
0
6
CONTINUOUS
62
7
10
293.82
20
136.517
11
278.22
21
136.517
0
LINE
8
0
6
CONTINUOUS
62
7
10
278.22
20
136.517
11
278.22
21
149.318
0
LINE
8
0
6
CONTINUOUS
62
7
10
316.32
20
149.318
11
331.92
21
149.318
0
LINE
8
0
6
CONTINUOUS
62
7
10
331.92
20
149.318
11
331.92
21
136.517
0
LINE
8
0
6
CONTINUOUS
62
7
10
331.92
20
136.517
11
316.32
21
136.517
0
LINE
8
0
6
CONTINUOUS
62
7
10
316.32
20
136.517
11
316.32
21
149.318
0
LINE
8
0
6
CONTINUOUS
62
7
10
335.37
20
149.318
11
350.97
21
149.318
0
LINE
8
0
6
CONTINUOUS
62
7
10
350.97
20
149.318
11
350.97
21
136.517
0
LINE
8
0
6
CONTINUOUS
62
7
10
350.97
20
136.517
11
335.37
21
136.517
0
LINE
8
0
6
CONTINUOUS
62
7
10
335.37
20
136.517
11
335.37
21
149.318
0
LINE
8
0
6
CONTINUOUS
62
7
10
354.42
20
149.318
11
370.02
21
149.318
0
LINE
8
0
6
CONTINUOUS
62
7
10
370.02
20
149.318
11
370.02
21
136.517
0
LINE
8
0
6
CONTINUOUS
62
7
10
370.02
20
136.517
11
354.42
21
136.517
0
LINE
8
0
6
CONTINUOUS
62
7
10
354.42
20
136.517
11
354.42
21
149.318
0
LINE
8
0
6
CONTINUOUS
62
7
10
373.47
20
149.318
11
389.07
21
149.318
0
LINE
8
0
6
CONTINUOUS
62
7
10
389.07
20
149.318
11
389.07
21
136.517
0
LINE
8
0
6
CONTINUOUS
62
7
10
389.07
20
136.517
11
373.47
21
136.517
0
LINE
8
0
6
CONTINUOUS
62
7
10
373.47
20
136.517
11
373.47
21
149.318
0
LINE
8
0
6
CONTINUOUS
62
7
10
30.5704
20
168.368
11
46.1698
21
168.368
0
LINE
8
0
6
CONTINUOUS
62
7
10
46.1698
20
168.368
11
46.1698
21
155.568
0
LINE
8
0
6
CONTINUOUS
62
7
10
46.1698
20
155.568
11
30.5704
21
155.568
0
LINE
8
0
6
CONTINUOUS
62
7
10
30.5704
20
155.568
11
30.5704
21
168.368
0
LINE
8
0
6
CONTINUOUS
62
7
10
49.6204
20
168.368
11
65.2198
21
168.368
0
LINE
8
0
6
CONTINUOUS
62
7
10
65.2198
20
168.368
11
65.2198
21
155.568
0
LINE
8
0
6
CONTINUOUS
62
7
10
65.2198
20
155.568
11
49.6204
21
155.568
0
LINE
8
0
6
CONTINUOUS
62
7
10
49.6204
20
155.568
11
49.6204
21
168.368
0
LINE
8
0
6
CONTINUOUS
62
7
10
68.6703
20
168.368
11
84.2698
21
168.368
0
LINE
8
0
6
CONTINUOUS
62
7
10
84.2698
20
168.368
11
84.2698
21
155.568
0
LINE
8
0
6
CONTINUOUS
62
7
10
84.2698
20
155.568
11
68.6703
21
155.568
0
LINE
8
0
6
CONTINUOUS
62
7
10
68.6703
20
155.568
11
68.6703
21
168.368
0
LINE
8
0
6
CONTINUOUS
62
7
10
87.7203
20
168.368
11
103.32
21
168.368
0
LINE
8
0
6
CONTINUOUS
62
7
10
103.32
20
168.368
11
103.32
21
155.568
0
LINE
8
0
6
CONTINUOUS
62
7
10
103.32
20
155.568
11
87.7203
21
155.568
0
LINE
8
0
6
CONTINUOUS
62
7
10
87.7203
20
155.568
11
87.7203
21
168.368
0
LINE
8
0
6
CONTINUOUS
62
7
10
106.77
20
168.368
11
122.368
21
168.368
0
LINE
8
0
6
CONTINUOUS
62
7
10
122.368
20
168.368
11
122.368
21
155.568
0
LINE
8
0
6
CONTINUOUS
62
7
10
122.368
20
155.568
11
106.77
21
155.568
0
LINE
8
0
6
CONTINUOUS
62
7
10
106.77
20
155.568
11
106.77
21
168.368
0
LINE
8
0
6
CONTINUOUS
62
7
10
125.82
20
168.368
11
141.418
21
168.368
0
LINE
8
0
6
CONTINUOUS
62
7
10
141.418
20
168.368
11
141.418
21
155.568
0
LINE
8
0
6
CONTINUOUS
62
7
10
141.418
20
155.568
11
125.82
21
155.568
0
LINE
8
0
6
CONTINUOUS
62
7
10
125.82
20
155.568
11
125.82
21
168.368
0
LINE
8
0
6
CONTINUOUS
62
7
10
144.869
20
168.368
11
160.47
21
168.368
0
LINE
8
0
6
CONTINUOUS
62
7
10
160.47
20
168.368
11
160.47
21
155.568
0
LINE
8
0
6
CONTINUOUS
62
7
10
160.47
20
155.568
11
144.869
21
155.568
0
LINE
8
0
6
CONTINUOUS
62
7
10
144.869
20
155.568
11
144.869
21
168.368
0
LINE
8
0
6
CONTINUOUS
62
7
10
163.92
20
168.368
11
179.52
21
168.368
0
LINE
8
0
6
CONTINUOUS
62
7
10
179.52
20
168.368
11
179.52
21
155.568
0
LINE
8
0
6
CONTINUOUS
62
7
10
179.52
20
155.568
11
163.92
21
155.568
0
LINE
8
0
6
CONTINUOUS
62
7
10
163.92
20
155.568
11
163.92
21
168.368
0
LINE
8
0
6
CONTINUOUS
62
7
10
182.97
20
168.368
11
198.57
21
168.368
0
LINE
8
0
6
CONTINUOUS
62
7
10
198.57
20
168.368
11
198.57
21
155.568
0
LINE
8
0
6
CONTINUOUS
62
7
10
198.57
20
155.568
11
182.97
21
155.568
0
LINE
8
0
6
CONTINUOUS
62
7
10
182.97
20
155.568
11
182.97
21
168.368
0
LINE
8
0
6
CONTINUOUS
62
7
10
202.02
20
168.368
11
217.62
21
168.368
0
LINE
8
0
6
CONTINUOUS
62
7
10
217.62
20
168.368
11
217.62
21
155.568
0
LINE
8
0
6
CONTINUOUS
62
7
10
217.62
20
155.568
11
202.02
21
155.568
0
LINE
8
0
6
CONTINUOUS
62
7
10
202.02
20
155.568
11
202.02
21
168.368
0
LINE
8
0
6
CONTINUOUS
62
7
10
221.07
20
168.368
11
236.67
21
168.368
0
LINE
8
0
6
CONTINUOUS
62
7
10
236.67
20
168.368
11
236.67
21
155.568
0
LINE
8
0
6
CONTINUOUS
62
7
10
236.67
20
155.568
11
221.07
21
155.568
0
LINE
8
0
6
CONTINUOUS
62
7
10
221.07
20
155.568
11
221.07
21
168.368
0
LINE
8
0
6
CONTINUOUS
62
7
10
240.12
20
168.368
11
255.72
21
168.368
0
LINE
8
0
6
CONTINUOUS
62
7
10
255.72
20
168.368
11
255.72
21
155.568
0
LINE
8
0
6
CONTINUOUS
62
7
10
255.72
20
155.568
11
240.12
21
155.568
0
LINE
8
0
6
CONTINUOUS
62
7
10
240.12
20
155.568
11
240.12
21
168.368
0
LINE
8
0
6
CONTINUOUS
62
7
10
259.17
20
168.368
11
274.77
21
168.368
0
LINE
8
0
6
CONTINUOUS
62
7
10
274.77
20
168.368
11
274.77
21
155.568
0
LINE
8
0
6
CONTINUOUS
62
7
10
274.77
20
155.568
11
259.17
21
155.568
0
LINE
8
0
6
CONTINUOUS
62
7
10
259.17
20
155.568
11
259.17
21
168.368
0
LINE
8
0
6
CONTINUOUS
62
7
10
278.22
20
168.368
11
293.82
21
168.368
0
LINE
8
0
6
CONTINUOUS
62
7
10
293.82
20
168.368
11
293.82
21
155.568
0
LINE
8
0
6
CONTINUOUS
62
7
10
293.82
20
155.568
11
278.22
21
155.568
0
LINE
8
0
6
CONTINUOUS
62
7
10
278.22
20
155.568
11
278.22
21
168.368
0
LINE
8
0
6
CONTINUOUS
62
7
10
316.32
20
168.368
11
331.92
21
168.368
0
LINE
8
0
6
CONTINUOUS
62
7
10
331.92
20
168.368
11
331.92
21
155.568
0
LINE
8
0
6
CONTINUOUS
62
7
10
331.92
20
155.568
11
316.32
21
155.568
0
LINE
8
0
6
CONTINUOUS
62
7
10
316.32
20
155.568
11
316.32
21
168.368
0
LINE
8
0
6
CONTINUOUS
62
7
10
335.37
20
168.368
11
350.97
21
168.368
0
LINE
8
0
6
CONTINUOUS
62
7
10
350.97
20
168.368
11
350.97
21
155.568
0
LINE
8
0
6
CONTINUOUS
62
7
10
350.97
20
155.568
11
335.37
21
155.568
0
LINE
8
0
6
CONTINUOUS
62
7
10
335.37
20
155.568
11
335.37
21
168.368
0
LINE
8
0
6
CONTINUOUS
62
7
10
354.42
20
168.368
11
370.02
21
168.368
0
LINE
8
0
6
CONTINUOUS
62
7
10
370.02
20
168.368
11
370.02
21
155.568
0
LINE
8
0
6
CONTINUOUS
62
7
10
370.02
20
155.568
11
354.42
21
155.568
0
LINE
8
0
6
CONTINUOUS
62
7
10
354.42
20
155.568
11
354.42
21
168.368
0
LINE
8
0
6
CONTINUOUS
62
7
10
373.47
20
168.368
11
389.07
21
168.368
0
LINE
8
0
6
CONTINUOUS
62
7
10
389.07
20
168.368
11
389.07
21
155.568
0
LINE
8
0
6
CONTINUOUS
62
7
10
389.07
20
155.568
11
373.47
21
155.568
0
LINE
8
0
6
CONTINUOUS
62
7
10
373.47
20
155.568
11
373.47
21
168.368
0
LINE
8
0
6
CONTINUOUS
62
7
10
30.5704
20
187.418
11
46.1698
21
187.418
0
LINE
8
0
6
CONTINUOUS
62
7
10
46.1698
20
187.418
11
46.1698
21
174.618
0
LINE
8
0
6
CONTINUOUS
62
7
10
46.1698
20
174.618
11
30.5704
21
174.618
0
LINE
8
0
6
CONTINUOUS
62
7
10
30.5704
20
174.618
11
30.5704
21
187.418
0
LINE
8
0
6
CONTINUOUS
62
7
10
49.6204
20
187.418
11
65.2198
21
187.418
0
LINE
8
0
6
CONTINUOUS
62
7
10
65.2198
20
187.418
11
65.2198
21
174.618
0
LINE
8
0
6
CONTINUOUS
62
7
10
65.2198
20
174.618
11
49.6204
21
174.618
0
LINE
8
0
6
CONTINUOUS
62
7
10
49.6204
20
174.618
11
49.6204
21
187.418
0
LINE
8
0
6
CONTINUOUS
62
7
10
68.6703
20
187.418
11
84.2698
21
187.418
0
LINE
8
0
6
CONTINUOUS
62
7
10
84.2698
20
187.418
11
84.2698
21
174.618
0
LINE
8
0
6
CONTINUOUS
62
7
10
84.2698
20
174.618
11
68.6703
21
174.618
0
LINE
8
0
6
CONTINUOUS
62
7
10
68.6703
20
174.618
11
68.6703
21
187.418
0
LINE
8
0
6
CONTINUOUS
62
7
10
87.7203
20
187.418
11
103.32
21
187.418
0
LINE
8
0
6
CONTINUOUS
62
7
10
103.32
20
187.418
11
103.32
21
174.618
0
LINE
8
0
6
CONTINUOUS
62
7
10
103.32
20
174.618
11
87.7203
21
174.618
0
LINE
8
0
6
CONTINUOUS
62
7
10
87.7203
20
174.618
11
87.7203
21
187.418
0
LINE
8
0
6
CONTINUOUS
62
7
10
106.77
20
187.418
11
122.368
21
187.418
0
LINE
8
0
6
CONTINUOUS
62
7
10
122.368
20
187.418
11
122.368
21
174.618
0
LINE
8
0
6
CONTINUOUS
62
7
10
122.368
20
174.618
11
106.77
21
174.618
0
LINE
8
0
6
CONTINUOUS
62
7
10
106.77
20
174.618
11
106.77
21
187.418
0
LINE
8
0
6
CONTINUOUS
62
7
10
125.82
20
187.418
11
141.418
21
187.418
0
LINE
8
0
6
CONTINUOUS
62
7
10
141.418
20
187.418
11
141.418
21
174.618
0
LINE
8
0
6
CONTINUOUS
62
7
10
141.418
20
174.618
11
125.82
21
174.618
0
LINE
8
0
6
CONTINUOUS
62
7
10
125.82
20
174.618
11
125.82
21
187.418
0
LINE
8
0
6
CONTINUOUS
62
7
10
144.869
20
187.418
11
160.47
21
187.418
0
LINE
8
0
6
CONTINUOUS
62
7
10
160.47
20
187.418
11
160.47
21
174.618
0
LINE
8
0
6
CONTINUOUS
62
7
10
160.47
20
174.618
11
144.869
21
174.618
0
LINE
8
0
6
CONTINUOUS
62
7
10
144.869
20
174.618
11
144.869
21
187.418
0
LINE
8
0
6
CONTINUOUS
62
7
10
163.92
20
187.418
11
179.52
21
187.418
0
LINE
8
0
6
CONTINUOUS
62
7
10
179.52
20
187.418
11
179.52
21
174.618
0
LINE
8
0
6
CONTINUOUS
62
7
10
179.52
20
174.618
11
163.92
21
174.618
0
LINE
8
0
6
CONTINUOUS
62
7
10
163.92
20
174.618
11
163.92
21
187.418
0
LINE
8
0
6
CONTINUOUS
62
7
10
182.97
20
187.418
11
198.57
21
187.418
0
LINE
8
0
6
CONTINUOUS
62
7
10
198.57
20
187.418
11
198.57
21
174.618
0
LINE
8
0
6
CONTINUOUS
62
7
10
198.57
20
174.618
11
182.97
21
174.618
0
LINE
8
0
6
CONTINUOUS
62
7
10
182.97
20
174.618
11
182.97
21
187.418
0
LINE
8
0
6
CONTINUOUS
62
7
10
202.02
20
187.418
11
217.62
21
187.418
0
LINE
8
0
6
CONTINUOUS
62
7
10
217.62
20
187.418
11
217.62
21
174.618
0
LINE
8
0
6
CONTINUOUS
62
7
10
217.62
20
174.618
11
202.02
21
174.618
0
LINE
8
0
6
CONTINUOUS
62
7
10
202.02
20
174.618
11
202.02
21
187.418
0
LINE
8
0
6
CONTINUOUS
62
7
10
221.07
20
187.418
11
236.67
21
187.418
0
LINE
8
0
6
CONTINUOUS
62
7
10
236.67
20
187.418
11
236.67
21
174.618
0
LINE
8
0
6
CONTINUOUS
62
7
10
236.67
20
174.618
11
221.07
21
174.618
0
LINE
8
0
6
CONTINUOUS
62
7
10
221.07
20
174.618
11
221.07
21
187.418
0
LINE
8
0
6
CONTINUOUS
62
7
10
240.12
20
187.418
11
255.72
21
187.418
0
LINE
8
0
6
CONTINUOUS
62
7
10
255.72
20
187.418
11
255.72
21
174.618
0
LINE
8
0
6
CONTINUOUS
62
7
10
255.72
20
174.618
11
240.12
21
174.618
0
LINE
8
0
6
CONTINUOUS
62
7
10
240.12
20
174.618
11
240.12
21
187.418
0
LINE
8
0
6
CONTINUOUS
62
7
10
259.17
20
187.418
11
274.77
21
187.418
0
LINE
8
0
6
CONTINUOUS
62
7
10
274.77
20
187.418
11
274.77
21
174.618
0
LINE
8
0
6
CONTINUOUS
62
7
10
274.77
20
174.618
11
259.17
21
174.618
0
LINE
8
0
6
CONTINUOUS
62
7
10
259.17
20
174.618
11
259.17
21
187.418
0
LINE
8
0
6
CONTINUOUS
62
7
10
278.22
20
187.418
11
293.82
21
187.418
0
LINE
8
0
6
CONTINUOUS
62
7
10
293.82
20
187.418
11
293.82
21
174.618
0
LINE
8
0
6
CONTINUOUS
62
7
10
293.82
20
174.618
11
278.22
21
174.618
0
LINE
8
0
6
CONTINUOUS
62
7
10
278.22
20
174.618
11
278.22
21
187.418
0
LINE
8
0
6
CONTINUOUS
62
7
10
316.32
20
187.418
11
331.92
21
187.418
0
LINE
8
0
6
CONTINUOUS
62
7
10
331.92
20
187.418
11
331.92
21
174.618
0
LINE
8
0
6
CONTINUOUS
62
7
10
331.92
20
174.618
11
316.32
21
174.618
0
LINE
8
0
6
CONTINUOUS
62
7
10
316.32
20
174.618
11
316.32
21
187.418
0
LINE
8
0
6
CONTINUOUS
62
7
10
335.37
20
187.418
11
350.97
21
187.418
0
LINE
8
0
6
CONTINUOUS
62
7
10
350.97
20
187.418
11
350.97
21
174.618
0
LINE
8
0
6
CONTINUOUS
62
7
10
350.97
20
174.618
11
335.37
21
174.618
0
LINE
8
0
6
CONTINUOUS
62
7
10
335.37
20
174.618
11
335.37
21
187.418
0
LINE
8
0
6
CONTINUOUS
62
7
10
354.42
20
187.418
11
370.02
21
187.418
0
LINE
8
0
6
CONTINUOUS
62
7
10
370.02
20
187.418
11
370.02
21
174.618
0
LINE
8
0
6
CONTINUOUS
62
7
10
370.02
20
174.618
11
354.42
21
174.618
0
LINE
8
0
6
CONTINUOUS
62
7
10
354.42
20
174.618
11
354.42
21
187.418
0
LINE
8
0
6
CONTINUOUS
62
7
10
373.47
20
187.418
11
389.07
21
187.418
0
LINE
8
0
6
CONTINUOUS
62
7
10
389.07
20
187.418
11
389.07
21
174.618
0
LINE
8
0
6
CONTINUOUS
62
7
10
389.07
20
174.618
11
373.47
21
174.618
0
LINE
8
0
6
CONTINUOUS
62
7
10
373.47
20
174.618
11
373.47
21
187.418
0
LINE
8
0
6
CONTINUOUS
62
7
10
30.5704
20
206.468
11
46.1698
21
206.468
0
LINE
8
0
6
CONTINUOUS
62
7
10
46.1698
20
206.468
11
46.1698
21
193.668
0
LINE
8
0
6
CONTINUOUS
62
7
10
46.1698
20
193.668
11
30.5704
21
193.668
0
LINE
8
0
6
CONTINUOUS
62
7
10
30.5704
20
193.668
11
30.5704
21
206.468
0
LINE
8
0
6
CONTINUOUS
62
7
10
49.6204
20
206.468
11
65.2198
21
206.468
0
LINE
8
0
6
CONTINUOUS
62
7
10
65.2198
20
206.468
11
65.2198
21
193.668
0
LINE
8
0
6
CONTINUOUS
62
7
10
65.2198
20
193.668
11
49.6204
21
193.668
0
LINE
8
0
6
CONTINUOUS
62
7
10
49.6204
20
193.668
11
49.6204
21
206.468
0
LINE
8
0
6
CONTINUOUS
62
7
10
68.6703
20
206.468
11
84.2698
21
206.468
0
LINE
8
0
6
CONTINUOUS
62
7
10
84.2698
20
206.468
11
84.2698
21
193.668
0
LINE
8
0
6
CONTINUOUS
62
7
10
84.2698
20
193.668
11
68.6703
21
193.668
0
LINE
8
0
6
CONTINUOUS
62
7
10
68.6703
20
193.668
11
68.6703
21
206.468
0
LINE
8
0
6
CONTINUOUS
62
7
10
87.7203
20
206.468
11
103.32
21
206.468
0
LINE
8
0
6
CONTINUOUS
62
7
10
103.32
20
206.468
11
103.32
21
193.668
0
LINE
8
0
6
CONTINUOUS
62
7
10
103.32
20
193.668
11
87.7203
21
193.668
0
LINE
8
0
6
CONTINUOUS
62
7
10
87.7203
20
193.668
11
87.7203
21
206.468
0
LINE
8
0
6
CONTINUOUS
62
7
10
106.77
20
206.468
11
122.368
21
206.468
0
LINE
8
0
6
CONTINUOUS
62
7
10
122.368
20
206.468
11
122.368
21
193.668
0
LINE
8
0
6
CONTINUOUS
62
7
10
122.368
20
193.668
11
106.77
21
193.668
0
LINE
8
0
6
CONTINUOUS
62
7
10
106.77
20
193.668
11
106.77
21
206.468
0
LINE
8
0
6
CONTINUOUS
62
7
10
125.82
20
206.468
11
141.418
21
206.468
0
LINE
8
0
6
CONTINUOUS
62
7
10
141.418
20
206.468
11
141.418
21
193.668
0
LINE
8
0
6
CONTINUOUS
62
7
10
141.418
20
193.668
11
125.82
21
193.668
0
LINE
8
0
6
CONTINUOUS
62
7
10
125.82
20
193.668
11
125.82
21
206.468
0
LINE
8
0
6
CONTINUOUS
62
7
10
144.869
20
206.468
11
160.47
21
206.468
0
LINE
8
0
6
CONTINUOUS
62
7
10
160.47
20
206.468
11
160.47
21
193.668
0
LINE
8
0
6
CONTINUOUS
62
7
10
160.47
20
193.668
11
144.869
21
193.668
0
LINE
8
0
6
CONTINUOUS
62
7
10
144.869
20
193.668
11
144.869
21
206.468
0
LINE
8
0
6
CONTINUOUS
62
7
10
163.92
20
206.468
11
179.52
21
206.468
0
LINE
8
0
6
CONTINUOUS
62
7
10
179.52
20
206.468
11
179.52
21
193.668
0
LINE
8
0
6
CONTINUOUS
62
7
10
179.52
20
193.668
11
163.92
21
193.668
0
LINE
8
0
6
CONTINUOUS
62
7
10
163.92
20
193.668
11
163.92
21
206.468
0
LINE
8
0
6
CONTINUOUS
62
7
10
182.97
20
206.468
11
198.57
21
206.468
0
LINE
8
0
6
CONTINUOUS
62
7
10
198.57
20
206.468
11
198.57
21
193.668
0
LINE
8
0
6
CONTINUOUS
62
7
10
198.57
20
193.668
11
182.97
21
193.668
0
LINE
8
0
6
CONTINUOUS
62
7
10
182.97
20
193.668
11
182.97
21
206.468
0
LINE
8
0
6
CONTINUOUS
62
7
10
202.02
20
206.468
11
217.62
21
206.468
0
LINE
8
0
6
CONTINUOUS
62
7
10
217.62
20
206.468
11
217.62
21
193.668
0
LINE
8
0
6
CONTINUOUS
62
7
10
217.62
20
193.668
11
202.02
21
193.668
0
LINE
8
0
6
CONTINUOUS
62
7
10
202.02
20
193.668
11
202.02
21
206.468
0
LINE
8
0
6
CONTINUOUS
62
7
10
221.07
20
206.468
11
236.67
21
206.468
0
LINE
8
0
6
CONTINUOUS
62
7
10
236.67
20
206.468
11
236.67
21
193.668
0
LINE
8
0
6
CONTINUOUS
62
7
10
236.67
20
193.668
11
221.07
21
193.668
0
LINE
8
0
6
CONTINUOUS
62
7
10
221.07
20
193.668
11
221.07
21
206.468
0
LINE
8
0
6
CONTINUOUS
62
7
10
240.12
20
206.468
11
255.72
21
206.468
0
LINE
8
0
6
CONTINUOUS
62
7
10
255.72
20
206.468
11
255.72
21
193.668
0
LINE
8
0
6
CONTINUOUS
62
7
10
255.72
20
193.668
11
240.12
21
193.668
0
LINE
8
0
6
CONTINUOUS
62
7
10
240.12
20
193.668
11
240.12
21
206.468
0
LINE
8
0
6
CONTINUOUS
62
7
10
259.17
20
206.468
11
274.77
21
206.468
0
LINE
8
0
6
CONTINUOUS
62
7
10
274.77
20
206.468
11
274.77
21
193.668
0
LINE
8
0
6
CONTINUOUS
62
7
10
274.77
20
193.668
11
259.17
21
193.668
0
LINE
8
0
6
CONTINUOUS
62
7
10
259.17
20
193.668
11
259.17
21
206.468
0
LINE
8
0
6
CONTINUOUS
62
7
10
278.22
20
206.468
11
293.82
21
206.468
0
LINE
8
0
6
CONTINUOUS
62
7
10
293.82
20
206.468
11
293.82
21
193.668
0
LINE
8
0
6
CONTINUOUS
62
7
10
293.82
20
193.668
11
278.22
21
193.668
0
LINE
8
0
6
CONTINUOUS
62
7
10
278.22
20
193.668
11
278.22
21
206.468
0
LINE
8
0
6
CONTINUOUS
62
7
10
316.32
20
206.468
11
331.92
21
206.468
0
LINE
8
0
6
CONTINUOUS
62
7
10
331.92
20
206.468
11
331.92
21
193.668
0
LINE
8
0
6
CONTINUOUS
62
7
10
331.92
20
193.668
11
316.32
21
193.668
0
LINE
8
0
6
CONTINUOUS
62
7
10
316.32
20
193.668
11
316.32
21
206.468
0
LINE
8
0
6
CONTINUOUS
62
7
10
335.37
20
206.468
11
350.97
21
206.468
0
LINE
8
0
6
CONTINUOUS
62
7
10
350.97
20
206.468
11
350.97
21
193.668
0
LINE
8
0
6
CONTINUOUS
62
7
10
350.97
20
193.668
11
335.37
21
193.668
0
LINE
8
0
6
CONTINUOUS
62
7
10
335.37
20
193.668
11
335.37
21
206.468
0
LINE
8
0
6
CONTINUOUS
62
7
10
354.42
20
206.468
11
370.02
21
206.468
0
LINE
8
0
6
CONTINUOUS
62
7
10
370.02
20
206.468
11
370.02
21
193.668
0
LINE
8
0
6
CONTINUOUS
62
7
10
370.02
20
193.668
11
354.42
21
193.668
0
LINE
8
0
6
CONTINUOUS
62
7
10
354.42
20
193.668
11
354.42
21
206.468
0
LINE
8
0
6
CONTINUOUS
62
7
10
373.47
20
206.468
11
389.07
21
206.468
0
LINE
8
0
6
CONTINUOUS
62
7
10
389.07
20
206.468
11
389.07
21
193.668
0
LINE
8
0
6
CONTINUOUS
62
7
10
389.07
20
193.668
11
373.47
21
193.668
0
LINE
8
0
6
CONTINUOUS
62
7
10
373.47
20
193.668
11
373.47
21
206.468
0
ENDSEC
0
EOF
