0
SECTION
2
HEADER
9
$ANGDIR
70
0
9
$CHAMFERA
40
10
9
$CHAMFERB
40
10
9
$CLAYER
8
Layer_1
9
$EXTMAX
10
677.5
20
297.5
9
$EXTMIN
10
-90.5
20
-55.5
9
$LIMMAX
10
677.5
20
297.5
9
$LIMMIN
10
-90.5
20
-55.5
9
$LTSCALE
40
10
9
$PLINEGEN
70
0
9
$TEXTSIZE
40
20
9
$GRIDUNIT
10
10
20
10
9
$SNAPUNIT
10
1
20
1
0
ENDSEC
0
SECTION
2
TABLES
0
TABLE
2
STYLE
70
1
0
STYLE
2
STANDARD
70
0
40
0
41
1
50
0
71
0
42
0.2
3
txt
4

0
ENDTAB
0
TABLE
2
LTYPE
70
14
0
LTYPE
2
CONTINUOUS
70
0
3
Solid line
72
65
73
0
40
0
0
LTYPE
2
DOT
70
0
3
............................................
72
65
73
2
40
0.25
49
0
49
-0.25
0
LTYPE
2
HIDDEN
70
0
3
_ _ _ _ _ _ _ _ _ _ _ _ _ _ _ _ _ _ _ _ _ _ 
72
65
73
2
40
0.375
49
0.25
49
-0.125
0
LTYPE
2
TSLONGDASH
70
0
3
__ __ __ __ __ __ __ __ __ __ __ __ __ __ _ 
72
65
73
2
40
1.28
49
1
49
-0.28
0
LTYPE
2
TSDASHDOT
70
0
3
______ . ______ . ______ . ______ . ______ .
72
65
73
4
40
1.28
49
1
49
-0.14
49
0
49
-0.14
0
LTYPE
2
TSCENTER
70
0
3
______ _ ______ _ ______ _ ______ _ ______ _
72
65
73
4
40
2
49
1.5
49
-0.18
49
0.14
49
-0.18
0
LTYPE
2
TSPHANTOM
70
0
3
_____ _ _ _____ _ _ _____ _ _ _____ _ _ ____
72
65
73
6
40
2.5
49
1.63
49
-0.19
49
0.15
49
-0.19
49
0.15
49
-0.19
0
LTYPE
2
DASHED
70
0
3
__ __ __ __ __ __ __ __ __ __ __ __ __ __ __
72
65
73
2
40
0.75
49
0.5
49
-0.25
0
LTYPE
2
CENTER
70
0
3
____ _ ____ _ ____ _ ____ _ ____ _ ____ _ __
72
65
73
4
40
2
49
1.25
49
-0.25
49
0.25
49
-0.25
0
LTYPE
2
PHANTOM
70
0
3
_____ _ _ _____ _ _ _____ _ _ _____ _ _ ____
72
65
73
6
40
2.5
49
1.25
49
-0.25
49
0.25
49
-0.25
49
0.25
49
-0.25
0
LTYPE
2
DASHDOT
70
0
3
__ . __ . __ . __ . __ . __ . __ . __ . __ .
72
65
73
4
40
1
49
0.5
49
-0.25
49
0
49
-0.25
0
LTYPE
2
BORDER
70
0
3
__ __ . __ __ . __ __ . __ __ . __ __ . __ _
72
65
73
6
40
1.75
49
0.5
49
-0.25
49
0.5
49
-0.25
49
0
49
-0.25
0
LTYPE
2
DIVIDE
70
0
3
__ . . __ . . __ . . __ . . __ . . __ . . __
72
65
73
6
40
1.25
49
0.5
49
-0.25
49
0
49
-0.25
49
0
49
-0.25
0
ENDTAB
0
TABLE
2
LAYER
70
4
0
LAYER
2
Layer_1
70
0
62
7
6
CONTINUOUS
0
LAYER
2
Layer_2
70
0
62
7
6
CONTINUOUS
0
LAYER
2
Layer_3
70
0
62
7
6
CONTINUOUS
0
LAYER
2
0
70
0
62
7
6
CONTINUOUS
0
ENDTAB
0
ENDSEC
0
SECTION
2
ENTITIES
0
CIRCLE
8
0
6
CONTINUOUS
62
5
10
160.75
20
187.5
40
1.5
0
CIRCLE
8
0
6
CONTINUOUS
62
5
10
36.25
20
187.5
40
1.5
0
CIRCLE
8
0
6
CONTINUOUS
62
5
10
-87.5
20
294.5
40
1.5
0
CIRCLE
8
0
6
CONTINUOUS
62
5
10
-87.5
20
187.5
40
1.5
0
CIRCLE
8
0
6
CONTINUOUS
62
5
10
284.5
20
187.5
40
1.5
0
CIRCLE
8
0
6
CONTINUOUS
62
5
10
284.5
20
294.5
40
1.5
0
CIRCLE
8
0
6
CONTINUOUS
62
5
10
36.25
20
294.5
40
1.5
0
CIRCLE
8
0
6
CONTINUOUS
62
5
10
160.75
20
294.5
40
1.5
0
LINE
8
0
6
CONTINUOUS
62
5
10
-88.9
20
184.5
11
285.9
21
184.5
0
LINE
8
0
6
CONTINUOUS
62
5
10
-90.5
20
295.9
11
-90.5
21
186.1
0
LINE
8
0
6
CONTINUOUS
62
5
10
-88.9
20
297.5
11
285.9
21
297.5
0
LINE
8
0
6
CONTINUOUS
62
5
10
287.5
20
186.1
11
287.5
21
295.9
0
ARC
8
0
6
CONTINUOUS
62
5
10
285.9
20
186.1
40
1.6
50
270
51
0
0
ARC
8
0
6
CONTINUOUS
62
5
10
-88.9
20
186.1
40
1.6
50
180
51
270
0
ARC
8
0
6
CONTINUOUS
62
5
10
-88.9
20
295.9
40
1.6
50
90
51
180
0
ARC
8
0
6
CONTINUOUS
62
5
10
285.9
20
295.9
40
1.6
50
0
51
90
0
CIRCLE
8
0
6
CONTINUOUS
62
5
10
550.75
20
-52.5
40
1.5
0
CIRCLE
8
0
6
CONTINUOUS
62
5
10
426.25
20
-52.5
40
1.5
0
CIRCLE
8
0
6
CONTINUOUS
62
5
10
302.5
20
54.5
40
1.5
0
CIRCLE
8
0
6
CONTINUOUS
62
5
10
302.5
20
-52.5
40
1.5
0
CIRCLE
8
0
6
CONTINUOUS
62
5
10
674.5
20
-52.5
40
1.5
0
CIRCLE
8
0
6
CONTINUOUS
62
5
10
674.5
20
54.5
40
1.5
0
CIRCLE
8
0
6
CONTINUOUS
62
5
10
426.25
20
54.5
40
1.5
0
CIRCLE
8
0
6
CONTINUOUS
62
5
10
550.75
20
54.5
40
1.5
0
LINE
8
0
6
CONTINUOUS
62
5
10
301.1
20
-55.5
11
675.9
21
-55.5
0
LINE
8
0
6
CONTINUOUS
62
5
10
299.5
20
55.9
11
299.5
21
-53.9
0
LINE
8
0
6
CONTINUOUS
62
5
10
301.1
20
57.5
11
675.9
21
57.5
0
LINE
8
0
6
CONTINUOUS
62
5
10
677.5
20
-53.9
11
677.5
21
55.9
0
ARC
8
0
6
CONTINUOUS
62
5
10
675.9
20
-53.9
40
1.6
50
270
51
0
0
ARC
8
0
6
CONTINUOUS
62
5
10
301.1
20
-53.9
40
1.6
50
180
51
270
0
ARC
8
0
6
CONTINUOUS
62
5
10
301.1
20
55.9
40
1.6
50
90
51
180
0
ARC
8
0
6
CONTINUOUS
62
5
10
675.9
20
55.9
40
1.6
50
0
51
90
0
CIRCLE
8
0
6
CONTINUOUS
62
5
10
160.75
20
-52.5
40
1.5
0
CIRCLE
8
0
6
CONTINUOUS
62
5
10
36.25
20
-52.5
40
1.5
0
CIRCLE
8
0
6
CONTINUOUS
62
5
10
-87.5
20
54.5
40
1.5
0
CIRCLE
8
0
6
CONTINUOUS
62
5
10
-87.5
20
-52.5
40
1.5
0
CIRCLE
8
0
6
CONTINUOUS
62
5
10
284.5
20
-52.5
40
1.5
0
CIRCLE
8
0
6
CONTINUOUS
62
5
10
284.5
20
54.5
40
1.5
0
CIRCLE
8
0
6
CONTINUOUS
62
5
10
36.25
20
54.5
40
1.5
0
CIRCLE
8
0
6
CONTINUOUS
62
5
10
160.75
20
54.5
40
1.5
0
LINE
8
0
6
CONTINUOUS
62
5
10
-88.9
20
-55.5
11
285.9
21
-55.5
0
LINE
8
0
6
CONTINUOUS
62
5
10
-90.5
20
55.9
11
-90.5
21
-53.9
0
LINE
8
0
6
CONTINUOUS
62
5
10
-88.9
20
57.5
11
285.9
21
57.5
0
LINE
8
0
6
CONTINUOUS
62
5
10
287.5
20
-53.9
11
287.5
21
55.9
0
ARC
8
0
6
CONTINUOUS
62
5
10
285.9
20
-53.9
40
1.6
50
270
51
0
0
ARC
8
0
6
CONTINUOUS
62
5
10
-88.9
20
-53.9
40
1.6
50
180
51
270
0
ARC
8
0
6
CONTINUOUS
62
5
10
-88.9
20
55.9
40
1.6
50
90
51
180
0
ARC
8
0
6
CONTINUOUS
62
5
10
285.9
20
55.9
40
1.6
50
0
51
90
0
CIRCLE
8
0
6
CONTINUOUS
62
5
10
550.75
20
67.5
40
1.5
0
CIRCLE
8
0
6
CONTINUOUS
62
5
10
426.25
20
67.5
40
1.5
0
CIRCLE
8
0
6
CONTINUOUS
62
5
10
302.5
20
174.5
40
1.5
0
CIRCLE
8
0
6
CONTINUOUS
62
5
10
302.5
20
67.5
40
1.5
0
CIRCLE
8
0
6
CONTINUOUS
62
5
10
674.5
20
67.5
40
1.5
0
CIRCLE
8
0
6
CONTINUOUS
62
5
10
674.5
20
174.5
40
1.5
0
CIRCLE
8
0
6
CONTINUOUS
62
5
10
426.25
20
174.5
40
1.5
0
CIRCLE
8
0
6
CONTINUOUS
62
5
10
550.75
20
174.5
40
1.5
0
LINE
8
0
6
CONTINUOUS
62
5
10
301.1
20
64.5
11
675.9
21
64.5
0
LINE
8
0
6
CONTINUOUS
62
5
10
299.5
20
175.9
11
299.5
21
66.1
0
LINE
8
0
6
CONTINUOUS
62
5
10
301.1
20
177.5
11
675.9
21
177.5
0
LINE
8
0
6
CONTINUOUS
62
5
10
677.5
20
66.1
11
677.5
21
175.9
0
ARC
8
0
6
CONTINUOUS
62
5
10
675.9
20
66.1
40
1.6
50
270
51
0
0
ARC
8
0
6
CONTINUOUS
62
5
10
301.1
20
66.1
40
1.6
50
180
51
270
0
ARC
8
0
6
CONTINUOUS
62
5
10
301.1
20
175.9
40
1.6
50
90
51
180
0
ARC
8
0
6
CONTINUOUS
62
5
10
675.9
20
175.9
40
1.6
50
0
51
90
0
CIRCLE
8
0
6
CONTINUOUS
62
5
10
160.75
20
67.5
40
1.5
0
CIRCLE
8
0
6
CONTINUOUS
62
5
10
36.25
20
67.5
40
1.5
0
CIRCLE
8
0
6
CONTINUOUS
62
5
10
-87.5
20
174.5
40
1.5
0
CIRCLE
8
0
6
CONTINUOUS
62
5
10
-87.5
20
67.5
40
1.5
0
CIRCLE
8
0
6
CONTINUOUS
62
5
10
284.5
20
67.5
40
1.5
0
CIRCLE
8
0
6
CONTINUOUS
62
5
10
284.5
20
174.5
40
1.5
0
CIRCLE
8
0
6
CONTINUOUS
62
5
10
36.25
20
174.5
40
1.5
0
CIRCLE
8
0
6
CONTINUOUS
62
5
10
160.75
20
174.5
40
1.5
0
LINE
8
0
6
CONTINUOUS
62
5
10
-88.9
20
64.5
11
285.9
21
64.5
0
LINE
8
0
6
CONTINUOUS
62
5
10
-90.5
20
175.9
11
-90.5
21
66.1
0
LINE
8
0
6
CONTINUOUS
62
5
10
-88.9
20
177.5
11
285.9
21
177.5
0
LINE
8
0
6
CONTINUOUS
62
5
10
287.5
20
66.1
11
287.5
21
175.9
0
ARC
8
0
6
CONTINUOUS
62
5
10
285.9
20
66.1
40
1.6
50
270
51
0
0
ARC
8
0
6
CONTINUOUS
62
5
10
-88.9
20
66.1
40
1.6
50
180
51
270
0
ARC
8
0
6
CONTINUOUS
62
5
10
-88.9
20
175.9
40
1.6
50
90
51
180
0
ARC
8
0
6
CONTINUOUS
62
5
10
285.9
20
175.9
40
1.6
50
0
51
90
0
CIRCLE
8
0
6
CONTINUOUS
62
5
10
550.75
20
187.5
40
1.5
0
CIRCLE
8
0
6
CONTINUOUS
62
5
10
426.25
20
187.5
40
1.5
0
CIRCLE
8
0
6
CONTINUOUS
62
5
10
302.5
20
294.5
40
1.5
0
CIRCLE
8
0
6
CONTINUOUS
62
5
10
302.5
20
187.5
40
1.5
0
CIRCLE
8
0
6
CONTINUOUS
62
5
10
674.5
20
187.5
40
1.5
0
CIRCLE
8
0
6
CONTINUOUS
62
5
10
674.5
20
294.5
40
1.5
0
CIRCLE
8
0
6
CONTINUOUS
62
5
10
426.25
20
294.5
40
1.5
0
CIRCLE
8
0
6
CONTINUOUS
62
5
10
550.75
20
294.5
40
1.5
0
LINE
8
0
6
CONTINUOUS
62
5
10
301.1
20
184.5
11
675.9
21
184.5
0
LINE
8
0
6
CONTINUOUS
62
5
10
299.5
20
295.9
11
299.5
21
186.1
0
LINE
8
0
6
CONTINUOUS
62
5
10
301.1
20
297.5
11
675.9
21
297.5
0
LINE
8
0
6
CONTINUOUS
62
5
10
677.5
20
186.1
11
677.5
21
295.9
0
ARC
8
0
6
CONTINUOUS
62
5
10
675.9
20
186.1
40
1.6
50
270
51
0
0
ARC
8
0
6
CONTINUOUS
62
5
10
301.1
20
186.1
40
1.6
50
180
51
270
0
ARC
8
0
6
CONTINUOUS
62
5
10
301.1
20
295.9
40
1.6
50
90
51
180
0
ARC
8
0
6
CONTINUOUS
62
5
10
675.9
20
295.9
40
1.6
50
0
51
90
0
CIRCLE
8
Layer_1
6
CONTINUOUS
62
5
10
-73
20
285
40
3.5
0
CIRCLE
8
Layer_1
6
CONTINUOUS
62
5
10
270
20
285
40
3.5
0
ENDSEC
0
EOF
