0
SECTION
2
HEADER
9
$ANGDIR
70
0
9
$CHAMFERA
40
10
9
$CHAMFERB
40
10
9
$CLAYER
8
Layer_1
9
$EXTMAX
10
394.398
20
218
9
$EXTMIN
10
25.1005
20
106
9
$LIMMAX
10
420
20
297
9
$LIMMIN
10
0
20
0
9
$LTSCALE
40
10
9
$PLINEGEN
70
0
9
$TEXTSIZE
40
20
9
$GRIDUNIT
10
10
20
10
9
$SNAPUNIT
10
1
20
1
0
ENDSEC
0
SECTION
2
TABLES
0
TABLE
2
STYLE
70
1
0
STYLE
2
STANDARD
70
0
40
0
41
1
50
0
71
0
42
0.2
3
txt
4

0
ENDTAB
0
TABLE
2
LTYPE
70
14
0
LTYPE
2
CONTINUOUS
70
0
3
Solid line
72
65
73
0
40
0
0
LTYPE
2
DOT
70
0
3
............................................
72
65
73
2
40
0.25
49
0
49
-0.25
0
LTYPE
2
HIDDEN
70
0
3
_ _ _ _ _ _ _ _ _ _ _ _ _ _ _ _ _ _ _ _ _ _ 
72
65
73
2
40
0.375
49
0.25
49
-0.125
0
LTYPE
2
TSLONGDASH
70
0
3
__ __ __ __ __ __ __ __ __ __ __ __ __ __ _ 
72
65
73
2
40
1.28
49
1
49
-0.28
0
LTYPE
2
TSDASHDOT
70
0
3
______ . ______ . ______ . ______ . ______ .
72
65
73
4
40
1.28
49
1
49
-0.14
49
0
49
-0.14
0
LTYPE
2
TSCENTER
70
0
3
______ _ ______ _ ______ _ ______ _ ______ _
72
65
73
4
40
2
49
1.5
49
-0.18
49
0.14
49
-0.18
0
LTYPE
2
TSPHANTOM
70
0
3
_____ _ _ _____ _ _ _____ _ _ _____ _ _ ____
72
65
73
6
40
2.5
49
1.63
49
-0.19
49
0.15
49
-0.19
49
0.15
49
-0.19
0
LTYPE
2
DASHED
70
0
3
__ __ __ __ __ __ __ __ __ __ __ __ __ __ __
72
65
73
2
40
0.75
49
0.5
49
-0.25
0
LTYPE
2
CENTER
70
0
3
____ _ ____ _ ____ _ ____ _ ____ _ ____ _ __
72
65
73
4
40
2
49
1.25
49
-0.25
49
0.25
49
-0.25
0
LTYPE
2
PHANTOM
70
0
3
_____ _ _ _____ _ _ _____ _ _ _____ _ _ ____
72
65
73
6
40
2.5
49
1.25
49
-0.25
49
0.25
49
-0.25
49
0.25
49
-0.25
0
LTYPE
2
DASHDOT
70
0
3
__ . __ . __ . __ . __ . __ . __ . __ . __ .
72
65
73
4
40
1
49
0.5
49
-0.25
49
0
49
-0.25
0
LTYPE
2
BORDER
70
0
3
__ __ . __ __ . __ __ . __ __ . __ __ . __ _
72
65
73
6
40
1.75
49
0.5
49
-0.25
49
0.5
49
-0.25
49
0
49
-0.25
0
LTYPE
2
DIVIDE
70
0
3
__ . . __ . . __ . . __ . . __ . . __ . . __
72
65
73
6
40
1.25
49
0.5
49
-0.25
49
0
49
-0.25
49
0
49
-0.25
0
ENDTAB
0
TABLE
2
LAYER
70
4
0
LAYER
2
Layer_1
70
0
62
7
6
CONTINUOUS
0
LAYER
2
Layer_2
70
0
62
7
6
CONTINUOUS
0
LAYER
2
Layer_3
70
0
62
7
6
CONTINUOUS
0
LAYER
2
0
70
0
62
7
6
CONTINUOUS
0
ENDTAB
0
ENDSEC
0
SECTION
2
ENTITIES
0
CIRCLE
8
0
6
CONTINUOUS
62
7
10
116.5
20
214.5
40
1.3
0
CIRCLE
8
0
6
CONTINUOUS
62
7
10
209.75
20
214.5
40
1.3
0
CIRCLE
8
0
6
CONTINUOUS
62
7
10
303
20
214.5
40
1.3
0
CIRCLE
8
0
6
CONTINUOUS
62
7
10
379.75
20
214.5
40
1.3
0
CIRCLE
8
0
6
CONTINUOUS
62
7
10
379.25
20
109.5
40
1.3
0
CIRCLE
8
0
6
CONTINUOUS
62
7
10
303
20
109.5
40
1.3
0
CIRCLE
8
0
6
CONTINUOUS
62
7
10
209.75
20
109.5
40
1.3
0
CIRCLE
8
0
6
CONTINUOUS
62
7
10
116.5
20
109.5
40
1.3
0
CIRCLE
8
0
6
CONTINUOUS
62
7
10
40.25
20
214.5
40
1.3
0
CIRCLE
8
0
6
CONTINUOUS
62
7
10
40.25
20
109.5
40
1.3
0
LINE
8
0
6
CONTINUOUS
62
7
10
48.75
20
109.5
11
50.1642
21
110.914
0
LINE
8
0
6
CONTINUOUS
62
7
10
108
20
109.5
11
106.586
21
110.914
0
LINE
8
0
6
CONTINUOUS
62
7
10
35.25
20
106
11
35
21
106
0
LINE
8
0
6
CONTINUOUS
62
7
10
35.25
20
218
11
35
21
218
0
LINE
8
0
6
CONTINUOUS
62
7
10
35
20
218
11
25.1005
21
208.101
0
LINE
8
0
6
CONTINUOUS
62
7
10
370.75
20
109.5
11
369.336
21
110.914
0
LINE
8
0
6
CONTINUOUS
62
7
10
35
20
106
11
25.1005
21
115.899
0
LINE
8
0
6
CONTINUOUS
62
7
10
125
20
109.5
11
126.414
21
110.914
0
LINE
8
0
6
CONTINUOUS
62
7
10
201.25
20
109.5
11
199.836
21
110.914
0
LINE
8
0
6
CONTINUOUS
62
7
10
218.25
20
109.5
11
219.664
21
110.914
0
LINE
8
0
6
CONTINUOUS
62
7
10
25.1005
20
208.101
11
25.1005
21
115.899
0
LINE
8
0
6
CONTINUOUS
62
7
10
294.5
20
109.5
11
293.086
21
110.914
0
LINE
8
0
6
CONTINUOUS
62
7
10
384.25
20
106
11
384.5
21
106
0
LINE
8
0
6
CONTINUOUS
62
7
10
384.5
20
106
11
394.398
21
115.898
0
LINE
8
0
6
CONTINUOUS
62
7
10
384.25
20
218
11
384.5
21
218
0
LINE
8
0
6
CONTINUOUS
62
7
10
384.5
20
218
11
394.398
21
208.102
0
LINE
8
0
6
CONTINUOUS
62
7
10
394.398
20
208.102
11
394.398
21
115.898
0
LINE
8
0
6
CONTINUOUS
62
7
10
311.5
20
109.5
11
312.914
21
110.914
0
LINE
8
0
6
CONTINUOUS
62
7
10
312.914
20
213.086
11
369.336
21
213.086
0
LINE
8
0
6
CONTINUOUS
62
7
10
219.664
20
213.086
11
293.086
21
213.086
0
LINE
8
0
6
CONTINUOUS
62
7
10
294.5
20
214.5
11
293.086
21
213.086
0
LINE
8
0
6
CONTINUOUS
62
7
10
50.1642
20
110.914
11
106.586
21
110.914
0
LINE
8
0
6
CONTINUOUS
62
7
10
48.75
20
214.5
11
50.1642
21
213.086
0
LINE
8
0
6
CONTINUOUS
62
7
10
108
20
214.5
11
106.586
21
213.086
0
LINE
8
0
6
CONTINUOUS
62
7
10
125
20
214.5
11
126.414
21
213.086
0
LINE
8
0
6
CONTINUOUS
62
7
10
201.25
20
214.5
11
199.836
21
213.086
0
LINE
8
0
6
CONTINUOUS
62
7
10
218.25
20
214.5
11
219.664
21
213.086
0
LINE
8
0
6
CONTINUOUS
62
7
10
126.414
20
110.914
11
199.836
21
110.914
0
LINE
8
0
6
CONTINUOUS
62
7
10
311.5
20
214.5
11
312.914
21
213.086
0
LINE
8
0
6
CONTINUOUS
62
7
10
370.75
20
214.5
11
369.336
21
213.086
0
LINE
8
0
6
CONTINUOUS
62
7
10
219.664
20
110.914
11
293.086
21
110.914
0
LINE
8
0
6
CONTINUOUS
62
7
10
312.914
20
110.914
11
369.336
21
110.914
0
LINE
8
0
6
CONTINUOUS
62
7
10
50.1642
20
213.086
11
106.586
21
213.086
0
LINE
8
0
6
CONTINUOUS
62
7
10
126.414
20
213.086
11
199.836
21
213.086
0
LINE
8
0
6
CONTINUOUS
62
7
10
35.25
20
218
11
45.25
21
218
0
LINE
8
0
6
CONTINUOUS
62
7
10
111.5
20
218
11
121.5
21
218
0
LINE
8
0
6
CONTINUOUS
62
7
10
204.75
20
218
11
214.75
21
218
0
LINE
8
0
6
CONTINUOUS
62
7
10
298
20
218
11
308
21
218
0
LINE
8
0
6
CONTINUOUS
62
7
10
374.25
20
218
11
384.25
21
218
0
LINE
8
0
6
CONTINUOUS
62
7
10
384.25
20
106
11
374.25
21
106
0
LINE
8
0
6
CONTINUOUS
62
7
10
308
20
106
11
298
21
106
0
LINE
8
0
6
CONTINUOUS
62
7
10
214.75
20
106
11
204.75
21
106
0
LINE
8
0
6
CONTINUOUS
62
7
10
121.5
20
106
11
111.5
21
106
0
LINE
8
0
6
CONTINUOUS
62
7
10
45.25
20
106
11
35.25
21
106
0
LINE
8
0
6
CONTINUOUS
62
7
10
201.25
20
214.5
11
204.75
21
218
0
LINE
8
0
6
CONTINUOUS
62
7
10
214.75
20
218
11
218.25
21
214.5
0
LINE
8
0
6
CONTINUOUS
62
7
10
45.25
20
218
11
48.75
21
214.5
0
LINE
8
0
6
CONTINUOUS
62
7
10
374.25
20
218
11
370.75
21
214.5
0
LINE
8
0
6
CONTINUOUS
62
7
10
45.25
20
106
11
48.75
21
109.5
0
LINE
8
0
6
CONTINUOUS
62
7
10
201.25
20
109.5
11
204.75
21
106
0
LINE
8
0
6
CONTINUOUS
62
7
10
214.75
20
106
11
218.25
21
109.5
0
LINE
8
0
6
CONTINUOUS
62
7
10
370.75
20
109.5
11
374.25
21
106
0
LINE
8
0
6
CONTINUOUS
62
7
10
311.5
20
109.5
11
308
21
106
0
LINE
8
0
6
CONTINUOUS
62
7
10
294.5
20
109.5
11
298
21
106
0
LINE
8
0
6
CONTINUOUS
62
7
10
108
20
109.5
11
111.5
21
106
0
LINE
8
0
6
CONTINUOUS
62
7
10
121.5
20
106
11
125
21
109.5
0
LINE
8
0
6
CONTINUOUS
62
7
10
298
20
218
11
294.5
21
214.5
0
LINE
8
0
6
CONTINUOUS
62
7
10
308
20
218
11
311.5
21
214.5
0
LINE
8
0
6
CONTINUOUS
62
7
10
108
20
214.5
11
111.5
21
218
0
LINE
8
0
6
CONTINUOUS
62
7
10
121.5
20
218
11
125
21
214.5
0
LINE
8
0
6
CONTINUOUS
62
7
10
120.571
20
119.995
11
120.571
21
114.783
0
LINE
8
0
6
CONTINUOUS
62
7
10
120.571
20
114.783
11
123.238
21
114.789
0
LINE
8
0
6
CONTINUOUS
62
7
10
123.238
20
114.789
11
123.238
21
119.995
0
LINE
8
0
6
CONTINUOUS
62
7
10
123.238
20
119.995
11
120.571
21
119.995
0
LINE
8
0
6
CONTINUOUS
62
7
10
161.053
20
119.995
11
161.053
21
114.783
0
LINE
8
0
6
CONTINUOUS
62
7
10
161.053
20
114.783
11
163.719
21
114.789
0
LINE
8
0
6
CONTINUOUS
62
7
10
163.719
20
114.789
11
163.719
21
119.995
0
LINE
8
0
6
CONTINUOUS
62
7
10
163.719
20
119.995
11
161.053
21
119.995
0
LINE
8
0
6
CONTINUOUS
62
7
10
148.763
20
119.995
11
151.43
21
119.995
0
LINE
8
0
6
CONTINUOUS
62
7
10
151.43
20
119.995
11
151.43
21
114.789
0
LINE
8
0
6
CONTINUOUS
62
7
10
151.43
20
114.789
11
148.763
21
114.789
0
LINE
8
0
6
CONTINUOUS
62
7
10
148.763
20
114.789
11
148.763
21
119.995
0
LINE
8
0
6
CONTINUOUS
62
7
10
189.244
20
119.995
11
191.911
21
119.995
0
LINE
8
0
6
CONTINUOUS
62
7
10
191.911
20
119.995
11
191.911
21
114.789
0
LINE
8
0
6
CONTINUOUS
62
7
10
191.911
20
114.789
11
189.244
21
114.789
0
LINE
8
0
6
CONTINUOUS
62
7
10
189.244
20
114.789
11
189.244
21
119.995
0
LINE
8
0
6
CONTINUOUS
62
7
10
35.3315
20
130.268
11
50.9323
21
130.268
0
LINE
8
0
6
CONTINUOUS
62
7
10
50.9323
20
130.268
11
50.9323
21
117.468
0
LINE
8
0
6
CONTINUOUS
62
7
10
50.9323
20
117.468
11
35.3315
21
117.468
0
LINE
8
0
6
CONTINUOUS
62
7
10
35.3315
20
117.468
11
35.3315
21
130.268
0
LINE
8
0
6
CONTINUOUS
62
7
10
63.9065
20
130.268
11
79.5073
21
130.268
0
LINE
8
0
6
CONTINUOUS
62
7
10
79.5073
20
130.268
11
79.5073
21
117.468
0
LINE
8
0
6
CONTINUOUS
62
7
10
79.5073
20
117.468
11
63.9065
21
117.468
0
LINE
8
0
6
CONTINUOUS
62
7
10
63.9065
20
117.468
11
63.9065
21
130.268
0
LINE
8
0
6
CONTINUOUS
62
7
10
92.4814
20
130.268
11
108.082
21
130.268
0
LINE
8
0
6
CONTINUOUS
62
7
10
108.082
20
130.268
11
108.082
21
117.468
0
LINE
8
0
6
CONTINUOUS
62
7
10
108.082
20
117.468
11
92.4814
21
117.468
0
LINE
8
0
6
CONTINUOUS
62
7
10
92.4814
20
117.468
11
92.4814
21
130.268
0
LINE
8
0
6
CONTINUOUS
62
7
10
128.2
20
130.268
11
143.801
21
130.268
0
LINE
8
0
6
CONTINUOUS
62
7
10
143.801
20
130.268
11
143.801
21
117.468
0
LINE
8
0
6
CONTINUOUS
62
7
10
143.801
20
117.468
11
128.2
21
117.468
0
LINE
8
0
6
CONTINUOUS
62
7
10
128.2
20
117.468
11
128.2
21
130.268
0
LINE
8
0
6
CONTINUOUS
62
7
10
168.681
20
130.268
11
184.282
21
130.268
0
LINE
8
0
6
CONTINUOUS
62
7
10
184.282
20
130.268
11
184.282
21
117.468
0
LINE
8
0
6
CONTINUOUS
62
7
10
184.282
20
117.468
11
168.681
21
117.468
0
LINE
8
0
6
CONTINUOUS
62
7
10
168.681
20
117.468
11
168.681
21
130.268
0
LINE
8
0
6
CONTINUOUS
62
7
10
197.256
20
130.268
11
212.857
21
130.268
0
LINE
8
0
6
CONTINUOUS
62
7
10
212.857
20
130.268
11
212.857
21
117.468
0
LINE
8
0
6
CONTINUOUS
62
7
10
212.857
20
117.468
11
197.256
21
117.468
0
LINE
8
0
6
CONTINUOUS
62
7
10
197.256
20
117.468
11
197.256
21
130.268
0
LINE
8
0
6
CONTINUOUS
62
7
10
216.306
20
130.268
11
231.907
21
130.268
0
LINE
8
0
6
CONTINUOUS
62
7
10
231.907
20
130.268
11
231.907
21
117.468
0
LINE
8
0
6
CONTINUOUS
62
7
10
231.907
20
117.468
11
216.306
21
117.468
0
LINE
8
0
6
CONTINUOUS
62
7
10
216.306
20
117.468
11
216.306
21
130.268
0
LINE
8
0
6
CONTINUOUS
62
7
10
235.356
20
130.268
11
250.957
21
130.268
0
LINE
8
0
6
CONTINUOUS
62
7
10
250.957
20
130.268
11
250.957
21
117.468
0
LINE
8
0
6
CONTINUOUS
62
7
10
250.957
20
117.468
11
235.356
21
117.468
0
LINE
8
0
6
CONTINUOUS
62
7
10
235.356
20
117.468
11
235.356
21
130.268
0
LINE
8
0
6
CONTINUOUS
62
7
10
256.788
20
130.268
11
272.387
21
130.268
0
LINE
8
0
6
CONTINUOUS
62
7
10
272.387
20
130.268
11
272.387
21
117.468
0
LINE
8
0
6
CONTINUOUS
62
7
10
272.387
20
117.468
11
256.788
21
117.468
0
LINE
8
0
6
CONTINUOUS
62
7
10
256.788
20
117.468
11
256.788
21
130.268
0
LINE
8
0
6
CONTINUOUS
62
7
10
278.22
20
130.268
11
293.82
21
130.268
0
LINE
8
0
6
CONTINUOUS
62
7
10
293.82
20
130.268
11
293.82
21
117.468
0
LINE
8
0
6
CONTINUOUS
62
7
10
293.82
20
117.468
11
278.22
21
117.468
0
LINE
8
0
6
CONTINUOUS
62
7
10
278.22
20
117.468
11
278.22
21
130.268
0
LINE
8
0
6
CONTINUOUS
62
7
10
297.27
20
130.268
11
312.87
21
130.268
0
LINE
8
0
6
CONTINUOUS
62
7
10
312.87
20
130.268
11
312.87
21
117.468
0
LINE
8
0
6
CONTINUOUS
62
7
10
312.87
20
117.468
11
297.27
21
117.468
0
LINE
8
0
6
CONTINUOUS
62
7
10
297.27
20
117.468
11
297.27
21
130.268
0
LINE
8
0
6
CONTINUOUS
62
7
10
316.32
20
130.268
11
331.92
21
130.268
0
LINE
8
0
6
CONTINUOUS
62
7
10
331.92
20
130.268
11
331.92
21
117.468
0
LINE
8
0
6
CONTINUOUS
62
7
10
331.92
20
117.468
11
316.32
21
117.468
0
LINE
8
0
6
CONTINUOUS
62
7
10
316.32
20
117.468
11
316.32
21
130.268
0
LINE
8
0
6
CONTINUOUS
62
7
10
335.37
20
130.268
11
350.97
21
130.268
0
LINE
8
0
6
CONTINUOUS
62
7
10
350.97
20
130.268
11
350.97
21
117.468
0
LINE
8
0
6
CONTINUOUS
62
7
10
350.97
20
117.468
11
335.37
21
117.468
0
LINE
8
0
6
CONTINUOUS
62
7
10
335.37
20
117.468
11
335.37
21
130.268
0
LINE
8
0
6
CONTINUOUS
62
7
10
354.42
20
130.268
11
370.02
21
130.268
0
LINE
8
0
6
CONTINUOUS
62
7
10
370.02
20
130.268
11
370.02
21
117.468
0
LINE
8
0
6
CONTINUOUS
62
7
10
370.02
20
117.468
11
354.42
21
117.468
0
LINE
8
0
6
CONTINUOUS
62
7
10
354.42
20
117.468
11
354.42
21
130.268
0
LINE
8
0
6
CONTINUOUS
62
7
10
372.19
20
120.63
11
377.396
21
120.63
0
LINE
8
0
6
CONTINUOUS
62
7
10
377.396
20
120.63
11
377.396
21
117.964
0
LINE
8
0
6
CONTINUOUS
62
7
10
377.396
20
117.964
11
372.19
21
117.964
0
LINE
8
0
6
CONTINUOUS
62
7
10
372.19
20
117.964
11
372.19
21
120.63
0
LINE
8
0
6
CONTINUOUS
62
7
10
374.869
20
141.192
11
387.67
21
141.192
0
LINE
8
0
6
CONTINUOUS
62
7
10
387.67
20
141.192
11
387.67
21
125.592
0
LINE
8
0
6
CONTINUOUS
62
7
10
387.67
20
125.592
11
374.869
21
125.592
0
LINE
8
0
6
CONTINUOUS
62
7
10
374.869
20
125.592
11
374.869
21
141.192
0
LINE
8
0
6
CONTINUOUS
62
7
10
34.8465
20
139.045
11
34.8465
21
133.833
0
LINE
8
0
6
CONTINUOUS
62
7
10
34.8465
20
133.833
11
37.5129
21
133.837
0
LINE
8
0
6
CONTINUOUS
62
7
10
37.5129
20
133.837
11
37.5129
21
139.045
0
LINE
8
0
6
CONTINUOUS
62
7
10
37.5129
20
139.045
11
34.8465
21
139.045
0
LINE
8
0
6
CONTINUOUS
62
7
10
265.604
20
139.045
11
265.604
21
133.833
0
LINE
8
0
6
CONTINUOUS
62
7
10
265.604
20
133.833
11
268.271
21
133.837
0
LINE
8
0
6
CONTINUOUS
62
7
10
268.271
20
133.837
11
268.271
21
139.045
0
LINE
8
0
6
CONTINUOUS
62
7
10
268.271
20
139.045
11
265.604
21
139.045
0
LINE
8
0
6
CONTINUOUS
62
7
10
63.0383
20
139.045
11
65.7049
21
139.045
0
LINE
8
0
6
CONTINUOUS
62
7
10
65.7049
20
139.045
11
65.7049
21
133.837
0
LINE
8
0
6
CONTINUOUS
62
7
10
65.7049
20
133.837
11
63.0383
21
133.837
0
LINE
8
0
6
CONTINUOUS
62
7
10
63.0383
20
133.837
11
63.0383
21
139.045
0
LINE
8
0
6
CONTINUOUS
62
7
10
289.48
20
139.045
11
292.147
21
139.045
0
LINE
8
0
6
CONTINUOUS
62
7
10
292.147
20
139.045
11
292.147
21
133.837
0
LINE
8
0
6
CONTINUOUS
62
7
10
292.147
20
133.837
11
289.48
21
133.837
0
LINE
8
0
6
CONTINUOUS
62
7
10
289.48
20
133.837
11
289.48
21
139.045
0
LINE
8
0
6
CONTINUOUS
62
7
10
42.4753
20
149.318
11
58.076
21
149.318
0
LINE
8
0
6
CONTINUOUS
62
7
10
58.076
20
149.318
11
58.076
21
136.517
0
LINE
8
0
6
CONTINUOUS
62
7
10
58.076
20
136.517
11
42.4753
21
136.517
0
LINE
8
0
6
CONTINUOUS
62
7
10
42.4753
20
136.517
11
42.4753
21
149.318
0
LINE
8
0
6
CONTINUOUS
62
7
10
73.4314
20
149.318
11
89.0323
21
149.318
0
LINE
8
0
6
CONTINUOUS
62
7
10
89.0323
20
149.318
11
89.0323
21
136.517
0
LINE
8
0
6
CONTINUOUS
62
7
10
89.0323
20
136.517
11
73.4314
21
136.517
0
LINE
8
0
6
CONTINUOUS
62
7
10
73.4314
20
136.517
11
73.4314
21
149.318
0
LINE
8
0
6
CONTINUOUS
62
7
10
92.4814
20
149.318
11
108.082
21
149.318
0
LINE
8
0
6
CONTINUOUS
62
7
10
108.082
20
149.318
11
108.082
21
136.517
0
LINE
8
0
6
CONTINUOUS
62
7
10
108.082
20
136.517
11
92.4814
21
136.517
0
LINE
8
0
6
CONTINUOUS
62
7
10
92.4814
20
136.517
11
92.4814
21
149.318
0
LINE
8
0
6
CONTINUOUS
62
7
10
111.531
20
149.318
11
127.132
21
149.318
0
LINE
8
0
6
CONTINUOUS
62
7
10
127.132
20
149.318
11
127.132
21
136.517
0
LINE
8
0
6
CONTINUOUS
62
7
10
127.132
20
136.517
11
111.531
21
136.517
0
LINE
8
0
6
CONTINUOUS
62
7
10
111.531
20
136.517
11
111.531
21
149.318
0
LINE
8
0
6
CONTINUOUS
62
7
10
130.581
20
149.318
11
146.182
21
149.318
0
LINE
8
0
6
CONTINUOUS
62
7
10
146.182
20
149.318
11
146.182
21
136.517
0
LINE
8
0
6
CONTINUOUS
62
7
10
146.182
20
136.517
11
130.581
21
136.517
0
LINE
8
0
6
CONTINUOUS
62
7
10
130.581
20
136.517
11
130.581
21
149.318
0
LINE
8
0
6
CONTINUOUS
62
7
10
149.631
20
149.318
11
165.232
21
149.318
0
LINE
8
0
6
CONTINUOUS
62
7
10
165.232
20
149.318
11
165.232
21
136.517
0
LINE
8
0
6
CONTINUOUS
62
7
10
165.232
20
136.517
11
149.631
21
136.517
0
LINE
8
0
6
CONTINUOUS
62
7
10
149.631
20
136.517
11
149.631
21
149.318
0
LINE
8
0
6
CONTINUOUS
62
7
10
168.681
20
149.318
11
184.282
21
149.318
0
LINE
8
0
6
CONTINUOUS
62
7
10
184.282
20
149.318
11
184.282
21
136.517
0
LINE
8
0
6
CONTINUOUS
62
7
10
184.282
20
136.517
11
168.681
21
136.517
0
LINE
8
0
6
CONTINUOUS
62
7
10
168.681
20
136.517
11
168.681
21
149.318
0
LINE
8
0
6
CONTINUOUS
62
7
10
187.731
20
149.318
11
203.332
21
149.318
0
LINE
8
0
6
CONTINUOUS
62
7
10
203.332
20
149.318
11
203.332
21
136.517
0
LINE
8
0
6
CONTINUOUS
62
7
10
203.332
20
136.517
11
187.731
21
136.517
0
LINE
8
0
6
CONTINUOUS
62
7
10
187.731
20
136.517
11
187.731
21
149.318
0
LINE
8
0
6
CONTINUOUS
62
7
10
206.781
20
149.318
11
222.382
21
149.318
0
LINE
8
0
6
CONTINUOUS
62
7
10
222.382
20
149.318
11
222.382
21
136.517
0
LINE
8
0
6
CONTINUOUS
62
7
10
222.382
20
136.517
11
206.781
21
136.517
0
LINE
8
0
6
CONTINUOUS
62
7
10
206.781
20
136.517
11
206.781
21
149.318
0
LINE
8
0
6
CONTINUOUS
62
7
10
225.831
20
149.318
11
241.432
21
149.318
0
LINE
8
0
6
CONTINUOUS
62
7
10
241.432
20
149.318
11
241.432
21
136.517
0
LINE
8
0
6
CONTINUOUS
62
7
10
241.432
20
136.517
11
225.831
21
136.517
0
LINE
8
0
6
CONTINUOUS
62
7
10
225.831
20
136.517
11
225.831
21
149.318
0
LINE
8
0
6
CONTINUOUS
62
7
10
244.881
20
149.318
11
260.482
21
149.318
0
LINE
8
0
6
CONTINUOUS
62
7
10
260.482
20
149.318
11
260.482
21
136.517
0
LINE
8
0
6
CONTINUOUS
62
7
10
260.482
20
136.517
11
244.881
21
136.517
0
LINE
8
0
6
CONTINUOUS
62
7
10
244.881
20
136.517
11
244.881
21
149.318
0
LINE
8
0
6
CONTINUOUS
62
7
10
271.075
20
149.318
11
286.676
21
149.318
0
LINE
8
0
6
CONTINUOUS
62
7
10
286.676
20
149.318
11
286.676
21
136.517
0
LINE
8
0
6
CONTINUOUS
62
7
10
286.676
20
136.517
11
271.075
21
136.517
0
LINE
8
0
6
CONTINUOUS
62
7
10
271.075
20
136.517
11
271.075
21
149.318
0
LINE
8
0
6
CONTINUOUS
62
7
10
297.27
20
149.318
11
312.87
21
149.318
0
LINE
8
0
6
CONTINUOUS
62
7
10
312.87
20
149.318
11
312.87
21
136.517
0
LINE
8
0
6
CONTINUOUS
62
7
10
312.87
20
136.517
11
297.27
21
136.517
0
LINE
8
0
6
CONTINUOUS
62
7
10
297.27
20
136.517
11
297.27
21
149.318
0
LINE
8
0
6
CONTINUOUS
62
7
10
316.32
20
149.318
11
331.92
21
149.318
0
LINE
8
0
6
CONTINUOUS
62
7
10
331.92
20
149.318
11
331.92
21
136.517
0
LINE
8
0
6
CONTINUOUS
62
7
10
331.92
20
136.517
11
316.32
21
136.517
0
LINE
8
0
6
CONTINUOUS
62
7
10
316.32
20
136.517
11
316.32
21
149.318
0
LINE
8
0
6
CONTINUOUS
62
7
10
335.37
20
149.318
11
350.97
21
149.318
0
LINE
8
0
6
CONTINUOUS
62
7
10
350.97
20
149.318
11
350.97
21
136.517
0
LINE
8
0
6
CONTINUOUS
62
7
10
350.97
20
136.517
11
335.37
21
136.517
0
LINE
8
0
6
CONTINUOUS
62
7
10
335.37
20
136.517
11
335.37
21
149.318
0
LINE
8
0
6
CONTINUOUS
62
7
10
354.42
20
149.318
11
370.02
21
149.318
0
LINE
8
0
6
CONTINUOUS
62
7
10
370.02
20
149.318
11
370.02
21
136.517
0
LINE
8
0
6
CONTINUOUS
62
7
10
370.02
20
136.517
11
354.42
21
136.517
0
LINE
8
0
6
CONTINUOUS
62
7
10
354.42
20
136.517
11
354.42
21
149.318
0
LINE
8
0
6
CONTINUOUS
62
7
10
372.185
20
148.822
11
372.19
21
146.155
0
LINE
8
0
6
CONTINUOUS
62
7
10
372.19
20
146.155
11
377.396
21
146.155
0
LINE
8
0
6
CONTINUOUS
62
7
10
377.396
20
146.155
11
377.396
21
148.822
0
LINE
8
0
6
CONTINUOUS
62
7
10
377.396
20
148.822
11
372.185
21
148.822
0
LINE
8
0
6
CONTINUOUS
62
7
10
32.242
20
158.095
11
32.242
21
152.883
0
LINE
8
0
6
CONTINUOUS
62
7
10
32.242
20
152.883
11
34.9071
21
152.887
0
LINE
8
0
6
CONTINUOUS
62
7
10
34.9071
20
152.887
11
34.9071
21
158.095
0
LINE
8
0
6
CONTINUOUS
62
7
10
34.9071
20
158.095
11
32.242
21
158.095
0
LINE
8
0
6
CONTINUOUS
62
7
10
277.734
20
158.095
11
277.734
21
152.883
0
LINE
8
0
6
CONTINUOUS
62
7
10
277.734
20
152.883
11
280.399
21
152.887
0
LINE
8
0
6
CONTINUOUS
62
7
10
280.399
20
152.887
11
280.399
21
158.095
0
LINE
8
0
6
CONTINUOUS
62
7
10
280.399
20
158.095
11
277.734
21
158.095
0
LINE
8
0
6
CONTINUOUS
62
7
10
56.1178
20
158.095
11
58.7843
21
158.095
0
LINE
8
0
6
CONTINUOUS
62
7
10
58.7843
20
158.095
11
58.7843
21
152.887
0
LINE
8
0
6
CONTINUOUS
62
7
10
58.7843
20
152.887
11
56.1178
21
152.887
0
LINE
8
0
6
CONTINUOUS
62
7
10
56.1178
20
152.887
11
56.1178
21
158.095
0
LINE
8
0
6
CONTINUOUS
62
7
10
305.926
20
158.095
11
308.592
21
158.095
0
LINE
8
0
6
CONTINUOUS
62
7
10
308.592
20
158.095
11
308.592
21
152.887
0
LINE
8
0
6
CONTINUOUS
62
7
10
308.592
20
152.887
11
305.926
21
152.887
0
LINE
8
0
6
CONTINUOUS
62
7
10
305.926
20
152.887
11
305.926
21
158.095
0
LINE
8
0
6
CONTINUOUS
62
7
10
37.7128
20
168.368
11
53.3122
21
168.368
0
LINE
8
0
6
CONTINUOUS
62
7
10
53.3122
20
168.368
11
53.3122
21
155.568
0
LINE
8
0
6
CONTINUOUS
62
7
10
53.3122
20
155.568
11
37.7128
21
155.568
0
LINE
8
0
6
CONTINUOUS
62
7
10
37.7128
20
155.568
11
37.7128
21
168.368
0
LINE
8
0
6
CONTINUOUS
62
7
10
63.9065
20
168.368
11
79.5073
21
168.368
0
LINE
8
0
6
CONTINUOUS
62
7
10
79.5073
20
168.368
11
79.5073
21
155.568
0
LINE
8
0
6
CONTINUOUS
62
7
10
79.5073
20
155.568
11
63.9065
21
155.568
0
LINE
8
0
6
CONTINUOUS
62
7
10
63.9065
20
155.568
11
63.9065
21
168.368
0
LINE
8
0
6
CONTINUOUS
62
7
10
82.9564
20
168.368
11
98.5573
21
168.368
0
LINE
8
0
6
CONTINUOUS
62
7
10
98.5573
20
168.368
11
98.5573
21
155.568
0
LINE
8
0
6
CONTINUOUS
62
7
10
98.5573
20
155.568
11
82.9564
21
155.568
0
LINE
8
0
6
CONTINUOUS
62
7
10
82.9564
20
155.568
11
82.9564
21
168.368
0
LINE
8
0
6
CONTINUOUS
62
7
10
102.006
20
168.368
11
117.607
21
168.368
0
LINE
8
0
6
CONTINUOUS
62
7
10
117.607
20
168.368
11
117.607
21
155.568
0
LINE
8
0
6
CONTINUOUS
62
7
10
117.607
20
155.568
11
102.006
21
155.568
0
LINE
8
0
6
CONTINUOUS
62
7
10
102.006
20
155.568
11
102.006
21
168.368
0
LINE
8
0
6
CONTINUOUS
62
7
10
121.056
20
168.368
11
136.657
21
168.368
0
LINE
8
0
6
CONTINUOUS
62
7
10
136.657
20
168.368
11
136.657
21
155.568
0
LINE
8
0
6
CONTINUOUS
62
7
10
136.657
20
155.568
11
121.056
21
155.568
0
LINE
8
0
6
CONTINUOUS
62
7
10
121.056
20
155.568
11
121.056
21
168.368
0
LINE
8
0
6
CONTINUOUS
62
7
10
140.106
20
168.368
11
155.707
21
168.368
0
LINE
8
0
6
CONTINUOUS
62
7
10
155.707
20
168.368
11
155.707
21
155.568
0
LINE
8
0
6
CONTINUOUS
62
7
10
155.707
20
155.568
11
140.106
21
155.568
0
LINE
8
0
6
CONTINUOUS
62
7
10
140.106
20
155.568
11
140.106
21
168.368
0
LINE
8
0
6
CONTINUOUS
62
7
10
159.156
20
168.368
11
174.757
21
168.368
0
LINE
8
0
6
CONTINUOUS
62
7
10
174.757
20
168.368
11
174.757
21
155.568
0
LINE
8
0
6
CONTINUOUS
62
7
10
174.757
20
155.568
11
159.156
21
155.568
0
LINE
8
0
6
CONTINUOUS
62
7
10
159.156
20
155.568
11
159.156
21
168.368
0
LINE
8
0
6
CONTINUOUS
62
7
10
178.206
20
168.368
11
193.807
21
168.368
0
LINE
8
0
6
CONTINUOUS
62
7
10
193.807
20
168.368
11
193.807
21
155.568
0
LINE
8
0
6
CONTINUOUS
62
7
10
193.807
20
155.568
11
178.206
21
155.568
0
LINE
8
0
6
CONTINUOUS
62
7
10
178.206
20
155.568
11
178.206
21
168.368
0
LINE
8
0
6
CONTINUOUS
62
7
10
197.256
20
168.368
11
212.857
21
168.368
0
LINE
8
0
6
CONTINUOUS
62
7
10
212.857
20
168.368
11
212.857
21
155.568
0
LINE
8
0
6
CONTINUOUS
62
7
10
212.857
20
155.568
11
197.256
21
155.568
0
LINE
8
0
6
CONTINUOUS
62
7
10
197.256
20
155.568
11
197.256
21
168.368
0
LINE
8
0
6
CONTINUOUS
62
7
10
216.306
20
168.368
11
231.907
21
168.368
0
LINE
8
0
6
CONTINUOUS
62
7
10
231.907
20
168.368
11
231.907
21
155.568
0
LINE
8
0
6
CONTINUOUS
62
7
10
231.907
20
155.568
11
216.306
21
155.568
0
LINE
8
0
6
CONTINUOUS
62
7
10
216.306
20
155.568
11
216.306
21
168.368
0
LINE
8
0
6
CONTINUOUS
62
7
10
235.356
20
168.368
11
250.957
21
168.368
0
LINE
8
0
6
CONTINUOUS
62
7
10
250.957
20
168.368
11
250.957
21
155.568
0
LINE
8
0
6
CONTINUOUS
62
7
10
250.957
20
155.568
11
235.356
21
155.568
0
LINE
8
0
6
CONTINUOUS
62
7
10
235.356
20
155.568
11
235.356
21
168.368
0
LINE
8
0
6
CONTINUOUS
62
7
10
254.406
20
168.368
11
270.007
21
168.368
0
LINE
8
0
6
CONTINUOUS
62
7
10
270.007
20
168.368
11
270.007
21
155.568
0
LINE
8
0
6
CONTINUOUS
62
7
10
270.007
20
155.568
11
254.406
21
155.568
0
LINE
8
0
6
CONTINUOUS
62
7
10
254.406
20
155.568
11
254.406
21
168.368
0
LINE
8
0
6
CONTINUOUS
62
7
10
285.361
20
168.368
11
300.962
21
168.368
0
LINE
8
0
6
CONTINUOUS
62
7
10
300.962
20
168.368
11
300.962
21
155.568
0
LINE
8
0
6
CONTINUOUS
62
7
10
300.962
20
155.568
11
285.361
21
155.568
0
LINE
8
0
6
CONTINUOUS
62
7
10
285.361
20
155.568
11
285.361
21
168.368
0
LINE
8
0
6
CONTINUOUS
62
7
10
316.32
20
168.368
11
331.92
21
168.368
0
LINE
8
0
6
CONTINUOUS
62
7
10
331.92
20
168.368
11
331.92
21
155.568
0
LINE
8
0
6
CONTINUOUS
62
7
10
331.92
20
155.568
11
316.32
21
155.568
0
LINE
8
0
6
CONTINUOUS
62
7
10
316.32
20
155.568
11
316.32
21
168.368
0
LINE
8
0
6
CONTINUOUS
62
7
10
335.37
20
168.368
11
350.97
21
168.368
0
LINE
8
0
6
CONTINUOUS
62
7
10
350.97
20
168.368
11
350.97
21
155.568
0
LINE
8
0
6
CONTINUOUS
62
7
10
350.97
20
155.568
11
335.37
21
155.568
0
LINE
8
0
6
CONTINUOUS
62
7
10
335.37
20
155.568
11
335.37
21
168.368
0
LINE
8
0
6
CONTINUOUS
62
7
10
354.42
20
168.368
11
370.02
21
168.368
0
LINE
8
0
6
CONTINUOUS
62
7
10
370.02
20
168.368
11
370.02
21
155.568
0
LINE
8
0
6
CONTINUOUS
62
7
10
370.02
20
155.568
11
354.42
21
155.568
0
LINE
8
0
6
CONTINUOUS
62
7
10
354.42
20
155.568
11
354.42
21
168.368
0
LINE
8
0
6
CONTINUOUS
62
7
10
373.47
20
168.368
11
389.07
21
168.368
0
LINE
8
0
6
CONTINUOUS
62
7
10
389.07
20
168.368
11
389.07
21
155.568
0
LINE
8
0
6
CONTINUOUS
62
7
10
389.07
20
155.568
11
373.47
21
155.568
0
LINE
8
0
6
CONTINUOUS
62
7
10
373.47
20
155.568
11
373.47
21
168.368
0
LINE
8
0
6
CONTINUOUS
62
7
10
35.3315
20
187.418
11
50.9323
21
187.418
0
LINE
8
0
6
CONTINUOUS
62
7
10
50.9323
20
187.418
11
50.9323
21
174.618
0
LINE
8
0
6
CONTINUOUS
62
7
10
50.9323
20
174.618
11
35.3315
21
174.618
0
LINE
8
0
6
CONTINUOUS
62
7
10
35.3315
20
174.618
11
35.3315
21
187.418
0
LINE
8
0
6
CONTINUOUS
62
7
10
59.1454
20
187.418
11
74.7448
21
187.418
0
LINE
8
0
6
CONTINUOUS
62
7
10
74.7448
20
187.418
11
74.7448
21
174.618
0
LINE
8
0
6
CONTINUOUS
62
7
10
74.7448
20
174.618
11
59.1454
21
174.618
0
LINE
8
0
6
CONTINUOUS
62
7
10
59.1454
20
174.618
11
59.1454
21
187.418
0
LINE
8
0
6
CONTINUOUS
62
7
10
78.1953
20
187.418
11
93.7948
21
187.418
0
LINE
8
0
6
CONTINUOUS
62
7
10
93.7948
20
187.418
11
93.7948
21
174.618
0
LINE
8
0
6
CONTINUOUS
62
7
10
93.7948
20
174.618
11
78.1953
21
174.618
0
LINE
8
0
6
CONTINUOUS
62
7
10
78.1953
20
174.618
11
78.1953
21
187.418
0
LINE
8
0
6
CONTINUOUS
62
7
10
97.2453
20
187.418
11
112.845
21
187.418
0
LINE
8
0
6
CONTINUOUS
62
7
10
112.845
20
187.418
11
112.845
21
174.618
0
LINE
8
0
6
CONTINUOUS
62
7
10
112.845
20
174.618
11
97.2453
21
174.618
0
LINE
8
0
6
CONTINUOUS
62
7
10
97.2453
20
174.618
11
97.2453
21
187.418
0
LINE
8
0
6
CONTINUOUS
62
7
10
116.295
20
187.418
11
131.895
21
187.418
0
LINE
8
0
6
CONTINUOUS
62
7
10
131.895
20
187.418
11
131.895
21
174.618
0
LINE
8
0
6
CONTINUOUS
62
7
10
131.895
20
174.618
11
116.295
21
174.618
0
LINE
8
0
6
CONTINUOUS
62
7
10
116.295
20
174.618
11
116.295
21
187.418
0
LINE
8
0
6
CONTINUOUS
62
7
10
135.345
20
187.418
11
150.945
21
187.418
0
LINE
8
0
6
CONTINUOUS
62
7
10
150.945
20
187.418
11
150.945
21
174.618
0
LINE
8
0
6
CONTINUOUS
62
7
10
150.945
20
174.618
11
135.345
21
174.618
0
LINE
8
0
6
CONTINUOUS
62
7
10
135.345
20
174.618
11
135.345
21
187.418
0
LINE
8
0
6
CONTINUOUS
62
7
10
154.394
20
187.418
11
169.995
21
187.418
0
LINE
8
0
6
CONTINUOUS
62
7
10
169.995
20
187.418
11
169.995
21
174.618
0
LINE
8
0
6
CONTINUOUS
62
7
10
169.995
20
174.618
11
154.394
21
174.618
0
LINE
8
0
6
CONTINUOUS
62
7
10
154.394
20
174.618
11
154.394
21
187.418
0
LINE
8
0
6
CONTINUOUS
62
7
10
173.445
20
187.418
11
189.045
21
187.418
0
LINE
8
0
6
CONTINUOUS
62
7
10
189.045
20
187.418
11
189.045
21
174.618
0
LINE
8
0
6
CONTINUOUS
62
7
10
189.045
20
174.618
11
173.445
21
174.618
0
LINE
8
0
6
CONTINUOUS
62
7
10
173.445
20
174.618
11
173.445
21
187.418
0
LINE
8
0
6
CONTINUOUS
62
7
10
192.495
20
187.418
11
208.095
21
187.418
0
LINE
8
0
6
CONTINUOUS
62
7
10
208.095
20
187.418
11
208.095
21
174.618
0
LINE
8
0
6
CONTINUOUS
62
7
10
208.095
20
174.618
11
192.495
21
174.618
0
LINE
8
0
6
CONTINUOUS
62
7
10
192.495
20
174.618
11
192.495
21
187.418
0
LINE
8
0
6
CONTINUOUS
62
7
10
211.545
20
187.418
11
227.145
21
187.418
0
LINE
8
0
6
CONTINUOUS
62
7
10
227.145
20
187.418
11
227.145
21
174.618
0
LINE
8
0
6
CONTINUOUS
62
7
10
227.145
20
174.618
11
211.545
21
174.618
0
LINE
8
0
6
CONTINUOUS
62
7
10
211.545
20
174.618
11
211.545
21
187.418
0
LINE
8
0
6
CONTINUOUS
62
7
10
230.595
20
187.418
11
246.195
21
187.418
0
LINE
8
0
6
CONTINUOUS
62
7
10
246.195
20
187.418
11
246.195
21
174.618
0
LINE
8
0
6
CONTINUOUS
62
7
10
246.195
20
174.618
11
230.595
21
174.618
0
LINE
8
0
6
CONTINUOUS
62
7
10
230.595
20
174.618
11
230.595
21
187.418
0
LINE
8
0
6
CONTINUOUS
62
7
10
249.645
20
187.418
11
265.245
21
187.418
0
LINE
8
0
6
CONTINUOUS
62
7
10
265.245
20
187.418
11
265.245
21
174.618
0
LINE
8
0
6
CONTINUOUS
62
7
10
265.245
20
174.618
11
249.645
21
174.618
0
LINE
8
0
6
CONTINUOUS
62
7
10
249.645
20
174.618
11
249.645
21
187.418
0
LINE
8
0
6
CONTINUOUS
62
7
10
268.695
20
187.418
11
284.295
21
187.418
0
LINE
8
0
6
CONTINUOUS
62
7
10
284.295
20
187.418
11
284.295
21
174.618
0
LINE
8
0
6
CONTINUOUS
62
7
10
284.295
20
174.618
11
268.695
21
174.618
0
LINE
8
0
6
CONTINUOUS
62
7
10
268.695
20
174.618
11
268.695
21
187.418
0
LINE
8
0
6
CONTINUOUS
62
7
10
292.506
20
187.418
11
308.107
21
187.418
0
LINE
8
0
6
CONTINUOUS
62
7
10
308.107
20
187.418
11
308.107
21
174.618
0
LINE
8
0
6
CONTINUOUS
62
7
10
308.107
20
174.618
11
292.506
21
174.618
0
LINE
8
0
6
CONTINUOUS
62
7
10
292.506
20
174.618
11
292.506
21
187.418
0
LINE
8
0
6
CONTINUOUS
62
7
10
316.32
20
187.418
11
331.92
21
187.418
0
LINE
8
0
6
CONTINUOUS
62
7
10
331.92
20
187.418
11
331.92
21
174.618
0
LINE
8
0
6
CONTINUOUS
62
7
10
331.92
20
174.618
11
316.32
21
174.618
0
LINE
8
0
6
CONTINUOUS
62
7
10
316.32
20
174.618
11
316.32
21
187.418
0
LINE
8
0
6
CONTINUOUS
62
7
10
335.37
20
187.418
11
350.97
21
187.418
0
LINE
8
0
6
CONTINUOUS
62
7
10
350.97
20
187.418
11
350.97
21
174.618
0
LINE
8
0
6
CONTINUOUS
62
7
10
350.97
20
174.618
11
335.37
21
174.618
0
LINE
8
0
6
CONTINUOUS
62
7
10
335.37
20
174.618
11
335.37
21
187.418
0
LINE
8
0
6
CONTINUOUS
62
7
10
354.42
20
187.418
11
370.02
21
187.418
0
LINE
8
0
6
CONTINUOUS
62
7
10
370.02
20
187.418
11
370.02
21
174.618
0
LINE
8
0
6
CONTINUOUS
62
7
10
370.02
20
174.618
11
354.42
21
174.618
0
LINE
8
0
6
CONTINUOUS
62
7
10
354.42
20
174.618
11
354.42
21
187.418
0
LINE
8
0
6
CONTINUOUS
62
7
10
373.47
20
187.418
11
389.07
21
187.418
0
LINE
8
0
6
CONTINUOUS
62
7
10
389.07
20
187.418
11
389.07
21
174.618
0
LINE
8
0
6
CONTINUOUS
62
7
10
389.07
20
174.618
11
373.47
21
174.618
0
LINE
8
0
6
CONTINUOUS
62
7
10
373.47
20
174.618
11
373.47
21
187.418
0
LINE
8
0
6
CONTINUOUS
62
7
10
280.115
20
196.195
11
280.115
21
190.983
0
LINE
8
0
6
CONTINUOUS
62
7
10
280.115
20
190.983
11
282.782
21
190.987
0
LINE
8
0
6
CONTINUOUS
62
7
10
282.782
20
190.987
11
282.782
21
196.195
0
LINE
8
0
6
CONTINUOUS
62
7
10
282.782
20
196.195
11
280.115
21
196.195
0
LINE
8
0
6
CONTINUOUS
62
7
10
308.307
20
196.195
11
310.974
21
196.195
0
LINE
8
0
6
CONTINUOUS
62
7
10
310.974
20
196.195
11
310.974
21
190.987
0
LINE
8
0
6
CONTINUOUS
62
7
10
310.974
20
190.987
11
308.307
21
190.987
0
LINE
8
0
6
CONTINUOUS
62
7
10
308.307
20
190.987
11
308.307
21
196.195
0
LINE
8
0
6
CONTINUOUS
62
7
10
30.5704
20
206.468
11
46.1698
21
206.468
0
LINE
8
0
6
CONTINUOUS
62
7
10
46.1698
20
206.468
11
46.1698
21
193.667
0
LINE
8
0
6
CONTINUOUS
62
7
10
46.1698
20
193.667
11
30.5704
21
193.667
0
LINE
8
0
6
CONTINUOUS
62
7
10
30.5704
20
193.667
11
30.5704
21
206.468
0
LINE
8
0
6
CONTINUOUS
62
7
10
49.6204
20
206.468
11
65.2198
21
206.468
0
LINE
8
0
6
CONTINUOUS
62
7
10
65.2198
20
206.468
11
65.2198
21
193.667
0
LINE
8
0
6
CONTINUOUS
62
7
10
65.2198
20
193.667
11
49.6204
21
193.667
0
LINE
8
0
6
CONTINUOUS
62
7
10
49.6204
20
193.667
11
49.6204
21
206.468
0
LINE
8
0
6
CONTINUOUS
62
7
10
68.6703
20
206.468
11
84.2698
21
206.468
0
LINE
8
0
6
CONTINUOUS
62
7
10
84.2698
20
206.468
11
84.2698
21
193.667
0
LINE
8
0
6
CONTINUOUS
62
7
10
84.2698
20
193.667
11
68.6703
21
193.667
0
LINE
8
0
6
CONTINUOUS
62
7
10
68.6703
20
193.667
11
68.6703
21
206.468
0
LINE
8
0
6
CONTINUOUS
62
7
10
87.7203
20
206.468
11
103.32
21
206.468
0
LINE
8
0
6
CONTINUOUS
62
7
10
103.32
20
206.468
11
103.32
21
193.667
0
LINE
8
0
6
CONTINUOUS
62
7
10
103.32
20
193.667
11
87.7203
21
193.667
0
LINE
8
0
6
CONTINUOUS
62
7
10
87.7203
20
193.667
11
87.7203
21
206.468
0
LINE
8
0
6
CONTINUOUS
62
7
10
106.77
20
206.468
11
122.368
21
206.468
0
LINE
8
0
6
CONTINUOUS
62
7
10
122.368
20
206.468
11
122.368
21
193.667
0
LINE
8
0
6
CONTINUOUS
62
7
10
122.368
20
193.667
11
106.77
21
193.667
0
LINE
8
0
6
CONTINUOUS
62
7
10
106.77
20
193.667
11
106.77
21
206.468
0
LINE
8
0
6
CONTINUOUS
62
7
10
125.82
20
206.468
11
141.418
21
206.468
0
LINE
8
0
6
CONTINUOUS
62
7
10
141.418
20
206.468
11
141.418
21
193.667
0
LINE
8
0
6
CONTINUOUS
62
7
10
141.418
20
193.667
11
125.82
21
193.667
0
LINE
8
0
6
CONTINUOUS
62
7
10
125.82
20
193.667
11
125.82
21
206.468
0
LINE
8
0
6
CONTINUOUS
62
7
10
144.869
20
206.468
11
160.47
21
206.468
0
LINE
8
0
6
CONTINUOUS
62
7
10
160.47
20
206.468
11
160.47
21
193.667
0
LINE
8
0
6
CONTINUOUS
62
7
10
160.47
20
193.667
11
144.869
21
193.667
0
LINE
8
0
6
CONTINUOUS
62
7
10
144.869
20
193.667
11
144.869
21
206.468
0
LINE
8
0
6
CONTINUOUS
62
7
10
163.92
20
206.468
11
179.52
21
206.468
0
LINE
8
0
6
CONTINUOUS
62
7
10
179.52
20
206.468
11
179.52
21
193.667
0
LINE
8
0
6
CONTINUOUS
62
7
10
179.52
20
193.667
11
163.92
21
193.667
0
LINE
8
0
6
CONTINUOUS
62
7
10
163.92
20
193.667
11
163.92
21
206.468
0
LINE
8
0
6
CONTINUOUS
62
7
10
182.97
20
206.468
11
198.57
21
206.468
0
LINE
8
0
6
CONTINUOUS
62
7
10
198.57
20
206.468
11
198.57
21
193.667
0
LINE
8
0
6
CONTINUOUS
62
7
10
198.57
20
193.667
11
182.97
21
193.667
0
LINE
8
0
6
CONTINUOUS
62
7
10
182.97
20
193.667
11
182.97
21
206.468
0
LINE
8
0
6
CONTINUOUS
62
7
10
202.02
20
206.468
11
217.62
21
206.468
0
LINE
8
0
6
CONTINUOUS
62
7
10
217.62
20
206.468
11
217.62
21
193.667
0
LINE
8
0
6
CONTINUOUS
62
7
10
217.62
20
193.667
11
202.02
21
193.667
0
LINE
8
0
6
CONTINUOUS
62
7
10
202.02
20
193.667
11
202.02
21
206.468
0
LINE
8
0
6
CONTINUOUS
62
7
10
221.07
20
206.468
11
236.67
21
206.468
0
LINE
8
0
6
CONTINUOUS
62
7
10
236.67
20
206.468
11
236.67
21
193.667
0
LINE
8
0
6
CONTINUOUS
62
7
10
236.67
20
193.667
11
221.07
21
193.667
0
LINE
8
0
6
CONTINUOUS
62
7
10
221.07
20
193.667
11
221.07
21
206.468
0
LINE
8
0
6
CONTINUOUS
62
7
10
240.12
20
206.468
11
255.72
21
206.468
0
LINE
8
0
6
CONTINUOUS
62
7
10
255.72
20
206.468
11
255.72
21
193.667
0
LINE
8
0
6
CONTINUOUS
62
7
10
255.72
20
193.667
11
240.12
21
193.667
0
LINE
8
0
6
CONTINUOUS
62
7
10
240.12
20
193.667
11
240.12
21
206.468
0
LINE
8
0
6
CONTINUOUS
62
7
10
259.17
20
206.468
11
274.77
21
206.468
0
LINE
8
0
6
CONTINUOUS
62
7
10
274.77
20
206.468
11
274.77
21
193.667
0
LINE
8
0
6
CONTINUOUS
62
7
10
274.77
20
193.667
11
259.17
21
193.667
0
LINE
8
0
6
CONTINUOUS
62
7
10
259.17
20
193.667
11
259.17
21
206.468
0
LINE
8
0
6
CONTINUOUS
62
7
10
287.745
20
206.468
11
303.345
21
206.468
0
LINE
8
0
6
CONTINUOUS
62
7
10
303.345
20
206.468
11
303.345
21
193.667
0
LINE
8
0
6
CONTINUOUS
62
7
10
303.345
20
193.667
11
287.745
21
193.667
0
LINE
8
0
6
CONTINUOUS
62
7
10
287.745
20
193.667
11
287.745
21
206.468
0
LINE
8
0
6
CONTINUOUS
62
7
10
316.32
20
206.468
11
331.92
21
206.468
0
LINE
8
0
6
CONTINUOUS
62
7
10
331.92
20
206.468
11
331.92
21
193.667
0
LINE
8
0
6
CONTINUOUS
62
7
10
331.92
20
193.667
11
316.32
21
193.667
0
LINE
8
0
6
CONTINUOUS
62
7
10
316.32
20
193.667
11
316.32
21
206.468
0
LINE
8
0
6
CONTINUOUS
62
7
10
335.37
20
206.468
11
350.97
21
206.468
0
LINE
8
0
6
CONTINUOUS
62
7
10
350.97
20
206.468
11
350.97
21
193.667
0
LINE
8
0
6
CONTINUOUS
62
7
10
350.97
20
193.667
11
335.37
21
193.667
0
LINE
8
0
6
CONTINUOUS
62
7
10
335.37
20
193.667
11
335.37
21
206.468
0
LINE
8
0
6
CONTINUOUS
62
7
10
354.42
20
206.468
11
370.02
21
206.468
0
LINE
8
0
6
CONTINUOUS
62
7
10
370.02
20
206.468
11
370.02
21
193.667
0
LINE
8
0
6
CONTINUOUS
62
7
10
370.02
20
193.667
11
354.42
21
193.667
0
LINE
8
0
6
CONTINUOUS
62
7
10
354.42
20
193.667
11
354.42
21
206.468
0
LINE
8
0
6
CONTINUOUS
62
7
10
373.47
20
206.468
11
389.07
21
206.468
0
LINE
8
0
6
CONTINUOUS
62
7
10
389.07
20
206.468
11
389.07
21
193.667
0
LINE
8
0
6
CONTINUOUS
62
7
10
389.07
20
193.667
11
373.47
21
193.667
0
LINE
8
0
6
CONTINUOUS
62
7
10
373.47
20
193.667
11
373.47
21
206.468
0
ENDSEC
0
EOF
