0
SECTION
2
HEADER
9
$ANGDIR
70
0
9
$CHAMFERA
40
10
9
$CHAMFERB
40
10
9
$CLAYER
8
Layer_1
9
$EXTMAX
10
394.398
20
204
9
$EXTMIN
10
25.1005
20
92
9
$LIMMAX
10
420
20
297
9
$LIMMIN
10
0
20
0
9
$LTSCALE
40
10
9
$PLINEGEN
70
0
9
$TEXTSIZE
40
20
9
$GRIDUNIT
10
10
20
10
9
$SNAPUNIT
10
1
20
1
0
ENDSEC
0
SECTION
2
TABLES
0
TABLE
2
STYLE
70
1
0
STYLE
2
STANDARD
70
0
40
0
41
1
50
0
71
0
42
0.2
3
txt
4

0
ENDTAB
0
TABLE
2
LTYPE
70
14
0
LTYPE
2
CONTINUOUS
70
0
3
Solid line
72
65
73
0
40
0
0
LTYPE
2
DOT
70
0
3
............................................
72
65
73
2
40
0.25
49
0
49
-0.25
0
LTYPE
2
HIDDEN
70
0
3
_ _ _ _ _ _ _ _ _ _ _ _ _ _ _ _ _ _ _ _ _ _ 
72
65
73
2
40
0.375
49
0.25
49
-0.125
0
LTYPE
2
TSLONGDASH
70
0
3
__ __ __ __ __ __ __ __ __ __ __ __ __ __ _ 
72
65
73
2
40
1.28
49
1
49
-0.28
0
LTYPE
2
TSDASHDOT
70
0
3
______ . ______ . ______ . ______ . ______ .
72
65
73
4
40
1.28
49
1
49
-0.14
49
0
49
-0.14
0
LTYPE
2
TSCENTER
70
0
3
______ _ ______ _ ______ _ ______ _ ______ _
72
65
73
4
40
2
49
1.5
49
-0.18
49
0.14
49
-0.18
0
LTYPE
2
TSPHANTOM
70
0
3
_____ _ _ _____ _ _ _____ _ _ _____ _ _ ____
72
65
73
6
40
2.5
49
1.63
49
-0.19
49
0.15
49
-0.19
49
0.15
49
-0.19
0
LTYPE
2
DASHED
70
0
3
__ __ __ __ __ __ __ __ __ __ __ __ __ __ __
72
65
73
2
40
0.75
49
0.5
49
-0.25
0
LTYPE
2
CENTER
70
0
3
____ _ ____ _ ____ _ ____ _ ____ _ ____ _ __
72
65
73
4
40
2
49
1.25
49
-0.25
49
0.25
49
-0.25
0
LTYPE
2
PHANTOM
70
0
3
_____ _ _ _____ _ _ _____ _ _ _____ _ _ ____
72
65
73
6
40
2.5
49
1.25
49
-0.25
49
0.25
49
-0.25
49
0.25
49
-0.25
0
LTYPE
2
DASHDOT
70
0
3
__ . __ . __ . __ . __ . __ . __ . __ . __ .
72
65
73
4
40
1
49
0.5
49
-0.25
49
0
49
-0.25
0
LTYPE
2
BORDER
70
0
3
__ __ . __ __ . __ __ . __ __ . __ __ . __ _
72
65
73
6
40
1.75
49
0.5
49
-0.25
49
0.5
49
-0.25
49
0
49
-0.25
0
LTYPE
2
DIVIDE
70
0
3
__ . . __ . . __ . . __ . . __ . . __ . . __
72
65
73
6
40
1.25
49
0.5
49
-0.25
49
0
49
-0.25
49
0
49
-0.25
0
ENDTAB
0
TABLE
2
LAYER
70
4
0
LAYER
2
Layer_1
70
0
62
7
6
CONTINUOUS
0
LAYER
2
Layer_2
70
0
62
7
6
CONTINUOUS
0
LAYER
2
Layer_3
70
0
62
7
6
CONTINUOUS
0
LAYER
2
0
70
0
62
7
6
CONTINUOUS
0
ENDTAB
0
ENDSEC
0
SECTION
2
ENTITIES
0
CIRCLE
8
0
6
CONTINUOUS
62
7
10
116.5
20
200.5
40
1.3
0
CIRCLE
8
0
6
CONTINUOUS
62
7
10
209.75
20
200.5
40
1.3
0
CIRCLE
8
0
6
CONTINUOUS
62
7
10
303
20
200.5
40
1.3
0
CIRCLE
8
0
6
CONTINUOUS
62
7
10
379.75
20
200.5
40
1.3
0
CIRCLE
8
0
6
CONTINUOUS
62
7
10
379.25
20
95.5
40
1.3
0
CIRCLE
8
0
6
CONTINUOUS
62
7
10
303
20
95.5
40
1.3
0
CIRCLE
8
0
6
CONTINUOUS
62
7
10
209.75
20
95.5
40
1.3
0
CIRCLE
8
0
6
CONTINUOUS
62
7
10
116.5
20
95.5
40
1.3
0
CIRCLE
8
0
6
CONTINUOUS
62
7
10
40.25
20
200.5
40
1.3
0
CIRCLE
8
0
6
CONTINUOUS
62
7
10
40.25
20
95.5
40
1.3
0
LINE
8
0
6
CONTINUOUS
62
7
10
33.7509
20
116.868
11
33.7509
21
116.268
0
LINE
8
0
6
CONTINUOUS
62
7
10
33.7509
20
116.268
11
32.9503
21
116.268
0
LINE
8
0
6
CONTINUOUS
62
7
10
32.9503
20
116.268
11
32.9503
21
103.468
0
LINE
8
0
6
CONTINUOUS
62
7
10
32.9503
20
103.468
11
33.7509
21
103.468
0
LINE
8
0
6
CONTINUOUS
62
7
10
33.7509
20
103.468
11
33.7509
21
102.868
0
LINE
8
0
6
CONTINUOUS
62
7
10
33.7509
20
102.868
11
78.7065
21
102.868
0
LINE
8
0
6
CONTINUOUS
62
7
10
78.7065
20
116.868
11
33.7509
21
116.868
0
LINE
8
0
6
CONTINUOUS
62
7
10
48.75
20
95.5
11
50.1642
21
96.9142
0
LINE
8
0
6
CONTINUOUS
62
7
10
225.541
20
117.838
11
232.197
21
117.838
0
LINE
8
0
6
CONTINUOUS
62
7
10
98.8452
20
116.268
11
98.8452
21
115.397
0
LINE
8
0
6
CONTINUOUS
62
7
10
213.144
20
112.167
11
213.144
21
107.569
0
LINE
8
0
6
CONTINUOUS
62
7
10
223.45
20
112.167
11
223.45
21
107.569
0
LINE
8
0
6
CONTINUOUS
62
7
10
98.8452
20
107.569
11
98.8452
21
112.167
0
LINE
8
0
6
CONTINUOUS
62
7
10
78.7065
20
116.868
11
81.376
21
116.868
0
LINE
8
0
6
CONTINUOUS
62
7
10
108
20
95.5
11
106.586
21
96.9142
0
LINE
8
0
6
CONTINUOUS
62
7
10
106.488
20
112.167
11
106.488
21
107.569
0
LINE
8
0
6
CONTINUOUS
62
7
10
117.895
20
112.167
11
117.895
21
107.569
0
LINE
8
0
6
CONTINUOUS
62
7
10
144.869
20
112.167
11
144.869
21
107.569
0
LINE
8
0
6
CONTINUOUS
62
7
10
179.52
20
107.569
11
179.52
21
112.167
0
LINE
8
0
6
CONTINUOUS
62
7
10
206.488
20
112.167
11
206.488
21
107.569
0
LINE
8
0
6
CONTINUOUS
62
7
10
81.376
20
102.868
11
92.1907
21
102.868
0
LINE
8
0
6
CONTINUOUS
62
7
10
304.117
20
178.098
11
310.773
21
178.098
0
LINE
8
0
6
CONTINUOUS
62
7
10
35.0476
20
120.898
11
35.0476
21
121.918
0
LINE
8
0
6
CONTINUOUS
62
7
10
58.8477
20
120.898
11
58.8477
21
121.918
0
LINE
8
0
6
CONTINUOUS
62
7
10
65.5037
20
120.898
11
65.5037
21
121.918
0
LINE
8
0
6
CONTINUOUS
62
7
10
277.933
20
139.998
11
284.589
21
139.998
0
LINE
8
0
6
CONTINUOUS
62
7
10
301.735
20
139.998
11
308.39
21
139.998
0
LINE
8
0
6
CONTINUOUS
62
7
10
98.8452
20
103.098
11
98.8452
21
107.569
0
LINE
8
0
6
CONTINUOUS
62
7
10
35.25
20
92
11
35
21
92
0
LINE
8
0
6
CONTINUOUS
62
7
10
117.895
20
101.898
11
117.895
21
107.569
0
LINE
8
0
6
CONTINUOUS
62
7
10
106.488
20
101.898
11
117.895
21
101.898
0
LINE
8
0
6
CONTINUOUS
62
7
10
106.488
20
112.167
11
106.488
21
117.838
0
LINE
8
0
6
CONTINUOUS
62
7
10
106.488
20
117.838
11
117.895
21
117.838
0
LINE
8
0
6
CONTINUOUS
62
7
10
106.488
20
107.569
11
106.488
21
101.898
0
LINE
8
0
6
CONTINUOUS
62
7
10
206.488
20
112.167
11
206.488
21
117.838
0
LINE
8
0
6
CONTINUOUS
62
7
10
206.488
20
117.838
11
213.144
21
117.838
0
LINE
8
0
6
CONTINUOUS
62
7
10
206.488
20
107.569
11
206.488
21
101.898
0
LINE
8
0
6
CONTINUOUS
62
7
10
213.144
20
117.838
11
213.144
21
112.167
0
LINE
8
0
6
CONTINUOUS
62
7
10
206.488
20
101.898
11
213.144
21
101.898
0
LINE
8
0
6
CONTINUOUS
62
7
10
213.144
20
101.898
11
213.144
21
107.569
0
LINE
8
0
6
CONTINUOUS
62
7
10
35.25
20
204
11
35
21
204
0
LINE
8
0
6
CONTINUOUS
62
7
10
144.869
20
107.569
11
144.869
21
103.468
0
LINE
8
0
6
CONTINUOUS
62
7
10
144.869
20
103.468
11
145.668
21
103.468
0
LINE
8
0
6
CONTINUOUS
62
7
10
145.668
20
103.468
11
145.668
21
102.868
0
LINE
8
0
6
CONTINUOUS
62
7
10
145.668
20
102.868
11
178.719
21
102.868
0
LINE
8
0
6
CONTINUOUS
62
7
10
178.719
20
102.868
11
178.719
21
103.468
0
LINE
8
0
6
CONTINUOUS
62
7
10
178.719
20
103.468
11
179.52
21
103.468
0
LINE
8
0
6
CONTINUOUS
62
7
10
179.52
20
103.468
11
179.52
21
107.569
0
LINE
8
0
6
CONTINUOUS
62
7
10
35
20
204
11
25.1005
21
194.101
0
LINE
8
0
6
CONTINUOUS
62
7
10
225.541
20
101.898
11
232.197
21
101.898
0
LINE
8
0
6
CONTINUOUS
62
7
10
280.316
20
178.098
11
286.972
21
178.098
0
LINE
8
0
6
CONTINUOUS
62
7
10
225.541
20
101.898
11
225.541
21
102.868
0
LINE
8
0
6
CONTINUOUS
62
7
10
232.197
20
101.898
11
232.197
21
102.868
0
LINE
8
0
6
CONTINUOUS
62
7
10
273.173
20
120.948
11
279.828
21
120.948
0
LINE
8
0
6
CONTINUOUS
62
7
10
296.973
20
120.948
11
303.628
21
120.948
0
LINE
8
0
6
CONTINUOUS
62
7
10
370.75
20
95.5
11
369.336
21
96.9142
0
LINE
8
0
6
CONTINUOUS
62
7
10
35
20
92
11
25.1005
21
101.899
0
LINE
8
0
6
CONTINUOUS
62
7
10
223.45
20
107.569
11
223.45
21
103.468
0
LINE
8
0
6
CONTINUOUS
62
7
10
223.45
20
103.468
11
224.251
21
103.468
0
LINE
8
0
6
CONTINUOUS
62
7
10
224.251
20
103.468
11
224.251
21
102.868
0
LINE
8
0
6
CONTINUOUS
62
7
10
224.251
20
102.868
11
225.541
21
102.868
0
LINE
8
0
6
CONTINUOUS
62
7
10
125
20
95.5
11
126.414
21
96.9142
0
LINE
8
0
6
CONTINUOUS
62
7
10
201.25
20
95.5
11
199.836
21
96.9142
0
LINE
8
0
6
CONTINUOUS
62
7
10
218.25
20
95.5
11
219.664
21
96.9142
0
LINE
8
0
6
CONTINUOUS
62
7
10
232.197
20
102.868
11
240.632
21
102.868
0
LINE
8
0
6
CONTINUOUS
62
7
10
240.632
20
102.868
11
240.632
21
103.468
0
LINE
8
0
6
CONTINUOUS
62
7
10
240.632
20
103.468
11
241.432
21
103.468
0
LINE
8
0
6
CONTINUOUS
62
7
10
241.432
20
103.468
11
241.432
21
116.268
0
LINE
8
0
6
CONTINUOUS
62
7
10
241.432
20
116.268
11
240.632
21
116.268
0
LINE
8
0
6
CONTINUOUS
62
7
10
240.632
20
116.268
11
240.632
21
116.868
0
LINE
8
0
6
CONTINUOUS
62
7
10
240.632
20
116.868
11
232.197
21
116.868
0
LINE
8
0
6
CONTINUOUS
62
7
10
224.251
20
116.868
11
224.251
21
116.268
0
LINE
8
0
6
CONTINUOUS
62
7
10
224.251
20
116.268
11
223.45
21
116.268
0
LINE
8
0
6
CONTINUOUS
62
7
10
223.45
20
116.268
11
223.45
21
112.167
0
LINE
8
0
6
CONTINUOUS
62
7
10
25.1005
20
194.101
11
25.1005
21
101.899
0
LINE
8
0
6
CONTINUOUS
62
7
10
294.5
20
95.5
11
293.086
21
96.9142
0
LINE
8
0
6
CONTINUOUS
62
7
10
320.095
20
101.898
11
318.417
21
101.898
0
LINE
8
0
6
CONTINUOUS
62
7
10
323.395
20
101.898
11
325.073
21
101.898
0
LINE
8
0
6
CONTINUOUS
62
7
10
384.25
20
92
11
384.5
21
92
0
LINE
8
0
6
CONTINUOUS
62
7
10
179.52
20
112.167
11
179.52
21
116.268
0
LINE
8
0
6
CONTINUOUS
62
7
10
179.52
20
116.268
11
178.719
21
116.268
0
LINE
8
0
6
CONTINUOUS
62
7
10
178.719
20
116.268
11
178.719
21
116.868
0
LINE
8
0
6
CONTINUOUS
62
7
10
178.719
20
116.868
11
145.668
21
116.868
0
LINE
8
0
6
CONTINUOUS
62
7
10
145.668
20
116.868
11
145.668
21
116.268
0
LINE
8
0
6
CONTINUOUS
62
7
10
145.668
20
116.268
11
144.869
21
116.268
0
LINE
8
0
6
CONTINUOUS
62
7
10
144.869
20
116.268
11
144.869
21
112.167
0
LINE
8
0
6
CONTINUOUS
62
7
10
384.5
20
92
11
394.398
21
101.898
0
LINE
8
0
6
CONTINUOUS
62
7
10
117.895
20
112.167
11
117.895
21
117.838
0
LINE
8
0
6
CONTINUOUS
62
7
10
343.895
20
101.898
11
342.217
21
101.898
0
LINE
8
0
6
CONTINUOUS
62
7
10
347.195
20
101.898
11
348.873
21
101.898
0
LINE
8
0
6
CONTINUOUS
62
7
10
384.25
20
204
11
384.5
21
204
0
LINE
8
0
6
CONTINUOUS
62
7
10
98.8452
20
112.167
11
98.8452
21
115.397
0
LINE
8
0
6
CONTINUOUS
62
7
10
384.5
20
204
11
394.398
21
194.102
0
LINE
8
0
6
CONTINUOUS
62
7
10
394.398
20
194.102
11
394.398
21
101.898
0
LINE
8
0
6
CONTINUOUS
62
7
10
232.197
20
117.838
11
232.197
21
116.868
0
LINE
8
0
6
CONTINUOUS
62
7
10
225.541
20
117.838
11
225.541
21
116.868
0
LINE
8
0
6
CONTINUOUS
62
7
10
92.1907
20
116.868
11
81.376
21
116.868
0
LINE
8
0
6
CONTINUOUS
62
7
10
317.12
20
116.868
11
317.12
21
116.268
0
LINE
8
0
6
CONTINUOUS
62
7
10
317.12
20
116.268
11
316.32
21
116.268
0
LINE
8
0
6
CONTINUOUS
62
7
10
316.32
20
116.268
11
316.32
21
103.468
0
LINE
8
0
6
CONTINUOUS
62
7
10
316.32
20
103.468
11
317.12
21
103.468
0
LINE
8
0
6
CONTINUOUS
62
7
10
317.12
20
103.468
11
317.12
21
102.868
0
LINE
8
0
6
CONTINUOUS
62
7
10
317.12
20
102.868
11
318.417
21
102.868
0
LINE
8
0
6
CONTINUOUS
62
7
10
311.5
20
95.5
11
312.914
21
96.9142
0
LINE
8
0
6
CONTINUOUS
62
7
10
320.095
20
101.898
11
323.395
21
101.898
0
LINE
8
0
6
CONTINUOUS
62
7
10
312.914
20
199.086
11
369.336
21
199.086
0
LINE
8
0
6
CONTINUOUS
62
7
10
325.073
20
102.868
11
342.217
21
102.868
0
LINE
8
0
6
CONTINUOUS
62
7
10
219.664
20
199.086
11
293.086
21
199.086
0
LINE
8
0
6
CONTINUOUS
62
7
10
343.895
20
101.898
11
347.195
21
101.898
0
LINE
8
0
6
CONTINUOUS
62
7
10
294.5
20
200.5
11
293.086
21
199.086
0
LINE
8
0
6
CONTINUOUS
62
7
10
348.873
20
102.868
11
350.169
21
102.868
0
LINE
8
0
6
CONTINUOUS
62
7
10
350.169
20
102.868
11
350.169
21
103.468
0
LINE
8
0
6
CONTINUOUS
62
7
10
350.169
20
103.468
11
350.97
21
103.468
0
LINE
8
0
6
CONTINUOUS
62
7
10
350.97
20
103.468
11
350.97
21
116.268
0
LINE
8
0
6
CONTINUOUS
62
7
10
350.97
20
116.268
11
350.169
21
116.268
0
LINE
8
0
6
CONTINUOUS
62
7
10
350.169
20
116.268
11
350.169
21
116.868
0
LINE
8
0
6
CONTINUOUS
62
7
10
350.169
20
116.868
11
348.873
21
116.868
0
LINE
8
0
6
CONTINUOUS
62
7
10
245.682
20
116.868
11
245.682
21
116.268
0
LINE
8
0
6
CONTINUOUS
62
7
10
245.682
20
116.268
11
244.881
21
116.268
0
LINE
8
0
6
CONTINUOUS
62
7
10
244.881
20
116.268
11
244.881
21
103.468
0
LINE
8
0
6
CONTINUOUS
62
7
10
244.881
20
103.468
11
245.682
21
103.468
0
LINE
8
0
6
CONTINUOUS
62
7
10
245.682
20
103.468
11
245.682
21
102.868
0
LINE
8
0
6
CONTINUOUS
62
7
10
245.682
20
116.868
11
312.069
21
116.868
0
LINE
8
0
6
CONTINUOUS
62
7
10
312.069
20
102.868
11
245.682
21
102.868
0
LINE
8
0
6
CONTINUOUS
62
7
10
41.7036
20
121.918
11
58.8477
21
121.918
0
LINE
8
0
6
CONTINUOUS
62
7
10
312.069
20
102.868
11
312.069
21
103.468
0
LINE
8
0
6
CONTINUOUS
62
7
10
312.069
20
103.468
11
312.87
21
103.468
0
LINE
8
0
6
CONTINUOUS
62
7
10
312.87
20
103.468
11
312.87
21
116.268
0
LINE
8
0
6
CONTINUOUS
62
7
10
312.87
20
116.268
11
312.069
21
116.268
0
LINE
8
0
6
CONTINUOUS
62
7
10
312.069
20
116.268
11
312.069
21
116.868
0
LINE
8
0
6
CONTINUOUS
62
7
10
50.1642
20
96.9142
11
106.586
21
96.9142
0
LINE
8
0
6
CONTINUOUS
62
7
10
78.7065
20
102.868
11
81.376
21
102.868
0
LINE
8
0
6
CONTINUOUS
62
7
10
48.75
20
200.5
11
50.1642
21
199.086
0
LINE
8
0
6
CONTINUOUS
62
7
10
355.22
20
116.868
11
355.22
21
116.268
0
LINE
8
0
6
CONTINUOUS
62
7
10
355.22
20
116.268
11
354.42
21
116.268
0
LINE
8
0
6
CONTINUOUS
62
7
10
354.42
20
116.268
11
354.42
21
103.468
0
LINE
8
0
6
CONTINUOUS
62
7
10
354.42
20
103.468
11
355.22
21
103.468
0
LINE
8
0
6
CONTINUOUS
62
7
10
355.22
20
103.468
11
355.22
21
102.868
0
LINE
8
0
6
CONTINUOUS
62
7
10
355.22
20
102.868
11
369.219
21
102.868
0
LINE
8
0
6
CONTINUOUS
62
7
10
369.219
20
102.868
11
369.219
21
103.468
0
LINE
8
0
6
CONTINUOUS
62
7
10
369.219
20
103.468
11
370.02
21
103.468
0
LINE
8
0
6
CONTINUOUS
62
7
10
370.02
20
103.468
11
370.02
21
116.268
0
LINE
8
0
6
CONTINUOUS
62
7
10
370.02
20
116.268
11
369.219
21
116.268
0
LINE
8
0
6
CONTINUOUS
62
7
10
369.219
20
116.268
11
369.219
21
116.868
0
LINE
8
0
6
CONTINUOUS
62
7
10
369.219
20
116.868
11
355.22
21
116.868
0
LINE
8
0
6
CONTINUOUS
62
7
10
374.27
20
135.918
11
374.27
21
135.318
0
LINE
8
0
6
CONTINUOUS
62
7
10
374.27
20
135.318
11
373.3
21
135.318
0
LINE
8
0
6
CONTINUOUS
62
7
10
373.3
20
122.518
11
374.27
21
122.518
0
LINE
8
0
6
CONTINUOUS
62
7
10
374.27
20
122.518
11
374.27
21
116.268
0
LINE
8
0
6
CONTINUOUS
62
7
10
374.27
20
116.268
11
373.3
21
116.268
0
LINE
8
0
6
CONTINUOUS
62
7
10
373.3
20
103.468
11
374.27
21
103.468
0
LINE
8
0
6
CONTINUOUS
62
7
10
374.27
20
103.468
11
374.27
21
102.868
0
LINE
8
0
6
CONTINUOUS
62
7
10
374.27
20
102.868
11
388.269
21
102.868
0
LINE
8
0
6
CONTINUOUS
62
7
10
388.269
20
102.868
11
388.269
21
103.468
0
LINE
8
0
6
CONTINUOUS
62
7
10
388.269
20
103.468
11
389.07
21
103.468
0
LINE
8
0
6
CONTINUOUS
62
7
10
389.07
20
103.468
11
389.07
21
116.268
0
LINE
8
0
6
CONTINUOUS
62
7
10
389.07
20
116.268
11
388.269
21
116.268
0
LINE
8
0
6
CONTINUOUS
62
7
10
388.269
20
116.268
11
388.269
21
122.518
0
LINE
8
0
6
CONTINUOUS
62
7
10
388.269
20
122.518
11
389.07
21
122.518
0
LINE
8
0
6
CONTINUOUS
62
7
10
389.07
20
122.518
11
389.07
21
135.318
0
LINE
8
0
6
CONTINUOUS
62
7
10
389.07
20
135.318
11
388.269
21
135.318
0
LINE
8
0
6
CONTINUOUS
62
7
10
388.269
20
135.318
11
388.269
21
135.918
0
LINE
8
0
6
CONTINUOUS
62
7
10
388.269
20
135.918
11
374.27
21
135.918
0
LINE
8
0
6
CONTINUOUS
62
7
10
264.731
20
135.318
11
264.731
21
135.918
0
LINE
8
0
6
CONTINUOUS
62
7
10
263.931
20
135.318
11
264.731
21
135.318
0
LINE
8
0
6
CONTINUOUS
62
7
10
263.931
20
135.318
11
263.931
21
122.518
0
LINE
8
0
6
CONTINUOUS
62
7
10
263.931
20
122.518
11
264.731
21
122.518
0
LINE
8
0
6
CONTINUOUS
62
7
10
264.731
20
122.518
11
264.731
21
121.918
0
LINE
8
0
6
CONTINUOUS
62
7
10
264.731
20
135.918
11
312.069
21
135.918
0
LINE
8
0
6
CONTINUOUS
62
7
10
108
20
200.5
11
106.586
21
199.086
0
LINE
8
0
6
CONTINUOUS
62
7
10
125
20
200.5
11
126.414
21
199.086
0
LINE
8
0
6
CONTINUOUS
62
7
10
201.25
20
200.5
11
199.836
21
199.086
0
LINE
8
0
6
CONTINUOUS
62
7
10
279.828
20
121.918
11
296.973
21
121.918
0
LINE
8
0
6
CONTINUOUS
62
7
10
218.25
20
200.5
11
219.664
21
199.086
0
LINE
8
0
6
CONTINUOUS
62
7
10
126.414
20
96.9142
11
199.836
21
96.9142
0
LINE
8
0
6
CONTINUOUS
62
7
10
311.5
20
200.5
11
312.914
21
199.086
0
LINE
8
0
6
CONTINUOUS
62
7
10
303.628
20
121.918
11
312.069
21
121.918
0
LINE
8
0
6
CONTINUOUS
62
7
10
312.069
20
121.918
11
312.069
21
122.518
0
LINE
8
0
6
CONTINUOUS
62
7
10
312.069
20
122.518
11
312.87
21
122.518
0
LINE
8
0
6
CONTINUOUS
62
7
10
312.87
20
122.518
11
312.87
21
135.318
0
LINE
8
0
6
CONTINUOUS
62
7
10
312.87
20
135.318
11
312.069
21
135.318
0
LINE
8
0
6
CONTINUOUS
62
7
10
312.069
20
135.318
11
312.069
21
135.918
0
LINE
8
0
6
CONTINUOUS
62
7
10
264.731
20
121.918
11
273.173
21
121.918
0
LINE
8
0
6
CONTINUOUS
62
7
10
370.75
20
200.5
11
369.336
21
199.086
0
LINE
8
0
6
CONTINUOUS
62
7
10
33.7509
20
135.918
11
33.7509
21
135.318
0
LINE
8
0
6
CONTINUOUS
62
7
10
33.7509
20
135.318
11
32.9503
21
135.318
0
LINE
8
0
6
CONTINUOUS
62
7
10
32.9503
20
135.318
11
32.9503
21
122.518
0
LINE
8
0
6
CONTINUOUS
62
7
10
32.9503
20
122.518
11
33.7509
21
122.518
0
LINE
8
0
6
CONTINUOUS
62
7
10
33.7509
20
122.518
11
33.7509
21
121.918
0
LINE
8
0
6
CONTINUOUS
62
7
10
33.7509
20
121.918
11
35.0476
21
121.918
0
LINE
8
0
6
CONTINUOUS
62
7
10
33.7509
20
135.918
11
69.1815
21
135.918
0
LINE
8
0
6
CONTINUOUS
62
7
10
219.664
20
96.9142
11
293.086
21
96.9142
0
LINE
8
0
6
CONTINUOUS
62
7
10
312.914
20
96.9142
11
369.336
21
96.9142
0
LINE
8
0
6
CONTINUOUS
62
7
10
65.5037
20
121.918
11
69.1815
21
121.918
0
LINE
8
0
6
CONTINUOUS
62
7
10
69.1815
20
121.918
11
69.1815
21
122.518
0
LINE
8
0
6
CONTINUOUS
62
7
10
69.1815
20
122.518
11
69.9823
21
122.518
0
LINE
8
0
6
CONTINUOUS
62
7
10
69.9823
20
122.518
11
69.9823
21
135.318
0
LINE
8
0
6
CONTINUOUS
62
7
10
69.9823
20
135.318
11
69.1815
21
135.318
0
LINE
8
0
6
CONTINUOUS
62
7
10
69.1815
20
135.318
11
69.1815
21
135.918
0
LINE
8
0
6
CONTINUOUS
62
7
10
50.1642
20
199.086
11
106.586
21
199.086
0
LINE
8
0
6
CONTINUOUS
62
7
10
74.2322
20
135.918
11
74.2322
21
135.318
0
LINE
8
0
6
CONTINUOUS
62
7
10
74.2322
20
135.318
11
73.4314
21
135.318
0
LINE
8
0
6
CONTINUOUS
62
7
10
73.4314
20
135.318
11
73.4314
21
122.518
0
LINE
8
0
6
CONTINUOUS
62
7
10
73.4314
20
122.518
11
74.2322
21
122.518
0
LINE
8
0
6
CONTINUOUS
62
7
10
74.2322
20
122.518
11
74.2322
21
121.918
0
LINE
8
0
6
CONTINUOUS
62
7
10
74.2322
20
121.918
11
88.2315
21
121.918
0
LINE
8
0
6
CONTINUOUS
62
7
10
88.2315
20
121.918
11
88.2315
21
122.518
0
LINE
8
0
6
CONTINUOUS
62
7
10
88.2315
20
122.518
11
89.0323
21
122.518
0
LINE
8
0
6
CONTINUOUS
62
7
10
89.0323
20
122.518
11
89.0323
21
135.318
0
LINE
8
0
6
CONTINUOUS
62
7
10
89.0323
20
135.318
11
88.2315
21
135.318
0
LINE
8
0
6
CONTINUOUS
62
7
10
88.2315
20
135.318
11
88.2315
21
135.918
0
LINE
8
0
6
CONTINUOUS
62
7
10
88.2315
20
135.918
11
74.2322
21
135.918
0
LINE
8
0
6
CONTINUOUS
62
7
10
93.2822
20
135.918
11
93.2822
21
135.318
0
LINE
8
0
6
CONTINUOUS
62
7
10
93.2822
20
135.318
11
92.4814
21
135.318
0
LINE
8
0
6
CONTINUOUS
62
7
10
92.4814
20
135.318
11
92.4814
21
122.518
0
LINE
8
0
6
CONTINUOUS
62
7
10
92.4814
20
122.518
11
93.2822
21
122.518
0
LINE
8
0
6
CONTINUOUS
62
7
10
93.2822
20
122.518
11
93.2822
21
121.918
0
LINE
8
0
6
CONTINUOUS
62
7
10
93.2822
20
121.918
11
107.281
21
121.918
0
LINE
8
0
6
CONTINUOUS
62
7
10
107.281
20
121.918
11
107.281
21
122.518
0
LINE
8
0
6
CONTINUOUS
62
7
10
107.281
20
122.518
11
108.082
21
122.518
0
LINE
8
0
6
CONTINUOUS
62
7
10
108.082
20
122.518
11
108.082
21
135.318
0
LINE
8
0
6
CONTINUOUS
62
7
10
108.082
20
135.318
11
107.281
21
135.318
0
LINE
8
0
6
CONTINUOUS
62
7
10
107.281
20
135.318
11
107.281
21
135.918
0
LINE
8
0
6
CONTINUOUS
62
7
10
107.281
20
135.918
11
93.2822
21
135.918
0
LINE
8
0
6
CONTINUOUS
62
7
10
112.332
20
135.918
11
112.332
21
135.318
0
LINE
8
0
6
CONTINUOUS
62
7
10
112.332
20
135.318
11
111.531
21
135.318
0
LINE
8
0
6
CONTINUOUS
62
7
10
111.531
20
135.318
11
111.531
21
122.518
0
LINE
8
0
6
CONTINUOUS
62
7
10
111.531
20
122.518
11
112.332
21
122.518
0
LINE
8
0
6
CONTINUOUS
62
7
10
112.332
20
122.518
11
112.332
21
121.918
0
LINE
8
0
6
CONTINUOUS
62
7
10
112.332
20
121.918
11
126.332
21
121.918
0
LINE
8
0
6
CONTINUOUS
62
7
10
126.332
20
121.918
11
126.332
21
122.518
0
LINE
8
0
6
CONTINUOUS
62
7
10
126.332
20
122.518
11
127.132
21
122.518
0
LINE
8
0
6
CONTINUOUS
62
7
10
127.132
20
122.518
11
127.132
21
135.318
0
LINE
8
0
6
CONTINUOUS
62
7
10
127.132
20
135.318
11
126.332
21
135.318
0
LINE
8
0
6
CONTINUOUS
62
7
10
126.332
20
135.318
11
126.332
21
135.918
0
LINE
8
0
6
CONTINUOUS
62
7
10
126.332
20
135.918
11
112.332
21
135.918
0
LINE
8
0
6
CONTINUOUS
62
7
10
131.382
20
135.918
11
131.382
21
135.318
0
LINE
8
0
6
CONTINUOUS
62
7
10
131.382
20
135.318
11
130.581
21
135.318
0
LINE
8
0
6
CONTINUOUS
62
7
10
130.581
20
135.318
11
130.581
21
122.518
0
LINE
8
0
6
CONTINUOUS
62
7
10
130.581
20
122.518
11
131.382
21
122.518
0
LINE
8
0
6
CONTINUOUS
62
7
10
131.382
20
122.518
11
131.382
21
121.918
0
LINE
8
0
6
CONTINUOUS
62
7
10
131.382
20
121.918
11
145.382
21
121.918
0
LINE
8
0
6
CONTINUOUS
62
7
10
145.382
20
121.918
11
145.382
21
122.518
0
LINE
8
0
6
CONTINUOUS
62
7
10
145.382
20
122.518
11
146.182
21
122.518
0
LINE
8
0
6
CONTINUOUS
62
7
10
146.182
20
122.518
11
146.182
21
135.318
0
LINE
8
0
6
CONTINUOUS
62
7
10
146.182
20
135.318
11
145.382
21
135.318
0
LINE
8
0
6
CONTINUOUS
62
7
10
145.382
20
135.318
11
145.382
21
135.918
0
LINE
8
0
6
CONTINUOUS
62
7
10
145.382
20
135.918
11
131.382
21
135.918
0
LINE
8
0
6
CONTINUOUS
62
7
10
150.432
20
135.918
11
150.432
21
135.318
0
LINE
8
0
6
CONTINUOUS
62
7
10
150.432
20
135.318
11
149.631
21
135.318
0
LINE
8
0
6
CONTINUOUS
62
7
10
149.631
20
135.318
11
149.631
21
122.518
0
LINE
8
0
6
CONTINUOUS
62
7
10
149.631
20
122.518
11
150.432
21
122.518
0
LINE
8
0
6
CONTINUOUS
62
7
10
150.432
20
122.518
11
150.432
21
121.918
0
LINE
8
0
6
CONTINUOUS
62
7
10
150.432
20
121.918
11
164.432
21
121.918
0
LINE
8
0
6
CONTINUOUS
62
7
10
164.432
20
121.918
11
164.432
21
122.518
0
LINE
8
0
6
CONTINUOUS
62
7
10
164.432
20
122.518
11
165.232
21
122.518
0
LINE
8
0
6
CONTINUOUS
62
7
10
165.232
20
122.518
11
165.232
21
135.318
0
LINE
8
0
6
CONTINUOUS
62
7
10
165.232
20
135.318
11
164.432
21
135.318
0
LINE
8
0
6
CONTINUOUS
62
7
10
164.432
20
135.318
11
164.432
21
135.918
0
LINE
8
0
6
CONTINUOUS
62
7
10
164.432
20
135.918
11
150.432
21
135.918
0
LINE
8
0
6
CONTINUOUS
62
7
10
169.482
20
135.918
11
169.482
21
135.318
0
LINE
8
0
6
CONTINUOUS
62
7
10
169.482
20
135.318
11
168.681
21
135.318
0
LINE
8
0
6
CONTINUOUS
62
7
10
168.681
20
135.318
11
168.681
21
122.518
0
LINE
8
0
6
CONTINUOUS
62
7
10
168.681
20
122.518
11
169.482
21
122.518
0
LINE
8
0
6
CONTINUOUS
62
7
10
169.482
20
122.518
11
169.482
21
121.918
0
LINE
8
0
6
CONTINUOUS
62
7
10
169.482
20
121.918
11
183.482
21
121.918
0
LINE
8
0
6
CONTINUOUS
62
7
10
183.482
20
121.918
11
183.482
21
122.518
0
LINE
8
0
6
CONTINUOUS
62
7
10
183.482
20
122.518
11
184.282
21
122.518
0
LINE
8
0
6
CONTINUOUS
62
7
10
184.282
20
122.518
11
184.282
21
135.318
0
LINE
8
0
6
CONTINUOUS
62
7
10
184.282
20
135.318
11
183.482
21
135.318
0
LINE
8
0
6
CONTINUOUS
62
7
10
183.482
20
135.318
11
183.482
21
135.918
0
LINE
8
0
6
CONTINUOUS
62
7
10
183.482
20
135.918
11
169.482
21
135.918
0
LINE
8
0
6
CONTINUOUS
62
7
10
188.532
20
135.918
11
188.532
21
135.318
0
LINE
8
0
6
CONTINUOUS
62
7
10
188.532
20
135.318
11
187.731
21
135.318
0
LINE
8
0
6
CONTINUOUS
62
7
10
187.731
20
135.318
11
187.731
21
122.518
0
LINE
8
0
6
CONTINUOUS
62
7
10
187.731
20
122.518
11
188.532
21
122.518
0
LINE
8
0
6
CONTINUOUS
62
7
10
188.532
20
122.518
11
188.532
21
121.918
0
LINE
8
0
6
CONTINUOUS
62
7
10
188.532
20
121.918
11
202.532
21
121.918
0
LINE
8
0
6
CONTINUOUS
62
7
10
202.532
20
121.918
11
202.532
21
122.518
0
LINE
8
0
6
CONTINUOUS
62
7
10
202.532
20
122.518
11
203.332
21
122.518
0
LINE
8
0
6
CONTINUOUS
62
7
10
203.332
20
122.518
11
203.332
21
135.318
0
LINE
8
0
6
CONTINUOUS
62
7
10
203.332
20
135.318
11
202.532
21
135.318
0
LINE
8
0
6
CONTINUOUS
62
7
10
202.532
20
135.318
11
202.532
21
135.918
0
LINE
8
0
6
CONTINUOUS
62
7
10
202.532
20
135.918
11
188.532
21
135.918
0
LINE
8
0
6
CONTINUOUS
62
7
10
207.582
20
135.918
11
207.582
21
135.318
0
LINE
8
0
6
CONTINUOUS
62
7
10
207.582
20
135.318
11
206.781
21
135.318
0
LINE
8
0
6
CONTINUOUS
62
7
10
206.781
20
135.318
11
206.781
21
122.518
0
LINE
8
0
6
CONTINUOUS
62
7
10
206.781
20
122.518
11
207.582
21
122.518
0
LINE
8
0
6
CONTINUOUS
62
7
10
207.582
20
122.518
11
207.582
21
121.918
0
LINE
8
0
6
CONTINUOUS
62
7
10
207.582
20
121.918
11
221.582
21
121.918
0
LINE
8
0
6
CONTINUOUS
62
7
10
221.582
20
121.918
11
221.582
21
122.518
0
LINE
8
0
6
CONTINUOUS
62
7
10
221.582
20
122.518
11
222.382
21
122.518
0
LINE
8
0
6
CONTINUOUS
62
7
10
222.382
20
122.518
11
222.382
21
135.318
0
LINE
8
0
6
CONTINUOUS
62
7
10
222.382
20
135.318
11
221.582
21
135.318
0
LINE
8
0
6
CONTINUOUS
62
7
10
221.582
20
135.318
11
221.582
21
135.918
0
LINE
8
0
6
CONTINUOUS
62
7
10
221.582
20
135.918
11
207.582
21
135.918
0
LINE
8
0
6
CONTINUOUS
62
7
10
226.632
20
135.918
11
226.632
21
135.318
0
LINE
8
0
6
CONTINUOUS
62
7
10
226.632
20
135.318
11
225.831
21
135.318
0
LINE
8
0
6
CONTINUOUS
62
7
10
225.831
20
135.318
11
225.831
21
122.518
0
LINE
8
0
6
CONTINUOUS
62
7
10
225.831
20
122.518
11
226.632
21
122.518
0
LINE
8
0
6
CONTINUOUS
62
7
10
226.632
20
122.518
11
226.632
21
121.918
0
LINE
8
0
6
CONTINUOUS
62
7
10
226.632
20
121.918
11
240.632
21
121.918
0
LINE
8
0
6
CONTINUOUS
62
7
10
240.632
20
121.918
11
240.632
21
122.518
0
LINE
8
0
6
CONTINUOUS
62
7
10
240.632
20
122.518
11
241.432
21
122.518
0
LINE
8
0
6
CONTINUOUS
62
7
10
241.432
20
122.518
11
241.432
21
135.318
0
LINE
8
0
6
CONTINUOUS
62
7
10
241.432
20
135.318
11
240.632
21
135.318
0
LINE
8
0
6
CONTINUOUS
62
7
10
240.632
20
135.318
11
240.632
21
135.918
0
LINE
8
0
6
CONTINUOUS
62
7
10
240.632
20
135.918
11
226.632
21
135.918
0
LINE
8
0
6
CONTINUOUS
62
7
10
245.682
20
135.918
11
245.682
21
135.318
0
LINE
8
0
6
CONTINUOUS
62
7
10
245.682
20
135.318
11
244.881
21
135.318
0
LINE
8
0
6
CONTINUOUS
62
7
10
244.881
20
135.318
11
244.881
21
122.518
0
LINE
8
0
6
CONTINUOUS
62
7
10
244.881
20
122.518
11
245.682
21
122.518
0
LINE
8
0
6
CONTINUOUS
62
7
10
245.682
20
122.518
11
245.682
21
121.918
0
LINE
8
0
6
CONTINUOUS
62
7
10
245.682
20
121.918
11
259.682
21
121.918
0
LINE
8
0
6
CONTINUOUS
62
7
10
259.682
20
121.918
11
259.682
21
122.518
0
LINE
8
0
6
CONTINUOUS
62
7
10
259.682
20
122.518
11
260.482
21
122.518
0
LINE
8
0
6
CONTINUOUS
62
7
10
260.482
20
122.518
11
260.482
21
135.318
0
LINE
8
0
6
CONTINUOUS
62
7
10
260.482
20
135.318
11
259.682
21
135.318
0
LINE
8
0
6
CONTINUOUS
62
7
10
259.682
20
135.318
11
259.682
21
135.918
0
LINE
8
0
6
CONTINUOUS
62
7
10
259.682
20
135.918
11
245.682
21
135.918
0
LINE
8
0
6
CONTINUOUS
62
7
10
317.12
20
135.918
11
317.12
21
135.318
0
LINE
8
0
6
CONTINUOUS
62
7
10
317.12
20
135.318
11
316.32
21
135.318
0
LINE
8
0
6
CONTINUOUS
62
7
10
316.32
20
135.318
11
316.32
21
122.518
0
LINE
8
0
6
CONTINUOUS
62
7
10
316.32
20
122.518
11
317.12
21
122.518
0
LINE
8
0
6
CONTINUOUS
62
7
10
317.12
20
122.518
11
317.12
21
121.918
0
LINE
8
0
6
CONTINUOUS
62
7
10
317.12
20
121.918
11
331.119
21
121.918
0
LINE
8
0
6
CONTINUOUS
62
7
10
331.119
20
121.918
11
331.119
21
122.518
0
LINE
8
0
6
CONTINUOUS
62
7
10
331.119
20
122.518
11
331.92
21
122.518
0
LINE
8
0
6
CONTINUOUS
62
7
10
331.92
20
122.518
11
331.92
21
135.318
0
LINE
8
0
6
CONTINUOUS
62
7
10
331.92
20
135.318
11
331.119
21
135.318
0
LINE
8
0
6
CONTINUOUS
62
7
10
331.119
20
135.318
11
331.119
21
135.918
0
LINE
8
0
6
CONTINUOUS
62
7
10
331.119
20
135.918
11
317.12
21
135.918
0
LINE
8
0
6
CONTINUOUS
62
7
10
336.17
20
135.918
11
336.17
21
135.318
0
LINE
8
0
6
CONTINUOUS
62
7
10
336.17
20
135.318
11
335.37
21
135.318
0
LINE
8
0
6
CONTINUOUS
62
7
10
335.37
20
135.318
11
335.37
21
122.518
0
LINE
8
0
6
CONTINUOUS
62
7
10
335.37
20
122.518
11
336.17
21
122.518
0
LINE
8
0
6
CONTINUOUS
62
7
10
336.17
20
122.518
11
336.17
21
121.918
0
LINE
8
0
6
CONTINUOUS
62
7
10
336.17
20
121.918
11
350.169
21
121.918
0
LINE
8
0
6
CONTINUOUS
62
7
10
350.169
20
121.918
11
350.169
21
122.518
0
LINE
8
0
6
CONTINUOUS
62
7
10
350.169
20
122.518
11
350.97
21
122.518
0
LINE
8
0
6
CONTINUOUS
62
7
10
350.97
20
122.518
11
350.97
21
135.318
0
LINE
8
0
6
CONTINUOUS
62
7
10
350.97
20
135.318
11
350.169
21
135.318
0
LINE
8
0
6
CONTINUOUS
62
7
10
350.169
20
135.318
11
350.169
21
135.918
0
LINE
8
0
6
CONTINUOUS
62
7
10
350.169
20
135.918
11
336.17
21
135.918
0
LINE
8
0
6
CONTINUOUS
62
7
10
355.22
20
135.918
11
355.22
21
135.318
0
LINE
8
0
6
CONTINUOUS
62
7
10
355.22
20
135.318
11
354.42
21
135.318
0
LINE
8
0
6
CONTINUOUS
62
7
10
354.42
20
135.318
11
354.42
21
122.518
0
LINE
8
0
6
CONTINUOUS
62
7
10
354.42
20
122.518
11
355.22
21
122.518
0
LINE
8
0
6
CONTINUOUS
62
7
10
355.22
20
122.518
11
355.22
21
121.918
0
LINE
8
0
6
CONTINUOUS
62
7
10
355.22
20
121.918
11
369.219
21
121.918
0
LINE
8
0
6
CONTINUOUS
62
7
10
369.219
20
121.918
11
369.219
21
122.518
0
LINE
8
0
6
CONTINUOUS
62
7
10
369.219
20
122.518
11
370.02
21
122.518
0
LINE
8
0
6
CONTINUOUS
62
7
10
370.02
20
122.518
11
370.02
21
135.318
0
LINE
8
0
6
CONTINUOUS
62
7
10
370.02
20
135.318
11
369.219
21
135.318
0
LINE
8
0
6
CONTINUOUS
62
7
10
369.219
20
135.318
11
369.219
21
135.918
0
LINE
8
0
6
CONTINUOUS
62
7
10
369.219
20
135.918
11
355.22
21
135.918
0
LINE
8
0
6
CONTINUOUS
62
7
10
293.307
20
174.018
11
293.307
21
173.418
0
LINE
8
0
6
CONTINUOUS
62
7
10
293.307
20
173.418
11
292.506
21
173.418
0
LINE
8
0
6
CONTINUOUS
62
7
10
292.506
20
173.418
11
292.506
21
160.618
0
LINE
8
0
6
CONTINUOUS
62
7
10
292.506
20
160.618
11
293.307
21
160.618
0
LINE
8
0
6
CONTINUOUS
62
7
10
293.307
20
160.618
11
293.307
21
160.018
0
LINE
8
0
6
CONTINUOUS
62
7
10
293.307
20
160.018
11
295.688
21
160.018
0
LINE
8
0
6
CONTINUOUS
62
7
10
295.688
20
160.018
11
295.688
21
154.968
0
LINE
8
0
6
CONTINUOUS
62
7
10
295.688
20
154.968
11
274.257
21
154.968
0
LINE
8
0
6
CONTINUOUS
62
7
10
274.257
20
154.968
11
274.257
21
154.368
0
LINE
8
0
6
CONTINUOUS
62
7
10
274.257
20
154.368
11
273.456
21
154.368
0
LINE
8
0
6
CONTINUOUS
62
7
10
273.456
20
154.368
11
273.456
21
141.568
0
LINE
8
0
6
CONTINUOUS
62
7
10
273.456
20
141.568
11
274.257
21
141.568
0
LINE
8
0
6
CONTINUOUS
62
7
10
274.257
20
141.568
11
274.257
21
140.968
0
LINE
8
0
6
CONTINUOUS
62
7
10
274.257
20
140.968
11
277.933
21
140.968
0
LINE
8
0
6
CONTINUOUS
62
7
10
126.414
20
199.086
11
199.836
21
199.086
0
LINE
8
0
6
CONTINUOUS
62
7
10
98.8452
20
117.838
11
92.1907
21
117.838
0
LINE
8
0
6
CONTINUOUS
62
7
10
92.1907
20
117.838
11
92.1907
21
116.868
0
LINE
8
0
6
CONTINUOUS
62
7
10
284.589
20
140.968
11
300.163
21
140.968
0
LINE
8
0
6
CONTINUOUS
62
7
10
98.8452
20
117.838
11
98.8452
21
116.268
0
LINE
8
0
6
CONTINUOUS
62
7
10
225.541
20
116.868
11
224.251
21
116.868
0
LINE
8
0
6
CONTINUOUS
62
7
10
318.417
20
117.838
11
325.073
21
117.838
0
LINE
8
0
6
CONTINUOUS
62
7
10
325.073
20
117.838
11
325.073
21
116.868
0
LINE
8
0
6
CONTINUOUS
62
7
10
318.417
20
117.838
11
318.417
21
116.868
0
LINE
8
0
6
CONTINUOUS
62
7
10
342.217
20
117.838
11
348.873
21
117.838
0
LINE
8
0
6
CONTINUOUS
62
7
10
348.873
20
117.838
11
348.873
21
116.868
0
LINE
8
0
6
CONTINUOUS
62
7
10
342.217
20
117.838
11
342.217
21
116.868
0
LINE
8
0
6
CONTINUOUS
62
7
10
318.417
20
116.868
11
317.12
21
116.868
0
LINE
8
0
6
CONTINUOUS
62
7
10
342.217
20
116.868
11
325.073
21
116.868
0
LINE
8
0
6
CONTINUOUS
62
7
10
308.388
20
141.198
11
308.388
21
149.69
0
LINE
8
0
6
CONTINUOUS
62
7
10
308.388
20
149.69
11
309.087
21
149.69
0
LINE
8
0
6
CONTINUOUS
62
7
10
309.087
20
149.69
11
309.087
21
150.493
0
LINE
8
0
6
CONTINUOUS
62
7
10
309.087
20
150.493
11
309.688
21
150.493
0
LINE
8
0
6
CONTINUOUS
62
7
10
309.688
20
150.493
11
309.688
21
164.493
0
LINE
8
0
6
CONTINUOUS
62
7
10
309.688
20
164.493
11
309.087
21
164.493
0
LINE
8
0
6
CONTINUOUS
62
7
10
309.087
20
164.493
11
309.087
21
165.292
0
LINE
8
0
6
CONTINUOUS
62
7
10
309.087
20
165.292
11
308.217
21
165.292
0
LINE
8
0
6
CONTINUOUS
62
7
10
308.217
20
165.29
11
308.217
21
173.42
0
LINE
8
0
6
CONTINUOUS
62
7
10
308.22
20
173.418
11
307.307
21
173.418
0
LINE
8
0
6
CONTINUOUS
62
7
10
307.307
20
173.418
11
307.307
21
174.018
0
LINE
8
0
6
CONTINUOUS
62
7
10
307.307
20
174.018
11
293.307
21
174.018
0
LINE
8
0
6
CONTINUOUS
62
7
10
33.7509
20
154.968
11
33.7509
21
154.368
0
LINE
8
0
6
CONTINUOUS
62
7
10
33.7509
20
154.368
11
32.9503
21
154.368
0
LINE
8
0
6
CONTINUOUS
62
7
10
32.9503
20
154.368
11
32.9503
21
141.568
0
LINE
8
0
6
CONTINUOUS
62
7
10
32.9503
20
141.568
11
33.7509
21
141.568
0
LINE
8
0
6
CONTINUOUS
62
7
10
33.7509
20
141.568
11
33.7509
21
140.968
0
LINE
8
0
6
CONTINUOUS
62
7
10
33.7509
20
140.968
11
52.5129
21
140.968
0
LINE
8
0
6
CONTINUOUS
62
7
10
52.5129
20
140.968
11
52.5129
21
141.568
0
LINE
8
0
6
CONTINUOUS
62
7
10
52.5129
20
141.568
11
53.3122
21
141.568
0
LINE
8
0
6
CONTINUOUS
62
7
10
53.3122
20
141.568
11
53.3122
21
154.368
0
LINE
8
0
6
CONTINUOUS
62
7
10
53.3122
20
154.368
11
52.5129
21
154.368
0
LINE
8
0
6
CONTINUOUS
62
7
10
52.5129
20
154.368
11
52.5129
21
154.968
0
LINE
8
0
6
CONTINUOUS
62
7
10
52.5129
20
154.968
11
33.7509
21
154.968
0
LINE
8
0
6
CONTINUOUS
62
7
10
64.7072
20
154.968
11
64.7072
21
154.368
0
LINE
8
0
6
CONTINUOUS
62
7
10
64.7072
20
154.368
11
63.9065
21
154.368
0
LINE
8
0
6
CONTINUOUS
62
7
10
63.9065
20
154.368
11
63.9065
21
141.568
0
LINE
8
0
6
CONTINUOUS
62
7
10
63.9065
20
141.568
11
64.7072
21
141.568
0
LINE
8
0
6
CONTINUOUS
62
7
10
64.7072
20
141.568
11
64.7072
21
140.968
0
LINE
8
0
6
CONTINUOUS
62
7
10
64.7072
20
140.968
11
78.7065
21
140.968
0
LINE
8
0
6
CONTINUOUS
62
7
10
78.7065
20
140.968
11
78.7065
21
141.568
0
LINE
8
0
6
CONTINUOUS
62
7
10
78.7065
20
141.568
11
79.5073
21
141.568
0
LINE
8
0
6
CONTINUOUS
62
7
10
79.5073
20
141.568
11
79.5073
21
154.368
0
LINE
8
0
6
CONTINUOUS
62
7
10
79.5073
20
154.368
11
78.7065
21
154.368
0
LINE
8
0
6
CONTINUOUS
62
7
10
78.7065
20
154.368
11
78.7065
21
154.968
0
LINE
8
0
6
CONTINUOUS
62
7
10
78.7065
20
154.968
11
64.7072
21
154.968
0
LINE
8
0
6
CONTINUOUS
62
7
10
83.7572
20
154.968
11
83.7572
21
154.368
0
LINE
8
0
6
CONTINUOUS
62
7
10
83.7572
20
154.368
11
82.9564
21
154.368
0
LINE
8
0
6
CONTINUOUS
62
7
10
82.9564
20
154.368
11
82.9564
21
141.568
0
LINE
8
0
6
CONTINUOUS
62
7
10
82.9564
20
141.568
11
83.7572
21
141.568
0
LINE
8
0
6
CONTINUOUS
62
7
10
83.7572
20
141.568
11
83.7572
21
140.968
0
LINE
8
0
6
CONTINUOUS
62
7
10
83.7572
20
140.968
11
97.7565
21
140.968
0
LINE
8
0
6
CONTINUOUS
62
7
10
97.7565
20
140.968
11
97.7565
21
141.568
0
LINE
8
0
6
CONTINUOUS
62
7
10
97.7565
20
141.568
11
98.5573
21
141.568
0
LINE
8
0
6
CONTINUOUS
62
7
10
98.5573
20
141.568
11
98.5573
21
154.368
0
LINE
8
0
6
CONTINUOUS
62
7
10
98.5573
20
154.368
11
97.7565
21
154.368
0
LINE
8
0
6
CONTINUOUS
62
7
10
97.7565
20
154.368
11
97.7565
21
154.968
0
LINE
8
0
6
CONTINUOUS
62
7
10
97.7565
20
154.968
11
83.7572
21
154.968
0
LINE
8
0
6
CONTINUOUS
62
7
10
102.807
20
154.968
11
102.807
21
154.368
0
LINE
8
0
6
CONTINUOUS
62
7
10
102.807
20
154.368
11
102.006
21
154.368
0
LINE
8
0
6
CONTINUOUS
62
7
10
102.006
20
154.368
11
102.006
21
141.568
0
LINE
8
0
6
CONTINUOUS
62
7
10
102.006
20
141.568
11
102.807
21
141.568
0
LINE
8
0
6
CONTINUOUS
62
7
10
102.807
20
141.568
11
102.807
21
140.968
0
LINE
8
0
6
CONTINUOUS
62
7
10
102.807
20
140.968
11
116.807
21
140.968
0
LINE
8
0
6
CONTINUOUS
62
7
10
116.807
20
140.968
11
116.807
21
141.568
0
LINE
8
0
6
CONTINUOUS
62
7
10
116.807
20
141.568
11
117.607
21
141.568
0
LINE
8
0
6
CONTINUOUS
62
7
10
117.607
20
141.568
11
117.607
21
154.368
0
LINE
8
0
6
CONTINUOUS
62
7
10
117.607
20
154.368
11
116.807
21
154.368
0
LINE
8
0
6
CONTINUOUS
62
7
10
116.807
20
154.368
11
116.807
21
154.968
0
LINE
8
0
6
CONTINUOUS
62
7
10
116.807
20
154.968
11
102.807
21
154.968
0
LINE
8
0
6
CONTINUOUS
62
7
10
121.857
20
154.968
11
121.857
21
154.368
0
LINE
8
0
6
CONTINUOUS
62
7
10
121.857
20
154.368
11
121.056
21
154.368
0
LINE
8
0
6
CONTINUOUS
62
7
10
121.056
20
154.368
11
121.056
21
141.568
0
LINE
8
0
6
CONTINUOUS
62
7
10
121.056
20
141.568
11
121.857
21
141.568
0
LINE
8
0
6
CONTINUOUS
62
7
10
121.857
20
141.568
11
121.857
21
140.968
0
LINE
8
0
6
CONTINUOUS
62
7
10
121.857
20
140.968
11
135.857
21
140.968
0
LINE
8
0
6
CONTINUOUS
62
7
10
135.857
20
140.968
11
135.857
21
141.568
0
LINE
8
0
6
CONTINUOUS
62
7
10
135.857
20
141.568
11
136.657
21
141.568
0
LINE
8
0
6
CONTINUOUS
62
7
10
136.657
20
141.568
11
136.657
21
154.368
0
LINE
8
0
6
CONTINUOUS
62
7
10
136.657
20
154.368
11
135.857
21
154.368
0
LINE
8
0
6
CONTINUOUS
62
7
10
135.857
20
154.368
11
135.857
21
154.968
0
LINE
8
0
6
CONTINUOUS
62
7
10
135.857
20
154.968
11
121.857
21
154.968
0
LINE
8
0
6
CONTINUOUS
62
7
10
140.907
20
154.968
11
140.907
21
154.368
0
LINE
8
0
6
CONTINUOUS
62
7
10
140.907
20
154.368
11
140.106
21
154.368
0
LINE
8
0
6
CONTINUOUS
62
7
10
140.106
20
154.368
11
140.106
21
141.568
0
LINE
8
0
6
CONTINUOUS
62
7
10
140.106
20
141.568
11
140.907
21
141.568
0
LINE
8
0
6
CONTINUOUS
62
7
10
140.907
20
141.568
11
140.907
21
140.968
0
LINE
8
0
6
CONTINUOUS
62
7
10
140.907
20
140.968
11
154.907
21
140.968
0
LINE
8
0
6
CONTINUOUS
62
7
10
154.907
20
140.968
11
154.907
21
141.568
0
LINE
8
0
6
CONTINUOUS
62
7
10
154.907
20
141.568
11
155.707
21
141.568
0
LINE
8
0
6
CONTINUOUS
62
7
10
155.707
20
141.568
11
155.707
21
154.368
0
LINE
8
0
6
CONTINUOUS
62
7
10
155.707
20
154.368
11
154.907
21
154.368
0
LINE
8
0
6
CONTINUOUS
62
7
10
154.907
20
154.368
11
154.907
21
154.968
0
LINE
8
0
6
CONTINUOUS
62
7
10
154.907
20
154.968
11
140.907
21
154.968
0
LINE
8
0
6
CONTINUOUS
62
7
10
159.957
20
154.968
11
159.957
21
154.368
0
LINE
8
0
6
CONTINUOUS
62
7
10
159.957
20
154.368
11
159.156
21
154.368
0
LINE
8
0
6
CONTINUOUS
62
7
10
159.156
20
154.368
11
159.156
21
141.568
0
LINE
8
0
6
CONTINUOUS
62
7
10
159.156
20
141.568
11
159.957
21
141.568
0
LINE
8
0
6
CONTINUOUS
62
7
10
159.957
20
141.568
11
159.957
21
140.968
0
LINE
8
0
6
CONTINUOUS
62
7
10
159.957
20
140.968
11
173.957
21
140.968
0
LINE
8
0
6
CONTINUOUS
62
7
10
173.957
20
140.968
11
173.957
21
141.568
0
LINE
8
0
6
CONTINUOUS
62
7
10
173.957
20
141.568
11
174.757
21
141.568
0
LINE
8
0
6
CONTINUOUS
62
7
10
174.757
20
141.568
11
174.757
21
154.368
0
LINE
8
0
6
CONTINUOUS
62
7
10
174.757
20
154.368
11
173.957
21
154.368
0
LINE
8
0
6
CONTINUOUS
62
7
10
173.957
20
154.368
11
173.957
21
154.968
0
LINE
8
0
6
CONTINUOUS
62
7
10
173.957
20
154.968
11
159.957
21
154.968
0
LINE
8
0
6
CONTINUOUS
62
7
10
179.007
20
154.968
11
179.007
21
154.368
0
LINE
8
0
6
CONTINUOUS
62
7
10
179.007
20
154.368
11
178.206
21
154.368
0
LINE
8
0
6
CONTINUOUS
62
7
10
178.206
20
154.368
11
178.206
21
141.568
0
LINE
8
0
6
CONTINUOUS
62
7
10
178.206
20
141.568
11
179.007
21
141.568
0
LINE
8
0
6
CONTINUOUS
62
7
10
179.007
20
141.568
11
179.007
21
140.968
0
LINE
8
0
6
CONTINUOUS
62
7
10
179.007
20
140.968
11
193.007
21
140.968
0
LINE
8
0
6
CONTINUOUS
62
7
10
193.007
20
140.968
11
193.007
21
141.568
0
LINE
8
0
6
CONTINUOUS
62
7
10
193.007
20
141.568
11
193.807
21
141.568
0
LINE
8
0
6
CONTINUOUS
62
7
10
193.807
20
141.568
11
193.807
21
154.368
0
LINE
8
0
6
CONTINUOUS
62
7
10
193.807
20
154.368
11
193.007
21
154.368
0
LINE
8
0
6
CONTINUOUS
62
7
10
193.007
20
154.368
11
193.007
21
154.968
0
LINE
8
0
6
CONTINUOUS
62
7
10
193.007
20
154.968
11
179.007
21
154.968
0
LINE
8
0
6
CONTINUOUS
62
7
10
198.057
20
154.968
11
198.057
21
154.368
0
LINE
8
0
6
CONTINUOUS
62
7
10
198.057
20
154.368
11
197.256
21
154.368
0
LINE
8
0
6
CONTINUOUS
62
7
10
197.256
20
154.368
11
197.256
21
141.568
0
LINE
8
0
6
CONTINUOUS
62
7
10
197.256
20
141.568
11
198.057
21
141.568
0
LINE
8
0
6
CONTINUOUS
62
7
10
198.057
20
141.568
11
198.057
21
140.968
0
LINE
8
0
6
CONTINUOUS
62
7
10
198.057
20
140.968
11
212.057
21
140.968
0
LINE
8
0
6
CONTINUOUS
62
7
10
212.057
20
140.968
11
212.057
21
141.568
0
LINE
8
0
6
CONTINUOUS
62
7
10
212.057
20
141.568
11
212.857
21
141.568
0
LINE
8
0
6
CONTINUOUS
62
7
10
212.857
20
141.568
11
212.857
21
154.368
0
LINE
8
0
6
CONTINUOUS
62
7
10
212.857
20
154.368
11
212.057
21
154.368
0
LINE
8
0
6
CONTINUOUS
62
7
10
212.057
20
154.368
11
212.057
21
154.968
0
LINE
8
0
6
CONTINUOUS
62
7
10
212.057
20
154.968
11
198.057
21
154.968
0
LINE
8
0
6
CONTINUOUS
62
7
10
217.107
20
154.968
11
217.107
21
154.368
0
LINE
8
0
6
CONTINUOUS
62
7
10
217.107
20
154.368
11
216.306
21
154.368
0
LINE
8
0
6
CONTINUOUS
62
7
10
216.306
20
154.368
11
216.306
21
141.568
0
LINE
8
0
6
CONTINUOUS
62
7
10
216.306
20
141.568
11
217.107
21
141.568
0
LINE
8
0
6
CONTINUOUS
62
7
10
217.107
20
141.568
11
217.107
21
140.968
0
LINE
8
0
6
CONTINUOUS
62
7
10
217.107
20
140.968
11
231.107
21
140.968
0
LINE
8
0
6
CONTINUOUS
62
7
10
231.107
20
140.968
11
231.107
21
141.568
0
LINE
8
0
6
CONTINUOUS
62
7
10
231.107
20
141.568
11
231.907
21
141.568
0
LINE
8
0
6
CONTINUOUS
62
7
10
231.907
20
141.568
11
231.907
21
154.368
0
LINE
8
0
6
CONTINUOUS
62
7
10
231.907
20
154.368
11
231.107
21
154.368
0
LINE
8
0
6
CONTINUOUS
62
7
10
231.107
20
154.368
11
231.107
21
154.968
0
LINE
8
0
6
CONTINUOUS
62
7
10
231.107
20
154.968
11
217.107
21
154.968
0
LINE
8
0
6
CONTINUOUS
62
7
10
236.157
20
154.968
11
236.157
21
154.368
0
LINE
8
0
6
CONTINUOUS
62
7
10
236.157
20
154.368
11
235.356
21
154.368
0
LINE
8
0
6
CONTINUOUS
62
7
10
235.356
20
154.368
11
235.356
21
141.568
0
LINE
8
0
6
CONTINUOUS
62
7
10
235.356
20
141.568
11
236.157
21
141.568
0
LINE
8
0
6
CONTINUOUS
62
7
10
236.157
20
141.568
11
236.157
21
140.968
0
LINE
8
0
6
CONTINUOUS
62
7
10
236.157
20
140.968
11
250.157
21
140.968
0
LINE
8
0
6
CONTINUOUS
62
7
10
250.157
20
140.968
11
250.157
21
141.568
0
LINE
8
0
6
CONTINUOUS
62
7
10
250.157
20
141.568
11
250.957
21
141.568
0
LINE
8
0
6
CONTINUOUS
62
7
10
250.957
20
141.568
11
250.957
21
154.368
0
LINE
8
0
6
CONTINUOUS
62
7
10
250.957
20
154.368
11
250.157
21
154.368
0
LINE
8
0
6
CONTINUOUS
62
7
10
250.157
20
154.368
11
250.157
21
154.968
0
LINE
8
0
6
CONTINUOUS
62
7
10
250.157
20
154.968
11
236.157
21
154.968
0
LINE
8
0
6
CONTINUOUS
62
7
10
255.207
20
154.968
11
255.207
21
154.368
0
LINE
8
0
6
CONTINUOUS
62
7
10
255.207
20
154.368
11
254.406
21
154.368
0
LINE
8
0
6
CONTINUOUS
62
7
10
254.406
20
154.368
11
254.406
21
141.568
0
LINE
8
0
6
CONTINUOUS
62
7
10
254.406
20
141.568
11
255.207
21
141.568
0
LINE
8
0
6
CONTINUOUS
62
7
10
255.207
20
141.568
11
255.207
21
140.968
0
LINE
8
0
6
CONTINUOUS
62
7
10
255.207
20
140.968
11
269.207
21
140.968
0
LINE
8
0
6
CONTINUOUS
62
7
10
269.207
20
140.968
11
269.207
21
141.568
0
LINE
8
0
6
CONTINUOUS
62
7
10
269.207
20
141.568
11
270.007
21
141.568
0
LINE
8
0
6
CONTINUOUS
62
7
10
270.007
20
141.568
11
270.007
21
154.368
0
LINE
8
0
6
CONTINUOUS
62
7
10
270.007
20
154.368
11
269.207
21
154.368
0
LINE
8
0
6
CONTINUOUS
62
7
10
269.207
20
154.368
11
269.207
21
154.968
0
LINE
8
0
6
CONTINUOUS
62
7
10
269.207
20
154.968
11
255.207
21
154.968
0
LINE
8
0
6
CONTINUOUS
62
7
10
317.12
20
154.968
11
317.12
21
154.368
0
LINE
8
0
6
CONTINUOUS
62
7
10
317.12
20
154.368
11
316.32
21
154.368
0
LINE
8
0
6
CONTINUOUS
62
7
10
316.32
20
154.368
11
316.32
21
141.568
0
LINE
8
0
6
CONTINUOUS
62
7
10
316.32
20
141.568
11
317.12
21
141.568
0
LINE
8
0
6
CONTINUOUS
62
7
10
317.12
20
141.568
11
317.12
21
140.968
0
LINE
8
0
6
CONTINUOUS
62
7
10
317.12
20
140.968
11
331.119
21
140.968
0
LINE
8
0
6
CONTINUOUS
62
7
10
331.119
20
140.968
11
331.119
21
141.568
0
LINE
8
0
6
CONTINUOUS
62
7
10
331.119
20
141.568
11
331.92
21
141.568
0
LINE
8
0
6
CONTINUOUS
62
7
10
331.92
20
141.568
11
331.92
21
154.368
0
LINE
8
0
6
CONTINUOUS
62
7
10
331.92
20
154.368
11
331.119
21
154.368
0
LINE
8
0
6
CONTINUOUS
62
7
10
331.119
20
154.368
11
331.119
21
154.968
0
LINE
8
0
6
CONTINUOUS
62
7
10
331.119
20
154.968
11
317.12
21
154.968
0
LINE
8
0
6
CONTINUOUS
62
7
10
336.17
20
154.968
11
336.17
21
154.368
0
LINE
8
0
6
CONTINUOUS
62
7
10
336.17
20
154.368
11
335.37
21
154.368
0
LINE
8
0
6
CONTINUOUS
62
7
10
335.37
20
154.368
11
335.37
21
141.568
0
LINE
8
0
6
CONTINUOUS
62
7
10
335.37
20
141.568
11
336.17
21
141.568
0
LINE
8
0
6
CONTINUOUS
62
7
10
336.17
20
141.568
11
336.17
21
140.968
0
LINE
8
0
6
CONTINUOUS
62
7
10
336.17
20
140.968
11
350.169
21
140.968
0
LINE
8
0
6
CONTINUOUS
62
7
10
350.169
20
140.968
11
350.169
21
141.568
0
LINE
8
0
6
CONTINUOUS
62
7
10
350.169
20
141.568
11
350.97
21
141.568
0
LINE
8
0
6
CONTINUOUS
62
7
10
350.97
20
141.568
11
350.97
21
154.368
0
LINE
8
0
6
CONTINUOUS
62
7
10
350.97
20
154.368
11
350.169
21
154.368
0
LINE
8
0
6
CONTINUOUS
62
7
10
350.169
20
154.368
11
350.169
21
154.968
0
LINE
8
0
6
CONTINUOUS
62
7
10
350.169
20
154.968
11
336.17
21
154.968
0
LINE
8
0
6
CONTINUOUS
62
7
10
355.22
20
154.968
11
355.22
21
154.368
0
LINE
8
0
6
CONTINUOUS
62
7
10
355.22
20
154.368
11
354.42
21
154.368
0
LINE
8
0
6
CONTINUOUS
62
7
10
354.42
20
154.368
11
354.42
21
141.568
0
LINE
8
0
6
CONTINUOUS
62
7
10
354.42
20
141.568
11
355.22
21
141.568
0
LINE
8
0
6
CONTINUOUS
62
7
10
355.22
20
141.568
11
355.22
21
140.968
0
LINE
8
0
6
CONTINUOUS
62
7
10
355.22
20
140.968
11
369.219
21
140.968
0
LINE
8
0
6
CONTINUOUS
62
7
10
369.219
20
140.968
11
369.219
21
141.568
0
LINE
8
0
6
CONTINUOUS
62
7
10
369.219
20
141.568
11
370.02
21
141.568
0
LINE
8
0
6
CONTINUOUS
62
7
10
370.02
20
141.568
11
370.02
21
154.368
0
LINE
8
0
6
CONTINUOUS
62
7
10
370.02
20
154.368
11
369.219
21
154.368
0
LINE
8
0
6
CONTINUOUS
62
7
10
369.219
20
154.368
11
369.219
21
154.968
0
LINE
8
0
6
CONTINUOUS
62
7
10
369.219
20
154.968
11
355.22
21
154.968
0
LINE
8
0
6
CONTINUOUS
62
7
10
374.27
20
174.018
11
374.27
21
173.418
0
LINE
8
0
6
CONTINUOUS
62
7
10
374.27
20
173.418
11
373.3
21
173.418
0
LINE
8
0
6
CONTINUOUS
62
7
10
373.47
20
160.62
11
373.47
21
160.618
0
LINE
8
0
6
CONTINUOUS
62
7
10
373.3
20
160.62
11
374.27
21
160.618
0
LINE
8
0
6
CONTINUOUS
62
7
10
374.27
20
160.618
11
374.27
21
154.368
0
LINE
8
0
6
CONTINUOUS
62
7
10
374.27
20
154.368
11
373.3
21
154.368
0
LINE
8
0
6
CONTINUOUS
62
7
10
373.3
20
145.593
11
373.3
21
142.265
0
LINE
8
0
6
CONTINUOUS
62
7
10
373.3
20
141.57
11
373.3
21
142.265
0
LINE
8
0
6
CONTINUOUS
62
7
10
373.3
20
145.593
11
373.3
21
154.368
0
LINE
8
0
6
CONTINUOUS
62
7
10
373.3
20
160.62
11
373.3
21
173.42
0
LINE
8
0
6
CONTINUOUS
62
7
10
373.3
20
141.568
11
374.27
21
141.568
0
LINE
8
0
6
CONTINUOUS
62
7
10
374.27
20
141.568
11
374.27
21
140.968
0
LINE
8
0
6
CONTINUOUS
62
7
10
374.27
20
140.968
11
388.269
21
140.968
0
LINE
8
0
6
CONTINUOUS
62
7
10
388.269
20
140.968
11
388.269
21
141.568
0
LINE
8
0
6
CONTINUOUS
62
7
10
388.269
20
141.568
11
389.07
21
141.568
0
LINE
8
0
6
CONTINUOUS
62
7
10
389.07
20
141.568
11
389.07
21
154.368
0
LINE
8
0
6
CONTINUOUS
62
7
10
389.07
20
154.368
11
388.269
21
154.368
0
LINE
8
0
6
CONTINUOUS
62
7
10
388.269
20
154.368
11
388.269
21
160.618
0
LINE
8
0
6
CONTINUOUS
62
7
10
388.269
20
160.618
11
389.07
21
160.618
0
LINE
8
0
6
CONTINUOUS
62
7
10
389.07
20
160.618
11
389.07
21
173.418
0
LINE
8
0
6
CONTINUOUS
62
7
10
389.07
20
173.418
11
388.269
21
173.418
0
LINE
8
0
6
CONTINUOUS
62
7
10
388.269
20
173.418
11
388.269
21
174.018
0
LINE
8
0
6
CONTINUOUS
62
7
10
388.269
20
174.018
11
374.27
21
174.018
0
LINE
8
0
6
CONTINUOUS
62
7
10
36.1322
20
174.018
11
36.1322
21
173.418
0
LINE
8
0
6
CONTINUOUS
62
7
10
36.1322
20
173.418
11
35.3315
21
173.418
0
LINE
8
0
6
CONTINUOUS
62
7
10
35.3315
20
173.418
11
35.3315
21
160.618
0
LINE
8
0
6
CONTINUOUS
62
7
10
35.3315
20
160.618
11
36.1322
21
160.618
0
LINE
8
0
6
CONTINUOUS
62
7
10
36.1322
20
160.618
11
36.1322
21
160.018
0
LINE
8
0
6
CONTINUOUS
62
7
10
36.1322
20
160.018
11
50.1317
21
160.018
0
LINE
8
0
6
CONTINUOUS
62
7
10
50.1317
20
160.018
11
50.1317
21
160.618
0
LINE
8
0
6
CONTINUOUS
62
7
10
50.1317
20
160.618
11
50.9323
21
160.618
0
LINE
8
0
6
CONTINUOUS
62
7
10
50.9323
20
160.618
11
50.9323
21
173.418
0
LINE
8
0
6
CONTINUOUS
62
7
10
50.9323
20
173.418
11
50.1317
21
173.418
0
LINE
8
0
6
CONTINUOUS
62
7
10
50.1317
20
173.418
11
50.1317
21
174.018
0
LINE
8
0
6
CONTINUOUS
62
7
10
50.1317
20
174.018
11
36.1322
21
174.018
0
LINE
8
0
6
CONTINUOUS
62
7
10
59.9447
20
174.018
11
59.9447
21
173.418
0
LINE
8
0
6
CONTINUOUS
62
7
10
59.9447
20
173.418
11
59.1454
21
173.418
0
LINE
8
0
6
CONTINUOUS
62
7
10
59.1454
20
173.418
11
59.1454
21
160.618
0
LINE
8
0
6
CONTINUOUS
62
7
10
59.1454
20
160.618
11
59.9447
21
160.618
0
LINE
8
0
6
CONTINUOUS
62
7
10
59.9447
20
160.618
11
59.9447
21
160.018
0
LINE
8
0
6
CONTINUOUS
62
7
10
59.9447
20
160.018
11
73.944
21
160.018
0
LINE
8
0
6
CONTINUOUS
62
7
10
73.944
20
160.018
11
73.944
21
160.618
0
LINE
8
0
6
CONTINUOUS
62
7
10
73.944
20
160.618
11
74.7448
21
160.618
0
LINE
8
0
6
CONTINUOUS
62
7
10
74.7448
20
160.618
11
74.7448
21
173.418
0
LINE
8
0
6
CONTINUOUS
62
7
10
74.7448
20
173.418
11
73.944
21
173.418
0
LINE
8
0
6
CONTINUOUS
62
7
10
73.944
20
173.418
11
73.944
21
174.018
0
LINE
8
0
6
CONTINUOUS
62
7
10
73.944
20
174.018
11
59.9447
21
174.018
0
LINE
8
0
6
CONTINUOUS
62
7
10
78.9947
20
174.018
11
78.9947
21
173.418
0
LINE
8
0
6
CONTINUOUS
62
7
10
78.9947
20
173.418
11
78.1953
21
173.418
0
LINE
8
0
6
CONTINUOUS
62
7
10
78.1953
20
173.418
11
78.1953
21
160.618
0
LINE
8
0
6
CONTINUOUS
62
7
10
78.1953
20
160.618
11
78.9947
21
160.618
0
LINE
8
0
6
CONTINUOUS
62
7
10
78.9947
20
160.618
11
78.9947
21
160.018
0
LINE
8
0
6
CONTINUOUS
62
7
10
78.9947
20
160.018
11
92.994
21
160.018
0
LINE
8
0
6
CONTINUOUS
62
7
10
92.994
20
160.018
11
92.994
21
160.618
0
LINE
8
0
6
CONTINUOUS
62
7
10
92.994
20
160.618
11
93.7948
21
160.618
0
LINE
8
0
6
CONTINUOUS
62
7
10
93.7948
20
160.618
11
93.7948
21
173.418
0
LINE
8
0
6
CONTINUOUS
62
7
10
93.7948
20
173.418
11
92.994
21
173.418
0
LINE
8
0
6
CONTINUOUS
62
7
10
92.994
20
173.418
11
92.994
21
174.018
0
LINE
8
0
6
CONTINUOUS
62
7
10
92.994
20
174.018
11
78.9947
21
174.018
0
LINE
8
0
6
CONTINUOUS
62
7
10
98.0447
20
174.018
11
98.0447
21
173.418
0
LINE
8
0
6
CONTINUOUS
62
7
10
98.0447
20
173.418
11
97.2453
21
173.418
0
LINE
8
0
6
CONTINUOUS
62
7
10
97.2453
20
173.418
11
97.2453
21
160.618
0
LINE
8
0
6
CONTINUOUS
62
7
10
97.2453
20
160.618
11
98.0447
21
160.618
0
LINE
8
0
6
CONTINUOUS
62
7
10
98.0447
20
160.618
11
98.0447
21
160.018
0
LINE
8
0
6
CONTINUOUS
62
7
10
98.0447
20
160.018
11
112.044
21
160.018
0
LINE
8
0
6
CONTINUOUS
62
7
10
112.044
20
160.018
11
112.044
21
160.618
0
LINE
8
0
6
CONTINUOUS
62
7
10
112.044
20
160.618
11
112.845
21
160.618
0
LINE
8
0
6
CONTINUOUS
62
7
10
112.845
20
160.618
11
112.845
21
173.418
0
LINE
8
0
6
CONTINUOUS
62
7
10
112.845
20
173.418
11
112.044
21
173.418
0
LINE
8
0
6
CONTINUOUS
62
7
10
112.044
20
173.418
11
112.044
21
174.018
0
LINE
8
0
6
CONTINUOUS
62
7
10
112.044
20
174.018
11
98.0447
21
174.018
0
LINE
8
0
6
CONTINUOUS
62
7
10
117.095
20
174.018
11
117.095
21
173.418
0
LINE
8
0
6
CONTINUOUS
62
7
10
117.095
20
173.418
11
116.295
21
173.418
0
LINE
8
0
6
CONTINUOUS
62
7
10
116.295
20
173.418
11
116.295
21
160.618
0
LINE
8
0
6
CONTINUOUS
62
7
10
116.295
20
160.618
11
117.095
21
160.618
0
LINE
8
0
6
CONTINUOUS
62
7
10
117.095
20
160.618
11
117.095
21
160.018
0
LINE
8
0
6
CONTINUOUS
62
7
10
117.095
20
160.018
11
131.094
21
160.018
0
LINE
8
0
6
CONTINUOUS
62
7
10
131.094
20
160.018
11
131.094
21
160.618
0
LINE
8
0
6
CONTINUOUS
62
7
10
131.094
20
160.618
11
131.895
21
160.618
0
LINE
8
0
6
CONTINUOUS
62
7
10
131.895
20
160.618
11
131.895
21
173.418
0
LINE
8
0
6
CONTINUOUS
62
7
10
131.895
20
173.418
11
131.094
21
173.418
0
LINE
8
0
6
CONTINUOUS
62
7
10
131.094
20
173.418
11
131.094
21
174.018
0
LINE
8
0
6
CONTINUOUS
62
7
10
131.094
20
174.018
11
117.095
21
174.018
0
LINE
8
0
6
CONTINUOUS
62
7
10
136.145
20
174.018
11
136.145
21
173.418
0
LINE
8
0
6
CONTINUOUS
62
7
10
136.145
20
173.418
11
135.345
21
173.418
0
LINE
8
0
6
CONTINUOUS
62
7
10
135.345
20
173.418
11
135.345
21
160.618
0
LINE
8
0
6
CONTINUOUS
62
7
10
135.345
20
160.618
11
136.145
21
160.618
0
LINE
8
0
6
CONTINUOUS
62
7
10
136.145
20
160.618
11
136.145
21
160.018
0
LINE
8
0
6
CONTINUOUS
62
7
10
136.145
20
160.018
11
150.144
21
160.018
0
LINE
8
0
6
CONTINUOUS
62
7
10
150.144
20
160.018
11
150.144
21
160.618
0
LINE
8
0
6
CONTINUOUS
62
7
10
150.144
20
160.618
11
150.945
21
160.618
0
LINE
8
0
6
CONTINUOUS
62
7
10
150.945
20
160.618
11
150.945
21
173.418
0
LINE
8
0
6
CONTINUOUS
62
7
10
150.945
20
173.418
11
150.144
21
173.418
0
LINE
8
0
6
CONTINUOUS
62
7
10
150.144
20
173.418
11
150.144
21
174.018
0
LINE
8
0
6
CONTINUOUS
62
7
10
150.144
20
174.018
11
136.145
21
174.018
0
LINE
8
0
6
CONTINUOUS
62
7
10
155.195
20
174.018
11
155.195
21
173.418
0
LINE
8
0
6
CONTINUOUS
62
7
10
155.195
20
173.418
11
154.394
21
173.418
0
LINE
8
0
6
CONTINUOUS
62
7
10
154.394
20
173.418
11
154.394
21
160.618
0
LINE
8
0
6
CONTINUOUS
62
7
10
154.394
20
160.618
11
155.195
21
160.618
0
LINE
8
0
6
CONTINUOUS
62
7
10
155.195
20
160.618
11
155.195
21
160.018
0
LINE
8
0
6
CONTINUOUS
62
7
10
155.195
20
160.018
11
169.194
21
160.018
0
LINE
8
0
6
CONTINUOUS
62
7
10
169.194
20
160.018
11
169.194
21
160.618
0
LINE
8
0
6
CONTINUOUS
62
7
10
169.194
20
160.618
11
169.995
21
160.618
0
LINE
8
0
6
CONTINUOUS
62
7
10
169.995
20
160.618
11
169.995
21
173.418
0
LINE
8
0
6
CONTINUOUS
62
7
10
169.995
20
173.418
11
169.194
21
173.418
0
LINE
8
0
6
CONTINUOUS
62
7
10
169.194
20
173.418
11
169.194
21
174.018
0
LINE
8
0
6
CONTINUOUS
62
7
10
169.194
20
174.018
11
155.195
21
174.018
0
LINE
8
0
6
CONTINUOUS
62
7
10
174.245
20
174.018
11
174.245
21
173.418
0
LINE
8
0
6
CONTINUOUS
62
7
10
174.245
20
173.418
11
173.445
21
173.418
0
LINE
8
0
6
CONTINUOUS
62
7
10
173.445
20
173.418
11
173.445
21
160.618
0
LINE
8
0
6
CONTINUOUS
62
7
10
173.445
20
160.618
11
174.245
21
160.618
0
LINE
8
0
6
CONTINUOUS
62
7
10
174.245
20
160.618
11
174.245
21
160.018
0
LINE
8
0
6
CONTINUOUS
62
7
10
174.245
20
160.018
11
188.244
21
160.018
0
LINE
8
0
6
CONTINUOUS
62
7
10
188.244
20
160.018
11
188.244
21
160.618
0
LINE
8
0
6
CONTINUOUS
62
7
10
188.244
20
160.618
11
189.045
21
160.618
0
LINE
8
0
6
CONTINUOUS
62
7
10
189.045
20
160.618
11
189.045
21
173.418
0
LINE
8
0
6
CONTINUOUS
62
7
10
189.045
20
173.418
11
188.244
21
173.418
0
LINE
8
0
6
CONTINUOUS
62
7
10
188.244
20
173.418
11
188.244
21
174.018
0
LINE
8
0
6
CONTINUOUS
62
7
10
188.244
20
174.018
11
174.245
21
174.018
0
LINE
8
0
6
CONTINUOUS
62
7
10
193.295
20
174.018
11
193.295
21
173.418
0
LINE
8
0
6
CONTINUOUS
62
7
10
193.295
20
173.418
11
192.495
21
173.418
0
LINE
8
0
6
CONTINUOUS
62
7
10
192.495
20
173.418
11
192.495
21
160.618
0
LINE
8
0
6
CONTINUOUS
62
7
10
192.495
20
160.618
11
193.295
21
160.618
0
LINE
8
0
6
CONTINUOUS
62
7
10
193.295
20
160.618
11
193.295
21
160.018
0
LINE
8
0
6
CONTINUOUS
62
7
10
193.295
20
160.018
11
207.294
21
160.018
0
LINE
8
0
6
CONTINUOUS
62
7
10
207.294
20
160.018
11
207.294
21
160.618
0
LINE
8
0
6
CONTINUOUS
62
7
10
207.294
20
160.618
11
208.095
21
160.618
0
LINE
8
0
6
CONTINUOUS
62
7
10
208.095
20
160.618
11
208.095
21
173.418
0
LINE
8
0
6
CONTINUOUS
62
7
10
208.095
20
173.418
11
207.294
21
173.418
0
LINE
8
0
6
CONTINUOUS
62
7
10
207.294
20
173.418
11
207.294
21
174.018
0
LINE
8
0
6
CONTINUOUS
62
7
10
207.294
20
174.018
11
193.295
21
174.018
0
LINE
8
0
6
CONTINUOUS
62
7
10
212.345
20
174.018
11
212.345
21
173.418
0
LINE
8
0
6
CONTINUOUS
62
7
10
212.345
20
173.418
11
211.545
21
173.418
0
LINE
8
0
6
CONTINUOUS
62
7
10
211.545
20
173.418
11
211.545
21
160.618
0
LINE
8
0
6
CONTINUOUS
62
7
10
211.545
20
160.618
11
212.345
21
160.618
0
LINE
8
0
6
CONTINUOUS
62
7
10
212.345
20
160.618
11
212.345
21
160.018
0
LINE
8
0
6
CONTINUOUS
62
7
10
212.345
20
160.018
11
226.344
21
160.018
0
LINE
8
0
6
CONTINUOUS
62
7
10
226.344
20
160.018
11
226.344
21
160.618
0
LINE
8
0
6
CONTINUOUS
62
7
10
226.344
20
160.618
11
227.145
21
160.618
0
LINE
8
0
6
CONTINUOUS
62
7
10
227.145
20
160.618
11
227.145
21
173.418
0
LINE
8
0
6
CONTINUOUS
62
7
10
227.145
20
173.418
11
226.344
21
173.418
0
LINE
8
0
6
CONTINUOUS
62
7
10
226.344
20
173.418
11
226.344
21
174.018
0
LINE
8
0
6
CONTINUOUS
62
7
10
226.344
20
174.018
11
212.345
21
174.018
0
LINE
8
0
6
CONTINUOUS
62
7
10
231.395
20
174.018
11
231.395
21
173.418
0
LINE
8
0
6
CONTINUOUS
62
7
10
231.395
20
173.418
11
230.595
21
173.418
0
LINE
8
0
6
CONTINUOUS
62
7
10
230.595
20
173.418
11
230.595
21
160.618
0
LINE
8
0
6
CONTINUOUS
62
7
10
230.595
20
160.618
11
231.395
21
160.618
0
LINE
8
0
6
CONTINUOUS
62
7
10
231.395
20
160.618
11
231.395
21
160.018
0
LINE
8
0
6
CONTINUOUS
62
7
10
231.395
20
160.018
11
245.394
21
160.018
0
LINE
8
0
6
CONTINUOUS
62
7
10
245.394
20
160.018
11
245.394
21
160.618
0
LINE
8
0
6
CONTINUOUS
62
7
10
245.394
20
160.618
11
246.195
21
160.618
0
LINE
8
0
6
CONTINUOUS
62
7
10
246.195
20
160.618
11
246.195
21
173.418
0
LINE
8
0
6
CONTINUOUS
62
7
10
246.195
20
173.418
11
245.394
21
173.418
0
LINE
8
0
6
CONTINUOUS
62
7
10
245.394
20
173.418
11
245.394
21
174.018
0
LINE
8
0
6
CONTINUOUS
62
7
10
245.394
20
174.018
11
231.395
21
174.018
0
LINE
8
0
6
CONTINUOUS
62
7
10
250.445
20
174.018
11
250.445
21
173.418
0
LINE
8
0
6
CONTINUOUS
62
7
10
250.445
20
173.418
11
249.645
21
173.418
0
LINE
8
0
6
CONTINUOUS
62
7
10
249.645
20
173.418
11
249.645
21
160.618
0
LINE
8
0
6
CONTINUOUS
62
7
10
249.645
20
160.618
11
250.445
21
160.618
0
LINE
8
0
6
CONTINUOUS
62
7
10
250.445
20
160.618
11
250.445
21
160.018
0
LINE
8
0
6
CONTINUOUS
62
7
10
250.445
20
160.018
11
264.444
21
160.018
0
LINE
8
0
6
CONTINUOUS
62
7
10
264.444
20
160.018
11
264.444
21
160.618
0
LINE
8
0
6
CONTINUOUS
62
7
10
264.444
20
160.618
11
265.245
21
160.618
0
LINE
8
0
6
CONTINUOUS
62
7
10
265.245
20
160.618
11
265.245
21
173.418
0
LINE
8
0
6
CONTINUOUS
62
7
10
265.245
20
173.418
11
264.444
21
173.418
0
LINE
8
0
6
CONTINUOUS
62
7
10
264.444
20
173.418
11
264.444
21
174.018
0
LINE
8
0
6
CONTINUOUS
62
7
10
264.444
20
174.018
11
250.445
21
174.018
0
LINE
8
0
6
CONTINUOUS
62
7
10
269.495
20
174.018
11
269.495
21
173.418
0
LINE
8
0
6
CONTINUOUS
62
7
10
269.495
20
173.418
11
268.695
21
173.418
0
LINE
8
0
6
CONTINUOUS
62
7
10
268.695
20
173.418
11
268.695
21
160.618
0
LINE
8
0
6
CONTINUOUS
62
7
10
268.695
20
160.618
11
269.495
21
160.618
0
LINE
8
0
6
CONTINUOUS
62
7
10
269.495
20
160.618
11
269.495
21
160.018
0
LINE
8
0
6
CONTINUOUS
62
7
10
269.495
20
160.018
11
283.494
21
160.018
0
LINE
8
0
6
CONTINUOUS
62
7
10
283.494
20
160.018
11
283.494
21
160.618
0
LINE
8
0
6
CONTINUOUS
62
7
10
283.494
20
160.618
11
284.295
21
160.618
0
LINE
8
0
6
CONTINUOUS
62
7
10
284.295
20
160.618
11
284.295
21
173.418
0
LINE
8
0
6
CONTINUOUS
62
7
10
284.295
20
173.418
11
283.494
21
173.418
0
LINE
8
0
6
CONTINUOUS
62
7
10
283.494
20
173.418
11
283.494
21
174.018
0
LINE
8
0
6
CONTINUOUS
62
7
10
283.494
20
174.018
11
269.495
21
174.018
0
LINE
8
0
6
CONTINUOUS
62
7
10
317.12
20
174.018
11
317.12
21
173.418
0
LINE
8
0
6
CONTINUOUS
62
7
10
317.12
20
173.418
11
316.32
21
173.418
0
LINE
8
0
6
CONTINUOUS
62
7
10
316.32
20
173.418
11
316.32
21
160.618
0
LINE
8
0
6
CONTINUOUS
62
7
10
316.32
20
160.618
11
317.12
21
160.618
0
LINE
8
0
6
CONTINUOUS
62
7
10
317.12
20
160.618
11
317.12
21
160.018
0
LINE
8
0
6
CONTINUOUS
62
7
10
317.12
20
160.018
11
331.119
21
160.018
0
LINE
8
0
6
CONTINUOUS
62
7
10
331.119
20
160.018
11
331.119
21
160.618
0
LINE
8
0
6
CONTINUOUS
62
7
10
331.119
20
160.618
11
331.92
21
160.618
0
LINE
8
0
6
CONTINUOUS
62
7
10
331.92
20
160.618
11
331.92
21
173.418
0
LINE
8
0
6
CONTINUOUS
62
7
10
331.92
20
173.418
11
331.119
21
173.418
0
LINE
8
0
6
CONTINUOUS
62
7
10
331.119
20
173.418
11
331.119
21
174.018
0
LINE
8
0
6
CONTINUOUS
62
7
10
331.119
20
174.018
11
317.12
21
174.018
0
LINE
8
0
6
CONTINUOUS
62
7
10
336.17
20
174.018
11
336.17
21
173.418
0
LINE
8
0
6
CONTINUOUS
62
7
10
336.17
20
173.418
11
335.37
21
173.418
0
LINE
8
0
6
CONTINUOUS
62
7
10
335.37
20
173.418
11
335.37
21
160.618
0
LINE
8
0
6
CONTINUOUS
62
7
10
335.37
20
160.618
11
336.17
21
160.618
0
LINE
8
0
6
CONTINUOUS
62
7
10
336.17
20
160.618
11
336.17
21
160.018
0
LINE
8
0
6
CONTINUOUS
62
7
10
336.17
20
160.018
11
350.169
21
160.018
0
LINE
8
0
6
CONTINUOUS
62
7
10
350.169
20
160.018
11
350.169
21
160.618
0
LINE
8
0
6
CONTINUOUS
62
7
10
350.169
20
160.618
11
350.97
21
160.618
0
LINE
8
0
6
CONTINUOUS
62
7
10
350.97
20
160.618
11
350.97
21
173.418
0
LINE
8
0
6
CONTINUOUS
62
7
10
350.97
20
173.418
11
350.169
21
173.418
0
LINE
8
0
6
CONTINUOUS
62
7
10
350.169
20
173.418
11
350.169
21
174.018
0
LINE
8
0
6
CONTINUOUS
62
7
10
350.169
20
174.018
11
336.17
21
174.018
0
LINE
8
0
6
CONTINUOUS
62
7
10
355.22
20
174.018
11
355.22
21
173.418
0
LINE
8
0
6
CONTINUOUS
62
7
10
355.22
20
173.418
11
354.42
21
173.418
0
LINE
8
0
6
CONTINUOUS
62
7
10
354.42
20
173.418
11
354.42
21
160.618
0
LINE
8
0
6
CONTINUOUS
62
7
10
354.42
20
160.618
11
355.22
21
160.618
0
LINE
8
0
6
CONTINUOUS
62
7
10
355.22
20
160.618
11
355.22
21
160.018
0
LINE
8
0
6
CONTINUOUS
62
7
10
355.22
20
160.018
11
369.219
21
160.018
0
LINE
8
0
6
CONTINUOUS
62
7
10
369.219
20
160.018
11
369.219
21
160.618
0
LINE
8
0
6
CONTINUOUS
62
7
10
369.219
20
160.618
11
370.02
21
160.618
0
LINE
8
0
6
CONTINUOUS
62
7
10
370.02
20
160.618
11
370.02
21
173.418
0
LINE
8
0
6
CONTINUOUS
62
7
10
370.02
20
173.418
11
369.219
21
173.418
0
LINE
8
0
6
CONTINUOUS
62
7
10
369.219
20
173.418
11
369.219
21
174.018
0
LINE
8
0
6
CONTINUOUS
62
7
10
369.219
20
174.018
11
355.22
21
174.018
0
LINE
8
0
6
CONTINUOUS
62
7
10
279.02
20
193.068
11
279.02
21
192.468
0
LINE
8
0
6
CONTINUOUS
62
7
10
279.02
20
192.468
11
278.22
21
192.468
0
LINE
8
0
6
CONTINUOUS
62
7
10
278.22
20
192.468
11
278.22
21
179.668
0
LINE
8
0
6
CONTINUOUS
62
7
10
278.22
20
179.668
11
279.02
21
179.668
0
LINE
8
0
6
CONTINUOUS
62
7
10
279.02
20
179.668
11
279.02
21
179.068
0
LINE
8
0
6
CONTINUOUS
62
7
10
279.02
20
179.068
11
280.316
21
179.068
0
LINE
8
0
6
CONTINUOUS
62
7
10
373.3
20
103.47
11
373.3
21
116.268
0
LINE
8
0
6
CONTINUOUS
62
7
10
373.3
20
122.518
11
373.3
21
135.32
0
LINE
8
0
6
CONTINUOUS
62
7
10
373.3
20
145.593
11
373.3
21
148.921
0
LINE
8
0
6
CONTINUOUS
62
7
10
286.972
20
179.068
11
304.117
21
179.068
0
LINE
8
0
6
CONTINUOUS
62
7
10
310.773
20
179.068
11
312.069
21
179.068
0
LINE
8
0
6
CONTINUOUS
62
7
10
312.069
20
179.068
11
312.069
21
179.668
0
LINE
8
0
6
CONTINUOUS
62
7
10
312.069
20
179.668
11
312.87
21
179.668
0
LINE
8
0
6
CONTINUOUS
62
7
10
312.87
20
179.668
11
312.87
21
192.468
0
LINE
8
0
6
CONTINUOUS
62
7
10
312.87
20
192.468
11
312.069
21
192.468
0
LINE
8
0
6
CONTINUOUS
62
7
10
312.069
20
192.468
11
312.069
21
193.068
0
LINE
8
0
6
CONTINUOUS
62
7
10
312.069
20
193.068
11
279.02
21
193.068
0
LINE
8
0
6
CONTINUOUS
62
7
10
31.3697
20
193.068
11
31.3697
21
192.468
0
LINE
8
0
6
CONTINUOUS
62
7
10
31.3697
20
192.468
11
30.5704
21
192.468
0
LINE
8
0
6
CONTINUOUS
62
7
10
30.5704
20
192.468
11
30.5704
21
179.668
0
LINE
8
0
6
CONTINUOUS
62
7
10
30.5704
20
179.668
11
31.3697
21
179.668
0
LINE
8
0
6
CONTINUOUS
62
7
10
31.3697
20
179.668
11
31.3697
21
179.068
0
LINE
8
0
6
CONTINUOUS
62
7
10
31.3697
20
179.068
11
45.3692
21
179.068
0
LINE
8
0
6
CONTINUOUS
62
7
10
45.3692
20
179.068
11
45.3692
21
179.668
0
LINE
8
0
6
CONTINUOUS
62
7
10
45.3692
20
179.668
11
46.1698
21
179.668
0
LINE
8
0
6
CONTINUOUS
62
7
10
46.1698
20
179.668
11
46.1698
21
192.468
0
LINE
8
0
6
CONTINUOUS
62
7
10
46.1698
20
192.468
11
45.3692
21
192.468
0
LINE
8
0
6
CONTINUOUS
62
7
10
45.3692
20
192.468
11
45.3692
21
193.068
0
LINE
8
0
6
CONTINUOUS
62
7
10
45.3692
20
193.068
11
31.3697
21
193.068
0
LINE
8
0
6
CONTINUOUS
62
7
10
50.4197
20
193.068
11
50.4197
21
192.468
0
LINE
8
0
6
CONTINUOUS
62
7
10
50.4197
20
192.468
11
49.6204
21
192.468
0
LINE
8
0
6
CONTINUOUS
62
7
10
49.6204
20
192.468
11
49.6204
21
179.668
0
LINE
8
0
6
CONTINUOUS
62
7
10
49.6204
20
179.668
11
50.4197
21
179.668
0
LINE
8
0
6
CONTINUOUS
62
7
10
50.4197
20
179.668
11
50.4197
21
179.068
0
LINE
8
0
6
CONTINUOUS
62
7
10
50.4197
20
179.068
11
64.419
21
179.068
0
LINE
8
0
6
CONTINUOUS
62
7
10
64.419
20
179.068
11
64.419
21
179.668
0
LINE
8
0
6
CONTINUOUS
62
7
10
64.419
20
179.668
11
65.2198
21
179.668
0
LINE
8
0
6
CONTINUOUS
62
7
10
65.2198
20
179.668
11
65.2198
21
192.468
0
LINE
8
0
6
CONTINUOUS
62
7
10
65.2198
20
192.468
11
64.419
21
192.468
0
LINE
8
0
6
CONTINUOUS
62
7
10
64.419
20
192.468
11
64.419
21
193.068
0
LINE
8
0
6
CONTINUOUS
62
7
10
64.419
20
193.068
11
50.4197
21
193.068
0
LINE
8
0
6
CONTINUOUS
62
7
10
69.4697
20
193.068
11
69.4697
21
192.468
0
LINE
8
0
6
CONTINUOUS
62
7
10
69.4697
20
192.468
11
68.6703
21
192.468
0
LINE
8
0
6
CONTINUOUS
62
7
10
68.6703
20
192.468
11
68.6703
21
179.668
0
LINE
8
0
6
CONTINUOUS
62
7
10
68.6703
20
179.668
11
69.4697
21
179.668
0
LINE
8
0
6
CONTINUOUS
62
7
10
69.4697
20
179.668
11
69.4697
21
179.068
0
LINE
8
0
6
CONTINUOUS
62
7
10
69.4697
20
179.068
11
83.469
21
179.068
0
LINE
8
0
6
CONTINUOUS
62
7
10
83.469
20
179.068
11
83.469
21
179.668
0
LINE
8
0
6
CONTINUOUS
62
7
10
83.469
20
179.668
11
84.2698
21
179.668
0
LINE
8
0
6
CONTINUOUS
62
7
10
84.2698
20
179.668
11
84.2698
21
192.468
0
LINE
8
0
6
CONTINUOUS
62
7
10
84.2698
20
192.468
11
83.469
21
192.468
0
LINE
8
0
6
CONTINUOUS
62
7
10
83.469
20
192.468
11
83.469
21
193.068
0
LINE
8
0
6
CONTINUOUS
62
7
10
83.469
20
193.068
11
69.4697
21
193.068
0
LINE
8
0
6
CONTINUOUS
62
7
10
88.5197
20
193.068
11
88.5197
21
192.468
0
LINE
8
0
6
CONTINUOUS
62
7
10
88.5197
20
192.468
11
87.7203
21
192.468
0
LINE
8
0
6
CONTINUOUS
62
7
10
87.7203
20
192.468
11
87.7203
21
179.668
0
LINE
8
0
6
CONTINUOUS
62
7
10
87.7203
20
179.668
11
88.5197
21
179.668
0
LINE
8
0
6
CONTINUOUS
62
7
10
88.5197
20
179.668
11
88.5197
21
179.068
0
LINE
8
0
6
CONTINUOUS
62
7
10
88.5197
20
179.068
11
102.519
21
179.068
0
LINE
8
0
6
CONTINUOUS
62
7
10
102.519
20
179.068
11
102.519
21
179.668
0
LINE
8
0
6
CONTINUOUS
62
7
10
102.519
20
179.668
11
103.32
21
179.668
0
LINE
8
0
6
CONTINUOUS
62
7
10
103.32
20
179.668
11
103.32
21
192.468
0
LINE
8
0
6
CONTINUOUS
62
7
10
103.32
20
192.468
11
102.519
21
192.468
0
LINE
8
0
6
CONTINUOUS
62
7
10
102.519
20
192.468
11
102.519
21
193.068
0
LINE
8
0
6
CONTINUOUS
62
7
10
102.519
20
193.068
11
88.5197
21
193.068
0
LINE
8
0
6
CONTINUOUS
62
7
10
107.57
20
193.068
11
107.57
21
192.468
0
LINE
8
0
6
CONTINUOUS
62
7
10
107.57
20
192.468
11
106.77
21
192.468
0
LINE
8
0
6
CONTINUOUS
62
7
10
106.77
20
192.468
11
106.77
21
179.668
0
LINE
8
0
6
CONTINUOUS
62
7
10
106.77
20
179.668
11
107.57
21
179.668
0
LINE
8
0
6
CONTINUOUS
62
7
10
107.57
20
179.668
11
107.57
21
179.068
0
LINE
8
0
6
CONTINUOUS
62
7
10
107.57
20
179.068
11
121.569
21
179.068
0
LINE
8
0
6
CONTINUOUS
62
7
10
121.569
20
179.068
11
121.569
21
179.668
0
LINE
8
0
6
CONTINUOUS
62
7
10
121.569
20
179.668
11
122.368
21
179.668
0
LINE
8
0
6
CONTINUOUS
62
7
10
122.368
20
179.668
11
122.368
21
192.468
0
LINE
8
0
6
CONTINUOUS
62
7
10
122.368
20
192.468
11
121.569
21
192.468
0
LINE
8
0
6
CONTINUOUS
62
7
10
121.569
20
192.468
11
121.569
21
193.068
0
LINE
8
0
6
CONTINUOUS
62
7
10
121.569
20
193.068
11
107.57
21
193.068
0
LINE
8
0
6
CONTINUOUS
62
7
10
126.618
20
193.068
11
126.618
21
192.468
0
LINE
8
0
6
CONTINUOUS
62
7
10
126.618
20
192.468
11
125.82
21
192.468
0
LINE
8
0
6
CONTINUOUS
62
7
10
125.82
20
192.468
11
125.82
21
179.668
0
LINE
8
0
6
CONTINUOUS
62
7
10
125.82
20
179.668
11
126.618
21
179.668
0
LINE
8
0
6
CONTINUOUS
62
7
10
126.618
20
179.668
11
126.618
21
179.068
0
LINE
8
0
6
CONTINUOUS
62
7
10
126.618
20
179.068
11
140.619
21
179.068
0
LINE
8
0
6
CONTINUOUS
62
7
10
140.619
20
179.068
11
140.619
21
179.668
0
LINE
8
0
6
CONTINUOUS
62
7
10
140.619
20
179.668
11
141.418
21
179.668
0
LINE
8
0
6
CONTINUOUS
62
7
10
141.418
20
179.668
11
141.418
21
192.468
0
LINE
8
0
6
CONTINUOUS
62
7
10
141.418
20
192.468
11
140.619
21
192.468
0
LINE
8
0
6
CONTINUOUS
62
7
10
140.619
20
192.468
11
140.619
21
193.068
0
LINE
8
0
6
CONTINUOUS
62
7
10
140.619
20
193.068
11
126.618
21
193.068
0
LINE
8
0
6
CONTINUOUS
62
7
10
145.668
20
193.068
11
145.668
21
192.468
0
LINE
8
0
6
CONTINUOUS
62
7
10
145.668
20
192.468
11
144.869
21
192.468
0
LINE
8
0
6
CONTINUOUS
62
7
10
144.869
20
192.468
11
144.869
21
179.668
0
LINE
8
0
6
CONTINUOUS
62
7
10
144.869
20
179.668
11
145.668
21
179.668
0
LINE
8
0
6
CONTINUOUS
62
7
10
145.668
20
179.668
11
145.668
21
179.068
0
LINE
8
0
6
CONTINUOUS
62
7
10
145.668
20
179.068
11
159.669
21
179.068
0
LINE
8
0
6
CONTINUOUS
62
7
10
159.669
20
179.068
11
159.669
21
179.668
0
LINE
8
0
6
CONTINUOUS
62
7
10
159.669
20
179.668
11
160.47
21
179.668
0
LINE
8
0
6
CONTINUOUS
62
7
10
160.47
20
179.668
11
160.47
21
192.468
0
LINE
8
0
6
CONTINUOUS
62
7
10
160.47
20
192.468
11
159.669
21
192.468
0
LINE
8
0
6
CONTINUOUS
62
7
10
159.669
20
192.468
11
159.669
21
193.068
0
LINE
8
0
6
CONTINUOUS
62
7
10
159.669
20
193.068
11
145.668
21
193.068
0
LINE
8
0
6
CONTINUOUS
62
7
10
164.72
20
193.068
11
164.72
21
192.468
0
LINE
8
0
6
CONTINUOUS
62
7
10
164.72
20
192.468
11
163.92
21
192.468
0
LINE
8
0
6
CONTINUOUS
62
7
10
163.92
20
192.468
11
163.92
21
179.668
0
LINE
8
0
6
CONTINUOUS
62
7
10
163.92
20
179.668
11
164.72
21
179.668
0
LINE
8
0
6
CONTINUOUS
62
7
10
164.72
20
179.668
11
164.72
21
179.068
0
LINE
8
0
6
CONTINUOUS
62
7
10
164.72
20
179.068
11
178.719
21
179.068
0
LINE
8
0
6
CONTINUOUS
62
7
10
178.719
20
179.068
11
178.719
21
179.668
0
LINE
8
0
6
CONTINUOUS
62
7
10
178.719
20
179.668
11
179.52
21
179.668
0
LINE
8
0
6
CONTINUOUS
62
7
10
179.52
20
179.668
11
179.52
21
192.468
0
LINE
8
0
6
CONTINUOUS
62
7
10
179.52
20
192.468
11
178.719
21
192.468
0
LINE
8
0
6
CONTINUOUS
62
7
10
178.719
20
192.468
11
178.719
21
193.068
0
LINE
8
0
6
CONTINUOUS
62
7
10
178.719
20
193.068
11
164.72
21
193.068
0
LINE
8
0
6
CONTINUOUS
62
7
10
183.77
20
193.068
11
183.77
21
192.468
0
LINE
8
0
6
CONTINUOUS
62
7
10
183.77
20
192.468
11
182.97
21
192.468
0
LINE
8
0
6
CONTINUOUS
62
7
10
182.97
20
192.468
11
182.97
21
179.668
0
LINE
8
0
6
CONTINUOUS
62
7
10
182.97
20
179.668
11
183.77
21
179.668
0
LINE
8
0
6
CONTINUOUS
62
7
10
183.77
20
179.668
11
183.77
21
179.068
0
LINE
8
0
6
CONTINUOUS
62
7
10
183.77
20
179.068
11
197.769
21
179.068
0
LINE
8
0
6
CONTINUOUS
62
7
10
197.769
20
179.068
11
197.769
21
179.668
0
LINE
8
0
6
CONTINUOUS
62
7
10
197.769
20
179.668
11
198.57
21
179.668
0
LINE
8
0
6
CONTINUOUS
62
7
10
198.57
20
179.668
11
198.57
21
192.468
0
LINE
8
0
6
CONTINUOUS
62
7
10
198.57
20
192.468
11
197.769
21
192.468
0
LINE
8
0
6
CONTINUOUS
62
7
10
197.769
20
192.468
11
197.769
21
193.068
0
LINE
8
0
6
CONTINUOUS
62
7
10
197.769
20
193.068
11
183.77
21
193.068
0
LINE
8
0
6
CONTINUOUS
62
7
10
202.82
20
193.068
11
202.82
21
192.468
0
LINE
8
0
6
CONTINUOUS
62
7
10
202.82
20
192.468
11
202.02
21
192.468
0
LINE
8
0
6
CONTINUOUS
62
7
10
202.02
20
192.468
11
202.02
21
179.668
0
LINE
8
0
6
CONTINUOUS
62
7
10
202.02
20
179.668
11
202.82
21
179.668
0
LINE
8
0
6
CONTINUOUS
62
7
10
202.82
20
179.668
11
202.82
21
179.068
0
LINE
8
0
6
CONTINUOUS
62
7
10
202.82
20
179.068
11
216.819
21
179.068
0
LINE
8
0
6
CONTINUOUS
62
7
10
216.819
20
179.068
11
216.819
21
179.668
0
LINE
8
0
6
CONTINUOUS
62
7
10
216.819
20
179.668
11
217.62
21
179.668
0
LINE
8
0
6
CONTINUOUS
62
7
10
217.62
20
179.668
11
217.62
21
192.468
0
LINE
8
0
6
CONTINUOUS
62
7
10
217.62
20
192.468
11
216.819
21
192.468
0
LINE
8
0
6
CONTINUOUS
62
7
10
216.819
20
192.468
11
216.819
21
193.068
0
LINE
8
0
6
CONTINUOUS
62
7
10
216.819
20
193.068
11
202.82
21
193.068
0
LINE
8
0
6
CONTINUOUS
62
7
10
221.87
20
193.068
11
221.87
21
192.468
0
LINE
8
0
6
CONTINUOUS
62
7
10
221.87
20
192.468
11
221.07
21
192.468
0
LINE
8
0
6
CONTINUOUS
62
7
10
221.07
20
192.468
11
221.07
21
179.668
0
LINE
8
0
6
CONTINUOUS
62
7
10
221.07
20
179.668
11
221.87
21
179.668
0
LINE
8
0
6
CONTINUOUS
62
7
10
221.87
20
179.668
11
221.87
21
179.068
0
LINE
8
0
6
CONTINUOUS
62
7
10
221.87
20
179.068
11
235.869
21
179.068
0
LINE
8
0
6
CONTINUOUS
62
7
10
235.869
20
179.068
11
235.869
21
179.668
0
LINE
8
0
6
CONTINUOUS
62
7
10
235.869
20
179.668
11
236.67
21
179.668
0
LINE
8
0
6
CONTINUOUS
62
7
10
236.67
20
179.668
11
236.67
21
192.468
0
LINE
8
0
6
CONTINUOUS
62
7
10
236.67
20
192.468
11
235.869
21
192.468
0
LINE
8
0
6
CONTINUOUS
62
7
10
235.869
20
192.468
11
235.869
21
193.068
0
LINE
8
0
6
CONTINUOUS
62
7
10
235.869
20
193.068
11
221.87
21
193.068
0
LINE
8
0
6
CONTINUOUS
62
7
10
240.92
20
193.068
11
240.92
21
192.468
0
LINE
8
0
6
CONTINUOUS
62
7
10
240.92
20
192.468
11
240.12
21
192.468
0
LINE
8
0
6
CONTINUOUS
62
7
10
240.12
20
192.468
11
240.12
21
179.668
0
LINE
8
0
6
CONTINUOUS
62
7
10
240.12
20
179.668
11
240.92
21
179.668
0
LINE
8
0
6
CONTINUOUS
62
7
10
240.92
20
179.668
11
240.92
21
179.068
0
LINE
8
0
6
CONTINUOUS
62
7
10
240.92
20
179.068
11
254.919
21
179.068
0
LINE
8
0
6
CONTINUOUS
62
7
10
254.919
20
179.068
11
254.919
21
179.668
0
LINE
8
0
6
CONTINUOUS
62
7
10
254.919
20
179.668
11
255.72
21
179.668
0
LINE
8
0
6
CONTINUOUS
62
7
10
255.72
20
179.668
11
255.72
21
192.468
0
LINE
8
0
6
CONTINUOUS
62
7
10
255.72
20
192.468
11
254.919
21
192.468
0
LINE
8
0
6
CONTINUOUS
62
7
10
254.919
20
192.468
11
254.919
21
193.068
0
LINE
8
0
6
CONTINUOUS
62
7
10
254.919
20
193.068
11
240.92
21
193.068
0
LINE
8
0
6
CONTINUOUS
62
7
10
259.97
20
193.068
11
259.97
21
192.468
0
LINE
8
0
6
CONTINUOUS
62
7
10
259.97
20
192.468
11
259.17
21
192.468
0
LINE
8
0
6
CONTINUOUS
62
7
10
259.17
20
192.468
11
259.17
21
179.668
0
LINE
8
0
6
CONTINUOUS
62
7
10
259.17
20
179.668
11
259.97
21
179.668
0
LINE
8
0
6
CONTINUOUS
62
7
10
259.97
20
179.668
11
259.97
21
179.068
0
LINE
8
0
6
CONTINUOUS
62
7
10
259.97
20
179.068
11
273.969
21
179.068
0
LINE
8
0
6
CONTINUOUS
62
7
10
273.969
20
179.068
11
273.969
21
179.668
0
LINE
8
0
6
CONTINUOUS
62
7
10
273.969
20
179.668
11
274.77
21
179.668
0
LINE
8
0
6
CONTINUOUS
62
7
10
274.77
20
179.668
11
274.77
21
192.468
0
LINE
8
0
6
CONTINUOUS
62
7
10
274.77
20
192.468
11
273.969
21
192.468
0
LINE
8
0
6
CONTINUOUS
62
7
10
273.969
20
192.468
11
273.969
21
193.068
0
LINE
8
0
6
CONTINUOUS
62
7
10
273.969
20
193.068
11
259.97
21
193.068
0
LINE
8
0
6
CONTINUOUS
62
7
10
317.12
20
193.068
11
317.12
21
192.468
0
LINE
8
0
6
CONTINUOUS
62
7
10
317.12
20
192.468
11
316.32
21
192.468
0
LINE
8
0
6
CONTINUOUS
62
7
10
316.32
20
192.468
11
316.32
21
179.668
0
LINE
8
0
6
CONTINUOUS
62
7
10
316.32
20
179.668
11
317.12
21
179.668
0
LINE
8
0
6
CONTINUOUS
62
7
10
317.12
20
179.668
11
317.12
21
179.068
0
LINE
8
0
6
CONTINUOUS
62
7
10
317.12
20
179.068
11
331.119
21
179.068
0
LINE
8
0
6
CONTINUOUS
62
7
10
331.119
20
179.068
11
331.119
21
179.668
0
LINE
8
0
6
CONTINUOUS
62
7
10
331.119
20
179.668
11
331.92
21
179.668
0
LINE
8
0
6
CONTINUOUS
62
7
10
331.92
20
179.668
11
331.92
21
192.468
0
LINE
8
0
6
CONTINUOUS
62
7
10
331.92
20
192.468
11
331.119
21
192.468
0
LINE
8
0
6
CONTINUOUS
62
7
10
331.119
20
192.468
11
331.119
21
193.068
0
LINE
8
0
6
CONTINUOUS
62
7
10
331.119
20
193.068
11
317.12
21
193.068
0
LINE
8
0
6
CONTINUOUS
62
7
10
336.17
20
193.068
11
336.17
21
192.468
0
LINE
8
0
6
CONTINUOUS
62
7
10
336.17
20
192.468
11
335.37
21
192.468
0
LINE
8
0
6
CONTINUOUS
62
7
10
335.37
20
192.468
11
335.37
21
179.668
0
LINE
8
0
6
CONTINUOUS
62
7
10
335.37
20
179.668
11
336.17
21
179.668
0
LINE
8
0
6
CONTINUOUS
62
7
10
336.17
20
179.668
11
336.17
21
179.068
0
LINE
8
0
6
CONTINUOUS
62
7
10
336.17
20
179.068
11
350.169
21
179.068
0
LINE
8
0
6
CONTINUOUS
62
7
10
350.169
20
179.068
11
350.169
21
179.668
0
LINE
8
0
6
CONTINUOUS
62
7
10
350.169
20
179.668
11
350.97
21
179.668
0
LINE
8
0
6
CONTINUOUS
62
7
10
350.97
20
179.668
11
350.97
21
192.468
0
LINE
8
0
6
CONTINUOUS
62
7
10
350.97
20
192.468
11
350.169
21
192.468
0
LINE
8
0
6
CONTINUOUS
62
7
10
350.169
20
192.468
11
350.169
21
193.068
0
LINE
8
0
6
CONTINUOUS
62
7
10
350.169
20
193.068
11
336.17
21
193.068
0
LINE
8
0
6
CONTINUOUS
62
7
10
355.22
20
193.068
11
355.22
21
192.468
0
LINE
8
0
6
CONTINUOUS
62
7
10
355.22
20
192.468
11
354.42
21
192.468
0
LINE
8
0
6
CONTINUOUS
62
7
10
354.42
20
192.468
11
354.42
21
179.668
0
LINE
8
0
6
CONTINUOUS
62
7
10
354.42
20
179.668
11
355.22
21
179.668
0
LINE
8
0
6
CONTINUOUS
62
7
10
355.22
20
179.668
11
355.22
21
179.068
0
LINE
8
0
6
CONTINUOUS
62
7
10
355.22
20
179.068
11
369.219
21
179.068
0
LINE
8
0
6
CONTINUOUS
62
7
10
369.219
20
179.068
11
369.219
21
179.668
0
LINE
8
0
6
CONTINUOUS
62
7
10
369.219
20
179.668
11
370.02
21
179.668
0
LINE
8
0
6
CONTINUOUS
62
7
10
370.02
20
179.668
11
370.02
21
192.468
0
LINE
8
0
6
CONTINUOUS
62
7
10
370.02
20
192.468
11
369.219
21
192.468
0
LINE
8
0
6
CONTINUOUS
62
7
10
369.219
20
192.468
11
369.219
21
193.068
0
LINE
8
0
6
CONTINUOUS
62
7
10
369.219
20
193.068
11
355.22
21
193.068
0
LINE
8
0
6
CONTINUOUS
62
7
10
374.27
20
193.068
11
374.27
21
192.468
0
LINE
8
0
6
CONTINUOUS
62
7
10
374.27
20
192.468
11
373.47
21
192.468
0
LINE
8
0
6
CONTINUOUS
62
7
10
373.47
20
192.468
11
373.47
21
179.668
0
LINE
8
0
6
CONTINUOUS
62
7
10
373.47
20
179.668
11
374.27
21
179.668
0
LINE
8
0
6
CONTINUOUS
62
7
10
374.27
20
179.668
11
374.27
21
179.068
0
LINE
8
0
6
CONTINUOUS
62
7
10
374.27
20
179.068
11
388.269
21
179.068
0
LINE
8
0
6
CONTINUOUS
62
7
10
388.269
20
179.068
11
388.269
21
179.668
0
LINE
8
0
6
CONTINUOUS
62
7
10
388.269
20
179.668
11
389.07
21
179.668
0
LINE
8
0
6
CONTINUOUS
62
7
10
389.07
20
179.668
11
389.07
21
192.468
0
LINE
8
0
6
CONTINUOUS
62
7
10
389.07
20
192.468
11
388.269
21
192.468
0
LINE
8
0
6
CONTINUOUS
62
7
10
388.269
20
192.468
11
388.269
21
193.068
0
LINE
8
0
6
CONTINUOUS
62
7
10
388.269
20
193.068
11
374.27
21
193.068
0
LINE
8
0
6
CONTINUOUS
62
7
10
38.3756
20
120.898
11
35.0476
21
120.898
0
LINE
8
0
6
CONTINUOUS
62
7
10
38.3756
20
120.898
11
41.7036
21
120.898
0
LINE
8
0
6
CONTINUOUS
62
7
10
62.1757
20
120.898
11
58.8477
21
120.898
0
LINE
8
0
6
CONTINUOUS
62
7
10
62.1757
20
120.898
11
65.5037
21
120.898
0
LINE
8
0
6
CONTINUOUS
62
7
10
95.5187
20
101.898
11
92.1907
21
101.898
0
LINE
8
0
6
CONTINUOUS
62
7
10
95.5187
20
101.898
11
98.8466
21
101.898
0
LINE
8
0
6
CONTINUOUS
62
7
10
41.7036
20
120.898
11
41.7036
21
121.918
0
LINE
8
0
6
CONTINUOUS
62
7
10
92.1907
20
101.898
11
92.1907
21
102.868
0
LINE
8
0
6
CONTINUOUS
62
7
10
98.8466
20
101.898
11
98.8452
21
103.098
0
LINE
8
0
6
CONTINUOUS
62
7
10
280.316
20
178.098
11
280.316
21
179.068
0
LINE
8
0
6
CONTINUOUS
62
7
10
286.972
20
178.098
11
286.972
21
179.068
0
LINE
8
0
6
CONTINUOUS
62
7
10
304.117
20
178.098
11
304.117
21
179.068
0
LINE
8
0
6
CONTINUOUS
62
7
10
310.773
20
178.098
11
310.773
21
179.068
0
LINE
8
0
6
CONTINUOUS
62
7
10
35.25
20
204
11
45.25
21
204
0
LINE
8
0
6
CONTINUOUS
62
7
10
111.5
20
204
11
121.5
21
204
0
LINE
8
0
6
CONTINUOUS
62
7
10
204.75
20
204
11
214.75
21
204
0
LINE
8
0
6
CONTINUOUS
62
7
10
298
20
204
11
308
21
204
0
LINE
8
0
6
CONTINUOUS
62
7
10
374.25
20
204
11
384.25
21
204
0
LINE
8
0
6
CONTINUOUS
62
7
10
384.25
20
92
11
374.25
21
92
0
LINE
8
0
6
CONTINUOUS
62
7
10
308
20
92
11
298
21
92
0
LINE
8
0
6
CONTINUOUS
62
7
10
214.75
20
92
11
204.75
21
92
0
LINE
8
0
6
CONTINUOUS
62
7
10
121.5
20
92
11
111.5
21
92
0
LINE
8
0
6
CONTINUOUS
62
7
10
45.25
20
92
11
35.25
21
92
0
LINE
8
0
6
CONTINUOUS
62
7
10
201.25
20
200.5
11
204.75
21
204
0
LINE
8
0
6
CONTINUOUS
62
7
10
214.75
20
204
11
218.25
21
200.5
0
LINE
8
0
6
CONTINUOUS
62
7
10
45.25
20
204
11
48.75
21
200.5
0
LINE
8
0
6
CONTINUOUS
62
7
10
374.25
20
204
11
370.75
21
200.5
0
LINE
8
0
6
CONTINUOUS
62
7
10
45.25
20
92
11
48.75
21
95.5
0
LINE
8
0
6
CONTINUOUS
62
7
10
301.735
20
139.998
11
301.737
21
140.968
0
LINE
8
0
6
CONTINUOUS
62
7
10
201.25
20
95.5
11
204.75
21
92
0
LINE
8
0
6
CONTINUOUS
62
7
10
214.75
20
92
11
218.25
21
95.5
0
LINE
8
0
6
CONTINUOUS
62
7
10
370.75
20
95.5
11
374.25
21
92
0
LINE
8
0
6
CONTINUOUS
62
7
10
311.5
20
95.5
11
308
21
92
0
LINE
8
0
6
CONTINUOUS
62
7
10
294.5
20
95.5
11
298
21
92
0
LINE
8
0
6
CONTINUOUS
62
7
10
308.39
20
139.998
11
308.388
21
141.198
0
LINE
8
0
6
CONTINUOUS
62
7
10
108
20
95.5
11
111.5
21
92
0
LINE
8
0
6
CONTINUOUS
62
7
10
121.5
20
92
11
125
21
95.5
0
LINE
8
0
6
CONTINUOUS
62
7
10
298
20
204
11
294.5
21
200.5
0
LINE
8
0
6
CONTINUOUS
62
7
10
308
20
204
11
311.5
21
200.5
0
LINE
8
0
6
CONTINUOUS
62
7
10
108
20
200.5
11
111.5
21
204
0
LINE
8
0
6
CONTINUOUS
62
7
10
121.5
20
204
11
125
21
200.5
0
LINE
8
0
6
CONTINUOUS
62
7
10
300.163
20
140.968
11
301.737
21
140.968
0
LINE
8
0
6
CONTINUOUS
62
7
10
277.933
20
139.998
11
277.933
21
140.968
0
LINE
8
0
6
CONTINUOUS
62
7
10
284.589
20
139.998
11
284.589
21
140.968
0
LINE
8
0
6
CONTINUOUS
62
7
10
273.173
20
120.948
11
273.173
21
121.918
0
LINE
8
0
6
CONTINUOUS
62
7
10
279.828
20
120.948
11
279.828
21
121.918
0
LINE
8
0
6
CONTINUOUS
62
7
10
296.973
20
120.948
11
296.973
21
121.918
0
LINE
8
0
6
CONTINUOUS
62
7
10
303.628
20
120.948
11
303.628
21
121.918
0
LINE
8
0
6
CONTINUOUS
62
7
10
318.417
20
101.898
11
318.417
21
102.868
0
LINE
8
0
6
CONTINUOUS
62
7
10
325.073
20
101.898
11
325.073
21
102.868
0
LINE
8
0
6
CONTINUOUS
62
7
10
342.217
20
101.898
11
342.217
21
102.868
0
LINE
8
0
6
CONTINUOUS
62
7
10
348.873
20
101.898
11
348.873
21
102.868
0
ENDSEC
0
EOF
