0
SECTION
2
HEADER
9
$ANGDIR
70
0
9
$CHAMFERA
40
10
9
$CHAMFERB
40
10
9
$CLAYER
8
Layer_1
9
$EXTMAX
10
394.398
20
218
9
$EXTMIN
10
25.1005
20
106
9
$LIMMAX
10
420
20
297
9
$LIMMIN
10
0
20
0
9
$LTSCALE
40
10
9
$PLINEGEN
70
0
9
$TEXTSIZE
40
20
9
$GRIDUNIT
10
10
20
10
9
$SNAPUNIT
10
1
20
1
0
ENDSEC
0
SECTION
2
TABLES
0
TABLE
2
STYLE
70
1
0
STYLE
2
STANDARD
70
0
40
0
41
1
50
0
71
0
42
0.2
3
txt
4

0
ENDTAB
0
TABLE
2
LTYPE
70
14
0
LTYPE
2
CONTINUOUS
70
0
3
Solid line
72
65
73
0
40
0
0
LTYPE
2
DOT
70
0
3
............................................
72
65
73
2
40
0.25
49
0
49
-0.25
0
LTYPE
2
HIDDEN
70
0
3
_ _ _ _ _ _ _ _ _ _ _ _ _ _ _ _ _ _ _ _ _ _ 
72
65
73
2
40
0.375
49
0.25
49
-0.125
0
LTYPE
2
TSLONGDASH
70
0
3
__ __ __ __ __ __ __ __ __ __ __ __ __ __ _ 
72
65
73
2
40
1.28
49
1
49
-0.28
0
LTYPE
2
TSDASHDOT
70
0
3
______ . ______ . ______ . ______ . ______ .
72
65
73
4
40
1.28
49
1
49
-0.14
49
0
49
-0.14
0
LTYPE
2
TSCENTER
70
0
3
______ _ ______ _ ______ _ ______ _ ______ _
72
65
73
4
40
2
49
1.5
49
-0.18
49
0.14
49
-0.18
0
LTYPE
2
TSPHANTOM
70
0
3
_____ _ _ _____ _ _ _____ _ _ _____ _ _ ____
72
65
73
6
40
2.5
49
1.63
49
-0.19
49
0.15
49
-0.19
49
0.15
49
-0.19
0
LTYPE
2
DASHED
70
0
3
__ __ __ __ __ __ __ __ __ __ __ __ __ __ __
72
65
73
2
40
0.75
49
0.5
49
-0.25
0
LTYPE
2
CENTER
70
0
3
____ _ ____ _ ____ _ ____ _ ____ _ ____ _ __
72
65
73
4
40
2
49
1.25
49
-0.25
49
0.25
49
-0.25
0
LTYPE
2
PHANTOM
70
0
3
_____ _ _ _____ _ _ _____ _ _ _____ _ _ ____
72
65
73
6
40
2.5
49
1.25
49
-0.25
49
0.25
49
-0.25
49
0.25
49
-0.25
0
LTYPE
2
DASHDOT
70
0
3
__ . __ . __ . __ . __ . __ . __ . __ . __ .
72
65
73
4
40
1
49
0.5
49
-0.25
49
0
49
-0.25
0
LTYPE
2
BORDER
70
0
3
__ __ . __ __ . __ __ . __ __ . __ __ . __ _
72
65
73
6
40
1.75
49
0.5
49
-0.25
49
0.5
49
-0.25
49
0
49
-0.25
0
LTYPE
2
DIVIDE
70
0
3
__ . . __ . . __ . . __ . . __ . . __ . . __
72
65
73
6
40
1.25
49
0.5
49
-0.25
49
0
49
-0.25
49
0
49
-0.25
0
ENDTAB
0
TABLE
2
LAYER
70
4
0
LAYER
2
Layer_1
70
0
62
7
6
CONTINUOUS
0
LAYER
2
Layer_2
70
0
62
7
6
CONTINUOUS
0
LAYER
2
Layer_3
70
0
62
7
6
CONTINUOUS
0
LAYER
2
0
70
0
62
7
6
CONTINUOUS
0
ENDTAB
0
ENDSEC
0
SECTION
2
ENTITIES
0
CIRCLE
8
0
6
CONTINUOUS
62
7
10
116.5
20
214.5
40
1.3
0
CIRCLE
8
0
6
CONTINUOUS
62
7
10
209.75
20
214.5
40
1.3
0
CIRCLE
8
0
6
CONTINUOUS
62
7
10
303
20
214.5
40
1.3
0
CIRCLE
8
0
6
CONTINUOUS
62
7
10
379.75
20
214.5
40
1.3
0
CIRCLE
8
0
6
CONTINUOUS
62
7
10
379.25
20
109.5
40
1.3
0
CIRCLE
8
0
6
CONTINUOUS
62
7
10
303
20
109.5
40
1.3
0
CIRCLE
8
0
6
CONTINUOUS
62
7
10
209.75
20
109.5
40
1.3
0
CIRCLE
8
0
6
CONTINUOUS
62
7
10
116.5
20
109.5
40
1.3
0
CIRCLE
8
0
6
CONTINUOUS
62
7
10
40.25
20
214.5
40
1.3
0
CIRCLE
8
0
6
CONTINUOUS
62
7
10
40.25
20
109.5
40
1.3
0
LINE
8
0
6
CONTINUOUS
62
7
10
48.75
20
109.5
11
50.1642
21
110.914
0
LINE
8
0
6
CONTINUOUS
62
7
10
108
20
109.5
11
106.586
21
110.914
0
LINE
8
0
6
CONTINUOUS
62
7
10
35.25
20
106
11
35
21
106
0
LINE
8
0
6
CONTINUOUS
62
7
10
35.25
20
218
11
35
21
218
0
LINE
8
0
6
CONTINUOUS
62
7
10
35
20
218
11
25.1005
21
208.101
0
LINE
8
0
6
CONTINUOUS
62
7
10
370.75
20
109.5
11
369.336
21
110.914
0
LINE
8
0
6
CONTINUOUS
62
7
10
35
20
106
11
25.1005
21
115.899
0
LINE
8
0
6
CONTINUOUS
62
7
10
125
20
109.5
11
126.414
21
110.914
0
LINE
8
0
6
CONTINUOUS
62
7
10
201.25
20
109.5
11
199.836
21
110.914
0
LINE
8
0
6
CONTINUOUS
62
7
10
218.25
20
109.5
11
219.664
21
110.914
0
LINE
8
0
6
CONTINUOUS
62
7
10
25.1005
20
208.101
11
25.1005
21
115.899
0
LINE
8
0
6
CONTINUOUS
62
7
10
294.5
20
109.5
11
293.086
21
110.914
0
LINE
8
0
6
CONTINUOUS
62
7
10
384.25
20
106
11
384.5
21
106
0
LINE
8
0
6
CONTINUOUS
62
7
10
384.5
20
106
11
394.398
21
115.898
0
LINE
8
0
6
CONTINUOUS
62
7
10
384.25
20
218
11
384.5
21
218
0
LINE
8
0
6
CONTINUOUS
62
7
10
384.5
20
218
11
394.398
21
208.102
0
LINE
8
0
6
CONTINUOUS
62
7
10
394.398
20
208.102
11
394.398
21
115.898
0
LINE
8
0
6
CONTINUOUS
62
7
10
311.5
20
109.5
11
312.914
21
110.914
0
LINE
8
0
6
CONTINUOUS
62
7
10
312.914
20
213.086
11
369.336
21
213.086
0
LINE
8
0
6
CONTINUOUS
62
7
10
219.664
20
213.086
11
293.086
21
213.086
0
LINE
8
0
6
CONTINUOUS
62
7
10
294.5
20
214.5
11
293.086
21
213.086
0
LINE
8
0
6
CONTINUOUS
62
7
10
50.1642
20
110.914
11
106.586
21
110.914
0
LINE
8
0
6
CONTINUOUS
62
7
10
48.75
20
214.5
11
50.1642
21
213.086
0
LINE
8
0
6
CONTINUOUS
62
7
10
108
20
214.5
11
106.586
21
213.086
0
LINE
8
0
6
CONTINUOUS
62
7
10
125
20
214.5
11
126.414
21
213.086
0
LINE
8
0
6
CONTINUOUS
62
7
10
201.25
20
214.5
11
199.836
21
213.086
0
LINE
8
0
6
CONTINUOUS
62
7
10
218.25
20
214.5
11
219.664
21
213.086
0
LINE
8
0
6
CONTINUOUS
62
7
10
126.414
20
110.914
11
199.836
21
110.914
0
LINE
8
0
6
CONTINUOUS
62
7
10
311.5
20
214.5
11
312.914
21
213.086
0
LINE
8
0
6
CONTINUOUS
62
7
10
370.75
20
214.5
11
369.336
21
213.086
0
LINE
8
0
6
CONTINUOUS
62
7
10
219.664
20
110.914
11
293.086
21
110.914
0
LINE
8
0
6
CONTINUOUS
62
7
10
312.914
20
110.914
11
369.336
21
110.914
0
LINE
8
0
6
CONTINUOUS
62
7
10
50.1642
20
213.086
11
106.586
21
213.086
0
LINE
8
0
6
CONTINUOUS
62
7
10
126.414
20
213.086
11
199.836
21
213.086
0
LINE
8
0
6
CONTINUOUS
62
7
10
35.25
20
218
11
45.25
21
218
0
LINE
8
0
6
CONTINUOUS
62
7
10
111.5
20
218
11
121.5
21
218
0
LINE
8
0
6
CONTINUOUS
62
7
10
204.75
20
218
11
214.75
21
218
0
LINE
8
0
6
CONTINUOUS
62
7
10
298
20
218
11
308
21
218
0
LINE
8
0
6
CONTINUOUS
62
7
10
374.25
20
218
11
384.25
21
218
0
LINE
8
0
6
CONTINUOUS
62
7
10
384.25
20
106
11
374.25
21
106
0
LINE
8
0
6
CONTINUOUS
62
7
10
308
20
106
11
298
21
106
0
LINE
8
0
6
CONTINUOUS
62
7
10
214.75
20
106
11
204.75
21
106
0
LINE
8
0
6
CONTINUOUS
62
7
10
121.5
20
106
11
111.5
21
106
0
LINE
8
0
6
CONTINUOUS
62
7
10
45.25
20
106
11
35.25
21
106
0
LINE
8
0
6
CONTINUOUS
62
7
10
201.25
20
214.5
11
204.75
21
218
0
LINE
8
0
6
CONTINUOUS
62
7
10
214.75
20
218
11
218.25
21
214.5
0
LINE
8
0
6
CONTINUOUS
62
7
10
45.25
20
218
11
48.75
21
214.5
0
LINE
8
0
6
CONTINUOUS
62
7
10
374.25
20
218
11
370.75
21
214.5
0
LINE
8
0
6
CONTINUOUS
62
7
10
45.25
20
106
11
48.75
21
109.5
0
LINE
8
0
6
CONTINUOUS
62
7
10
201.25
20
109.5
11
204.75
21
106
0
LINE
8
0
6
CONTINUOUS
62
7
10
214.75
20
106
11
218.25
21
109.5
0
LINE
8
0
6
CONTINUOUS
62
7
10
370.75
20
109.5
11
374.25
21
106
0
LINE
8
0
6
CONTINUOUS
62
7
10
311.5
20
109.5
11
308
21
106
0
LINE
8
0
6
CONTINUOUS
62
7
10
294.5
20
109.5
11
298
21
106
0
LINE
8
0
6
CONTINUOUS
62
7
10
108
20
109.5
11
111.5
21
106
0
LINE
8
0
6
CONTINUOUS
62
7
10
121.5
20
106
11
125
21
109.5
0
LINE
8
0
6
CONTINUOUS
62
7
10
298
20
218
11
294.5
21
214.5
0
LINE
8
0
6
CONTINUOUS
62
7
10
308
20
218
11
311.5
21
214.5
0
LINE
8
0
6
CONTINUOUS
62
7
10
108
20
214.5
11
111.5
21
218
0
LINE
8
0
6
CONTINUOUS
62
7
10
121.5
20
218
11
125
21
214.5
0
LINE
8
0
6
CONTINUOUS
62
7
10
164.72
20
130.868
11
164.72
21
130.268
0
LINE
8
0
6
CONTINUOUS
62
7
10
164.72
20
130.268
11
163.92
21
130.268
0
LINE
8
0
6
CONTINUOUS
62
7
10
163.92
20
130.268
11
163.92
21
126.167
0
LINE
8
0
6
CONTINUOUS
62
7
10
163.92
20
126.167
11
117.945
21
126.167
0
LINE
8
0
6
CONTINUOUS
62
7
10
117.945
20
126.167
11
117.945
21
129.397
0
LINE
8
0
6
CONTINUOUS
62
7
10
117.945
20
129.397
11
111.195
21
129.397
0
LINE
8
0
6
CONTINUOUS
62
7
10
111.195
20
129.397
11
111.195
21
126.167
0
LINE
8
0
6
CONTINUOUS
62
7
10
111.195
20
126.167
11
110.37
21
126.167
0
LINE
8
0
6
CONTINUOUS
62
7
10
110.37
20
126.167
11
110.37
21
123.367
0
LINE
8
0
6
CONTINUOUS
62
7
10
110.37
20
123.367
11
111.195
21
123.367
0
LINE
8
0
6
CONTINUOUS
62
7
10
111.195
20
123.367
11
111.195
21
117.097
0
LINE
8
0
6
CONTINUOUS
62
7
10
111.195
20
117.097
11
112.919
21
117.097
0
LINE
8
0
6
CONTINUOUS
62
7
10
112.919
20
117.097
11
112.919
21
115.898
0
LINE
8
0
6
CONTINUOUS
62
7
10
112.919
20
115.898
11
116.22
21
115.898
0
LINE
8
0
6
CONTINUOUS
62
7
10
116.22
20
115.898
11
116.22
21
117.097
0
LINE
8
0
6
CONTINUOUS
62
7
10
116.22
20
117.097
11
117.945
21
117.097
0
LINE
8
0
6
CONTINUOUS
62
7
10
117.945
20
117.097
11
117.945
21
121.567
0
LINE
8
0
6
CONTINUOUS
62
7
10
117.945
20
121.567
11
163.92
21
121.567
0
LINE
8
0
6
CONTINUOUS
62
7
10
163.92
20
121.567
11
163.92
21
117.468
0
LINE
8
0
6
CONTINUOUS
62
7
10
163.92
20
117.468
11
164.72
21
117.468
0
LINE
8
0
6
CONTINUOUS
62
7
10
164.72
20
117.468
11
164.72
21
116.868
0
LINE
8
0
6
CONTINUOUS
62
7
10
164.72
20
116.868
11
178.719
21
116.868
0
LINE
8
0
6
CONTINUOUS
62
7
10
178.719
20
116.868
11
178.719
21
117.468
0
LINE
8
0
6
CONTINUOUS
62
7
10
178.719
20
117.468
11
179.52
21
117.468
0
LINE
8
0
6
CONTINUOUS
62
7
10
179.52
20
117.468
11
179.52
21
121.567
0
LINE
8
0
6
CONTINUOUS
62
7
10
179.52
20
121.567
11
225.495
21
121.567
0
LINE
8
0
6
CONTINUOUS
62
7
10
225.495
20
121.567
11
225.495
21
117.097
0
LINE
8
0
6
CONTINUOUS
62
7
10
225.495
20
117.097
11
227.219
21
117.097
0
LINE
8
0
6
CONTINUOUS
62
7
10
227.219
20
117.097
11
227.219
21
115.898
0
LINE
8
0
6
CONTINUOUS
62
7
10
227.219
20
115.898
11
230.519
21
115.898
0
LINE
8
0
6
CONTINUOUS
62
7
10
230.519
20
115.898
11
230.519
21
117.097
0
LINE
8
0
6
CONTINUOUS
62
7
10
230.519
20
117.097
11
232.245
21
117.097
0
LINE
8
0
6
CONTINUOUS
62
7
10
232.245
20
117.097
11
232.245
21
123.367
0
LINE
8
0
6
CONTINUOUS
62
7
10
232.245
20
123.367
11
233.07
21
123.367
0
LINE
8
0
6
CONTINUOUS
62
7
10
233.07
20
123.367
11
233.07
21
126.167
0
LINE
8
0
6
CONTINUOUS
62
7
10
233.07
20
126.167
11
232.245
21
126.167
0
LINE
8
0
6
CONTINUOUS
62
7
10
232.245
20
126.167
11
232.245
21
129.397
0
LINE
8
0
6
CONTINUOUS
62
7
10
232.245
20
129.397
11
225.495
21
129.397
0
LINE
8
0
6
CONTINUOUS
62
7
10
225.495
20
129.397
11
225.495
21
126.167
0
LINE
8
0
6
CONTINUOUS
62
7
10
225.495
20
126.167
11
179.52
21
126.167
0
LINE
8
0
6
CONTINUOUS
62
7
10
179.52
20
126.167
11
179.52
21
130.268
0
LINE
8
0
6
CONTINUOUS
62
7
10
179.52
20
130.268
11
178.719
21
130.268
0
LINE
8
0
6
CONTINUOUS
62
7
10
178.719
20
130.268
11
178.719
21
130.868
0
LINE
8
0
6
CONTINUOUS
62
7
10
178.719
20
130.868
11
164.72
21
130.868
0
LINE
8
0
6
CONTINUOUS
62
7
10
326.643
20
130.868
11
326.643
21
130.268
0
LINE
8
0
6
CONTINUOUS
62
7
10
326.643
20
130.268
11
325.844
21
130.268
0
LINE
8
0
6
CONTINUOUS
62
7
10
325.844
20
130.268
11
325.844
21
126.167
0
LINE
8
0
6
CONTINUOUS
62
7
10
325.844
20
126.167
11
325.119
21
126.167
0
LINE
8
0
6
CONTINUOUS
62
7
10
325.119
20
126.167
11
325.119
21
129.397
0
LINE
8
0
6
CONTINUOUS
62
7
10
325.119
20
129.397
11
318.37
21
129.397
0
LINE
8
0
6
CONTINUOUS
62
7
10
318.37
20
129.397
11
318.37
21
126.167
0
LINE
8
0
6
CONTINUOUS
62
7
10
318.37
20
126.167
11
317.544
21
126.167
0
LINE
8
0
6
CONTINUOUS
62
7
10
317.544
20
126.167
11
317.544
21
123.367
0
LINE
8
0
6
CONTINUOUS
62
7
10
317.544
20
123.367
11
318.37
21
123.367
0
LINE
8
0
6
CONTINUOUS
62
7
10
318.37
20
123.367
11
318.37
21
117.097
0
LINE
8
0
6
CONTINUOUS
62
7
10
318.37
20
117.097
11
320.093
21
117.097
0
LINE
8
0
6
CONTINUOUS
62
7
10
320.093
20
117.097
11
320.093
21
115.898
0
LINE
8
0
6
CONTINUOUS
62
7
10
320.093
20
115.898
11
323.394
21
115.898
0
LINE
8
0
6
CONTINUOUS
62
7
10
323.394
20
115.898
11
323.394
21
117.097
0
LINE
8
0
6
CONTINUOUS
62
7
10
323.394
20
117.097
11
325.119
21
117.097
0
LINE
8
0
6
CONTINUOUS
62
7
10
325.119
20
117.097
11
325.119
21
121.567
0
LINE
8
0
6
CONTINUOUS
62
7
10
325.119
20
121.567
11
325.844
21
121.567
0
LINE
8
0
6
CONTINUOUS
62
7
10
325.844
20
121.567
11
325.844
21
117.468
0
LINE
8
0
6
CONTINUOUS
62
7
10
325.844
20
117.468
11
326.643
21
117.468
0
LINE
8
0
6
CONTINUOUS
62
7
10
326.643
20
117.468
11
326.643
21
116.868
0
LINE
8
0
6
CONTINUOUS
62
7
10
326.643
20
116.868
11
340.644
21
116.868
0
LINE
8
0
6
CONTINUOUS
62
7
10
340.644
20
116.868
11
340.644
21
117.468
0
LINE
8
0
6
CONTINUOUS
62
7
10
340.644
20
117.468
11
341.443
21
117.468
0
LINE
8
0
6
CONTINUOUS
62
7
10
341.443
20
117.468
11
341.443
21
121.567
0
LINE
8
0
6
CONTINUOUS
62
7
10
341.443
20
121.567
11
342.168
21
121.567
0
LINE
8
0
6
CONTINUOUS
62
7
10
342.168
20
121.567
11
342.168
21
117.097
0
LINE
8
0
6
CONTINUOUS
62
7
10
342.168
20
117.097
11
343.893
21
117.097
0
LINE
8
0
6
CONTINUOUS
62
7
10
343.893
20
117.097
11
343.893
21
115.898
0
LINE
8
0
6
CONTINUOUS
62
7
10
343.893
20
115.898
11
347.194
21
115.898
0
LINE
8
0
6
CONTINUOUS
62
7
10
347.194
20
115.898
11
347.194
21
117.097
0
LINE
8
0
6
CONTINUOUS
62
7
10
347.194
20
117.097
11
348.919
21
117.097
0
LINE
8
0
6
CONTINUOUS
62
7
10
348.919
20
117.097
11
348.919
21
123.367
0
LINE
8
0
6
CONTINUOUS
62
7
10
348.919
20
123.367
11
349.745
21
123.367
0
LINE
8
0
6
CONTINUOUS
62
7
10
349.745
20
123.367
11
349.745
21
126.167
0
LINE
8
0
6
CONTINUOUS
62
7
10
349.745
20
126.167
11
348.919
21
126.167
0
LINE
8
0
6
CONTINUOUS
62
7
10
348.919
20
126.167
11
348.919
21
129.397
0
LINE
8
0
6
CONTINUOUS
62
7
10
348.919
20
129.397
11
342.168
21
129.397
0
LINE
8
0
6
CONTINUOUS
62
7
10
342.168
20
129.397
11
342.168
21
126.167
0
LINE
8
0
6
CONTINUOUS
62
7
10
342.168
20
126.167
11
341.443
21
126.167
0
LINE
8
0
6
CONTINUOUS
62
7
10
341.443
20
126.167
11
341.443
21
130.268
0
LINE
8
0
6
CONTINUOUS
62
7
10
341.443
20
130.268
11
340.644
21
130.268
0
LINE
8
0
6
CONTINUOUS
62
7
10
340.644
20
130.268
11
340.644
21
130.868
0
LINE
8
0
6
CONTINUOUS
62
7
10
340.644
20
130.868
11
326.643
21
130.868
0
LINE
8
0
6
CONTINUOUS
62
7
10
36.1322
20
130.868
11
36.1322
21
130.268
0
LINE
8
0
6
CONTINUOUS
62
7
10
36.1322
20
130.268
11
35.3315
21
130.268
0
LINE
8
0
6
CONTINUOUS
62
7
10
35.3315
20
130.268
11
35.3315
21
117.468
0
LINE
8
0
6
CONTINUOUS
62
7
10
35.3315
20
117.468
11
36.1322
21
117.468
0
LINE
8
0
6
CONTINUOUS
62
7
10
36.1322
20
117.468
11
36.1322
21
116.868
0
LINE
8
0
6
CONTINUOUS
62
7
10
36.1322
20
116.868
11
50.1317
21
116.868
0
LINE
8
0
6
CONTINUOUS
62
7
10
50.1317
20
116.868
11
50.1317
21
117.468
0
LINE
8
0
6
CONTINUOUS
62
7
10
50.1317
20
117.468
11
50.9323
21
117.468
0
LINE
8
0
6
CONTINUOUS
62
7
10
50.9323
20
117.468
11
50.9323
21
130.268
0
LINE
8
0
6
CONTINUOUS
62
7
10
50.9323
20
130.268
11
50.1317
21
130.268
0
LINE
8
0
6
CONTINUOUS
62
7
10
50.1317
20
130.268
11
50.1317
21
130.868
0
LINE
8
0
6
CONTINUOUS
62
7
10
50.1317
20
130.868
11
36.1322
21
130.868
0
LINE
8
0
6
CONTINUOUS
62
7
10
59.9447
20
130.868
11
59.9447
21
130.268
0
LINE
8
0
6
CONTINUOUS
62
7
10
59.9447
20
130.268
11
59.1454
21
130.268
0
LINE
8
0
6
CONTINUOUS
62
7
10
59.1454
20
130.268
11
59.1454
21
117.468
0
LINE
8
0
6
CONTINUOUS
62
7
10
59.1454
20
117.468
11
59.9447
21
117.468
0
LINE
8
0
6
CONTINUOUS
62
7
10
59.9447
20
117.468
11
59.9447
21
116.868
0
LINE
8
0
6
CONTINUOUS
62
7
10
59.9447
20
116.868
11
73.944
21
116.868
0
LINE
8
0
6
CONTINUOUS
62
7
10
73.944
20
116.868
11
73.944
21
117.468
0
LINE
8
0
6
CONTINUOUS
62
7
10
73.944
20
117.468
11
74.7448
21
117.468
0
LINE
8
0
6
CONTINUOUS
62
7
10
74.7448
20
117.468
11
74.7448
21
130.268
0
LINE
8
0
6
CONTINUOUS
62
7
10
74.7448
20
130.268
11
73.944
21
130.268
0
LINE
8
0
6
CONTINUOUS
62
7
10
73.944
20
130.268
11
73.944
21
130.868
0
LINE
8
0
6
CONTINUOUS
62
7
10
73.944
20
130.868
11
59.9447
21
130.868
0
LINE
8
0
6
CONTINUOUS
62
7
10
83.7572
20
130.868
11
83.7572
21
130.268
0
LINE
8
0
6
CONTINUOUS
62
7
10
83.7572
20
130.268
11
82.9564
21
130.268
0
LINE
8
0
6
CONTINUOUS
62
7
10
82.9564
20
130.268
11
82.9564
21
117.468
0
LINE
8
0
6
CONTINUOUS
62
7
10
82.9564
20
117.468
11
83.7572
21
117.468
0
LINE
8
0
6
CONTINUOUS
62
7
10
83.7572
20
117.468
11
83.7572
21
116.868
0
LINE
8
0
6
CONTINUOUS
62
7
10
83.7572
20
116.868
11
97.7565
21
116.868
0
LINE
8
0
6
CONTINUOUS
62
7
10
97.7565
20
116.868
11
97.7565
21
117.468
0
LINE
8
0
6
CONTINUOUS
62
7
10
97.7565
20
117.468
11
98.5573
21
117.468
0
LINE
8
0
6
CONTINUOUS
62
7
10
98.5573
20
117.468
11
98.5573
21
130.268
0
LINE
8
0
6
CONTINUOUS
62
7
10
98.5573
20
130.268
11
97.7565
21
130.268
0
LINE
8
0
6
CONTINUOUS
62
7
10
97.7565
20
130.268
11
97.7565
21
130.868
0
LINE
8
0
6
CONTINUOUS
62
7
10
97.7565
20
130.868
11
83.7572
21
130.868
0
LINE
8
0
6
CONTINUOUS
62
7
10
245.682
20
130.868
11
245.682
21
130.268
0
LINE
8
0
6
CONTINUOUS
62
7
10
245.682
20
130.268
11
244.881
21
130.268
0
LINE
8
0
6
CONTINUOUS
62
7
10
244.881
20
130.268
11
244.881
21
117.468
0
LINE
8
0
6
CONTINUOUS
62
7
10
244.881
20
117.468
11
245.682
21
117.468
0
LINE
8
0
6
CONTINUOUS
62
7
10
245.682
20
117.468
11
245.682
21
116.868
0
LINE
8
0
6
CONTINUOUS
62
7
10
245.682
20
116.868
11
259.682
21
116.868
0
LINE
8
0
6
CONTINUOUS
62
7
10
259.682
20
116.868
11
259.682
21
117.468
0
LINE
8
0
6
CONTINUOUS
62
7
10
259.682
20
117.468
11
260.482
21
117.468
0
LINE
8
0
6
CONTINUOUS
62
7
10
260.482
20
117.468
11
260.482
21
130.268
0
LINE
8
0
6
CONTINUOUS
62
7
10
260.482
20
130.268
11
259.682
21
130.268
0
LINE
8
0
6
CONTINUOUS
62
7
10
259.682
20
130.268
11
259.682
21
130.868
0
LINE
8
0
6
CONTINUOUS
62
7
10
259.682
20
130.868
11
245.682
21
130.868
0
LINE
8
0
6
CONTINUOUS
62
7
10
269.495
20
130.868
11
269.495
21
130.268
0
LINE
8
0
6
CONTINUOUS
62
7
10
269.495
20
130.268
11
268.695
21
130.268
0
LINE
8
0
6
CONTINUOUS
62
7
10
268.695
20
130.268
11
268.695
21
117.468
0
LINE
8
0
6
CONTINUOUS
62
7
10
268.695
20
117.468
11
269.495
21
117.468
0
LINE
8
0
6
CONTINUOUS
62
7
10
269.495
20
117.468
11
269.495
21
116.868
0
LINE
8
0
6
CONTINUOUS
62
7
10
269.495
20
116.868
11
283.494
21
116.868
0
LINE
8
0
6
CONTINUOUS
62
7
10
283.494
20
116.868
11
283.494
21
117.468
0
LINE
8
0
6
CONTINUOUS
62
7
10
283.494
20
117.468
11
284.295
21
117.468
0
LINE
8
0
6
CONTINUOUS
62
7
10
284.295
20
117.468
11
284.295
21
130.268
0
LINE
8
0
6
CONTINUOUS
62
7
10
284.295
20
130.268
11
283.494
21
130.268
0
LINE
8
0
6
CONTINUOUS
62
7
10
283.494
20
130.268
11
283.494
21
130.868
0
LINE
8
0
6
CONTINUOUS
62
7
10
283.494
20
130.868
11
269.495
21
130.868
0
LINE
8
0
6
CONTINUOUS
62
7
10
293.307
20
130.868
11
293.307
21
130.268
0
LINE
8
0
6
CONTINUOUS
62
7
10
293.307
20
130.268
11
292.506
21
130.268
0
LINE
8
0
6
CONTINUOUS
62
7
10
292.506
20
130.268
11
292.506
21
117.468
0
LINE
8
0
6
CONTINUOUS
62
7
10
292.506
20
117.468
11
293.307
21
117.468
0
LINE
8
0
6
CONTINUOUS
62
7
10
293.307
20
117.468
11
293.307
21
116.868
0
LINE
8
0
6
CONTINUOUS
62
7
10
293.307
20
116.868
11
307.307
21
116.868
0
LINE
8
0
6
CONTINUOUS
62
7
10
307.307
20
116.868
11
307.307
21
117.468
0
LINE
8
0
6
CONTINUOUS
62
7
10
307.307
20
117.468
11
308.107
21
117.468
0
LINE
8
0
6
CONTINUOUS
62
7
10
308.107
20
117.468
11
308.107
21
130.268
0
LINE
8
0
6
CONTINUOUS
62
7
10
308.107
20
130.268
11
307.307
21
130.268
0
LINE
8
0
6
CONTINUOUS
62
7
10
307.307
20
130.268
11
307.307
21
130.868
0
LINE
8
0
6
CONTINUOUS
62
7
10
307.307
20
130.868
11
293.307
21
130.868
0
LINE
8
0
6
CONTINUOUS
62
7
10
355.218
20
130.868
11
355.218
21
130.268
0
LINE
8
0
6
CONTINUOUS
62
7
10
355.218
20
130.268
11
354.419
21
130.268
0
LINE
8
0
6
CONTINUOUS
62
7
10
354.419
20
130.268
11
354.419
21
117.468
0
LINE
8
0
6
CONTINUOUS
62
7
10
354.419
20
117.468
11
355.218
21
117.468
0
LINE
8
0
6
CONTINUOUS
62
7
10
355.218
20
117.468
11
355.218
21
116.868
0
LINE
8
0
6
CONTINUOUS
62
7
10
355.218
20
116.868
11
369.219
21
116.868
0
LINE
8
0
6
CONTINUOUS
62
7
10
369.219
20
116.868
11
369.219
21
117.468
0
LINE
8
0
6
CONTINUOUS
62
7
10
369.219
20
117.468
11
370.018
21
117.468
0
LINE
8
0
6
CONTINUOUS
62
7
10
370.018
20
117.468
11
370.018
21
130.268
0
LINE
8
0
6
CONTINUOUS
62
7
10
370.018
20
130.268
11
369.219
21
130.268
0
LINE
8
0
6
CONTINUOUS
62
7
10
369.219
20
130.268
11
369.219
21
130.868
0
LINE
8
0
6
CONTINUOUS
62
7
10
369.219
20
130.868
11
355.218
21
130.868
0
LINE
8
0
6
CONTINUOUS
62
7
10
380.77
20
149.493
11
380.77
21
148.668
0
LINE
8
0
6
CONTINUOUS
62
7
10
380.77
20
148.668
11
374.5
21
148.668
0
LINE
8
0
6
CONTINUOUS
62
7
10
374.5
20
148.668
11
374.5
21
146.942
0
LINE
8
0
6
CONTINUOUS
62
7
10
374.5
20
146.942
11
373.3
21
146.942
0
LINE
8
0
6
CONTINUOUS
62
7
10
373.3
20
146.942
11
373.3
21
143.642
0
LINE
8
0
6
CONTINUOUS
62
7
10
373.3
20
143.642
11
374.5
21
143.642
0
LINE
8
0
6
CONTINUOUS
62
7
10
374.5
20
143.642
11
374.5
21
141.918
0
LINE
8
0
6
CONTINUOUS
62
7
10
374.5
20
141.918
11
378.97
21
141.918
0
LINE
8
0
6
CONTINUOUS
62
7
10
378.97
20
141.918
11
378.97
21
141.192
0
LINE
8
0
6
CONTINUOUS
62
7
10
378.97
20
141.192
11
374.869
21
141.192
0
LINE
8
0
6
CONTINUOUS
62
7
10
374.869
20
141.192
11
374.869
21
140.393
0
LINE
8
0
6
CONTINUOUS
62
7
10
374.869
20
140.393
11
374.27
21
140.393
0
LINE
8
0
6
CONTINUOUS
62
7
10
374.27
20
140.393
11
374.27
21
126.393
0
LINE
8
0
6
CONTINUOUS
62
7
10
374.27
20
126.393
11
374.869
21
126.393
0
LINE
8
0
6
CONTINUOUS
62
7
10
374.869
20
126.393
11
374.869
21
125.592
0
LINE
8
0
6
CONTINUOUS
62
7
10
374.869
20
125.592
11
378.97
21
125.592
0
LINE
8
0
6
CONTINUOUS
62
7
10
378.97
20
125.592
11
378.97
21
124.868
0
LINE
8
0
6
CONTINUOUS
62
7
10
378.97
20
124.868
11
374.5
21
124.868
0
LINE
8
0
6
CONTINUOUS
62
7
10
374.5
20
124.868
11
374.5
21
123.142
0
LINE
8
0
6
CONTINUOUS
62
7
10
374.5
20
123.142
11
373.3
21
123.142
0
LINE
8
0
6
CONTINUOUS
62
7
10
373.3
20
123.142
11
373.3
21
119.842
0
LINE
8
0
6
CONTINUOUS
62
7
10
373.3
20
119.842
11
374.5
21
119.842
0
LINE
8
0
6
CONTINUOUS
62
7
10
374.5
20
119.842
11
374.5
21
118.118
0
LINE
8
0
6
CONTINUOUS
62
7
10
374.5
20
118.118
11
380.77
21
118.118
0
LINE
8
0
6
CONTINUOUS
62
7
10
380.77
20
118.118
11
380.77
21
117.293
0
LINE
8
0
6
CONTINUOUS
62
7
10
380.77
20
117.293
11
383.57
21
117.293
0
LINE
8
0
6
CONTINUOUS
62
7
10
383.57
20
117.293
11
383.57
21
118.118
0
LINE
8
0
6
CONTINUOUS
62
7
10
383.57
20
118.118
11
386.802
21
118.118
0
LINE
8
0
6
CONTINUOUS
62
7
10
386.802
20
118.118
11
386.802
21
124.868
0
LINE
8
0
6
CONTINUOUS
62
7
10
386.802
20
124.868
11
383.57
21
124.868
0
LINE
8
0
6
CONTINUOUS
62
7
10
383.57
20
124.868
11
383.57
21
125.592
0
LINE
8
0
6
CONTINUOUS
62
7
10
383.57
20
125.592
11
387.67
21
125.592
0
LINE
8
0
6
CONTINUOUS
62
7
10
387.67
20
125.592
11
387.67
21
126.393
0
LINE
8
0
6
CONTINUOUS
62
7
10
387.67
20
126.393
11
388.269
21
126.393
0
LINE
8
0
6
CONTINUOUS
62
7
10
388.269
20
126.393
11
388.269
21
140.393
0
LINE
8
0
6
CONTINUOUS
62
7
10
388.269
20
140.393
11
387.67
21
140.393
0
LINE
8
0
6
CONTINUOUS
62
7
10
387.67
20
140.393
11
387.67
21
141.192
0
LINE
8
0
6
CONTINUOUS
62
7
10
387.67
20
141.192
11
383.57
21
141.192
0
LINE
8
0
6
CONTINUOUS
62
7
10
383.57
20
141.192
11
383.57
21
141.918
0
LINE
8
0
6
CONTINUOUS
62
7
10
383.57
20
141.918
11
386.802
21
141.918
0
LINE
8
0
6
CONTINUOUS
62
7
10
386.802
20
141.918
11
386.802
21
148.668
0
LINE
8
0
6
CONTINUOUS
62
7
10
386.802
20
148.668
11
383.57
21
148.668
0
LINE
8
0
6
CONTINUOUS
62
7
10
383.57
20
148.668
11
383.57
21
149.493
0
LINE
8
0
6
CONTINUOUS
62
7
10
383.57
20
149.493
11
380.77
21
149.493
0
LINE
8
0
6
CONTINUOUS
62
7
10
43.2759
20
149.917
11
43.2759
21
149.318
0
LINE
8
0
6
CONTINUOUS
62
7
10
43.2759
20
149.318
11
42.4753
21
149.318
0
LINE
8
0
6
CONTINUOUS
62
7
10
42.4753
20
149.318
11
42.4753
21
145.217
0
LINE
8
0
6
CONTINUOUS
62
7
10
42.4753
20
145.217
11
41.7504
21
145.217
0
LINE
8
0
6
CONTINUOUS
62
7
10
41.7504
20
145.217
11
41.7504
21
148.447
0
LINE
8
0
6
CONTINUOUS
62
7
10
41.7504
20
148.447
11
35.0008
21
148.447
0
LINE
8
0
6
CONTINUOUS
62
7
10
35.0008
20
148.447
11
35.0008
21
145.217
0
LINE
8
0
6
CONTINUOUS
62
7
10
35.0008
20
145.217
11
34.1753
21
145.217
0
LINE
8
0
6
CONTINUOUS
62
7
10
34.1753
20
145.217
11
34.1753
21
142.417
0
LINE
8
0
6
CONTINUOUS
62
7
10
34.1753
20
142.417
11
35.0008
21
142.417
0
LINE
8
0
6
CONTINUOUS
62
7
10
35.0008
20
142.417
11
35.0008
21
136.147
0
LINE
8
0
6
CONTINUOUS
62
7
10
35.0008
20
136.147
11
36.7261
21
136.147
0
LINE
8
0
6
CONTINUOUS
62
7
10
36.7261
20
136.147
11
36.7261
21
134.948
0
LINE
8
0
6
CONTINUOUS
62
7
10
36.7261
20
134.948
11
40.0251
21
134.948
0
LINE
8
0
6
CONTINUOUS
62
7
10
40.0251
20
134.948
11
40.0251
21
136.147
0
LINE
8
0
6
CONTINUOUS
62
7
10
40.0251
20
136.147
11
41.7504
21
136.147
0
LINE
8
0
6
CONTINUOUS
62
7
10
41.7504
20
136.147
11
41.7504
21
140.617
0
LINE
8
0
6
CONTINUOUS
62
7
10
41.7504
20
140.617
11
42.4753
21
140.617
0
LINE
8
0
6
CONTINUOUS
62
7
10
42.4753
20
140.617
11
42.4753
21
136.517
0
LINE
8
0
6
CONTINUOUS
62
7
10
42.4753
20
136.517
11
43.2759
21
136.517
0
LINE
8
0
6
CONTINUOUS
62
7
10
43.2759
20
136.517
11
43.2759
21
135.918
0
LINE
8
0
6
CONTINUOUS
62
7
10
43.2759
20
135.918
11
57.2754
21
135.918
0
LINE
8
0
6
CONTINUOUS
62
7
10
57.2754
20
135.918
11
57.2754
21
136.517
0
LINE
8
0
6
CONTINUOUS
62
7
10
57.2754
20
136.517
11
58.076
21
136.517
0
LINE
8
0
6
CONTINUOUS
62
7
10
58.076
20
136.517
11
58.076
21
140.617
0
LINE
8
0
6
CONTINUOUS
62
7
10
58.076
20
140.617
11
58.8009
21
140.617
0
LINE
8
0
6
CONTINUOUS
62
7
10
58.8009
20
140.617
11
58.8009
21
136.147
0
LINE
8
0
6
CONTINUOUS
62
7
10
58.8009
20
136.147
11
60.5262
21
136.147
0
LINE
8
0
6
CONTINUOUS
62
7
10
60.5262
20
136.147
11
60.5262
21
134.948
0
LINE
8
0
6
CONTINUOUS
62
7
10
60.5262
20
134.948
11
63.8252
21
134.948
0
LINE
8
0
6
CONTINUOUS
62
7
10
63.8252
20
134.948
11
63.8252
21
136.147
0
LINE
8
0
6
CONTINUOUS
62
7
10
63.8252
20
136.147
11
65.5504
21
136.147
0
LINE
8
0
6
CONTINUOUS
62
7
10
65.5504
20
136.147
11
65.5504
21
142.417
0
LINE
8
0
6
CONTINUOUS
62
7
10
65.5504
20
142.417
11
66.3759
21
142.417
0
LINE
8
0
6
CONTINUOUS
62
7
10
66.3759
20
142.417
11
66.3759
21
145.217
0
LINE
8
0
6
CONTINUOUS
62
7
10
66.3759
20
145.217
11
65.5504
21
145.217
0
LINE
8
0
6
CONTINUOUS
62
7
10
65.5504
20
145.217
11
65.5504
21
148.447
0
LINE
8
0
6
CONTINUOUS
62
7
10
65.5504
20
148.447
11
58.8009
21
148.447
0
LINE
8
0
6
CONTINUOUS
62
7
10
58.8009
20
148.447
11
58.8009
21
145.217
0
LINE
8
0
6
CONTINUOUS
62
7
10
58.8009
20
145.217
11
58.076
21
145.217
0
LINE
8
0
6
CONTINUOUS
62
7
10
58.076
20
145.217
11
58.076
21
149.318
0
LINE
8
0
6
CONTINUOUS
62
7
10
58.076
20
149.318
11
57.2754
21
149.318
0
LINE
8
0
6
CONTINUOUS
62
7
10
57.2754
20
149.318
11
57.2754
21
149.917
0
LINE
8
0
6
CONTINUOUS
62
7
10
57.2754
20
149.917
11
43.2759
21
149.917
0
LINE
8
0
6
CONTINUOUS
62
7
10
74.2322
20
149.917
11
74.2322
21
149.318
0
LINE
8
0
6
CONTINUOUS
62
7
10
74.2322
20
149.318
11
73.4314
21
149.318
0
LINE
8
0
6
CONTINUOUS
62
7
10
73.4314
20
149.318
11
73.4314
21
136.517
0
LINE
8
0
6
CONTINUOUS
62
7
10
73.4314
20
136.517
11
74.2322
21
136.517
0
LINE
8
0
6
CONTINUOUS
62
7
10
74.2322
20
136.517
11
74.2322
21
135.918
0
LINE
8
0
6
CONTINUOUS
62
7
10
74.2322
20
135.918
11
88.2315
21
135.918
0
LINE
8
0
6
CONTINUOUS
62
7
10
88.2315
20
135.918
11
88.2315
21
136.517
0
LINE
8
0
6
CONTINUOUS
62
7
10
88.2315
20
136.517
11
89.0323
21
136.517
0
LINE
8
0
6
CONTINUOUS
62
7
10
89.0323
20
136.517
11
89.0323
21
149.318
0
LINE
8
0
6
CONTINUOUS
62
7
10
89.0323
20
149.318
11
88.2315
21
149.318
0
LINE
8
0
6
CONTINUOUS
62
7
10
88.2315
20
149.318
11
88.2315
21
149.917
0
LINE
8
0
6
CONTINUOUS
62
7
10
88.2315
20
149.917
11
74.2322
21
149.917
0
LINE
8
0
6
CONTINUOUS
62
7
10
93.2822
20
149.917
11
93.2822
21
149.318
0
LINE
8
0
6
CONTINUOUS
62
7
10
93.2822
20
149.318
11
92.4814
21
149.318
0
LINE
8
0
6
CONTINUOUS
62
7
10
92.4814
20
149.318
11
92.4814
21
136.517
0
LINE
8
0
6
CONTINUOUS
62
7
10
92.4814
20
136.517
11
93.2822
21
136.517
0
LINE
8
0
6
CONTINUOUS
62
7
10
93.2822
20
136.517
11
93.2822
21
135.918
0
LINE
8
0
6
CONTINUOUS
62
7
10
93.2822
20
135.918
11
107.282
21
135.918
0
LINE
8
0
6
CONTINUOUS
62
7
10
107.282
20
135.918
11
107.282
21
136.517
0
LINE
8
0
6
CONTINUOUS
62
7
10
107.282
20
136.517
11
108.082
21
136.517
0
LINE
8
0
6
CONTINUOUS
62
7
10
108.082
20
136.517
11
108.082
21
149.318
0
LINE
8
0
6
CONTINUOUS
62
7
10
108.082
20
149.318
11
107.282
21
149.318
0
LINE
8
0
6
CONTINUOUS
62
7
10
107.282
20
149.318
11
107.282
21
149.917
0
LINE
8
0
6
CONTINUOUS
62
7
10
107.282
20
149.917
11
93.2822
21
149.917
0
LINE
8
0
6
CONTINUOUS
62
7
10
112.332
20
149.917
11
112.332
21
149.318
0
LINE
8
0
6
CONTINUOUS
62
7
10
112.332
20
149.318
11
111.531
21
149.318
0
LINE
8
0
6
CONTINUOUS
62
7
10
111.531
20
149.318
11
111.531
21
136.517
0
LINE
8
0
6
CONTINUOUS
62
7
10
111.531
20
136.517
11
112.332
21
136.517
0
LINE
8
0
6
CONTINUOUS
62
7
10
112.332
20
136.517
11
112.332
21
135.918
0
LINE
8
0
6
CONTINUOUS
62
7
10
112.332
20
135.918
11
126.332
21
135.918
0
LINE
8
0
6
CONTINUOUS
62
7
10
126.332
20
135.918
11
126.332
21
136.517
0
LINE
8
0
6
CONTINUOUS
62
7
10
126.332
20
136.517
11
127.132
21
136.517
0
LINE
8
0
6
CONTINUOUS
62
7
10
127.132
20
136.517
11
127.132
21
149.318
0
LINE
8
0
6
CONTINUOUS
62
7
10
127.132
20
149.318
11
126.332
21
149.318
0
LINE
8
0
6
CONTINUOUS
62
7
10
126.332
20
149.318
11
126.332
21
149.917
0
LINE
8
0
6
CONTINUOUS
62
7
10
126.332
20
149.917
11
112.332
21
149.917
0
LINE
8
0
6
CONTINUOUS
62
7
10
131.382
20
149.917
11
131.382
21
149.318
0
LINE
8
0
6
CONTINUOUS
62
7
10
131.382
20
149.318
11
130.581
21
149.318
0
LINE
8
0
6
CONTINUOUS
62
7
10
130.581
20
149.318
11
130.581
21
136.517
0
LINE
8
0
6
CONTINUOUS
62
7
10
130.581
20
136.517
11
131.382
21
136.517
0
LINE
8
0
6
CONTINUOUS
62
7
10
131.382
20
136.517
11
131.382
21
135.918
0
LINE
8
0
6
CONTINUOUS
62
7
10
131.382
20
135.918
11
145.382
21
135.918
0
LINE
8
0
6
CONTINUOUS
62
7
10
145.382
20
135.918
11
145.382
21
136.517
0
LINE
8
0
6
CONTINUOUS
62
7
10
145.382
20
136.517
11
146.182
21
136.517
0
LINE
8
0
6
CONTINUOUS
62
7
10
146.182
20
136.517
11
146.182
21
149.318
0
LINE
8
0
6
CONTINUOUS
62
7
10
146.182
20
149.318
11
145.382
21
149.318
0
LINE
8
0
6
CONTINUOUS
62
7
10
145.382
20
149.318
11
145.382
21
149.917
0
LINE
8
0
6
CONTINUOUS
62
7
10
145.382
20
149.917
11
131.382
21
149.917
0
LINE
8
0
6
CONTINUOUS
62
7
10
150.432
20
149.917
11
150.432
21
149.318
0
LINE
8
0
6
CONTINUOUS
62
7
10
150.432
20
149.318
11
149.631
21
149.318
0
LINE
8
0
6
CONTINUOUS
62
7
10
149.631
20
149.318
11
149.631
21
136.517
0
LINE
8
0
6
CONTINUOUS
62
7
10
149.631
20
136.517
11
150.432
21
136.517
0
LINE
8
0
6
CONTINUOUS
62
7
10
150.432
20
136.517
11
150.432
21
135.918
0
LINE
8
0
6
CONTINUOUS
62
7
10
150.432
20
135.918
11
164.432
21
135.918
0
LINE
8
0
6
CONTINUOUS
62
7
10
164.432
20
135.918
11
164.432
21
136.517
0
LINE
8
0
6
CONTINUOUS
62
7
10
164.432
20
136.517
11
165.232
21
136.517
0
LINE
8
0
6
CONTINUOUS
62
7
10
165.232
20
136.517
11
165.232
21
149.318
0
LINE
8
0
6
CONTINUOUS
62
7
10
165.232
20
149.318
11
164.432
21
149.318
0
LINE
8
0
6
CONTINUOUS
62
7
10
164.432
20
149.318
11
164.432
21
149.917
0
LINE
8
0
6
CONTINUOUS
62
7
10
164.432
20
149.917
11
150.432
21
149.917
0
LINE
8
0
6
CONTINUOUS
62
7
10
169.482
20
149.917
11
169.482
21
149.318
0
LINE
8
0
6
CONTINUOUS
62
7
10
169.482
20
149.318
11
168.681
21
149.318
0
LINE
8
0
6
CONTINUOUS
62
7
10
168.681
20
149.318
11
168.681
21
136.517
0
LINE
8
0
6
CONTINUOUS
62
7
10
168.681
20
136.517
11
169.482
21
136.517
0
LINE
8
0
6
CONTINUOUS
62
7
10
169.482
20
136.517
11
169.482
21
135.918
0
LINE
8
0
6
CONTINUOUS
62
7
10
169.482
20
135.918
11
183.482
21
135.918
0
LINE
8
0
6
CONTINUOUS
62
7
10
183.482
20
135.918
11
183.482
21
136.517
0
LINE
8
0
6
CONTINUOUS
62
7
10
183.482
20
136.517
11
184.282
21
136.517
0
LINE
8
0
6
CONTINUOUS
62
7
10
184.282
20
136.517
11
184.282
21
149.318
0
LINE
8
0
6
CONTINUOUS
62
7
10
184.282
20
149.318
11
183.482
21
149.318
0
LINE
8
0
6
CONTINUOUS
62
7
10
183.482
20
149.318
11
183.482
21
149.917
0
LINE
8
0
6
CONTINUOUS
62
7
10
183.482
20
149.917
11
169.482
21
149.917
0
LINE
8
0
6
CONTINUOUS
62
7
10
188.532
20
149.917
11
188.532
21
149.318
0
LINE
8
0
6
CONTINUOUS
62
7
10
188.532
20
149.318
11
187.731
21
149.318
0
LINE
8
0
6
CONTINUOUS
62
7
10
187.731
20
149.318
11
187.731
21
136.517
0
LINE
8
0
6
CONTINUOUS
62
7
10
187.731
20
136.517
11
188.532
21
136.517
0
LINE
8
0
6
CONTINUOUS
62
7
10
188.532
20
136.517
11
188.532
21
135.918
0
LINE
8
0
6
CONTINUOUS
62
7
10
188.532
20
135.918
11
202.532
21
135.918
0
LINE
8
0
6
CONTINUOUS
62
7
10
202.532
20
135.918
11
202.532
21
136.517
0
LINE
8
0
6
CONTINUOUS
62
7
10
202.532
20
136.517
11
203.332
21
136.517
0
LINE
8
0
6
CONTINUOUS
62
7
10
203.332
20
136.517
11
203.332
21
149.318
0
LINE
8
0
6
CONTINUOUS
62
7
10
203.332
20
149.318
11
202.532
21
149.318
0
LINE
8
0
6
CONTINUOUS
62
7
10
202.532
20
149.318
11
202.532
21
149.917
0
LINE
8
0
6
CONTINUOUS
62
7
10
202.532
20
149.917
11
188.532
21
149.917
0
LINE
8
0
6
CONTINUOUS
62
7
10
207.582
20
149.917
11
207.582
21
149.318
0
LINE
8
0
6
CONTINUOUS
62
7
10
207.582
20
149.318
11
206.781
21
149.318
0
LINE
8
0
6
CONTINUOUS
62
7
10
206.781
20
149.318
11
206.781
21
136.517
0
LINE
8
0
6
CONTINUOUS
62
7
10
206.781
20
136.517
11
207.582
21
136.517
0
LINE
8
0
6
CONTINUOUS
62
7
10
207.582
20
136.517
11
207.582
21
135.918
0
LINE
8
0
6
CONTINUOUS
62
7
10
207.582
20
135.918
11
221.582
21
135.918
0
LINE
8
0
6
CONTINUOUS
62
7
10
221.582
20
135.918
11
221.582
21
136.517
0
LINE
8
0
6
CONTINUOUS
62
7
10
221.582
20
136.517
11
222.382
21
136.517
0
LINE
8
0
6
CONTINUOUS
62
7
10
222.382
20
136.517
11
222.382
21
149.318
0
LINE
8
0
6
CONTINUOUS
62
7
10
222.382
20
149.318
11
221.582
21
149.318
0
LINE
8
0
6
CONTINUOUS
62
7
10
221.582
20
149.318
11
221.582
21
149.917
0
LINE
8
0
6
CONTINUOUS
62
7
10
221.582
20
149.917
11
207.582
21
149.917
0
LINE
8
0
6
CONTINUOUS
62
7
10
226.632
20
149.917
11
226.632
21
149.318
0
LINE
8
0
6
CONTINUOUS
62
7
10
226.632
20
149.318
11
225.831
21
149.318
0
LINE
8
0
6
CONTINUOUS
62
7
10
225.831
20
149.318
11
225.831
21
136.517
0
LINE
8
0
6
CONTINUOUS
62
7
10
225.831
20
136.517
11
226.632
21
136.517
0
LINE
8
0
6
CONTINUOUS
62
7
10
226.632
20
136.517
11
226.632
21
135.918
0
LINE
8
0
6
CONTINUOUS
62
7
10
226.632
20
135.918
11
240.632
21
135.918
0
LINE
8
0
6
CONTINUOUS
62
7
10
240.632
20
135.918
11
240.632
21
136.517
0
LINE
8
0
6
CONTINUOUS
62
7
10
240.632
20
136.517
11
241.432
21
136.517
0
LINE
8
0
6
CONTINUOUS
62
7
10
241.432
20
136.517
11
241.432
21
149.318
0
LINE
8
0
6
CONTINUOUS
62
7
10
241.432
20
149.318
11
240.632
21
149.318
0
LINE
8
0
6
CONTINUOUS
62
7
10
240.632
20
149.318
11
240.632
21
149.917
0
LINE
8
0
6
CONTINUOUS
62
7
10
240.632
20
149.917
11
226.632
21
149.917
0
LINE
8
0
6
CONTINUOUS
62
7
10
245.682
20
149.917
11
245.682
21
149.318
0
LINE
8
0
6
CONTINUOUS
62
7
10
245.682
20
149.318
11
244.881
21
149.318
0
LINE
8
0
6
CONTINUOUS
62
7
10
244.881
20
149.318
11
244.881
21
136.517
0
LINE
8
0
6
CONTINUOUS
62
7
10
244.881
20
136.517
11
245.682
21
136.517
0
LINE
8
0
6
CONTINUOUS
62
7
10
245.682
20
136.517
11
245.682
21
135.918
0
LINE
8
0
6
CONTINUOUS
62
7
10
245.682
20
135.918
11
259.682
21
135.918
0
LINE
8
0
6
CONTINUOUS
62
7
10
259.682
20
135.918
11
259.682
21
136.517
0
LINE
8
0
6
CONTINUOUS
62
7
10
259.682
20
136.517
11
260.482
21
136.517
0
LINE
8
0
6
CONTINUOUS
62
7
10
260.482
20
136.517
11
260.482
21
149.318
0
LINE
8
0
6
CONTINUOUS
62
7
10
260.482
20
149.318
11
259.682
21
149.318
0
LINE
8
0
6
CONTINUOUS
62
7
10
259.682
20
149.318
11
259.682
21
149.917
0
LINE
8
0
6
CONTINUOUS
62
7
10
259.682
20
149.917
11
245.682
21
149.917
0
LINE
8
0
6
CONTINUOUS
62
7
10
271.876
20
149.917
11
271.876
21
149.318
0
LINE
8
0
6
CONTINUOUS
62
7
10
271.876
20
149.318
11
271.075
21
149.318
0
LINE
8
0
6
CONTINUOUS
62
7
10
271.075
20
149.318
11
271.075
21
136.517
0
LINE
8
0
6
CONTINUOUS
62
7
10
271.075
20
136.517
11
271.876
21
136.517
0
LINE
8
0
6
CONTINUOUS
62
7
10
271.876
20
136.517
11
271.876
21
135.918
0
LINE
8
0
6
CONTINUOUS
62
7
10
271.876
20
135.918
11
285.875
21
135.918
0
LINE
8
0
6
CONTINUOUS
62
7
10
285.875
20
135.918
11
285.875
21
136.517
0
LINE
8
0
6
CONTINUOUS
62
7
10
285.875
20
136.517
11
286.676
21
136.517
0
LINE
8
0
6
CONTINUOUS
62
7
10
286.676
20
136.517
11
286.676
21
149.318
0
LINE
8
0
6
CONTINUOUS
62
7
10
286.676
20
149.318
11
285.875
21
149.318
0
LINE
8
0
6
CONTINUOUS
62
7
10
285.875
20
149.318
11
285.875
21
149.917
0
LINE
8
0
6
CONTINUOUS
62
7
10
285.875
20
149.917
11
271.876
21
149.917
0
LINE
8
0
6
CONTINUOUS
62
7
10
298.07
20
149.917
11
298.07
21
149.318
0
LINE
8
0
6
CONTINUOUS
62
7
10
298.07
20
149.318
11
297.27
21
149.318
0
LINE
8
0
6
CONTINUOUS
62
7
10
297.27
20
149.318
11
297.27
21
136.517
0
LINE
8
0
6
CONTINUOUS
62
7
10
297.27
20
136.517
11
298.07
21
136.517
0
LINE
8
0
6
CONTINUOUS
62
7
10
298.07
20
136.517
11
298.07
21
135.918
0
LINE
8
0
6
CONTINUOUS
62
7
10
298.07
20
135.918
11
312.069
21
135.918
0
LINE
8
0
6
CONTINUOUS
62
7
10
312.069
20
135.918
11
312.069
21
136.517
0
LINE
8
0
6
CONTINUOUS
62
7
10
312.069
20
136.517
11
312.87
21
136.517
0
LINE
8
0
6
CONTINUOUS
62
7
10
312.87
20
136.517
11
312.87
21
149.318
0
LINE
8
0
6
CONTINUOUS
62
7
10
312.87
20
149.318
11
312.069
21
149.318
0
LINE
8
0
6
CONTINUOUS
62
7
10
312.069
20
149.318
11
312.069
21
149.917
0
LINE
8
0
6
CONTINUOUS
62
7
10
312.069
20
149.917
11
298.07
21
149.917
0
LINE
8
0
6
CONTINUOUS
62
7
10
317.12
20
149.917
11
317.12
21
149.318
0
LINE
8
0
6
CONTINUOUS
62
7
10
317.12
20
149.318
11
316.32
21
149.318
0
LINE
8
0
6
CONTINUOUS
62
7
10
316.32
20
149.318
11
316.32
21
136.517
0
LINE
8
0
6
CONTINUOUS
62
7
10
316.32
20
136.517
11
317.12
21
136.517
0
LINE
8
0
6
CONTINUOUS
62
7
10
317.12
20
136.517
11
317.12
21
135.918
0
LINE
8
0
6
CONTINUOUS
62
7
10
317.12
20
135.918
11
331.119
21
135.918
0
LINE
8
0
6
CONTINUOUS
62
7
10
331.119
20
135.918
11
331.119
21
136.517
0
LINE
8
0
6
CONTINUOUS
62
7
10
331.119
20
136.517
11
331.92
21
136.517
0
LINE
8
0
6
CONTINUOUS
62
7
10
331.92
20
136.517
11
331.92
21
149.318
0
LINE
8
0
6
CONTINUOUS
62
7
10
331.92
20
149.318
11
331.119
21
149.318
0
LINE
8
0
6
CONTINUOUS
62
7
10
331.119
20
149.318
11
331.119
21
149.917
0
LINE
8
0
6
CONTINUOUS
62
7
10
331.119
20
149.917
11
317.12
21
149.917
0
LINE
8
0
6
CONTINUOUS
62
7
10
336.17
20
149.917
11
336.17
21
149.318
0
LINE
8
0
6
CONTINUOUS
62
7
10
336.17
20
149.318
11
335.37
21
149.318
0
LINE
8
0
6
CONTINUOUS
62
7
10
335.37
20
149.318
11
335.37
21
136.517
0
LINE
8
0
6
CONTINUOUS
62
7
10
335.37
20
136.517
11
336.17
21
136.517
0
LINE
8
0
6
CONTINUOUS
62
7
10
336.17
20
136.517
11
336.17
21
135.918
0
LINE
8
0
6
CONTINUOUS
62
7
10
336.17
20
135.918
11
350.169
21
135.918
0
LINE
8
0
6
CONTINUOUS
62
7
10
350.169
20
135.918
11
350.169
21
136.517
0
LINE
8
0
6
CONTINUOUS
62
7
10
350.169
20
136.517
11
350.97
21
136.517
0
LINE
8
0
6
CONTINUOUS
62
7
10
350.97
20
136.517
11
350.97
21
149.318
0
LINE
8
0
6
CONTINUOUS
62
7
10
350.97
20
149.318
11
350.169
21
149.318
0
LINE
8
0
6
CONTINUOUS
62
7
10
350.169
20
149.318
11
350.169
21
149.917
0
LINE
8
0
6
CONTINUOUS
62
7
10
350.169
20
149.917
11
336.17
21
149.917
0
LINE
8
0
6
CONTINUOUS
62
7
10
355.22
20
149.917
11
355.22
21
149.318
0
LINE
8
0
6
CONTINUOUS
62
7
10
355.22
20
149.318
11
354.42
21
149.318
0
LINE
8
0
6
CONTINUOUS
62
7
10
354.42
20
149.318
11
354.42
21
136.517
0
LINE
8
0
6
CONTINUOUS
62
7
10
354.42
20
136.517
11
355.22
21
136.517
0
LINE
8
0
6
CONTINUOUS
62
7
10
355.22
20
136.517
11
355.22
21
135.918
0
LINE
8
0
6
CONTINUOUS
62
7
10
355.22
20
135.918
11
369.219
21
135.918
0
LINE
8
0
6
CONTINUOUS
62
7
10
369.219
20
135.918
11
369.219
21
136.517
0
LINE
8
0
6
CONTINUOUS
62
7
10
369.219
20
136.517
11
370.02
21
136.517
0
LINE
8
0
6
CONTINUOUS
62
7
10
370.02
20
136.517
11
370.02
21
149.318
0
LINE
8
0
6
CONTINUOUS
62
7
10
370.02
20
149.318
11
369.219
21
149.318
0
LINE
8
0
6
CONTINUOUS
62
7
10
369.219
20
149.318
11
369.219
21
149.917
0
LINE
8
0
6
CONTINUOUS
62
7
10
369.219
20
149.917
11
355.22
21
149.917
0
LINE
8
0
6
CONTINUOUS
62
7
10
286.163
20
168.967
11
286.163
21
168.368
0
LINE
8
0
6
CONTINUOUS
62
7
10
286.163
20
168.368
11
285.361
21
168.368
0
LINE
8
0
6
CONTINUOUS
62
7
10
285.361
20
168.368
11
285.361
21
164.267
0
LINE
8
0
6
CONTINUOUS
62
7
10
285.361
20
164.267
11
284.638
21
164.267
0
LINE
8
0
6
CONTINUOUS
62
7
10
284.638
20
164.267
11
284.638
21
167.497
0
LINE
8
0
6
CONTINUOUS
62
7
10
284.638
20
167.497
11
277.888
21
167.497
0
LINE
8
0
6
CONTINUOUS
62
7
10
277.888
20
167.497
11
277.888
21
164.267
0
LINE
8
0
6
CONTINUOUS
62
7
10
277.888
20
164.267
11
277.063
21
164.267
0
LINE
8
0
6
CONTINUOUS
62
7
10
277.063
20
164.267
11
277.063
21
161.467
0
LINE
8
0
6
CONTINUOUS
62
7
10
277.063
20
161.467
11
277.888
21
161.467
0
LINE
8
0
6
CONTINUOUS
62
7
10
277.888
20
161.467
11
277.888
21
155.197
0
LINE
8
0
6
CONTINUOUS
62
7
10
277.888
20
155.197
11
279.612
21
155.197
0
LINE
8
0
6
CONTINUOUS
62
7
10
279.612
20
155.197
11
279.612
21
153.998
0
LINE
8
0
6
CONTINUOUS
62
7
10
279.612
20
153.998
11
282.911
21
153.998
0
LINE
8
0
6
CONTINUOUS
62
7
10
282.911
20
153.998
11
282.911
21
155.197
0
LINE
8
0
6
CONTINUOUS
62
7
10
282.911
20
155.197
11
284.638
21
155.197
0
LINE
8
0
6
CONTINUOUS
62
7
10
284.638
20
155.197
11
284.638
21
159.667
0
LINE
8
0
6
CONTINUOUS
62
7
10
284.638
20
159.667
11
285.361
21
159.667
0
LINE
8
0
6
CONTINUOUS
62
7
10
285.361
20
159.667
11
285.361
21
155.568
0
LINE
8
0
6
CONTINUOUS
62
7
10
285.361
20
155.568
11
286.163
21
155.568
0
LINE
8
0
6
CONTINUOUS
62
7
10
286.163
20
155.568
11
286.163
21
154.968
0
LINE
8
0
6
CONTINUOUS
62
7
10
286.163
20
154.968
11
300.163
21
154.968
0
LINE
8
0
6
CONTINUOUS
62
7
10
300.163
20
154.968
11
300.163
21
155.568
0
LINE
8
0
6
CONTINUOUS
62
7
10
300.163
20
155.568
11
300.962
21
155.568
0
LINE
8
0
6
CONTINUOUS
62
7
10
300.962
20
155.568
11
300.962
21
159.667
0
LINE
8
0
6
CONTINUOUS
62
7
10
300.962
20
159.667
11
301.689
21
159.667
0
LINE
8
0
6
CONTINUOUS
62
7
10
301.689
20
159.667
11
301.689
21
155.197
0
LINE
8
0
6
CONTINUOUS
62
7
10
301.689
20
155.197
11
303.412
21
155.197
0
LINE
8
0
6
CONTINUOUS
62
7
10
303.412
20
155.197
11
303.412
21
153.998
0
LINE
8
0
6
CONTINUOUS
62
7
10
303.412
20
153.998
11
306.713
21
153.998
0
LINE
8
0
6
CONTINUOUS
62
7
10
306.713
20
153.998
11
306.713
21
155.197
0
LINE
8
0
6
CONTINUOUS
62
7
10
306.713
20
155.197
11
308.438
21
155.197
0
LINE
8
0
6
CONTINUOUS
62
7
10
308.438
20
155.197
11
308.438
21
161.467
0
LINE
8
0
6
CONTINUOUS
62
7
10
308.438
20
161.467
11
309.262
21
161.467
0
LINE
8
0
6
CONTINUOUS
62
7
10
309.262
20
161.467
11
309.262
21
164.267
0
LINE
8
0
6
CONTINUOUS
62
7
10
309.262
20
164.267
11
308.438
21
164.267
0
LINE
8
0
6
CONTINUOUS
62
7
10
308.438
20
164.267
11
308.438
21
167.497
0
LINE
8
0
6
CONTINUOUS
62
7
10
308.438
20
167.497
11
301.689
21
167.497
0
LINE
8
0
6
CONTINUOUS
62
7
10
301.689
20
167.497
11
301.689
21
164.267
0
LINE
8
0
6
CONTINUOUS
62
7
10
301.689
20
164.267
11
300.962
21
164.267
0
LINE
8
0
6
CONTINUOUS
62
7
10
300.962
20
164.267
11
300.962
21
168.368
0
LINE
8
0
6
CONTINUOUS
62
7
10
300.962
20
168.368
11
300.163
21
168.368
0
LINE
8
0
6
CONTINUOUS
62
7
10
300.163
20
168.368
11
300.163
21
168.967
0
LINE
8
0
6
CONTINUOUS
62
7
10
300.163
20
168.967
11
286.163
21
168.967
0
LINE
8
0
6
CONTINUOUS
62
7
10
38.5134
20
168.967
11
38.5134
21
168.368
0
LINE
8
0
6
CONTINUOUS
62
7
10
38.5134
20
168.368
11
37.7128
21
168.368
0
LINE
8
0
6
CONTINUOUS
62
7
10
37.7128
20
168.368
11
37.7128
21
155.568
0
LINE
8
0
6
CONTINUOUS
62
7
10
37.7128
20
155.568
11
38.5134
21
155.568
0
LINE
8
0
6
CONTINUOUS
62
7
10
38.5134
20
155.568
11
38.5134
21
154.968
0
LINE
8
0
6
CONTINUOUS
62
7
10
38.5134
20
154.968
11
52.5129
21
154.968
0
LINE
8
0
6
CONTINUOUS
62
7
10
52.5129
20
154.968
11
52.5129
21
155.568
0
LINE
8
0
6
CONTINUOUS
62
7
10
52.5129
20
155.568
11
53.3122
21
155.568
0
LINE
8
0
6
CONTINUOUS
62
7
10
53.3122
20
155.568
11
53.3122
21
168.368
0
LINE
8
0
6
CONTINUOUS
62
7
10
53.3122
20
168.368
11
52.5129
21
168.368
0
LINE
8
0
6
CONTINUOUS
62
7
10
52.5129
20
168.368
11
52.5129
21
168.967
0
LINE
8
0
6
CONTINUOUS
62
7
10
52.5129
20
168.967
11
38.5134
21
168.967
0
LINE
8
0
6
CONTINUOUS
62
7
10
64.7072
20
168.967
11
64.7072
21
168.368
0
LINE
8
0
6
CONTINUOUS
62
7
10
64.7072
20
168.368
11
63.9065
21
168.368
0
LINE
8
0
6
CONTINUOUS
62
7
10
63.9065
20
168.368
11
63.9065
21
155.568
0
LINE
8
0
6
CONTINUOUS
62
7
10
63.9065
20
155.568
11
64.7072
21
155.568
0
LINE
8
0
6
CONTINUOUS
62
7
10
64.7072
20
155.568
11
64.7072
21
154.968
0
LINE
8
0
6
CONTINUOUS
62
7
10
64.7072
20
154.968
11
78.7065
21
154.968
0
LINE
8
0
6
CONTINUOUS
62
7
10
78.7065
20
154.968
11
78.7065
21
155.568
0
LINE
8
0
6
CONTINUOUS
62
7
10
78.7065
20
155.568
11
79.5073
21
155.568
0
LINE
8
0
6
CONTINUOUS
62
7
10
79.5073
20
155.568
11
79.5073
21
168.368
0
LINE
8
0
6
CONTINUOUS
62
7
10
79.5073
20
168.368
11
78.7065
21
168.368
0
LINE
8
0
6
CONTINUOUS
62
7
10
78.7065
20
168.368
11
78.7065
21
168.967
0
LINE
8
0
6
CONTINUOUS
62
7
10
78.7065
20
168.967
11
64.7072
21
168.967
0
LINE
8
0
6
CONTINUOUS
62
7
10
83.7572
20
168.967
11
83.7572
21
168.368
0
LINE
8
0
6
CONTINUOUS
62
7
10
83.7572
20
168.368
11
82.9564
21
168.368
0
LINE
8
0
6
CONTINUOUS
62
7
10
82.9564
20
168.368
11
82.9564
21
155.568
0
LINE
8
0
6
CONTINUOUS
62
7
10
82.9564
20
155.568
11
83.7572
21
155.568
0
LINE
8
0
6
CONTINUOUS
62
7
10
83.7572
20
155.568
11
83.7572
21
154.968
0
LINE
8
0
6
CONTINUOUS
62
7
10
83.7572
20
154.968
11
97.7565
21
154.968
0
LINE
8
0
6
CONTINUOUS
62
7
10
97.7565
20
154.968
11
97.7565
21
155.568
0
LINE
8
0
6
CONTINUOUS
62
7
10
97.7565
20
155.568
11
98.5573
21
155.568
0
LINE
8
0
6
CONTINUOUS
62
7
10
98.5573
20
155.568
11
98.5573
21
168.368
0
LINE
8
0
6
CONTINUOUS
62
7
10
98.5573
20
168.368
11
97.7565
21
168.368
0
LINE
8
0
6
CONTINUOUS
62
7
10
97.7565
20
168.368
11
97.7565
21
168.967
0
LINE
8
0
6
CONTINUOUS
62
7
10
97.7565
20
168.967
11
83.7572
21
168.967
0
LINE
8
0
6
CONTINUOUS
62
7
10
102.807
20
168.967
11
102.807
21
168.368
0
LINE
8
0
6
CONTINUOUS
62
7
10
102.807
20
168.368
11
102.006
21
168.368
0
LINE
8
0
6
CONTINUOUS
62
7
10
102.006
20
168.368
11
102.006
21
155.568
0
LINE
8
0
6
CONTINUOUS
62
7
10
102.006
20
155.568
11
102.807
21
155.568
0
LINE
8
0
6
CONTINUOUS
62
7
10
102.807
20
155.568
11
102.807
21
154.968
0
LINE
8
0
6
CONTINUOUS
62
7
10
102.807
20
154.968
11
116.807
21
154.968
0
LINE
8
0
6
CONTINUOUS
62
7
10
116.807
20
154.968
11
116.807
21
155.568
0
LINE
8
0
6
CONTINUOUS
62
7
10
116.807
20
155.568
11
117.607
21
155.568
0
LINE
8
0
6
CONTINUOUS
62
7
10
117.607
20
155.568
11
117.607
21
168.368
0
LINE
8
0
6
CONTINUOUS
62
7
10
117.607
20
168.368
11
116.807
21
168.368
0
LINE
8
0
6
CONTINUOUS
62
7
10
116.807
20
168.368
11
116.807
21
168.967
0
LINE
8
0
6
CONTINUOUS
62
7
10
116.807
20
168.967
11
102.807
21
168.967
0
LINE
8
0
6
CONTINUOUS
62
7
10
121.857
20
168.967
11
121.857
21
168.368
0
LINE
8
0
6
CONTINUOUS
62
7
10
121.857
20
168.368
11
121.056
21
168.368
0
LINE
8
0
6
CONTINUOUS
62
7
10
121.056
20
168.368
11
121.056
21
155.568
0
LINE
8
0
6
CONTINUOUS
62
7
10
121.056
20
155.568
11
121.857
21
155.568
0
LINE
8
0
6
CONTINUOUS
62
7
10
121.857
20
155.568
11
121.857
21
154.968
0
LINE
8
0
6
CONTINUOUS
62
7
10
121.857
20
154.968
11
135.857
21
154.968
0
LINE
8
0
6
CONTINUOUS
62
7
10
135.857
20
154.968
11
135.857
21
155.568
0
LINE
8
0
6
CONTINUOUS
62
7
10
135.857
20
155.568
11
136.657
21
155.568
0
LINE
8
0
6
CONTINUOUS
62
7
10
136.657
20
155.568
11
136.657
21
168.368
0
LINE
8
0
6
CONTINUOUS
62
7
10
136.657
20
168.368
11
135.857
21
168.368
0
LINE
8
0
6
CONTINUOUS
62
7
10
135.857
20
168.368
11
135.857
21
168.967
0
LINE
8
0
6
CONTINUOUS
62
7
10
135.857
20
168.967
11
121.857
21
168.967
0
LINE
8
0
6
CONTINUOUS
62
7
10
140.907
20
168.967
11
140.907
21
168.368
0
LINE
8
0
6
CONTINUOUS
62
7
10
140.907
20
168.368
11
140.106
21
168.368
0
LINE
8
0
6
CONTINUOUS
62
7
10
140.106
20
168.368
11
140.106
21
155.568
0
LINE
8
0
6
CONTINUOUS
62
7
10
140.106
20
155.568
11
140.907
21
155.568
0
LINE
8
0
6
CONTINUOUS
62
7
10
140.907
20
155.568
11
140.907
21
154.968
0
LINE
8
0
6
CONTINUOUS
62
7
10
140.907
20
154.968
11
154.907
21
154.968
0
LINE
8
0
6
CONTINUOUS
62
7
10
154.907
20
154.968
11
154.907
21
155.568
0
LINE
8
0
6
CONTINUOUS
62
7
10
154.907
20
155.568
11
155.707
21
155.568
0
LINE
8
0
6
CONTINUOUS
62
7
10
155.707
20
155.568
11
155.707
21
168.368
0
LINE
8
0
6
CONTINUOUS
62
7
10
155.707
20
168.368
11
154.907
21
168.368
0
LINE
8
0
6
CONTINUOUS
62
7
10
154.907
20
168.368
11
154.907
21
168.967
0
LINE
8
0
6
CONTINUOUS
62
7
10
154.907
20
168.967
11
140.907
21
168.967
0
LINE
8
0
6
CONTINUOUS
62
7
10
159.957
20
168.967
11
159.957
21
168.368
0
LINE
8
0
6
CONTINUOUS
62
7
10
159.957
20
168.368
11
159.156
21
168.368
0
LINE
8
0
6
CONTINUOUS
62
7
10
159.156
20
168.368
11
159.156
21
155.568
0
LINE
8
0
6
CONTINUOUS
62
7
10
159.156
20
155.568
11
159.957
21
155.568
0
LINE
8
0
6
CONTINUOUS
62
7
10
159.957
20
155.568
11
159.957
21
154.968
0
LINE
8
0
6
CONTINUOUS
62
7
10
159.957
20
154.968
11
173.957
21
154.968
0
LINE
8
0
6
CONTINUOUS
62
7
10
173.957
20
154.968
11
173.957
21
155.568
0
LINE
8
0
6
CONTINUOUS
62
7
10
173.957
20
155.568
11
174.757
21
155.568
0
LINE
8
0
6
CONTINUOUS
62
7
10
174.757
20
155.568
11
174.757
21
168.368
0
LINE
8
0
6
CONTINUOUS
62
7
10
174.757
20
168.368
11
173.957
21
168.368
0
LINE
8
0
6
CONTINUOUS
62
7
10
173.957
20
168.368
11
173.957
21
168.967
0
LINE
8
0
6
CONTINUOUS
62
7
10
173.957
20
168.967
11
159.957
21
168.967
0
LINE
8
0
6
CONTINUOUS
62
7
10
179.007
20
168.967
11
179.007
21
168.368
0
LINE
8
0
6
CONTINUOUS
62
7
10
179.007
20
168.368
11
178.206
21
168.368
0
LINE
8
0
6
CONTINUOUS
62
7
10
178.206
20
168.368
11
178.206
21
155.568
0
LINE
8
0
6
CONTINUOUS
62
7
10
178.206
20
155.568
11
179.007
21
155.568
0
LINE
8
0
6
CONTINUOUS
62
7
10
179.007
20
155.568
11
179.007
21
154.968
0
LINE
8
0
6
CONTINUOUS
62
7
10
179.007
20
154.968
11
193.007
21
154.968
0
LINE
8
0
6
CONTINUOUS
62
7
10
193.007
20
154.968
11
193.007
21
155.568
0
LINE
8
0
6
CONTINUOUS
62
7
10
193.007
20
155.568
11
193.807
21
155.568
0
LINE
8
0
6
CONTINUOUS
62
7
10
193.807
20
155.568
11
193.807
21
168.368
0
LINE
8
0
6
CONTINUOUS
62
7
10
193.807
20
168.368
11
193.007
21
168.368
0
LINE
8
0
6
CONTINUOUS
62
7
10
193.007
20
168.368
11
193.007
21
168.967
0
LINE
8
0
6
CONTINUOUS
62
7
10
193.007
20
168.967
11
179.007
21
168.967
0
LINE
8
0
6
CONTINUOUS
62
7
10
198.057
20
168.967
11
198.057
21
168.368
0
LINE
8
0
6
CONTINUOUS
62
7
10
198.057
20
168.368
11
197.256
21
168.368
0
LINE
8
0
6
CONTINUOUS
62
7
10
197.256
20
168.368
11
197.256
21
155.568
0
LINE
8
0
6
CONTINUOUS
62
7
10
197.256
20
155.568
11
198.057
21
155.568
0
LINE
8
0
6
CONTINUOUS
62
7
10
198.057
20
155.568
11
198.057
21
154.968
0
LINE
8
0
6
CONTINUOUS
62
7
10
198.057
20
154.968
11
212.057
21
154.968
0
LINE
8
0
6
CONTINUOUS
62
7
10
212.057
20
154.968
11
212.057
21
155.568
0
LINE
8
0
6
CONTINUOUS
62
7
10
212.057
20
155.568
11
212.857
21
155.568
0
LINE
8
0
6
CONTINUOUS
62
7
10
212.857
20
155.568
11
212.857
21
168.368
0
LINE
8
0
6
CONTINUOUS
62
7
10
212.857
20
168.368
11
212.057
21
168.368
0
LINE
8
0
6
CONTINUOUS
62
7
10
212.057
20
168.368
11
212.057
21
168.967
0
LINE
8
0
6
CONTINUOUS
62
7
10
212.057
20
168.967
11
198.057
21
168.967
0
LINE
8
0
6
CONTINUOUS
62
7
10
217.107
20
168.967
11
217.107
21
168.368
0
LINE
8
0
6
CONTINUOUS
62
7
10
217.107
20
168.368
11
216.306
21
168.368
0
LINE
8
0
6
CONTINUOUS
62
7
10
216.306
20
168.368
11
216.306
21
155.568
0
LINE
8
0
6
CONTINUOUS
62
7
10
216.306
20
155.568
11
217.107
21
155.568
0
LINE
8
0
6
CONTINUOUS
62
7
10
217.107
20
155.568
11
217.107
21
154.968
0
LINE
8
0
6
CONTINUOUS
62
7
10
217.107
20
154.968
11
231.107
21
154.968
0
LINE
8
0
6
CONTINUOUS
62
7
10
231.107
20
154.968
11
231.107
21
155.568
0
LINE
8
0
6
CONTINUOUS
62
7
10
231.107
20
155.568
11
231.907
21
155.568
0
LINE
8
0
6
CONTINUOUS
62
7
10
231.907
20
155.568
11
231.907
21
168.368
0
LINE
8
0
6
CONTINUOUS
62
7
10
231.907
20
168.368
11
231.107
21
168.368
0
LINE
8
0
6
CONTINUOUS
62
7
10
231.107
20
168.368
11
231.107
21
168.967
0
LINE
8
0
6
CONTINUOUS
62
7
10
231.107
20
168.967
11
217.107
21
168.967
0
LINE
8
0
6
CONTINUOUS
62
7
10
236.157
20
168.967
11
236.157
21
168.368
0
LINE
8
0
6
CONTINUOUS
62
7
10
236.157
20
168.368
11
235.356
21
168.368
0
LINE
8
0
6
CONTINUOUS
62
7
10
235.356
20
168.368
11
235.356
21
155.568
0
LINE
8
0
6
CONTINUOUS
62
7
10
235.356
20
155.568
11
236.157
21
155.568
0
LINE
8
0
6
CONTINUOUS
62
7
10
236.157
20
155.568
11
236.157
21
154.968
0
LINE
8
0
6
CONTINUOUS
62
7
10
236.157
20
154.968
11
250.157
21
154.968
0
LINE
8
0
6
CONTINUOUS
62
7
10
250.157
20
154.968
11
250.157
21
155.568
0
LINE
8
0
6
CONTINUOUS
62
7
10
250.157
20
155.568
11
250.957
21
155.568
0
LINE
8
0
6
CONTINUOUS
62
7
10
250.957
20
155.568
11
250.957
21
168.368
0
LINE
8
0
6
CONTINUOUS
62
7
10
250.957
20
168.368
11
250.157
21
168.368
0
LINE
8
0
6
CONTINUOUS
62
7
10
250.157
20
168.368
11
250.157
21
168.967
0
LINE
8
0
6
CONTINUOUS
62
7
10
250.157
20
168.967
11
236.157
21
168.967
0
LINE
8
0
6
CONTINUOUS
62
7
10
255.207
20
168.967
11
255.207
21
168.368
0
LINE
8
0
6
CONTINUOUS
62
7
10
255.207
20
168.368
11
254.406
21
168.368
0
LINE
8
0
6
CONTINUOUS
62
7
10
254.406
20
168.368
11
254.406
21
155.568
0
LINE
8
0
6
CONTINUOUS
62
7
10
254.406
20
155.568
11
255.207
21
155.568
0
LINE
8
0
6
CONTINUOUS
62
7
10
255.207
20
155.568
11
255.207
21
154.968
0
LINE
8
0
6
CONTINUOUS
62
7
10
255.207
20
154.968
11
269.207
21
154.968
0
LINE
8
0
6
CONTINUOUS
62
7
10
269.207
20
154.968
11
269.207
21
155.568
0
LINE
8
0
6
CONTINUOUS
62
7
10
269.207
20
155.568
11
270.007
21
155.568
0
LINE
8
0
6
CONTINUOUS
62
7
10
270.007
20
155.568
11
270.007
21
168.368
0
LINE
8
0
6
CONTINUOUS
62
7
10
270.007
20
168.368
11
269.207
21
168.368
0
LINE
8
0
6
CONTINUOUS
62
7
10
269.207
20
168.368
11
269.207
21
168.967
0
LINE
8
0
6
CONTINUOUS
62
7
10
269.207
20
168.967
11
255.207
21
168.967
0
LINE
8
0
6
CONTINUOUS
62
7
10
317.12
20
168.967
11
317.12
21
168.368
0
LINE
8
0
6
CONTINUOUS
62
7
10
317.12
20
168.368
11
316.32
21
168.368
0
LINE
8
0
6
CONTINUOUS
62
7
10
316.32
20
168.368
11
316.32
21
155.568
0
LINE
8
0
6
CONTINUOUS
62
7
10
316.32
20
155.568
11
317.12
21
155.568
0
LINE
8
0
6
CONTINUOUS
62
7
10
317.12
20
155.568
11
317.12
21
154.968
0
LINE
8
0
6
CONTINUOUS
62
7
10
317.12
20
154.968
11
331.119
21
154.968
0
LINE
8
0
6
CONTINUOUS
62
7
10
331.119
20
154.968
11
331.119
21
155.568
0
LINE
8
0
6
CONTINUOUS
62
7
10
331.119
20
155.568
11
331.92
21
155.568
0
LINE
8
0
6
CONTINUOUS
62
7
10
331.92
20
155.568
11
331.92
21
168.368
0
LINE
8
0
6
CONTINUOUS
62
7
10
331.92
20
168.368
11
331.119
21
168.368
0
LINE
8
0
6
CONTINUOUS
62
7
10
331.119
20
168.368
11
331.119
21
168.967
0
LINE
8
0
6
CONTINUOUS
62
7
10
331.119
20
168.967
11
317.12
21
168.967
0
LINE
8
0
6
CONTINUOUS
62
7
10
336.17
20
168.967
11
336.17
21
168.368
0
LINE
8
0
6
CONTINUOUS
62
7
10
336.17
20
168.368
11
335.37
21
168.368
0
LINE
8
0
6
CONTINUOUS
62
7
10
335.37
20
168.368
11
335.37
21
155.568
0
LINE
8
0
6
CONTINUOUS
62
7
10
335.37
20
155.568
11
336.17
21
155.568
0
LINE
8
0
6
CONTINUOUS
62
7
10
336.17
20
155.568
11
336.17
21
154.968
0
LINE
8
0
6
CONTINUOUS
62
7
10
336.17
20
154.968
11
350.169
21
154.968
0
LINE
8
0
6
CONTINUOUS
62
7
10
350.169
20
154.968
11
350.169
21
155.568
0
LINE
8
0
6
CONTINUOUS
62
7
10
350.169
20
155.568
11
350.97
21
155.568
0
LINE
8
0
6
CONTINUOUS
62
7
10
350.97
20
155.568
11
350.97
21
168.368
0
LINE
8
0
6
CONTINUOUS
62
7
10
350.97
20
168.368
11
350.169
21
168.368
0
LINE
8
0
6
CONTINUOUS
62
7
10
350.169
20
168.368
11
350.169
21
168.967
0
LINE
8
0
6
CONTINUOUS
62
7
10
350.169
20
168.967
11
336.17
21
168.967
0
LINE
8
0
6
CONTINUOUS
62
7
10
355.22
20
168.967
11
355.22
21
168.368
0
LINE
8
0
6
CONTINUOUS
62
7
10
355.22
20
168.368
11
354.42
21
168.368
0
LINE
8
0
6
CONTINUOUS
62
7
10
354.42
20
168.368
11
354.42
21
155.568
0
LINE
8
0
6
CONTINUOUS
62
7
10
354.42
20
155.568
11
355.22
21
155.568
0
LINE
8
0
6
CONTINUOUS
62
7
10
355.22
20
155.568
11
355.22
21
154.968
0
LINE
8
0
6
CONTINUOUS
62
7
10
355.22
20
154.968
11
369.219
21
154.968
0
LINE
8
0
6
CONTINUOUS
62
7
10
369.219
20
154.968
11
369.219
21
155.568
0
LINE
8
0
6
CONTINUOUS
62
7
10
369.219
20
155.568
11
370.02
21
155.568
0
LINE
8
0
6
CONTINUOUS
62
7
10
370.02
20
155.568
11
370.02
21
168.368
0
LINE
8
0
6
CONTINUOUS
62
7
10
370.02
20
168.368
11
369.219
21
168.368
0
LINE
8
0
6
CONTINUOUS
62
7
10
369.219
20
168.368
11
369.219
21
168.967
0
LINE
8
0
6
CONTINUOUS
62
7
10
369.219
20
168.967
11
355.22
21
168.967
0
LINE
8
0
6
CONTINUOUS
62
7
10
380.77
20
187.593
11
380.77
21
186.768
0
LINE
8
0
6
CONTINUOUS
62
7
10
380.77
20
186.768
11
374.5
21
186.768
0
LINE
8
0
6
CONTINUOUS
62
7
10
374.5
20
186.768
11
374.5
21
185.042
0
LINE
8
0
6
CONTINUOUS
62
7
10
374.5
20
185.042
11
373.3
21
185.042
0
LINE
8
0
6
CONTINUOUS
62
7
10
373.3
20
185.042
11
373.3
21
181.742
0
LINE
8
0
6
CONTINUOUS
62
7
10
373.3
20
181.742
11
374.5
21
181.742
0
LINE
8
0
6
CONTINUOUS
62
7
10
374.5
20
181.742
11
374.5
21
180.018
0
LINE
8
0
6
CONTINUOUS
62
7
10
374.5
20
180.018
11
378.97
21
180.018
0
LINE
8
0
6
CONTINUOUS
62
7
10
378.97
20
180.018
11
378.97
21
179.292
0
LINE
8
0
6
CONTINUOUS
62
7
10
378.97
20
179.292
11
374.869
21
179.292
0
LINE
8
0
6
CONTINUOUS
62
7
10
374.869
20
179.292
11
374.869
21
178.492
0
LINE
8
0
6
CONTINUOUS
62
7
10
374.869
20
178.492
11
374.27
21
178.492
0
LINE
8
0
6
CONTINUOUS
62
7
10
374.27
20
178.492
11
374.27
21
164.493
0
LINE
8
0
6
CONTINUOUS
62
7
10
374.27
20
164.493
11
374.869
21
164.493
0
LINE
8
0
6
CONTINUOUS
62
7
10
374.869
20
164.493
11
374.869
21
163.692
0
LINE
8
0
6
CONTINUOUS
62
7
10
374.869
20
163.692
11
378.97
21
163.692
0
LINE
8
0
6
CONTINUOUS
62
7
10
378.97
20
163.692
11
378.97
21
162.968
0
LINE
8
0
6
CONTINUOUS
62
7
10
378.97
20
162.968
11
374.5
21
162.968
0
LINE
8
0
6
CONTINUOUS
62
7
10
374.5
20
162.968
11
374.5
21
161.242
0
LINE
8
0
6
CONTINUOUS
62
7
10
374.5
20
161.242
11
373.3
21
161.242
0
LINE
8
0
6
CONTINUOUS
62
7
10
373.3
20
161.242
11
373.3
21
157.942
0
LINE
8
0
6
CONTINUOUS
62
7
10
373.3
20
157.942
11
374.5
21
157.942
0
LINE
8
0
6
CONTINUOUS
62
7
10
374.5
20
157.942
11
374.5
21
156.218
0
LINE
8
0
6
CONTINUOUS
62
7
10
374.5
20
156.218
11
380.77
21
156.218
0
LINE
8
0
6
CONTINUOUS
62
7
10
380.77
20
156.218
11
380.77
21
155.393
0
LINE
8
0
6
CONTINUOUS
62
7
10
380.77
20
155.393
11
383.57
21
155.393
0
LINE
8
0
6
CONTINUOUS
62
7
10
383.57
20
155.393
11
383.57
21
156.218
0
LINE
8
0
6
CONTINUOUS
62
7
10
383.57
20
156.218
11
386.802
21
156.218
0
LINE
8
0
6
CONTINUOUS
62
7
10
386.802
20
156.218
11
386.802
21
162.968
0
LINE
8
0
6
CONTINUOUS
62
7
10
386.802
20
162.968
11
383.57
21
162.968
0
LINE
8
0
6
CONTINUOUS
62
7
10
383.57
20
162.968
11
383.57
21
163.692
0
LINE
8
0
6
CONTINUOUS
62
7
10
383.57
20
163.692
11
387.67
21
163.692
0
LINE
8
0
6
CONTINUOUS
62
7
10
387.67
20
163.692
11
387.67
21
164.493
0
LINE
8
0
6
CONTINUOUS
62
7
10
387.67
20
164.493
11
388.269
21
164.493
0
LINE
8
0
6
CONTINUOUS
62
7
10
388.269
20
164.493
11
388.269
21
178.492
0
LINE
8
0
6
CONTINUOUS
62
7
10
388.269
20
178.492
11
387.67
21
178.492
0
LINE
8
0
6
CONTINUOUS
62
7
10
387.67
20
178.492
11
387.67
21
179.292
0
LINE
8
0
6
CONTINUOUS
62
7
10
387.67
20
179.292
11
383.57
21
179.292
0
LINE
8
0
6
CONTINUOUS
62
7
10
383.57
20
179.292
11
383.57
21
180.018
0
LINE
8
0
6
CONTINUOUS
62
7
10
383.57
20
180.018
11
386.802
21
180.018
0
LINE
8
0
6
CONTINUOUS
62
7
10
386.802
20
180.018
11
386.802
21
186.768
0
LINE
8
0
6
CONTINUOUS
62
7
10
386.802
20
186.768
11
383.57
21
186.768
0
LINE
8
0
6
CONTINUOUS
62
7
10
383.57
20
186.768
11
383.57
21
187.593
0
LINE
8
0
6
CONTINUOUS
62
7
10
383.57
20
187.593
11
380.77
21
187.593
0
LINE
8
0
6
CONTINUOUS
62
7
10
36.1322
20
188.017
11
36.1322
21
187.418
0
LINE
8
0
6
CONTINUOUS
62
7
10
36.1322
20
187.418
11
35.3315
21
187.418
0
LINE
8
0
6
CONTINUOUS
62
7
10
35.3315
20
187.418
11
35.3315
21
174.618
0
LINE
8
0
6
CONTINUOUS
62
7
10
35.3315
20
174.618
11
36.1322
21
174.618
0
LINE
8
0
6
CONTINUOUS
62
7
10
36.1322
20
174.618
11
36.1322
21
174.018
0
LINE
8
0
6
CONTINUOUS
62
7
10
36.1322
20
174.018
11
50.1317
21
174.018
0
LINE
8
0
6
CONTINUOUS
62
7
10
50.1317
20
174.018
11
50.1317
21
174.618
0
LINE
8
0
6
CONTINUOUS
62
7
10
50.1317
20
174.618
11
50.9323
21
174.618
0
LINE
8
0
6
CONTINUOUS
62
7
10
50.9323
20
174.618
11
50.9323
21
187.418
0
LINE
8
0
6
CONTINUOUS
62
7
10
50.9323
20
187.418
11
50.1317
21
187.418
0
LINE
8
0
6
CONTINUOUS
62
7
10
50.1317
20
187.418
11
50.1317
21
188.017
0
LINE
8
0
6
CONTINUOUS
62
7
10
50.1317
20
188.017
11
36.1322
21
188.017
0
LINE
8
0
6
CONTINUOUS
62
7
10
59.9447
20
188.017
11
59.9447
21
187.418
0
LINE
8
0
6
CONTINUOUS
62
7
10
59.9447
20
187.418
11
59.1454
21
187.418
0
LINE
8
0
6
CONTINUOUS
62
7
10
59.1454
20
187.418
11
59.1454
21
174.618
0
LINE
8
0
6
CONTINUOUS
62
7
10
59.1454
20
174.618
11
59.9447
21
174.618
0
LINE
8
0
6
CONTINUOUS
62
7
10
59.9447
20
174.618
11
59.9447
21
174.018
0
LINE
8
0
6
CONTINUOUS
62
7
10
59.9447
20
174.018
11
73.944
21
174.018
0
LINE
8
0
6
CONTINUOUS
62
7
10
73.944
20
174.018
11
73.944
21
174.618
0
LINE
8
0
6
CONTINUOUS
62
7
10
73.944
20
174.618
11
74.7448
21
174.618
0
LINE
8
0
6
CONTINUOUS
62
7
10
74.7448
20
174.618
11
74.7448
21
187.418
0
LINE
8
0
6
CONTINUOUS
62
7
10
74.7448
20
187.418
11
73.944
21
187.418
0
LINE
8
0
6
CONTINUOUS
62
7
10
73.944
20
187.418
11
73.944
21
188.017
0
LINE
8
0
6
CONTINUOUS
62
7
10
73.944
20
188.017
11
59.9447
21
188.017
0
LINE
8
0
6
CONTINUOUS
62
7
10
78.9947
20
188.017
11
78.9947
21
187.418
0
LINE
8
0
6
CONTINUOUS
62
7
10
78.9947
20
187.418
11
78.1953
21
187.418
0
LINE
8
0
6
CONTINUOUS
62
7
10
78.1953
20
187.418
11
78.1953
21
174.618
0
LINE
8
0
6
CONTINUOUS
62
7
10
78.1953
20
174.618
11
78.9947
21
174.618
0
LINE
8
0
6
CONTINUOUS
62
7
10
78.9947
20
174.618
11
78.9947
21
174.018
0
LINE
8
0
6
CONTINUOUS
62
7
10
78.9947
20
174.018
11
92.994
21
174.018
0
LINE
8
0
6
CONTINUOUS
62
7
10
92.994
20
174.018
11
92.994
21
174.618
0
LINE
8
0
6
CONTINUOUS
62
7
10
92.994
20
174.618
11
93.7948
21
174.618
0
LINE
8
0
6
CONTINUOUS
62
7
10
93.7948
20
174.618
11
93.7948
21
187.418
0
LINE
8
0
6
CONTINUOUS
62
7
10
93.7948
20
187.418
11
92.994
21
187.418
0
LINE
8
0
6
CONTINUOUS
62
7
10
92.994
20
187.418
11
92.994
21
188.017
0
LINE
8
0
6
CONTINUOUS
62
7
10
92.994
20
188.017
11
78.9947
21
188.017
0
LINE
8
0
6
CONTINUOUS
62
7
10
98.0447
20
188.017
11
98.0447
21
187.418
0
LINE
8
0
6
CONTINUOUS
62
7
10
98.0447
20
187.418
11
97.2453
21
187.418
0
LINE
8
0
6
CONTINUOUS
62
7
10
97.2453
20
187.418
11
97.2453
21
174.618
0
LINE
8
0
6
CONTINUOUS
62
7
10
97.2453
20
174.618
11
98.0447
21
174.618
0
LINE
8
0
6
CONTINUOUS
62
7
10
98.0447
20
174.618
11
98.0447
21
174.018
0
LINE
8
0
6
CONTINUOUS
62
7
10
98.0447
20
174.018
11
112.044
21
174.018
0
LINE
8
0
6
CONTINUOUS
62
7
10
112.044
20
174.018
11
112.044
21
174.618
0
LINE
8
0
6
CONTINUOUS
62
7
10
112.044
20
174.618
11
112.845
21
174.618
0
LINE
8
0
6
CONTINUOUS
62
7
10
112.845
20
174.618
11
112.845
21
187.418
0
LINE
8
0
6
CONTINUOUS
62
7
10
112.845
20
187.418
11
112.044
21
187.418
0
LINE
8
0
6
CONTINUOUS
62
7
10
112.044
20
187.418
11
112.044
21
188.017
0
LINE
8
0
6
CONTINUOUS
62
7
10
112.044
20
188.017
11
98.0447
21
188.017
0
LINE
8
0
6
CONTINUOUS
62
7
10
117.095
20
188.017
11
117.095
21
187.418
0
LINE
8
0
6
CONTINUOUS
62
7
10
117.095
20
187.418
11
116.295
21
187.418
0
LINE
8
0
6
CONTINUOUS
62
7
10
116.295
20
187.418
11
116.295
21
174.618
0
LINE
8
0
6
CONTINUOUS
62
7
10
116.295
20
174.618
11
117.095
21
174.618
0
LINE
8
0
6
CONTINUOUS
62
7
10
117.095
20
174.618
11
117.095
21
174.018
0
LINE
8
0
6
CONTINUOUS
62
7
10
117.095
20
174.018
11
131.094
21
174.018
0
LINE
8
0
6
CONTINUOUS
62
7
10
131.094
20
174.018
11
131.094
21
174.618
0
LINE
8
0
6
CONTINUOUS
62
7
10
131.094
20
174.618
11
131.895
21
174.618
0
LINE
8
0
6
CONTINUOUS
62
7
10
131.895
20
174.618
11
131.895
21
187.418
0
LINE
8
0
6
CONTINUOUS
62
7
10
131.895
20
187.418
11
131.094
21
187.418
0
LINE
8
0
6
CONTINUOUS
62
7
10
131.094
20
187.418
11
131.094
21
188.017
0
LINE
8
0
6
CONTINUOUS
62
7
10
131.094
20
188.017
11
117.095
21
188.017
0
LINE
8
0
6
CONTINUOUS
62
7
10
136.145
20
188.017
11
136.145
21
187.418
0
LINE
8
0
6
CONTINUOUS
62
7
10
136.145
20
187.418
11
135.345
21
187.418
0
LINE
8
0
6
CONTINUOUS
62
7
10
135.345
20
187.418
11
135.345
21
174.618
0
LINE
8
0
6
CONTINUOUS
62
7
10
135.345
20
174.618
11
136.145
21
174.618
0
LINE
8
0
6
CONTINUOUS
62
7
10
136.145
20
174.618
11
136.145
21
174.018
0
LINE
8
0
6
CONTINUOUS
62
7
10
136.145
20
174.018
11
150.144
21
174.018
0
LINE
8
0
6
CONTINUOUS
62
7
10
150.144
20
174.018
11
150.144
21
174.618
0
LINE
8
0
6
CONTINUOUS
62
7
10
150.144
20
174.618
11
150.945
21
174.618
0
LINE
8
0
6
CONTINUOUS
62
7
10
150.945
20
174.618
11
150.945
21
187.418
0
LINE
8
0
6
CONTINUOUS
62
7
10
150.945
20
187.418
11
150.144
21
187.418
0
LINE
8
0
6
CONTINUOUS
62
7
10
150.144
20
187.418
11
150.144
21
188.017
0
LINE
8
0
6
CONTINUOUS
62
7
10
150.144
20
188.017
11
136.145
21
188.017
0
LINE
8
0
6
CONTINUOUS
62
7
10
155.195
20
188.017
11
155.195
21
187.418
0
LINE
8
0
6
CONTINUOUS
62
7
10
155.195
20
187.418
11
154.394
21
187.418
0
LINE
8
0
6
CONTINUOUS
62
7
10
154.394
20
187.418
11
154.394
21
174.618
0
LINE
8
0
6
CONTINUOUS
62
7
10
154.394
20
174.618
11
155.195
21
174.618
0
LINE
8
0
6
CONTINUOUS
62
7
10
155.195
20
174.618
11
155.195
21
174.018
0
LINE
8
0
6
CONTINUOUS
62
7
10
155.195
20
174.018
11
169.194
21
174.018
0
LINE
8
0
6
CONTINUOUS
62
7
10
169.194
20
174.018
11
169.194
21
174.618
0
LINE
8
0
6
CONTINUOUS
62
7
10
169.194
20
174.618
11
169.995
21
174.618
0
LINE
8
0
6
CONTINUOUS
62
7
10
169.995
20
174.618
11
169.995
21
187.418
0
LINE
8
0
6
CONTINUOUS
62
7
10
169.995
20
187.418
11
169.194
21
187.418
0
LINE
8
0
6
CONTINUOUS
62
7
10
169.194
20
187.418
11
169.194
21
188.017
0
LINE
8
0
6
CONTINUOUS
62
7
10
169.194
20
188.017
11
155.195
21
188.017
0
LINE
8
0
6
CONTINUOUS
62
7
10
174.245
20
188.017
11
174.245
21
187.418
0
LINE
8
0
6
CONTINUOUS
62
7
10
174.245
20
187.418
11
173.445
21
187.418
0
LINE
8
0
6
CONTINUOUS
62
7
10
173.445
20
187.418
11
173.445
21
174.618
0
LINE
8
0
6
CONTINUOUS
62
7
10
173.445
20
174.618
11
174.245
21
174.618
0
LINE
8
0
6
CONTINUOUS
62
7
10
174.245
20
174.618
11
174.245
21
174.018
0
LINE
8
0
6
CONTINUOUS
62
7
10
174.245
20
174.018
11
188.244
21
174.018
0
LINE
8
0
6
CONTINUOUS
62
7
10
188.244
20
174.018
11
188.244
21
174.618
0
LINE
8
0
6
CONTINUOUS
62
7
10
188.244
20
174.618
11
189.045
21
174.618
0
LINE
8
0
6
CONTINUOUS
62
7
10
189.045
20
174.618
11
189.045
21
187.418
0
LINE
8
0
6
CONTINUOUS
62
7
10
189.045
20
187.418
11
188.244
21
187.418
0
LINE
8
0
6
CONTINUOUS
62
7
10
188.244
20
187.418
11
188.244
21
188.017
0
LINE
8
0
6
CONTINUOUS
62
7
10
188.244
20
188.017
11
174.245
21
188.017
0
LINE
8
0
6
CONTINUOUS
62
7
10
193.295
20
188.017
11
193.295
21
187.418
0
LINE
8
0
6
CONTINUOUS
62
7
10
193.295
20
187.418
11
192.495
21
187.418
0
LINE
8
0
6
CONTINUOUS
62
7
10
192.495
20
187.418
11
192.495
21
174.618
0
LINE
8
0
6
CONTINUOUS
62
7
10
192.495
20
174.618
11
193.295
21
174.618
0
LINE
8
0
6
CONTINUOUS
62
7
10
193.295
20
174.618
11
193.295
21
174.018
0
LINE
8
0
6
CONTINUOUS
62
7
10
193.295
20
174.018
11
207.294
21
174.018
0
LINE
8
0
6
CONTINUOUS
62
7
10
207.294
20
174.018
11
207.294
21
174.618
0
LINE
8
0
6
CONTINUOUS
62
7
10
207.294
20
174.618
11
208.095
21
174.618
0
LINE
8
0
6
CONTINUOUS
62
7
10
208.095
20
174.618
11
208.095
21
187.418
0
LINE
8
0
6
CONTINUOUS
62
7
10
208.095
20
187.418
11
207.294
21
187.418
0
LINE
8
0
6
CONTINUOUS
62
7
10
207.294
20
187.418
11
207.294
21
188.017
0
LINE
8
0
6
CONTINUOUS
62
7
10
207.294
20
188.017
11
193.295
21
188.017
0
LINE
8
0
6
CONTINUOUS
62
7
10
212.345
20
188.017
11
212.345
21
187.418
0
LINE
8
0
6
CONTINUOUS
62
7
10
212.345
20
187.418
11
211.545
21
187.418
0
LINE
8
0
6
CONTINUOUS
62
7
10
211.545
20
187.418
11
211.545
21
174.618
0
LINE
8
0
6
CONTINUOUS
62
7
10
211.545
20
174.618
11
212.345
21
174.618
0
LINE
8
0
6
CONTINUOUS
62
7
10
212.345
20
174.618
11
212.345
21
174.018
0
LINE
8
0
6
CONTINUOUS
62
7
10
212.345
20
174.018
11
226.344
21
174.018
0
LINE
8
0
6
CONTINUOUS
62
7
10
226.344
20
174.018
11
226.344
21
174.618
0
LINE
8
0
6
CONTINUOUS
62
7
10
226.344
20
174.618
11
227.145
21
174.618
0
LINE
8
0
6
CONTINUOUS
62
7
10
227.145
20
174.618
11
227.145
21
187.418
0
LINE
8
0
6
CONTINUOUS
62
7
10
227.145
20
187.418
11
226.344
21
187.418
0
LINE
8
0
6
CONTINUOUS
62
7
10
226.344
20
187.418
11
226.344
21
188.017
0
LINE
8
0
6
CONTINUOUS
62
7
10
226.344
20
188.017
11
212.345
21
188.017
0
LINE
8
0
6
CONTINUOUS
62
7
10
231.395
20
188.017
11
231.395
21
187.418
0
LINE
8
0
6
CONTINUOUS
62
7
10
231.395
20
187.418
11
230.595
21
187.418
0
LINE
8
0
6
CONTINUOUS
62
7
10
230.595
20
187.418
11
230.595
21
174.618
0
LINE
8
0
6
CONTINUOUS
62
7
10
230.595
20
174.618
11
231.395
21
174.618
0
LINE
8
0
6
CONTINUOUS
62
7
10
231.395
20
174.618
11
231.395
21
174.018
0
LINE
8
0
6
CONTINUOUS
62
7
10
231.395
20
174.018
11
245.394
21
174.018
0
LINE
8
0
6
CONTINUOUS
62
7
10
245.394
20
174.018
11
245.394
21
174.618
0
LINE
8
0
6
CONTINUOUS
62
7
10
245.394
20
174.618
11
246.195
21
174.618
0
LINE
8
0
6
CONTINUOUS
62
7
10
246.195
20
174.618
11
246.195
21
187.418
0
LINE
8
0
6
CONTINUOUS
62
7
10
246.195
20
187.418
11
245.394
21
187.418
0
LINE
8
0
6
CONTINUOUS
62
7
10
245.394
20
187.418
11
245.394
21
188.017
0
LINE
8
0
6
CONTINUOUS
62
7
10
245.394
20
188.017
11
231.395
21
188.017
0
LINE
8
0
6
CONTINUOUS
62
7
10
250.445
20
188.017
11
250.445
21
187.418
0
LINE
8
0
6
CONTINUOUS
62
7
10
250.445
20
187.418
11
249.645
21
187.418
0
LINE
8
0
6
CONTINUOUS
62
7
10
249.645
20
187.418
11
249.645
21
174.618
0
LINE
8
0
6
CONTINUOUS
62
7
10
249.645
20
174.618
11
250.445
21
174.618
0
LINE
8
0
6
CONTINUOUS
62
7
10
250.445
20
174.618
11
250.445
21
174.018
0
LINE
8
0
6
CONTINUOUS
62
7
10
250.445
20
174.018
11
264.444
21
174.018
0
LINE
8
0
6
CONTINUOUS
62
7
10
264.444
20
174.018
11
264.444
21
174.618
0
LINE
8
0
6
CONTINUOUS
62
7
10
264.444
20
174.618
11
265.245
21
174.618
0
LINE
8
0
6
CONTINUOUS
62
7
10
265.245
20
174.618
11
265.245
21
187.418
0
LINE
8
0
6
CONTINUOUS
62
7
10
265.245
20
187.418
11
264.444
21
187.418
0
LINE
8
0
6
CONTINUOUS
62
7
10
264.444
20
187.418
11
264.444
21
188.017
0
LINE
8
0
6
CONTINUOUS
62
7
10
264.444
20
188.017
11
250.445
21
188.017
0
LINE
8
0
6
CONTINUOUS
62
7
10
269.495
20
188.017
11
269.495
21
187.418
0
LINE
8
0
6
CONTINUOUS
62
7
10
269.495
20
187.418
11
268.695
21
187.418
0
LINE
8
0
6
CONTINUOUS
62
7
10
268.695
20
187.418
11
268.695
21
174.618
0
LINE
8
0
6
CONTINUOUS
62
7
10
268.695
20
174.618
11
269.495
21
174.618
0
LINE
8
0
6
CONTINUOUS
62
7
10
269.495
20
174.618
11
269.495
21
174.018
0
LINE
8
0
6
CONTINUOUS
62
7
10
269.495
20
174.018
11
283.494
21
174.018
0
LINE
8
0
6
CONTINUOUS
62
7
10
283.494
20
174.018
11
283.494
21
174.618
0
LINE
8
0
6
CONTINUOUS
62
7
10
283.494
20
174.618
11
284.295
21
174.618
0
LINE
8
0
6
CONTINUOUS
62
7
10
284.295
20
174.618
11
284.295
21
187.418
0
LINE
8
0
6
CONTINUOUS
62
7
10
284.295
20
187.418
11
283.494
21
187.418
0
LINE
8
0
6
CONTINUOUS
62
7
10
283.494
20
187.418
11
283.494
21
188.017
0
LINE
8
0
6
CONTINUOUS
62
7
10
283.494
20
188.017
11
269.495
21
188.017
0
LINE
8
0
6
CONTINUOUS
62
7
10
293.307
20
188.017
11
293.307
21
187.418
0
LINE
8
0
6
CONTINUOUS
62
7
10
293.307
20
187.418
11
292.506
21
187.418
0
LINE
8
0
6
CONTINUOUS
62
7
10
292.506
20
187.418
11
292.506
21
174.618
0
LINE
8
0
6
CONTINUOUS
62
7
10
292.506
20
174.618
11
293.307
21
174.618
0
LINE
8
0
6
CONTINUOUS
62
7
10
293.307
20
174.618
11
293.307
21
174.018
0
LINE
8
0
6
CONTINUOUS
62
7
10
293.307
20
174.018
11
307.307
21
174.018
0
LINE
8
0
6
CONTINUOUS
62
7
10
307.307
20
174.018
11
307.307
21
174.618
0
LINE
8
0
6
CONTINUOUS
62
7
10
307.307
20
174.618
11
308.107
21
174.618
0
LINE
8
0
6
CONTINUOUS
62
7
10
308.107
20
174.618
11
308.107
21
187.418
0
LINE
8
0
6
CONTINUOUS
62
7
10
308.107
20
187.418
11
307.307
21
187.418
0
LINE
8
0
6
CONTINUOUS
62
7
10
307.307
20
187.418
11
307.307
21
188.017
0
LINE
8
0
6
CONTINUOUS
62
7
10
307.307
20
188.017
11
293.307
21
188.017
0
LINE
8
0
6
CONTINUOUS
62
7
10
317.12
20
188.017
11
317.12
21
187.418
0
LINE
8
0
6
CONTINUOUS
62
7
10
317.12
20
187.418
11
316.32
21
187.418
0
LINE
8
0
6
CONTINUOUS
62
7
10
316.32
20
187.418
11
316.32
21
174.618
0
LINE
8
0
6
CONTINUOUS
62
7
10
316.32
20
174.618
11
317.12
21
174.618
0
LINE
8
0
6
CONTINUOUS
62
7
10
317.12
20
174.618
11
317.12
21
174.018
0
LINE
8
0
6
CONTINUOUS
62
7
10
317.12
20
174.018
11
331.119
21
174.018
0
LINE
8
0
6
CONTINUOUS
62
7
10
331.119
20
174.018
11
331.119
21
174.618
0
LINE
8
0
6
CONTINUOUS
62
7
10
331.119
20
174.618
11
331.92
21
174.618
0
LINE
8
0
6
CONTINUOUS
62
7
10
331.92
20
174.618
11
331.92
21
187.418
0
LINE
8
0
6
CONTINUOUS
62
7
10
331.92
20
187.418
11
331.119
21
187.418
0
LINE
8
0
6
CONTINUOUS
62
7
10
331.119
20
187.418
11
331.119
21
188.017
0
LINE
8
0
6
CONTINUOUS
62
7
10
331.119
20
188.017
11
317.12
21
188.017
0
LINE
8
0
6
CONTINUOUS
62
7
10
336.17
20
188.017
11
336.17
21
187.418
0
LINE
8
0
6
CONTINUOUS
62
7
10
336.17
20
187.418
11
335.37
21
187.418
0
LINE
8
0
6
CONTINUOUS
62
7
10
335.37
20
187.418
11
335.37
21
174.618
0
LINE
8
0
6
CONTINUOUS
62
7
10
335.37
20
174.618
11
336.17
21
174.618
0
LINE
8
0
6
CONTINUOUS
62
7
10
336.17
20
174.618
11
336.17
21
174.018
0
LINE
8
0
6
CONTINUOUS
62
7
10
336.17
20
174.018
11
350.169
21
174.018
0
LINE
8
0
6
CONTINUOUS
62
7
10
350.169
20
174.018
11
350.169
21
174.618
0
LINE
8
0
6
CONTINUOUS
62
7
10
350.169
20
174.618
11
350.97
21
174.618
0
LINE
8
0
6
CONTINUOUS
62
7
10
350.97
20
174.618
11
350.97
21
187.418
0
LINE
8
0
6
CONTINUOUS
62
7
10
350.97
20
187.418
11
350.169
21
187.418
0
LINE
8
0
6
CONTINUOUS
62
7
10
350.169
20
187.418
11
350.169
21
188.017
0
LINE
8
0
6
CONTINUOUS
62
7
10
350.169
20
188.017
11
336.17
21
188.017
0
LINE
8
0
6
CONTINUOUS
62
7
10
355.22
20
188.017
11
355.22
21
187.418
0
LINE
8
0
6
CONTINUOUS
62
7
10
355.22
20
187.418
11
354.42
21
187.418
0
LINE
8
0
6
CONTINUOUS
62
7
10
354.42
20
187.418
11
354.42
21
174.618
0
LINE
8
0
6
CONTINUOUS
62
7
10
354.42
20
174.618
11
355.22
21
174.618
0
LINE
8
0
6
CONTINUOUS
62
7
10
355.22
20
174.618
11
355.22
21
174.018
0
LINE
8
0
6
CONTINUOUS
62
7
10
355.22
20
174.018
11
369.219
21
174.018
0
LINE
8
0
6
CONTINUOUS
62
7
10
369.219
20
174.018
11
369.219
21
174.618
0
LINE
8
0
6
CONTINUOUS
62
7
10
369.219
20
174.618
11
370.02
21
174.618
0
LINE
8
0
6
CONTINUOUS
62
7
10
370.02
20
174.618
11
370.02
21
187.418
0
LINE
8
0
6
CONTINUOUS
62
7
10
370.02
20
187.418
11
369.219
21
187.418
0
LINE
8
0
6
CONTINUOUS
62
7
10
369.219
20
187.418
11
369.219
21
188.017
0
LINE
8
0
6
CONTINUOUS
62
7
10
369.219
20
188.017
11
355.22
21
188.017
0
LINE
8
0
6
CONTINUOUS
62
7
10
288.545
20
207.067
11
288.545
21
206.468
0
LINE
8
0
6
CONTINUOUS
62
7
10
288.545
20
206.468
11
287.745
21
206.468
0
LINE
8
0
6
CONTINUOUS
62
7
10
287.745
20
206.468
11
287.745
21
202.367
0
LINE
8
0
6
CONTINUOUS
62
7
10
287.745
20
202.367
11
287.019
21
202.367
0
LINE
8
0
6
CONTINUOUS
62
7
10
287.019
20
202.367
11
287.019
21
205.597
0
LINE
8
0
6
CONTINUOUS
62
7
10
287.019
20
205.597
11
280.27
21
205.597
0
LINE
8
0
6
CONTINUOUS
62
7
10
280.27
20
205.597
11
280.27
21
202.367
0
LINE
8
0
6
CONTINUOUS
62
7
10
280.27
20
202.367
11
279.444
21
202.367
0
LINE
8
0
6
CONTINUOUS
62
7
10
279.444
20
202.367
11
279.444
21
199.567
0
LINE
8
0
6
CONTINUOUS
62
7
10
279.444
20
199.567
11
280.27
21
199.567
0
LINE
8
0
6
CONTINUOUS
62
7
10
280.27
20
199.567
11
280.27
21
193.297
0
LINE
8
0
6
CONTINUOUS
62
7
10
280.27
20
193.297
11
281.993
21
193.297
0
LINE
8
0
6
CONTINUOUS
62
7
10
281.993
20
193.297
11
281.993
21
192.098
0
LINE
8
0
6
CONTINUOUS
62
7
10
281.993
20
192.098
11
285.295
21
192.098
0
LINE
8
0
6
CONTINUOUS
62
7
10
285.295
20
192.098
11
285.295
21
193.297
0
LINE
8
0
6
CONTINUOUS
62
7
10
285.295
20
193.297
11
287.019
21
193.297
0
LINE
8
0
6
CONTINUOUS
62
7
10
287.019
20
193.297
11
287.019
21
197.767
0
LINE
8
0
6
CONTINUOUS
62
7
10
287.019
20
197.767
11
287.745
21
197.767
0
LINE
8
0
6
CONTINUOUS
62
7
10
287.745
20
197.767
11
287.745
21
193.667
0
LINE
8
0
6
CONTINUOUS
62
7
10
287.745
20
193.667
11
288.545
21
193.667
0
LINE
8
0
6
CONTINUOUS
62
7
10
288.545
20
193.667
11
288.545
21
193.068
0
LINE
8
0
6
CONTINUOUS
62
7
10
288.545
20
193.068
11
302.544
21
193.068
0
LINE
8
0
6
CONTINUOUS
62
7
10
302.544
20
193.068
11
302.544
21
193.667
0
LINE
8
0
6
CONTINUOUS
62
7
10
302.544
20
193.667
11
303.345
21
193.667
0
LINE
8
0
6
CONTINUOUS
62
7
10
303.345
20
193.667
11
303.345
21
197.767
0
LINE
8
0
6
CONTINUOUS
62
7
10
303.345
20
197.767
11
304.07
21
197.767
0
LINE
8
0
6
CONTINUOUS
62
7
10
304.07
20
197.767
11
304.07
21
193.297
0
LINE
8
0
6
CONTINUOUS
62
7
10
304.07
20
193.297
11
305.795
21
193.297
0
LINE
8
0
6
CONTINUOUS
62
7
10
305.795
20
193.297
11
305.795
21
192.098
0
LINE
8
0
6
CONTINUOUS
62
7
10
305.795
20
192.098
11
309.095
21
192.098
0
LINE
8
0
6
CONTINUOUS
62
7
10
309.095
20
192.098
11
309.095
21
193.297
0
LINE
8
0
6
CONTINUOUS
62
7
10
309.095
20
193.297
11
310.819
21
193.297
0
LINE
8
0
6
CONTINUOUS
62
7
10
310.819
20
193.297
11
310.819
21
199.567
0
LINE
8
0
6
CONTINUOUS
62
7
10
310.819
20
199.567
11
311.645
21
199.567
0
LINE
8
0
6
CONTINUOUS
62
7
10
311.645
20
199.567
11
311.645
21
202.367
0
LINE
8
0
6
CONTINUOUS
62
7
10
311.645
20
202.367
11
310.819
21
202.367
0
LINE
8
0
6
CONTINUOUS
62
7
10
310.819
20
202.367
11
310.819
21
205.597
0
LINE
8
0
6
CONTINUOUS
62
7
10
310.819
20
205.597
11
304.07
21
205.597
0
LINE
8
0
6
CONTINUOUS
62
7
10
304.07
20
205.597
11
304.07
21
202.367
0
LINE
8
0
6
CONTINUOUS
62
7
10
304.07
20
202.367
11
303.345
21
202.367
0
LINE
8
0
6
CONTINUOUS
62
7
10
303.345
20
202.367
11
303.345
21
206.468
0
LINE
8
0
6
CONTINUOUS
62
7
10
303.345
20
206.468
11
302.544
21
206.468
0
LINE
8
0
6
CONTINUOUS
62
7
10
302.544
20
206.468
11
302.544
21
207.067
0
LINE
8
0
6
CONTINUOUS
62
7
10
302.544
20
207.067
11
288.545
21
207.067
0
LINE
8
0
6
CONTINUOUS
62
7
10
31.3697
20
207.067
11
31.3697
21
206.468
0
LINE
8
0
6
CONTINUOUS
62
7
10
31.3697
20
206.468
11
30.5704
21
206.468
0
LINE
8
0
6
CONTINUOUS
62
7
10
30.5704
20
206.468
11
30.5704
21
193.667
0
LINE
8
0
6
CONTINUOUS
62
7
10
30.5704
20
193.667
11
31.3697
21
193.667
0
LINE
8
0
6
CONTINUOUS
62
7
10
31.3697
20
193.667
11
31.3697
21
193.068
0
LINE
8
0
6
CONTINUOUS
62
7
10
31.3697
20
193.068
11
45.3692
21
193.068
0
LINE
8
0
6
CONTINUOUS
62
7
10
45.3692
20
193.068
11
45.3692
21
193.667
0
LINE
8
0
6
CONTINUOUS
62
7
10
45.3692
20
193.667
11
46.1698
21
193.667
0
LINE
8
0
6
CONTINUOUS
62
7
10
46.1698
20
193.667
11
46.1698
21
206.468
0
LINE
8
0
6
CONTINUOUS
62
7
10
46.1698
20
206.468
11
45.3692
21
206.468
0
LINE
8
0
6
CONTINUOUS
62
7
10
45.3692
20
206.468
11
45.3692
21
207.067
0
LINE
8
0
6
CONTINUOUS
62
7
10
45.3692
20
207.067
11
31.3697
21
207.067
0
LINE
8
0
6
CONTINUOUS
62
7
10
50.4197
20
207.067
11
50.4197
21
206.468
0
LINE
8
0
6
CONTINUOUS
62
7
10
50.4197
20
206.468
11
49.6204
21
206.468
0
LINE
8
0
6
CONTINUOUS
62
7
10
49.6204
20
206.468
11
49.6204
21
193.667
0
LINE
8
0
6
CONTINUOUS
62
7
10
49.6204
20
193.667
11
50.4197
21
193.667
0
LINE
8
0
6
CONTINUOUS
62
7
10
50.4197
20
193.667
11
50.4197
21
193.068
0
LINE
8
0
6
CONTINUOUS
62
7
10
50.4197
20
193.068
11
64.419
21
193.068
0
LINE
8
0
6
CONTINUOUS
62
7
10
64.419
20
193.068
11
64.419
21
193.667
0
LINE
8
0
6
CONTINUOUS
62
7
10
64.419
20
193.667
11
65.2198
21
193.667
0
LINE
8
0
6
CONTINUOUS
62
7
10
65.2198
20
193.667
11
65.2198
21
206.468
0
LINE
8
0
6
CONTINUOUS
62
7
10
65.2198
20
206.468
11
64.419
21
206.468
0
LINE
8
0
6
CONTINUOUS
62
7
10
64.419
20
206.468
11
64.419
21
207.067
0
LINE
8
0
6
CONTINUOUS
62
7
10
64.419
20
207.067
11
50.4197
21
207.067
0
LINE
8
0
6
CONTINUOUS
62
7
10
69.4697
20
207.067
11
69.4697
21
206.468
0
LINE
8
0
6
CONTINUOUS
62
7
10
69.4697
20
206.468
11
68.6703
21
206.468
0
LINE
8
0
6
CONTINUOUS
62
7
10
68.6703
20
206.468
11
68.6703
21
193.667
0
LINE
8
0
6
CONTINUOUS
62
7
10
68.6703
20
193.667
11
69.4697
21
193.667
0
LINE
8
0
6
CONTINUOUS
62
7
10
69.4697
20
193.667
11
69.4697
21
193.068
0
LINE
8
0
6
CONTINUOUS
62
7
10
69.4697
20
193.068
11
83.469
21
193.068
0
LINE
8
0
6
CONTINUOUS
62
7
10
83.469
20
193.068
11
83.469
21
193.667
0
LINE
8
0
6
CONTINUOUS
62
7
10
83.469
20
193.667
11
84.2698
21
193.667
0
LINE
8
0
6
CONTINUOUS
62
7
10
84.2698
20
193.667
11
84.2698
21
206.468
0
LINE
8
0
6
CONTINUOUS
62
7
10
84.2698
20
206.468
11
83.469
21
206.468
0
LINE
8
0
6
CONTINUOUS
62
7
10
83.469
20
206.468
11
83.469
21
207.067
0
LINE
8
0
6
CONTINUOUS
62
7
10
83.469
20
207.067
11
69.4697
21
207.067
0
LINE
8
0
6
CONTINUOUS
62
7
10
88.5197
20
207.067
11
88.5197
21
206.468
0
LINE
8
0
6
CONTINUOUS
62
7
10
88.5197
20
206.468
11
87.7203
21
206.468
0
LINE
8
0
6
CONTINUOUS
62
7
10
87.7203
20
206.468
11
87.7203
21
193.667
0
LINE
8
0
6
CONTINUOUS
62
7
10
87.7203
20
193.667
11
88.5197
21
193.667
0
LINE
8
0
6
CONTINUOUS
62
7
10
88.5197
20
193.667
11
88.5197
21
193.068
0
LINE
8
0
6
CONTINUOUS
62
7
10
88.5197
20
193.068
11
102.519
21
193.068
0
LINE
8
0
6
CONTINUOUS
62
7
10
102.519
20
193.068
11
102.519
21
193.667
0
LINE
8
0
6
CONTINUOUS
62
7
10
102.519
20
193.667
11
103.32
21
193.667
0
LINE
8
0
6
CONTINUOUS
62
7
10
103.32
20
193.667
11
103.32
21
206.468
0
LINE
8
0
6
CONTINUOUS
62
7
10
103.32
20
206.468
11
102.519
21
206.468
0
LINE
8
0
6
CONTINUOUS
62
7
10
102.519
20
206.468
11
102.519
21
207.067
0
LINE
8
0
6
CONTINUOUS
62
7
10
102.519
20
207.067
11
88.5197
21
207.067
0
LINE
8
0
6
CONTINUOUS
62
7
10
107.57
20
207.067
11
107.57
21
206.468
0
LINE
8
0
6
CONTINUOUS
62
7
10
107.57
20
206.468
11
106.77
21
206.468
0
LINE
8
0
6
CONTINUOUS
62
7
10
106.77
20
206.468
11
106.77
21
193.667
0
LINE
8
0
6
CONTINUOUS
62
7
10
106.77
20
193.667
11
107.57
21
193.667
0
LINE
8
0
6
CONTINUOUS
62
7
10
107.57
20
193.667
11
107.57
21
193.068
0
LINE
8
0
6
CONTINUOUS
62
7
10
107.57
20
193.068
11
121.569
21
193.068
0
LINE
8
0
6
CONTINUOUS
62
7
10
121.569
20
193.068
11
121.569
21
193.667
0
LINE
8
0
6
CONTINUOUS
62
7
10
121.569
20
193.667
11
122.368
21
193.667
0
LINE
8
0
6
CONTINUOUS
62
7
10
122.368
20
193.667
11
122.368
21
206.468
0
LINE
8
0
6
CONTINUOUS
62
7
10
122.368
20
206.468
11
121.569
21
206.468
0
LINE
8
0
6
CONTINUOUS
62
7
10
121.569
20
206.468
11
121.569
21
207.067
0
LINE
8
0
6
CONTINUOUS
62
7
10
121.569
20
207.067
11
107.57
21
207.067
0
LINE
8
0
6
CONTINUOUS
62
7
10
126.618
20
207.067
11
126.618
21
206.468
0
LINE
8
0
6
CONTINUOUS
62
7
10
126.618
20
206.468
11
125.82
21
206.468
0
LINE
8
0
6
CONTINUOUS
62
7
10
125.82
20
206.468
11
125.82
21
193.667
0
LINE
8
0
6
CONTINUOUS
62
7
10
125.82
20
193.667
11
126.618
21
193.667
0
LINE
8
0
6
CONTINUOUS
62
7
10
126.618
20
193.667
11
126.618
21
193.068
0
LINE
8
0
6
CONTINUOUS
62
7
10
126.618
20
193.068
11
140.619
21
193.068
0
LINE
8
0
6
CONTINUOUS
62
7
10
140.619
20
193.068
11
140.619
21
193.667
0
LINE
8
0
6
CONTINUOUS
62
7
10
140.619
20
193.667
11
141.418
21
193.667
0
LINE
8
0
6
CONTINUOUS
62
7
10
141.418
20
193.667
11
141.418
21
206.468
0
LINE
8
0
6
CONTINUOUS
62
7
10
141.418
20
206.468
11
140.619
21
206.468
0
LINE
8
0
6
CONTINUOUS
62
7
10
140.619
20
206.468
11
140.619
21
207.067
0
LINE
8
0
6
CONTINUOUS
62
7
10
140.619
20
207.067
11
126.618
21
207.067
0
LINE
8
0
6
CONTINUOUS
62
7
10
145.668
20
207.067
11
145.668
21
206.468
0
LINE
8
0
6
CONTINUOUS
62
7
10
145.668
20
206.468
11
144.869
21
206.468
0
LINE
8
0
6
CONTINUOUS
62
7
10
144.869
20
206.468
11
144.869
21
193.667
0
LINE
8
0
6
CONTINUOUS
62
7
10
144.869
20
193.667
11
145.668
21
193.667
0
LINE
8
0
6
CONTINUOUS
62
7
10
145.668
20
193.667
11
145.668
21
193.068
0
LINE
8
0
6
CONTINUOUS
62
7
10
145.668
20
193.068
11
159.669
21
193.068
0
LINE
8
0
6
CONTINUOUS
62
7
10
159.669
20
193.068
11
159.669
21
193.667
0
LINE
8
0
6
CONTINUOUS
62
7
10
159.669
20
193.667
11
160.47
21
193.667
0
LINE
8
0
6
CONTINUOUS
62
7
10
160.47
20
193.667
11
160.47
21
206.468
0
LINE
8
0
6
CONTINUOUS
62
7
10
160.47
20
206.468
11
159.669
21
206.468
0
LINE
8
0
6
CONTINUOUS
62
7
10
159.669
20
206.468
11
159.669
21
207.067
0
LINE
8
0
6
CONTINUOUS
62
7
10
159.669
20
207.067
11
145.668
21
207.067
0
LINE
8
0
6
CONTINUOUS
62
7
10
164.72
20
207.067
11
164.72
21
206.468
0
LINE
8
0
6
CONTINUOUS
62
7
10
164.72
20
206.468
11
163.92
21
206.468
0
LINE
8
0
6
CONTINUOUS
62
7
10
163.92
20
206.468
11
163.92
21
193.667
0
LINE
8
0
6
CONTINUOUS
62
7
10
163.92
20
193.667
11
164.72
21
193.667
0
LINE
8
0
6
CONTINUOUS
62
7
10
164.72
20
193.667
11
164.72
21
193.068
0
LINE
8
0
6
CONTINUOUS
62
7
10
164.72
20
193.068
11
178.719
21
193.068
0
LINE
8
0
6
CONTINUOUS
62
7
10
178.719
20
193.068
11
178.719
21
193.667
0
LINE
8
0
6
CONTINUOUS
62
7
10
178.719
20
193.667
11
179.52
21
193.667
0
LINE
8
0
6
CONTINUOUS
62
7
10
179.52
20
193.667
11
179.52
21
206.468
0
LINE
8
0
6
CONTINUOUS
62
7
10
179.52
20
206.468
11
178.719
21
206.468
0
LINE
8
0
6
CONTINUOUS
62
7
10
178.719
20
206.468
11
178.719
21
207.067
0
LINE
8
0
6
CONTINUOUS
62
7
10
178.719
20
207.067
11
164.72
21
207.067
0
LINE
8
0
6
CONTINUOUS
62
7
10
183.77
20
207.067
11
183.77
21
206.468
0
LINE
8
0
6
CONTINUOUS
62
7
10
183.77
20
206.468
11
182.97
21
206.468
0
LINE
8
0
6
CONTINUOUS
62
7
10
182.97
20
206.468
11
182.97
21
193.667
0
LINE
8
0
6
CONTINUOUS
62
7
10
182.97
20
193.667
11
183.77
21
193.667
0
LINE
8
0
6
CONTINUOUS
62
7
10
183.77
20
193.667
11
183.77
21
193.068
0
LINE
8
0
6
CONTINUOUS
62
7
10
183.77
20
193.068
11
197.769
21
193.068
0
LINE
8
0
6
CONTINUOUS
62
7
10
197.769
20
193.068
11
197.769
21
193.667
0
LINE
8
0
6
CONTINUOUS
62
7
10
197.769
20
193.667
11
198.57
21
193.667
0
LINE
8
0
6
CONTINUOUS
62
7
10
198.57
20
193.667
11
198.57
21
206.468
0
LINE
8
0
6
CONTINUOUS
62
7
10
198.57
20
206.468
11
197.769
21
206.468
0
LINE
8
0
6
CONTINUOUS
62
7
10
197.769
20
206.468
11
197.769
21
207.067
0
LINE
8
0
6
CONTINUOUS
62
7
10
197.769
20
207.067
11
183.77
21
207.067
0
LINE
8
0
6
CONTINUOUS
62
7
10
202.82
20
207.067
11
202.82
21
206.468
0
LINE
8
0
6
CONTINUOUS
62
7
10
202.82
20
206.468
11
202.02
21
206.468
0
LINE
8
0
6
CONTINUOUS
62
7
10
202.02
20
206.468
11
202.02
21
193.667
0
LINE
8
0
6
CONTINUOUS
62
7
10
202.02
20
193.667
11
202.82
21
193.667
0
LINE
8
0
6
CONTINUOUS
62
7
10
202.82
20
193.667
11
202.82
21
193.068
0
LINE
8
0
6
CONTINUOUS
62
7
10
202.82
20
193.068
11
216.819
21
193.068
0
LINE
8
0
6
CONTINUOUS
62
7
10
216.819
20
193.068
11
216.819
21
193.667
0
LINE
8
0
6
CONTINUOUS
62
7
10
216.819
20
193.667
11
217.62
21
193.667
0
LINE
8
0
6
CONTINUOUS
62
7
10
217.62
20
193.667
11
217.62
21
206.468
0
LINE
8
0
6
CONTINUOUS
62
7
10
217.62
20
206.468
11
216.819
21
206.468
0
LINE
8
0
6
CONTINUOUS
62
7
10
216.819
20
206.468
11
216.819
21
207.067
0
LINE
8
0
6
CONTINUOUS
62
7
10
216.819
20
207.067
11
202.82
21
207.067
0
LINE
8
0
6
CONTINUOUS
62
7
10
221.87
20
207.067
11
221.87
21
206.468
0
LINE
8
0
6
CONTINUOUS
62
7
10
221.87
20
206.468
11
221.07
21
206.468
0
LINE
8
0
6
CONTINUOUS
62
7
10
221.07
20
206.468
11
221.07
21
193.667
0
LINE
8
0
6
CONTINUOUS
62
7
10
221.07
20
193.667
11
221.87
21
193.667
0
LINE
8
0
6
CONTINUOUS
62
7
10
221.87
20
193.667
11
221.87
21
193.068
0
LINE
8
0
6
CONTINUOUS
62
7
10
221.87
20
193.068
11
235.869
21
193.068
0
LINE
8
0
6
CONTINUOUS
62
7
10
235.869
20
193.068
11
235.869
21
193.667
0
LINE
8
0
6
CONTINUOUS
62
7
10
235.869
20
193.667
11
236.67
21
193.667
0
LINE
8
0
6
CONTINUOUS
62
7
10
236.67
20
193.667
11
236.67
21
206.468
0
LINE
8
0
6
CONTINUOUS
62
7
10
236.67
20
206.468
11
235.869
21
206.468
0
LINE
8
0
6
CONTINUOUS
62
7
10
235.869
20
206.468
11
235.869
21
207.067
0
LINE
8
0
6
CONTINUOUS
62
7
10
235.869
20
207.067
11
221.87
21
207.067
0
LINE
8
0
6
CONTINUOUS
62
7
10
240.92
20
207.067
11
240.92
21
206.468
0
LINE
8
0
6
CONTINUOUS
62
7
10
240.92
20
206.468
11
240.12
21
206.468
0
LINE
8
0
6
CONTINUOUS
62
7
10
240.12
20
206.468
11
240.12
21
193.667
0
LINE
8
0
6
CONTINUOUS
62
7
10
240.12
20
193.667
11
240.92
21
193.667
0
LINE
8
0
6
CONTINUOUS
62
7
10
240.92
20
193.667
11
240.92
21
193.068
0
LINE
8
0
6
CONTINUOUS
62
7
10
240.92
20
193.068
11
254.919
21
193.068
0
LINE
8
0
6
CONTINUOUS
62
7
10
254.919
20
193.068
11
254.919
21
193.667
0
LINE
8
0
6
CONTINUOUS
62
7
10
254.919
20
193.667
11
255.72
21
193.667
0
LINE
8
0
6
CONTINUOUS
62
7
10
255.72
20
193.667
11
255.72
21
206.468
0
LINE
8
0
6
CONTINUOUS
62
7
10
255.72
20
206.468
11
254.919
21
206.468
0
LINE
8
0
6
CONTINUOUS
62
7
10
254.919
20
206.468
11
254.919
21
207.067
0
LINE
8
0
6
CONTINUOUS
62
7
10
254.919
20
207.067
11
240.92
21
207.067
0
LINE
8
0
6
CONTINUOUS
62
7
10
259.97
20
207.067
11
259.97
21
206.468
0
LINE
8
0
6
CONTINUOUS
62
7
10
259.97
20
206.468
11
259.17
21
206.468
0
LINE
8
0
6
CONTINUOUS
62
7
10
259.17
20
206.468
11
259.17
21
193.667
0
LINE
8
0
6
CONTINUOUS
62
7
10
259.17
20
193.667
11
259.97
21
193.667
0
LINE
8
0
6
CONTINUOUS
62
7
10
259.97
20
193.667
11
259.97
21
193.068
0
LINE
8
0
6
CONTINUOUS
62
7
10
259.97
20
193.068
11
273.969
21
193.068
0
LINE
8
0
6
CONTINUOUS
62
7
10
273.969
20
193.068
11
273.969
21
193.667
0
LINE
8
0
6
CONTINUOUS
62
7
10
273.969
20
193.667
11
274.77
21
193.667
0
LINE
8
0
6
CONTINUOUS
62
7
10
274.77
20
193.667
11
274.77
21
206.468
0
LINE
8
0
6
CONTINUOUS
62
7
10
274.77
20
206.468
11
273.969
21
206.468
0
LINE
8
0
6
CONTINUOUS
62
7
10
273.969
20
206.468
11
273.969
21
207.067
0
LINE
8
0
6
CONTINUOUS
62
7
10
273.969
20
207.067
11
259.97
21
207.067
0
LINE
8
0
6
CONTINUOUS
62
7
10
317.12
20
207.067
11
317.12
21
206.468
0
LINE
8
0
6
CONTINUOUS
62
7
10
317.12
20
206.468
11
316.32
21
206.468
0
LINE
8
0
6
CONTINUOUS
62
7
10
316.32
20
206.468
11
316.32
21
193.667
0
LINE
8
0
6
CONTINUOUS
62
7
10
316.32
20
193.667
11
317.12
21
193.667
0
LINE
8
0
6
CONTINUOUS
62
7
10
317.12
20
193.667
11
317.12
21
193.068
0
LINE
8
0
6
CONTINUOUS
62
7
10
317.12
20
193.068
11
331.119
21
193.068
0
LINE
8
0
6
CONTINUOUS
62
7
10
331.119
20
193.068
11
331.119
21
193.667
0
LINE
8
0
6
CONTINUOUS
62
7
10
331.119
20
193.667
11
331.92
21
193.667
0
LINE
8
0
6
CONTINUOUS
62
7
10
331.92
20
193.667
11
331.92
21
206.468
0
LINE
8
0
6
CONTINUOUS
62
7
10
331.92
20
206.468
11
331.119
21
206.468
0
LINE
8
0
6
CONTINUOUS
62
7
10
331.119
20
206.468
11
331.119
21
207.067
0
LINE
8
0
6
CONTINUOUS
62
7
10
331.119
20
207.067
11
317.12
21
207.067
0
LINE
8
0
6
CONTINUOUS
62
7
10
336.17
20
207.067
11
336.17
21
206.468
0
LINE
8
0
6
CONTINUOUS
62
7
10
336.17
20
206.468
11
335.37
21
206.468
0
LINE
8
0
6
CONTINUOUS
62
7
10
335.37
20
206.468
11
335.37
21
193.667
0
LINE
8
0
6
CONTINUOUS
62
7
10
335.37
20
193.667
11
336.17
21
193.667
0
LINE
8
0
6
CONTINUOUS
62
7
10
336.17
20
193.667
11
336.17
21
193.068
0
LINE
8
0
6
CONTINUOUS
62
7
10
336.17
20
193.068
11
350.169
21
193.068
0
LINE
8
0
6
CONTINUOUS
62
7
10
350.169
20
193.068
11
350.169
21
193.667
0
LINE
8
0
6
CONTINUOUS
62
7
10
350.169
20
193.667
11
350.97
21
193.667
0
LINE
8
0
6
CONTINUOUS
62
7
10
350.97
20
193.667
11
350.97
21
206.468
0
LINE
8
0
6
CONTINUOUS
62
7
10
350.97
20
206.468
11
350.169
21
206.468
0
LINE
8
0
6
CONTINUOUS
62
7
10
350.169
20
206.468
11
350.169
21
207.067
0
LINE
8
0
6
CONTINUOUS
62
7
10
350.169
20
207.067
11
336.17
21
207.067
0
LINE
8
0
6
CONTINUOUS
62
7
10
355.22
20
207.067
11
355.22
21
206.468
0
LINE
8
0
6
CONTINUOUS
62
7
10
355.22
20
206.468
11
354.42
21
206.468
0
LINE
8
0
6
CONTINUOUS
62
7
10
354.42
20
206.468
11
354.42
21
193.667
0
LINE
8
0
6
CONTINUOUS
62
7
10
354.42
20
193.667
11
355.22
21
193.667
0
LINE
8
0
6
CONTINUOUS
62
7
10
355.22
20
193.667
11
355.22
21
193.068
0
LINE
8
0
6
CONTINUOUS
62
7
10
355.22
20
193.068
11
369.219
21
193.068
0
LINE
8
0
6
CONTINUOUS
62
7
10
369.219
20
193.068
11
369.219
21
193.667
0
LINE
8
0
6
CONTINUOUS
62
7
10
369.219
20
193.667
11
370.02
21
193.667
0
LINE
8
0
6
CONTINUOUS
62
7
10
370.02
20
193.667
11
370.02
21
206.468
0
LINE
8
0
6
CONTINUOUS
62
7
10
370.02
20
206.468
11
369.219
21
206.468
0
LINE
8
0
6
CONTINUOUS
62
7
10
369.219
20
206.468
11
369.219
21
207.067
0
LINE
8
0
6
CONTINUOUS
62
7
10
369.219
20
207.067
11
355.22
21
207.067
0
LINE
8
0
6
CONTINUOUS
62
7
10
374.27
20
207.067
11
374.27
21
206.468
0
LINE
8
0
6
CONTINUOUS
62
7
10
374.27
20
206.468
11
373.47
21
206.468
0
LINE
8
0
6
CONTINUOUS
62
7
10
373.47
20
206.468
11
373.47
21
193.667
0
LINE
8
0
6
CONTINUOUS
62
7
10
373.47
20
193.667
11
374.27
21
193.667
0
LINE
8
0
6
CONTINUOUS
62
7
10
374.27
20
193.667
11
374.27
21
193.068
0
LINE
8
0
6
CONTINUOUS
62
7
10
374.27
20
193.068
11
388.269
21
193.068
0
LINE
8
0
6
CONTINUOUS
62
7
10
388.269
20
193.068
11
388.269
21
193.667
0
LINE
8
0
6
CONTINUOUS
62
7
10
388.269
20
193.667
11
389.07
21
193.667
0
LINE
8
0
6
CONTINUOUS
62
7
10
389.07
20
193.667
11
389.07
21
206.468
0
LINE
8
0
6
CONTINUOUS
62
7
10
389.07
20
206.468
11
388.269
21
206.468
0
LINE
8
0
6
CONTINUOUS
62
7
10
388.269
20
206.468
11
388.269
21
207.067
0
LINE
8
0
6
CONTINUOUS
62
7
10
388.269
20
207.067
11
374.27
21
207.067
0
ENDSEC
0
EOF
